<?xml version="1.0" encoding="UTF-8"?><svg id="Layer_2" xmlns="http://www.w3.org/2000/svg" viewBox="0 0 320.93 89.72"><defs><style>.cls-1{fill:#1d1d1b;stroke-width:0px;}</style></defs><g id="Layer_1-2"><path class="cls-1" d="M65.09,33.63c.47,3.72.89,7.45,1.23,11.19.29,3.17.63,6.37.41,9.55-.24,3.36-1.23,6.56-3.48,9.13-1.98,2.26-4.52,4.05-7.16,5.45-5.13,2.73-11.08,3.95-16.87,3.33-2.98-.32-5.93-1.15-8.6-2.52-1.27-.65-2.5-1.41-3.48-2.45-1.34-1.43-1.86-3.31-2.32-5.16-1.99-7.87-3.45-15.88-4.45-23.94-.07-.6-1.03-.61-.96,0,.96,7.75,2.34,15.44,4.19,23.03.79,3.23,1.63,6.1,4.46,8.12,2.5,1.78,5.61,2.89,8.6,3.49,5.85,1.17,12.01.41,17.49-1.92,5.64-2.4,11.35-6.56,12.94-12.77.91-3.55.69-7.28.39-10.9-.38-4.55-.87-9.09-1.45-13.63-.08-.6-1.03-.61-.96,0h0Z"/><path class="cls-1" d="M56.47,59.74c-2.23,1.47-5.4.98-7.09-1.07-.39-.47-1.06.2-.68.68,1.95,2.37,5.7,2.91,8.25,1.22.51-.34.03-1.17-.48-.83h0Z"/><path class="cls-1" d="M63.32,48.45c-1.57-1.47-4.04-1.76-5.89-.67-.53.31-.05,1.14.48.83,1.48-.87,3.48-.65,4.74.52.45.42,1.13-.25.68-.68h0Z"/><path class="cls-1" d="M48.84,48.68c-1.99-1.16-4.73-.75-6.27.98-.41.46.27,1.14.68.68,1.26-1.41,3.47-1.78,5.11-.83.53.31,1.01-.52.48-.83h0Z"/><path class="cls-1" d="M37.06,29.86c1.18,4.82-3.46,8.31-7.15,10.3-3.47,1.87-6.99,3.56-9.26,6.94-2.13,3.17-2.97,7.02-3.47,10.75-.63,4.69-.95,9.43-1.39,14.13-.06.61.9.61.96,0,.46-4.87.75-9.8,1.47-14.64.6-4.06,1.69-8.32,4.57-11.4,3.05-3.26,7.54-4.39,11-7.07,2.82-2.18,5.1-5.58,4.2-9.27-.15-.6-1.07-.34-.92.25h0Z"/><path class="cls-1" d="M34,29.38c.6,4.83-5.2,6.73-8.39,8.9s-5.76,4.73-7.94,7.73c-4.68,6.43-6.78,14.46-5.86,22.36.54,4.56,2.03,8.96,4.39,12.9.13.21.44.32.65.17.65-.44,1.3-.87,1.96-1.31.51-.34.03-1.17-.48-.83-.65.44-1.3.87-1.96,1.31l.65.17c-4.4-7.36-5.68-16.43-3.28-24.69,2.16-7.41,7.18-13.95,13.8-17.93,3.28-1.97,7.99-4.18,7.42-8.8-.08-.6-1.03-.61-.96,0h0Z"/><path class="cls-1" d="M30.88,30.97c-.2,3.21-3.03,5.18-5.58,6.62-2.39,1.35-4.71,2.63-6.47,4.8-1.64,2.02-2.76,4.39-3.77,6.77-1.19,2.8-2.37,5.62-3.3,8.52-1.62,5.04-2.43,10.51-.72,15.63.73,2.17,1.85,4.23,3.4,5.92,1.34,1.46,3.35,3.07,5.37,3.4,2.5.41,3.67-3.21,4.31-5.03,1-2.88,1.22-5.95.76-8.95-.09-.61-1.01-.35-.92.25.41,2.7.21,5.45-.63,8.05-.39,1.23-.93,2.41-1.59,3.51-.47.77-1.04,1.42-2.02,1.16-.62-.16-1.23-.49-1.79-.8-3.83-2.17-6.02-6.46-6.69-10.69-.85-5.33.78-10.74,2.67-15.66,1.76-4.57,3.52-10,7.39-13.26s10.17-4.46,10.53-10.24c.04-.61-.92-.61-.96,0h0Z"/><path class="cls-1" d="M30.13,30.63c-2.46.79-3.15,3.7-5.29,4.99-1.2.72-2.54,1.16-3.79,1.78-1.18.59-2.29,1.31-3.32,2.14-4.16,3.33-6.87,8.28-8.23,13.38-1.76,6.59-1.42,13.52-.91,20.26.2,2.65.08,5.99,2.29,7.9,1.86,1.61,4.15,1.02,5.7-.69,4.1-4.54,4.54-11.76,2.11-17.16-.25-.56-1.08-.07-.83.48,2.15,4.76,1.76,10.54-1.13,14.91-.73,1.1-1.79,2.41-3.22,2.5-1.7.1-2.88-1.5-3.33-2.94-.41-1.3-.44-2.69-.55-4.04-.12-1.6-.24-3.19-.33-4.79-.55-10.13.38-21.75,8.7-28.78,1.04-.88,2.18-1.64,3.39-2.25s2.58-1.07,3.79-1.76c.95-.54,1.72-1.24,2.38-2.12.82-1.09,1.48-2.43,2.86-2.88.58-.19.33-1.11-.25-.92h0Z"/><path class="cls-1" d="M26.97,27.14c-1.14,3.44-4.72,5.06-7.6,6.81s-5.52,4.2-7.57,7.04c-4.64,6.42-6.42,14.36-6.77,22.15-.24,5.33.14,10.66.51,15.97.04.61,1,.61.96,0-.64-8.96-1.32-18.22,1.12-26.99,2.07-7.42,6.3-13.82,12.98-17.8,2.93-1.74,6.16-3.51,7.29-6.94.19-.59-.73-.84-.92-.25h0Z"/><path class="cls-1" d="M21.02,27.23c-5.48,2.91-8.5,8.57-10.24,14.31-2.23,7.33-3.06,15.24-3.25,22.88-.12,4.79.11,9.59.65,14.35.07.6,1.03.61.96,0-1.16-10.2-.84-20.55,1.05-30.64,1.42-7.57,4.01-16.2,11.3-20.07.54-.29.06-1.11-.48-.83h0Z"/><path class="cls-1" d="M13.54,27.26c-9.04,10.43-8.11,26.07-7.43,38.94.25,4.74.65,9.47,1.2,14.19.07.6,1.03.61.96,0-1.12-9.63-1.8-19.44-1.43-29.14.32-8.24,1.82-16.9,7.38-23.32.4-.46-.27-1.14-.68-.68h0Z"/><path class="cls-1" d="M6.27,33.28C1.97,40.83-.19,49.5.01,58.19c.1,4.29.77,8.59,2.04,12.69,1.01,3.26,2.64,7.16,6.11,8.44,2.83,1.05,6.88-.29,7.35-3.58.08-.6-.84-.86-.92-.25-.45,3.23-4.66,3.96-7.07,2.45-3.15-1.98-4.31-6.13-5.17-9.53-1.86-7.36-1.85-15.18-.06-22.55,1.03-4.24,2.65-8.31,4.81-12.1.3-.54-.52-1.02-.83-.48h0Z"/><path class="cls-1" d="M18.97,52.43l.63-2.25-.94-.13c.59,7.78,2.06,15.47,4.39,22.92.18.58,1.11.34.92-.25-2.31-7.37-3.78-14.96-4.36-22.66-.04-.52-.79-.67-.94-.13l-.63,2.25c-.17.59.75.85.92.25h0Z"/><path class="cls-1" d="M15.17,55.11c-.44,4.73-.86,9.55,0,14.26.6,3.29,2.06,8.8,6.12,9.19.61.06.61-.9,0-.96-2.11-.2-3.25-2.41-3.96-4.16-.8-1.96-1.27-4.05-1.5-6.15-.44-4.05-.08-8.14.3-12.18.06-.61-.9-.61-.96,0h0Z"/><path class="cls-1" d="M19.6,50.68c-.07,4.19.23,8.37.91,12.51.49,3.02,1.54,6.88,5.22,7.14.61.04.61-.91,0-.96-3.68-.26-4.13-5.13-4.52-7.91-.5-3.57-.71-7.18-.65-10.79,0-.62-.95-.62-.96,0h0Z"/><path class="cls-1" d="M57.41,30.15c2.44.62,5.98,1.08,7.14-1.84s-1.1-6.07-3.02-8.04c-2.42-2.47-5.56-4.11-8.95-4.74-4.21-.79-8.55-1.06-12.8-1.55-3.08-.36-7.24-1.08-9.25,1.95-.34.51.49.99.83.48,2-3.02,7.22-1.61,10.14-1.27,2.21.26,4.41.51,6.62.77s4.24.42,6.27,1.06c3.47,1.09,6.79,3.53,8.59,6.73.83,1.47,1.5,3.72.16,5.11s-3.78.86-5.46.43c-.6-.15-.85.77-.25.92h0Z"/><path class="cls-1" d="M51.58,29.5c2.52-.67,8.08,1.68,8.78-2.48.57-3.35-3.1-6.22-5.68-7.57-3.57-1.86-7.69-2.91-11.66-3.43-4.26-.56-8.59-.3-12.68,1.08-.58.2-.33,1.12.25.92,6.93-2.34,14.6-1.34,21.32,1.24,2.83,1.09,6.2,2.89,7.28,5.95.38,1.08.35,2.36-.74,3.02-.7.42-1.58.49-2.38.45-1.64-.07-3.14-.53-4.77-.1-.59.16-.34,1.08.25.92h0Z"/><path class="cls-1" d="M52.68,26.41c2.42-.21,3.09-3.03,1.99-4.89-1.5-2.53-4.99-4.1-7.65-5.03-6-2.11-12.77-1.29-17.75,2.79-1.28,1.05-2.39,2.29-3.28,3.69-.49.77-1.51,2.13-.45,2.87.14.09.34.08.48,0l.13-.08c.53-.31.05-1.14-.48-.83.66-.4.92-1.16,1.34-1.79s.91-1.23,1.43-1.79c1-1.06,2.14-1.97,3.38-2.72,2.53-1.52,5.42-2.31,8.37-2.34,3.16-.03,6.31.78,9.12,2.22,1.37.7,2.83,1.54,3.89,2.68s1.83,4.06-.53,4.27c-.61.05-.61,1.01,0,.96h0Z"/><path class="cls-1" d="M49.01,24.76c-5.11-3.77-10.95-6.45-17.14-7.87-.6-.14-.85.78-.25.92,6.11,1.41,11.86,4.06,16.91,7.78.5.37.97-.46.48-.83h0Z"/><path class="cls-1" d="M49.11,26.11c-9.63,1.07-20.44-.2-26.94-8.21-.39-.48-1.06.2-.68.68,6.64,8.19,17.75,9.59,27.61,8.49.6-.07.61-1.02,0-.96h0Z"/><path class="cls-1" d="M40.59,22.6c-5.05-.07-9.91-2.28-13.29-6.02-.41-.46-1.09.22-.68.68,3.55,3.92,8.68,6.23,13.97,6.3.62,0,.62-.95,0-.96h0Z"/><path class="cls-1" d="M46.12,28.3c-4.9.77-9.94.34-14.65-1.2-2.29-.75-4.49-1.76-6.55-3.01-1.1-.67-2.15-1.4-3.16-2.2-.45-.36-.91-.72-1.33-1.13-.21-.21-.46-.44-.61-.71-.25-.29-.32-.58-.2-.89.05-.37.33-.52.85-.46.53.31,1.01-.52.48-.83-.88-.51-1.89-.02-2.23.92-.36,1.01.35,1.97,1.04,2.64,2.26,2.2,5.15,3.94,8.01,5.24,5.82,2.64,12.29,3.54,18.6,2.55.61-.1.35-1.02-.25-.92h0Z"/><path class="cls-1" d="M28.13,26.2c-3.44-.2-7.02-.92-10.17-2.37-1.17-.54-2.11-1.39-1.9-2.77.16-1.04.92-2.11,2.02-2.25.6-.08.61-1.03,0-.96-2.82.36-4.08,4.23-1.82,6.07.69.56,1.52.89,2.34,1.2,1.01.39,2.04.73,3.09,1.01,2.1.56,4.26.9,6.43,1.02.61.04.61-.92,0-.96h0Z"/><path class="cls-1" d="M29.75,15.41c-3.53,0-7.24,1.19-9.89,3.58-1.17,1.05-2.09,2.43-2.3,4.01-.2,1.47.2,3,1.29,4.04.44.43,1.12-.25.68-.68-.97-.94-1.25-2.35-.95-3.64.32-1.39,1.28-2.53,2.38-3.41,2.45-1.97,5.68-2.95,8.8-2.95.61,0,.62-.96,0-.96h0Z"/><path class="cls-1" d="M31.12,15c-1.1-1.69-2.91-2.78-4.91-2.99-.21-.02-.4.17-.46.35-.54,1.65-1.37,3.21-2.46,4.56-.38.48.29,1.16.68.68,1.19-1.49,2.11-3.17,2.7-4.99l-.46.35c1.65.17,3.18,1.13,4.09,2.52.33.51,1.16.04.83-.48h0Z"/><path class="cls-1" d="M25.59,12.09c-4.63-2.37-9.27.98-11.89,4.7-3.17,4.51-5.28,9.84-6.41,15.21-.13.6.8.86.92.25,1.01-4.83,2.83-9.46,5.44-13.66,2.31-3.71,6.69-8.12,11.46-5.69.55.28,1.03-.54.48-.83h0Z"/><path class="cls-1" d="M23.9,14.78c-4.06-1.36-7.93,1.68-10.35,4.65-2.78,3.43-4.69,7.51-5.56,11.84-.12.6.8.86.92.25.79-3.97,2.46-7.72,4.93-10.93,2.22-2.89,5.85-6.22,9.8-4.9.58.2.84-.73.25-.92h0Z"/><path class="cls-1" d="M13.92,23.61l-2.38,7.24c-.19.59.73.84.92.25.79-2.41,1.58-4.83,2.38-7.24.19-.59-.73-.84-.92-.25h0Z"/><path class="cls-1" d="M63.06,31.12c.25.94.98,1.69,1.9,1.99.24.08.53-.09.59-.33.06-.26-.08-.51-.33-.59-.05-.01-.09-.03-.14-.05-.03-.01-.11-.05.02.01-.02-.01-.04-.02-.07-.03-.08-.04-.17-.09-.24-.14-.04-.03-.08-.05-.12-.08-.02-.01-.03-.02-.05-.04.12.08.05.04.02.01-.07-.06-.15-.13-.21-.2-.03-.04-.07-.07-.1-.11-.01-.02-.03-.03-.04-.05-.03-.04.08.1.02.02-.06-.07-.11-.15-.15-.23-.02-.04-.05-.08-.07-.13-.01-.02-.02-.04-.03-.07-.04-.08.04.11.01.03s-.07-.18-.09-.28c-.06-.24-.34-.41-.59-.33s-.4.33-.33.59h0Z"/><path class="cls-1" d="M63.66,29.84c3.34,1.52,3.14,5.75,2.89,8.81-.05.61.91.61.96,0,.16-1.98.33-4.07-.32-5.99-.52-1.54-1.53-2.96-3.04-3.65-.56-.25-1.04.57-.48.83h0Z"/><path class="cls-1" d="M63.73,28.71c3.63,3.01,5.49,7.9,4.68,12.56-.1.6.82.86.92.25.87-4.98-1.02-10.25-4.92-13.49-.47-.39-1.15.28-.68.68h0Z"/><path class="cls-1" d="M67.05,37.96c.98,3.9,1.37,7.91,1.16,11.92-.03.61.92.61.96,0,.2-4.1-.2-8.2-1.2-12.18-.15-.6-1.07-.34-.92.25h0Z"/><path class="cls-1" d="M68.6,51.63c1.05,2.94,1.72,5.99,1.98,9.1.05.61,1.01.61.96,0-.27-3.19-.94-6.33-2.02-9.35-.2-.58-1.13-.33-.92.25h0Z"/><path class="cls-1" d="M70.75,60.03c.54,3.29,1.44,6.51,2.65,9.62.57,1.46,1.2,2.9,1.88,4.32.35.71.7,1.42,1.08,2.12.09.16,1.04,2.08.97,2.08-.61.02-.62.98,0,.96,1.2-.04.97-1.44.59-2.18-.94-1.81-1.91-3.59-2.73-5.47-1.64-3.74-2.85-7.67-3.51-11.71-.1-.61-1.02-.35-.92.25h0Z"/><path class="cls-1" d="M68.79,50.95c-1.02,5.9-.62,11.99,1.2,17.7.65,2.05,4.99,14.14,8.42,10.49.42-.45-.25-1.12-.68-.68-1.64,1.75-4.4-4.22-4.95-5.36-1.1-2.27-1.94-4.66-2.54-7.11-1.19-4.84-1.37-9.88-.52-14.79.1-.6-.82-.86-.92-.25h0Z"/><path class="cls-1" d="M68.23,56.98c-1.26,4.97-1.79,10.41-.92,15.49.34,1.96,1.22,3.96,3.1,4.87,1.09.53,3.64.82,3.67-.99,0-.62-.95-.62-.96,0-.01,1.02-2.25.18-2.61-.05-.71-.44-1.24-1.09-1.6-1.84-.82-1.68-.89-3.71-.97-5.54-.17-3.94.25-7.87,1.22-11.7.15-.6-.77-.85-.92-.25h0Z"/><path class="cls-1" d="M64.94,62.54c-.97,3.36-2.07,7.18-.72,10.59,1,2.54,3.27,4.71,6.13,4.68.61,0,.62-.96,0-.96-2.64.03-4.68-2.18-5.42-4.57-.96-3.12.06-6.48.93-9.49.17-.59-.75-.84-.92-.25h0Z"/><path class="cls-1" d="M58.47,68.72c.13,2.65,1.11,5.42,3.35,7,2.04,1.44,5,1.55,6.93-.12.47-.4-.21-1.08-.68-.68-1.64,1.42-4.23,1.15-5.89-.11-1.86-1.42-2.65-3.84-2.76-6.09-.03-.61-.98-.62-.96,0h0Z"/><path class="cls-1" d="M318.61,45.54c-1.12,8.66-2.24,17.31-3.36,25.97-.26,2.03-.43,4.21-1.43,6.03s-2.68,2.87-4.37,3.84c-3.53,2.03-7.27,3.69-11.13,4.96s-8.18,2.45-12.38,2.1c-3.62-.3-6.95-1.87-9.87-3.98s-5.43-4.72-7.82-7.39c-1.22-1.36-2.51-2.72-3.56-4.23-1.29-1.85-1.71-3.8-1.52-6.03.39-4.72,1.58-9.5,2.63-14.11,1.06-4.69,2.3-9.34,3.68-13.95.23-.77-.97-1.1-1.2-.33-2.65,8.84-4.94,17.94-6.2,27.1-.27,1.95-.35,3.96.38,5.82.68,1.72,1.89,3.14,3.09,4.52,2.52,2.91,5.1,5.8,8.07,8.25,2.75,2.27,5.85,4.19,9.34,5.07,4.12,1.04,8.36.41,12.4-.67s8.26-2.69,12.12-4.66c3.28-1.67,6.8-3.5,8.07-7.2.77-2.25.9-4.76,1.2-7.11l1.01-7.84c.7-5.39,1.4-10.78,2.09-16.17.1-.79-1.14-.78-1.24,0h0Z"/><path class="cls-1" d="M287.85,31.29c1.25.5,2.57-.44,2.98-1.62.47-1.33-.41-2.69-1.58-3.28s-2.75-.58-3.84.27-1.33,2.32-.43,3.38,2.47.81,3.12-.39c.74-1.39-.05-2.85-.97-3.91s-2.38-1.65-3.59-.66c-1.04.85-1.38,2.34-1.15,3.62.27,1.43,1.48,2.33,2.93,2.11s2.38-1.47,2.57-2.87c.39-2.96-2.13-5.63-5.03-5.76-1.4-.06-3.1.45-3.97,1.6-1,1.31.03,2.6,1.37,3.01,2.76.85,6.4-.39,6.61-3.65.1-1.53-.91-2.7-2.16-3.43-1.16-.67-2.85-1.33-3.55.29-.55,1.27.09,2.76,1.11,3.59,1.12.91,2.62,1.04,3.89.38.61-.32,1.11-.82,1.46-1.42.42-.72-.7-1.38-1.12-.65-.92,1.6-3.24,1.58-4.05-.12-.26-.55-.37-1.8.58-1.46.81.29,1.78.84,2.25,1.58s.34,1.66-.09,2.39c-.47.78-1.28,1.23-2.16,1.4s-1.89.11-2.68-.24c-.31-.14-.67-.36-.52-.75s.68-.66,1.04-.83c1.68-.82,3.73-.35,4.9,1.1.94,1.17,1.52,3.85-.35,4.5s-2.15-2.1-1.25-3.18c.62-.75,1.38-.37,1.94.24s1.26,1.52.93,2.36-1.27.52-1.32-.32c-.06-.94,1.2-1.35,1.94-1.31.83.04,1.86.58,2.01,1.49.13.79-.69,1.6-1.46,1.29s-1.11.95-.34,1.25h0Z"/><path class="cls-1" d="M285.95,16.5c-1.32.39-2.18,1.81-2.02,3.16.09.76.46,1.41,1.08,1.86.53.39,1.24.57,1.89.53.77-.05,1.55-.36,2.04-.97.21-.26.28-.66,0-.92-.23-.22-.69-.28-.92,0-.08.1-.16.18-.25.27-.12.11.09-.06-.04.03-.06.04-.12.08-.18.11-.03.01-.05.03-.08.04-.03.02-.09.07-.02.01s.01,0-.02,0c-.03.01-.07.02-.1.04-.12.04-.24.06-.36.09-.09.02.17-.01.02,0-.03,0-.06,0-.09,0-.06,0-.12,0-.17,0s-.12,0-.17,0c0,0-.09,0-.09,0,.09.01.11.02.06,0-.02,0-.04,0-.06-.01-.11-.02-.23-.05-.34-.09-.03,0-.05-.02-.08-.03-.12-.04.03.02.03.02-.03.01-.16-.08-.19-.1-.05-.03-.1-.06-.15-.09,0,0-.07-.04-.07-.05,0,.02.1.08.03.02-.05-.04-.1-.09-.14-.13-.02-.02-.04-.04-.06-.06-.07-.08-.04-.01,0,.01-.09-.05-.14-.23-.19-.32-.04-.07.04.12.01.04,0-.03-.03-.07-.04-.1-.02-.06-.04-.12-.05-.18,0-.02-.03-.21-.02-.1s0-.09,0-.13c0-.06,0-.11,0-.17,0-.03,0-.06,0-.09v-.04c.01-.07,0-.06,0,.04.02,0,.06-.3.07-.34.02-.06.03-.11.05-.16,0,0,.02-.07.03-.08-.04.08-.04.1-.02.06,0-.02.02-.04.03-.06.06-.12.13-.24.21-.35.02-.03.08-.08.01-.02-.08.07.03-.03.05-.05.04-.05.09-.09.13-.14.02-.02.04-.04.06-.06.11-.1,0-.03,0,0,0-.02.16-.1.18-.12.03-.02.17-.11.19-.1,0,0-.16.05-.04.02.04-.01.08-.03.12-.04.32-.1.56-.46.45-.8s-.45-.56-.8-.45h0Z"/><path class="cls-1" d="M286.85,15.43c-3.15-.04-5.82,1.79-8.13,3.74-.97.82-2.69,1.97-2.22,3.48.41,1.32,2.03,1.29,3.12,1.07.82-.17.47-1.42-.34-1.25-.53.11-2.02.23-1.4-.72.3-.46.8-.82,1.21-1.18.47-.41.95-.81,1.44-1.19,1.83-1.43,3.94-2.67,6.33-2.64.83,0,.83-1.29,0-1.3h0Z"/><path class="cls-1" d="M284.27,17.12c-.74-.13-1.44.1-1.96.65-.49.51-.79,1.25-.71,1.96.17,1.53,1.55,2.59,2.98,2.87,1.01.19,2.01.09,3.02-.02.35-.04.65-.27.65-.65,0-.32-.3-.69-.65-.65-.86.1-1.77.23-2.63.08-.66-.12-1.23-.37-1.67-.86-.18-.2-.31-.43-.38-.68s-.05-.46.04-.72c-.02.06.05-.11.07-.14.04-.07.08-.15.13-.21-.04.06.09-.09.08-.09.05-.05.1-.1.16-.14-.05.04.13-.07.16-.09.11-.05-.03,0,.1-.03,0,0,.2-.03.09-.02.03,0,.25.01.17,0,.34.06.7-.09.8-.45.09-.31-.11-.74-.45-.8h0Z"/><path class="cls-1" d="M288.78,18.61c-1.66.67-2.33,2.67-1.57,4.27.83,1.73,3,2.38,4.76,1.91,1.1-.29,2.08-.96,2.85-1.77.58-.6-.34-1.52-.92-.92-1.21,1.27-3.12,2.12-4.75,1.07-.63-.41-1-1.07-.97-1.8.03-.59.36-1.28.94-1.51.32-.13.55-.43.45-.8-.08-.31-.47-.58-.8-.45h0Z"/><path class="cls-1" d="M294.06,19.71c-1.03-.26-2.05.23-2.68,1.05-.68.88-.81,2.03-.91,3.1-.08.88-.1,1.87.38,2.65.56.92,1.65,1.24,2.67.97,1.19-.31,1.95-1.31,2.64-2.25.21-.28.05-.72-.23-.89-.33-.19-.68-.05-.89.23-.5.69-1.1,1.54-2,1.69-.81.13-1.24-.45-1.3-1.19-.07-.9.03-1.93.3-2.79.22-.69.85-1.53,1.68-1.32s1.15-1.05.34-1.25h0Z"/><path class="cls-1" d="M295.08,23.17c-1.24.9-1.61,2.57-.99,3.95s2.18,1.9,3.56,1.55c.78-.2,1.48-.7,1.89-1.4.17-.29.08-.72-.23-.89s-.7-.08-.89.23c-.03.05-.07.11-.1.16-.06.1,0,0,.02-.02-.02.02-.04.05-.06.07-.09.11-.19.2-.3.29.11-.09-.01,0-.06.03-.05.03-.11.07-.16.1s-.11.06-.17.08c-.03.02-.11.03.03-.01-.04.01-.07.03-.11.04-.12.04-.24.07-.36.1-.03,0-.06,0-.09.02-.09.02.12,0,.03,0-.07,0-.14.01-.21.02-.13,0-.25,0-.37-.01s.03,0,.03,0c-.01,0-.07-.01-.09-.02-.08-.02-.15-.03-.23-.06-.06-.02-.12-.04-.18-.06-.04-.01-.09-.06.03.01-.03-.01-.06-.03-.08-.04-.06-.03-.11-.06-.16-.09-.03-.02-.05-.03-.08-.05-.02-.01-.12-.1-.05-.03s-.06-.06-.08-.07c-.05-.04-.09-.09-.13-.14-.02-.02-.04-.05-.06-.07.09.1.04.05.02.02-.04-.07-.09-.13-.12-.2-.03-.05-.06-.11-.08-.17.07.13,0,0-.02-.06-.04-.13-.07-.26-.1-.39-.03-.16,0,.1,0-.06,0-.06,0-.13-.01-.19s0-.13,0-.19c0-.03,0-.06,0-.09,0-.09,0-.07,0,0,0-.14.06-.3.1-.44.02-.05.09-.23.03-.09.03-.07.07-.14.1-.21.03-.06.07-.12.11-.18.02-.03.04-.05.05-.08.04-.06-.08.09,0,0,.05-.06.1-.12.16-.17.02-.02.05-.04.07-.06.1-.09-.1.07.02-.02.27-.2.44-.57.23-.89-.17-.27-.59-.45-.89-.23h0Z"/><path class="cls-1" d="M299.06,25.25c-1.69,1.34-1.51,4.07.4,5.11.9.49,2.11.59,2.97-.03.75-.54,1.14-1.63.38-2.35-.37-.35-.95-.52-1.42-.69-.7-.26-1.42-.47-2.15-.62-1.28-.26-2.59-.38-3.89-.31-1.79.09-4.36.64-4.62,2.81-.28,2.35,2.38,3.95,4.38,4.29,2.2.37,4.47-.18,6.43-1.19.91-.47,1.96-1.06,2.36-2.05s0-2.09-.74-2.79c-.86-.8-2.04-1-3.18-1.04s-2.13,0-2.58,1.15c-.83,2.11.47,4.71,2.49,5.57,2.13.9,4.76-.16,5.75-2.23.36-.75-.76-1.41-1.12-.65-.59,1.22-1.86,2-3.23,1.91s-2.4-1.16-2.73-2.43c-.12-.45-.26-1.54.16-1.91.24-.21.76-.11,1.04-.1.46.01.93.03,1.39.14.68.16,1.41.56,1.6,1.3.21.82-.62,1.33-1.22,1.69-2.36,1.4-5.72,2.23-8.18.59-.61-.4-1.27-1.03-1.34-1.8-.06-.7.47-1.18,1.04-1.46,1.35-.66,3.1-.57,4.55-.42,1.02.1,2.02.33,2.99.66.24.08,1.21.31,1.31.53.16.38-.62.56-.84.56-1.88.06-2.44-2.22-1.08-3.3.65-.52-.27-1.43-.92-.92h0Z"/><path class="cls-1" d="M304.68,29.55c.98,1.22,2.44,2.72,4.18,2.36,1.54-.31,2.36-1.9,2.24-3.37s-1.34-3.69-2.8-4.24-2.67.91-2.55,2.29c.24,2.75,5.21,7.02,7.47,3.98,2.5-3.38-2.55-7.58-5.13-9.06-1.47-.84-3.36-1.29-4.72.01-1.12,1.07-1.35,2.77-1.41,4.24s.19,2.94,1.8,3.4c1.52.43,2.93-.33,3.84-1.54,1.05-1.39,2.1-3.64,1.95-5.42-.16-1.89-1.9-2.86-3.56-3.31-3.45-.93-7.42.65-8.25,4.37-.33,1.49-.07,3.26,1.07,4.36,1.28,1.23,2.9.59,3.86-.68,2.03-2.68,1.01-6.84-2.41-7.68-3.03-.74-5.98,2.24-4.75,5.27,1.12,2.76,5.61,2.84,6.52-.13,1.2-3.87-3.31-6.07-6.5-5.6-1.79.26-3.49,1.17-4.68,2.54-.97,1.13-1.74,3-.52,4.25s3.2.65,4.52-.19c1.56-.99,3.2-2.2,4.11-3.85.73-1.32.91-2.97.3-4.37-.71-1.63-2.35-2.26-4.05-2.21-2.95.09-8.48,2.77-6.83,6.56,1.82,4.22,6.31-.54,7.46-2.75,2.22-4.28-4.22-4.52-6.79-3.59-1.47.53-3.27,1.56-3.53,3.27s1.07,2.81,2.45,3.37c1.92.78,4.11.76,6.1.3.81-.19.47-1.44-.34-1.25-1.86.42-5.47.65-6.68-1.27-1.54-2.46,3.56-3.66,5.1-3.63.52,0,1.11.04,1.6.21.36.12,1.13.52,1.25.93.08.26-.16.77-.28,1.02-.53,1.08-1.48,2.08-2.36,2.89s-2.32,1.42-2.84-.13c-.44-1.32.72-2.57,1.71-3.27,1.64-1.16,5.4-2.42,6.72-.2,1.11,1.86-.15,3.96-1.55,5.22-.76.69-1.64,1.34-2.53,1.84-.54.31-1.12.58-1.75.52-1.27-.12-1.2-1.44-.68-2.29,1.07-1.76,3.36-2.78,5.37-2.72,1.15.04,2.38.41,3.21,1.24s1.3,2.43.41,3.43c-1.42,1.6-4.06.22-3.85-1.8.24-2.29,2.76-3.08,4.53-1.84s1.86,4.32.12,5.6c-1.61,1.18-2.32-1.07-2.31-2.22,0-1.02.42-2.03,1.07-2.81,1.45-1.74,4-2.02,6.06-1.34,1.49.49,2.53,1.38,2.14,3.07-.25,1.08-.76,2.23-1.35,3.17-.55.86-1.45,1.7-2.56,1.45-1.22-.28-1.04-1.69-.96-2.67s.28-2.39,1.21-3.01c1.23-.82,2.82.22,3.85.94,1.12.78,2.15,1.72,3.01,2.79.77.95,2.04,3.11.56,4.07-1.29.85-2.95-.76-3.78-1.69-.4-.45-.88-1-1.03-1.6l-.04-.68,1.23-.24c.29.08.63.76.77.98.66.99,1.33,2.92-.07,3.68-1.32.72-2.69-.99-3.4-1.87-.52-.65-1.43.27-.92.92h0Z"/><path class="cls-1" d="M298.49,15.81c-.13,1.36.83,2.73,2.14,3.11s2.8-.27,3.44-1.46c.17-.31.08-.71-.23-.89s-.72-.08-.89.23c-.03.05-.06.11-.09.16-.01.02-.11.15-.04.06-.07.09-.16.18-.25.26,0,0-.16.12-.06.05-.05.04-.1.07-.15.1-.1.06-.21.12-.32.17.1-.04-.05.01-.07.02-.06.02-.12.04-.17.05s-.12.03-.18.04c.09-.02.01,0-.04,0-.12,0-.24,0-.36,0-.05,0-.04,0,.02,0-.03,0-.06,0-.09-.02-.06-.01-.12-.03-.18-.04-.05-.01-.1-.03-.15-.05-.13-.05.04.03-.07-.03-.11-.06-.21-.12-.31-.19.1.07-.05-.05-.06-.05-.05-.04-.09-.08-.13-.13s-.08-.09-.12-.14c.07.09-.04-.06-.04-.07-.07-.1-.13-.21-.18-.32.05.1-.02-.05-.03-.07-.02-.06-.04-.12-.05-.18s-.03-.12-.04-.18c-.02-.12,0,.03,0-.04,0-.13,0-.27,0-.4.03-.35-.32-.65-.65-.65-.38,0-.62.3-.65.65h0Z"/><path class="cls-1" d="M300.55,12.51c-2.45.09-4.22,2.5-3.82,4.86s2.83,4.09,5.21,3.97c1.46-.07,2.81-.68,3.91-1.62.63-.55-.29-1.46-.92-.92-1.8,1.55-4.71,1.8-6.27-.21-.66-.85-.92-1.99-.5-3s1.32-1.74,2.39-1.78c.83-.03.84-1.33,0-1.3h0Z"/><path class="cls-1" d="M304.97,14.52c-1.35-1.22-3.89-.12-3.69,1.78.24,2.26,3.27,3.08,5.16,3,1.25-.06,2.48-.44,3.52-1.13.69-.46.04-1.58-.65-1.12-1.65,1.1-3.92,1.33-5.69.35-.54-.3-1.39-1.01-.94-1.65.29-.41.99-.64,1.37-.3.62.56,1.54-.36.92-.92h0Z"/><path class="cls-1" d="M310.25,15.68c-1.85-1.05-3.93-1.36-6-.92-.21.04-.4.25-.45.45-.5,2.16,1.72,3.9,3.45,4.74,1.6.78,4.12.66,4.74-1.38.46-1.51-1.23-3.34-2.76-2.53-.86.45-.51,1.79-.32,2.56.24.95.76,1.88,1.58,2.45,1.4.98,3.72.88,4.4-.91.54-1.4-.26-3.23-1.91-3.23-1.79,0-2.75,2.15-2.71,3.69.05,1.96,1.16,4.08,3.08,4.77,1.73.63,4.09-.03,4.7-1.92.57-1.78-.65-3.78-2.52-3.92-.2-.02-.47.13-.56.32-1.28,2.84.21,6.32,3.2,7.29.33.11.72-.12.8-.45.73-2.97-2.13-5.22-4.94-4.58-2.37.55-3.78,3.1-3.47,5.42.33,2.47,2.58,3.92,4.98,3.58,2.07-.29,4.95-2.63,3.57-4.99-.67-1.15-2.3-1.41-3.51-1.42-1.31,0-2.62.37-3.76,1-2.05,1.14-4.51,3.97-3.78,6.52.37,1.32,1.88,1.88,3.13,1.98,1.33.11,2.7-.31,3.76-1.11.8-.6,2.12-1.85,1.37-2.87-.8-1.09-2.15-1.77-3.5-1.8-1.69-.04-2.65,1.07-2.29,2.73.31,1.46,1.43,2.68,2.78,3.27,3,1.3,6.24-1.08,6.37-4.23.03-.83-1.26-.83-1.3,0-.1,2.48-2.81,4.13-4.99,2.82-.8-.48-2.21-2.02-1.44-2.97.86-1.08,2.88.28,3.45,1.12v-.65c-.55,1.17-1.56,1.99-2.82,2.3-.6.14-1.23.17-1.83.03-1.02-.24-1.66-.84-1.43-1.94.51-2.53,2.89-4.46,5.38-4.83,1.12-.17,3.74-.15,3.35,1.59-.25,1.12-1.28,1.85-2.34,2.1-2.48.59-4.43-1.43-3.78-3.89.33-1.25,1.26-2.32,2.57-2.55,1.8-.33,3.68,1.08,3.21,3.01l.8-.45c-2.13-.69-3.35-3.32-2.42-5.38l-.56.32c.84.07,1.37.94,1.36,1.73,0,.94-.81,1.57-1.68,1.72-2.17.38-3.65-1.83-3.64-3.79,0-.73.32-1.88,1.08-2.19.94-.38,1.38.83.97,1.53-.52.89-1.88.62-2.54.06-.9-.77-1.08-2.05-1.07-3.16l-.32.56c.36-.23.79-.03.98.34.22.42.04.82-.31,1.11-.58.5-1.4.49-2.09.26-1.23-.42-3.59-1.92-3.24-3.43l-.45.45c1.74-.37,3.46-.09,5.01.79.73.41,1.38-.71.65-1.12h0Z"/><path class="cls-1" d="M277.63,25.95c-1.63.45-2.44,2.46-1.69,3.96.81,1.6,3.06,1.71,4.33.64,1.61-1.35.99-4.04-.9-4.77-.75-.29-2.32-.37-2.76.48s-.4,2.04-.14,2.96c.54,1.93,2.12,3.74,3.91,4.63,1.62.82,4,1.01,4.83-1,.75-1.83-.15-4.56-1.82-5.6-1.45-.91-3.8-.37-4.21,1.45-.51,2.31,2.24,3.9,4.06,4.49,1.99.64,4.28.53,5.64-1.24.51-.66-.62-1.31-1.12-.65-1.07,1.4-3.2,1.04-4.62.49-.84-.33-1.68-.82-2.26-1.52-.53-.64-.69-1.59.18-2.01,1.88-.89,3.03,1.58,3.09,3.08.04.96-.37,1.8-1.42,1.83-.87.02-1.73-.39-2.43-.88-1.72-1.21-3.3-3.45-2.46-5.61l-.3.39c.95-.49,2.14.02,2.34,1.1.17.91-.43,1.65-1.32,1.79-.72.11-1.47-.25-1.59-1.02-.11-.72.28-1.53,1.01-1.73.8-.22.46-1.47-.34-1.25h0Z"/><path class="cls-1" d="M284.55,28.05c-.95,2.12.56,4.54,2.7,5.14,2.46.69,4.9-1.05,6.15-3.05.44-.71-.68-1.36-1.12-.65-.91,1.45-2.66,2.87-4.49,2.5-1.34-.27-2.76-1.87-2.13-3.28.14-.32.09-.7-.23-.89-.28-.16-.74-.09-.89.23h0Z"/><path class="cls-1" d="M287.44,30.2c-2,.53-2.23,3.23-1.04,4.64,1.65,1.94,4.74,1.28,6.75.4,1.36-.59,2.59-1.45,3.63-2.5.59-.59-.33-1.51-.92-.92-1.69,1.69-4.29,3.2-6.76,2.95-.95-.1-1.89-.58-2.1-1.57-.14-.67.03-1.55.78-1.75.81-.21.46-1.47-.34-1.25h0Z"/><path class="cls-1" d="M294.92,30.19c-.09.09-.17.19-.23.31-.09.18-.12.32-.14.51-.01.13,0,.25.03.38.01.08.03.15.06.22.1.24.22.46.42.65.18.17.4.31.65.38.09.03.18.03.28.04.04,0,.08,0,.12,0,.21-.02.36-.06.55-.15.14-.07.26-.24.3-.39.04-.16.02-.36-.07-.5s-.22-.26-.39-.3c-.18-.04-.34-.01-.5.07-.01,0-.03.01-.04.02l.15-.07c-.05.02-.1.04-.16.04l.17-.02c-.05,0-.11,0-.16,0l.17.02c-.06,0-.12-.03-.18-.05l.15.07c-.07-.03-.13-.07-.19-.11l.13.1c-.07-.06-.13-.12-.19-.19l.1.13c-.06-.08-.11-.16-.14-.24l.07.15c-.03-.08-.05-.16-.07-.24l.02.17c0-.06,0-.12,0-.19l-.02.17c0-.06.02-.11.04-.17l-.07.15s.05-.09.08-.13l-.1.13s.04-.04.06-.06c.12-.12.19-.29.19-.46s-.07-.35-.19-.46-.29-.2-.46-.19-.34.07-.46.19h0Z"/><path class="cls-1" d="M280.13,27.39c.7.63,1.76,1.05,2.69.69.43-.17.8-.45,1.01-.87s.27-.84.2-1.3-.37-.89-.79-1.09c-.16-.08-.32-.11-.5-.07-.15.04-.31.16-.39.3-.15.29-.09.73.23.89.03.01.06.03.09.05.12.08-.1-.1-.02-.02.02.02.05.05.07.07.02.02.06.07-.01-.02-.08-.1-.02-.03,0,0,.02.03.03.06.05.08.04.07-.04-.08-.04-.09,0,.01.01.03.02.05.02.07.04.14.05.22l-.02-.17c.01.11.01.22,0,.33l.02-.17c0,.06-.02.12-.04.18-.02.07-.11.26,0,.04-.03.06-.05.11-.09.16-.01.02-.03.04-.04.07-.06.09.12-.13.03-.04-.04.04-.08.08-.12.12-.08.07.15-.11.03-.02-.02.02-.05.03-.07.04-.03.02-.06.03-.09.05.1-.04.12-.05.06-.03-.02,0-.04.01-.06.02-.07.02-.15.04-.23.05l.17-.02c-.16.02-.31.02-.47,0l.17.02c-.11-.02-.23-.04-.34-.07-.05-.02-.1-.03-.15-.05-.1-.04,0,0,.04.02-.03,0-.05-.03-.08-.04-.1-.05-.2-.1-.29-.17-.05-.03-.19-.16-.04-.02-.04-.04-.09-.07-.13-.11-.25-.23-.67-.27-.92,0-.23.25-.27.67,0,.92h0Z"/><path class="cls-1" d="M278.57,23.8c-1.2.19-2.45.45-3.38,1.29-.78.71-1.1,1.88-.76,2.89.4,1.2,1.61,1.75,2.77,1.23s1.87-1.79,2.11-2.97.08-2.47-.62-3.46-1.69-1.48-2.84-1.59c-1.04-.09-2.18.26-2.89,1.06-.76.86-.98,2.08-.65,3.17.39,1.28,1.45,2.16,2.79,2.28,1.25.12,2.54-.53,3.19-1.6.43-.72-.69-1.37-1.12-.65-.75,1.26-2.72,1.32-3.44.03-.32-.58-.38-1.38-.09-1.95.32-.62.95-.98,1.58-1.04.72-.07,1.46.11,1.98.55.61.53.9,1.32.92,2.1.02.82-.24,1.7-.78,2.34-.26.31-.64.65-1.07.64-.13,0-.23-.05-.29-.09-.01,0-.11-.08-.06-.04s-.03-.04-.05-.05-.09-.1-.05-.05-.05-.07-.05-.08c-.32-.53-.2-1.3.28-1.75.74-.71,1.9-.86,2.88-1.01.35-.05.54-.49.45-.8-.1-.37-.45-.51-.8-.45h0Z"/><path class="cls-1" d="M277.74,17.96h-1.4c-.17,0-.34.07-.46.19s-.2.3-.19.46.06.34.19.46.28.19.46.19h1.4c.17,0,.34-.07.46-.19s.2-.3.19-.46-.06-.34-.19-.46-.28-.19-.46-.19h0Z"/><path class="cls-1" d="M276.34,22.06c.83,0,.84-1.3,0-1.3s-.84,1.3,0,1.3h0Z"/><path class="cls-1" d="M280.5,15.15c-.85-.8-2.17-.84-3.13-.19-1.03.7-1.3,2.04-.7,3.12,1.41,2.53,5.11,2.34,7.39,1.38,1.49-.63,2.74-1.65,3.66-2.97.48-.69-.65-1.34-1.12-.65-1.42,2.05-4.26,3.46-6.78,2.9-.9-.2-2.35-.89-2.18-2.03.12-.83,1.35-1.19,1.94-.64s1.53-.34.92-.92h0Z"/><path class="cls-1" d="M284.48,15.11c-1.13.97-.71,2.82.4,3.61,1.37.97,3.25.29,4.34-.76.67-.64,1.16-1.45,1.64-2.24.43-.72-.69-1.37-1.12-.65-.72,1.2-1.66,2.76-3.2,2.82-.31.01-.59-.03-.87-.19-.12-.07-.14-.08-.27-.23-.05-.06-.06-.07-.02-.02-.02-.03-.04-.05-.05-.08-.04-.07-.08-.13-.11-.2-.06-.13,0,.03-.03-.09-.03-.08-.05-.17-.07-.25-.03-.14-.01.05,0-.08,0-.08,0-.17,0-.25-.01.13.02-.06.02-.07.01-.04.02-.08.04-.12-.03.06-.02.05,0-.01.03-.05.06-.11.1-.16-.07.09.1-.08.12-.1.27-.23.23-.68,0-.92-.26-.26-.65-.23-.92,0h0Z"/><path class="cls-1" d="M288.53,11.48c-1.24-.67-2.54.05-3.23,1.16-.75,1.21-.61,2.69.09,3.88,1.44,2.48,4.69,3.26,7.11,1.74,1.34-.84,2.33-2.21,2.69-3.76.19-.81-1.06-1.16-1.25-.34-.57,2.47-3.3,4.49-5.79,3.23-1.07-.54-1.97-1.57-2.07-2.8-.07-.81.73-2.56,1.79-1.99.74.39,1.39-.72.65-1.12h0Z"/><path class="cls-1" d="M294.82,11.8c-.98-.55-2.1-1.11-3.26-.86-.92.19-1.76,1.01-1.85,1.96-.1,1.06.8,1.79,1.64,2.26s1.7.71,2.62.8c1.82.18,3.73-.42,5.07-1.66.7-.65,1.29-1.69.56-2.55-.53-.63-1.53-.8-2.23-.36-.89.56-.99,1.84-.49,2.68.63,1.06,1.94,1.29,3.06,1.09.82-.15.47-1.4-.34-1.25-.52.09-1.23.03-1.56-.44-.18-.26-.29-.87.09-1.01.32-.12.6.12.45.42-.25.48-.84.86-1.29,1.12-.96.55-2.08.77-3.18.68-.55-.04-1.1-.18-1.6-.39-.47-.2-1.08-.5-1.38-.94-.35-.5.26-1.05.73-1.15.81-.17,1.65.34,2.32.72.73.41,1.38-.71.65-1.12h0Z"/><path class="cls-1" d="M305.77,35.02h.35c.09,0,.17-.02.25-.06.08-.03.15-.07.21-.13.06-.06.11-.13.13-.21.04-.08.06-.16.06-.25l-.02-.17c-.03-.11-.09-.21-.17-.29l-.13-.1c-.1-.06-.21-.09-.33-.09h-.35c-.09,0-.17.02-.25.06-.08.03-.15.07-.21.13-.06.06-.11.13-.13.21-.04.08-.06.16-.06.25l.02.17c.03.11.09.21.17.29l.13.1c.1.06.21.09.33.09h0Z"/><path class="cls-1" d="M306.03,35.17c.68.63,1.62.99,2.55.92.17-.01.33-.06.46-.19.11-.11.2-.3.19-.46-.01-.33-.29-.68-.65-.65-.19.01-.38,0-.57-.01l.17.02c-.24-.03-.48-.1-.71-.19l.15.07c-.22-.09-.42-.21-.61-.35l.13.1c-.07-.05-.14-.11-.2-.17-.25-.23-.67-.26-.92,0s-.27.67,0,.92h0Z"/><path class="cls-1" d="M311.72,36.78c.83,0,.84-1.3,0-1.3s-.84,1.3,0,1.3h0Z"/><path class="cls-1" d="M315.58,36.78c.83,0,.84-1.3,0-1.3s-.84,1.3,0,1.3h0Z"/><path class="cls-1" d="M317.38,34.38v1.05c0,.17.07.34.19.46s.3.2.46.19.34-.06.46-.19.19-.28.19-.46v-1.05c0-.17-.07-.34-.19-.46s-.3-.2-.46-.19-.34.06-.46.19-.19.28-.19.46h0Z"/><path class="cls-1" d="M313.13,40.28c.83,0,.84-1.3,0-1.3s-.84,1.3,0,1.3h0Z"/><path class="cls-1" d="M309.62,38.88c.83,0,.84-1.3,0-1.3s-.84,1.3,0,1.3h0Z"/><path class="cls-1" d="M309.27,37.58h-.7c-.09,0-.17.02-.25.06-.08.03-.15.07-.21.13-.06.06-.11.13-.13.21-.04.08-.06.16-.06.25l.02.17c.03.11.09.21.17.29.13.12.28.19.46.19h.7c.09,0,.17-.02.25-.06.08-.03.15-.07.21-.13.06-.06.11-.13.13-.21.04-.08.06-.16.06-.25l-.02-.17c-.03-.11-.09-.21-.17-.29-.13-.12-.28-.19-.46-.19h0Z"/><path class="cls-1" d="M308.92,41.68c.83,0,.84-1.3,0-1.3s-.84,1.3,0,1.3h0Z"/><path class="cls-1" d="M312.78,43.78c.83,0,.84-1.3,0-1.3s-.84,1.3,0,1.3h0Z"/><path class="cls-1" d="M315.23,40.63c.83,0,.84-1.3,0-1.3s-.84,1.3,0,1.3h0Z"/><path class="cls-1" d="M316.1,42.75l.35.7c.04.08.1.14.17.18.06.06.14.1.22.12.09.03.17.03.26.01.09,0,.17-.03.24-.08.14-.09.26-.22.3-.39l.02-.17c0-.12-.03-.23-.09-.33l-.35-.7c-.04-.08-.1-.14-.17-.18-.06-.06-.14-.1-.22-.12-.09-.03-.17-.03-.26-.01-.09,0-.17.03-.24.08-.14.09-.26.22-.3.39l-.02.17c0,.12.03.23.09.33h0Z"/><path class="cls-1" d="M312.43,43.08c.83,0,.84-1.3,0-1.3s-.84,1.3,0,1.3h0Z"/><path class="cls-1" d="M310.32,40.98c.83,0,.84-1.3,0-1.3s-.84,1.3,0,1.3h0Z"/><path class="cls-1" d="M309.16,40.22l-1.05,1.05c-.12.12-.19.29-.19.46s.07.35.19.46.29.2.46.19.33-.07.46-.19l1.05-1.05c.12-.12.19-.29.19-.46s-.07-.35-.19-.46-.29-.2-.46-.19-.33.07-.46.19h0Z"/><path class="cls-1" d="M302.69,39.3l.72,1.04c.1.14.22.25.39.3.16.04.36.02.5-.07s.26-.22.3-.39.03-.36-.07-.5l-.72-1.04c-.1-.14-.22-.25-.39-.3-.16-.04-.36-.02-.5.07s-.26.22-.3.39-.03.36.07.5h0Z"/><path class="cls-1" d="M308.57,45.18c.83,0,.84-1.3,0-1.3s-.84,1.3,0,1.3h0Z"/><path class="cls-1" d="M312.78,47.64c.83,0,.84-1.3,0-1.3s-.84,1.3,0,1.3h0Z"/><path class="cls-1" d="M315.93,48.34c.83,0,.84-1.3,0-1.3s-.84,1.3,0,1.3h0Z"/><path class="cls-1" d="M316.61,47.55c.25-.19.44-.38.62-.63.15-.21.25-.44.33-.68.16-.48.16-1.03,0-1.51-.11-.32-.45-.56-.8-.45-.32.1-.57.45-.45.8.03.1.06.21.07.32l-.02-.17c.02.17.02.33,0,.5l.02-.17c-.02.18-.07.35-.14.51l.07-.15c-.06.15-.14.28-.24.41l.1-.13c-.1.13-.21.24-.33.33l.13-.1-.02.02c-.14.1-.25.21-.3.39-.04.16-.02.36.07.5s.22.26.39.3.36.04.5-.07h0Z"/><path class="cls-1" d="M317.19,38.94c-.11-1.17-.22-2.34-.33-3.51-.03-.34-.28-.66-.65-.65-.32.01-.68.29-.65.65.11,1.17.22,2.34.33,3.51.03.34.28.66.65.65.32-.01.68-.29.65-.65h0Z"/><path class="cls-1" d="M316.33,37.18v2.8c0,.34.3.66.65.65s.65-.28.65-.65v-2.8c0-.34-.3-.66-.65-.65s-.65.28-.65.65h0Z"/><path class="cls-1" d="M318.38,47.64c.83,0,.84-1.3,0-1.3s-.84,1.3,0,1.3h0Z"/><path class="cls-1" d="M317.33,51.14c.83,0,.84-1.3,0-1.3s-.84,1.3,0,1.3h0Z"/><path class="cls-1" d="M275.64,32.57c.83,0,.84-1.3,0-1.3s-.84,1.3,0,1.3h0Z"/><path class="cls-1" d="M271.78,32.22c.83,0,.84-1.3,0-1.3s-.84,1.3,0,1.3h0Z"/><path class="cls-1" d="M273.54,30.47c.83,0,.84-1.3,0-1.3s-.84,1.3,0,1.3h0Z"/><path class="cls-1" d="M305.76,37.08l.7-.36c.08-.04.14-.1.18-.17.06-.06.1-.14.12-.22.03-.09.03-.17.01-.26,0-.09-.03-.17-.08-.24-.09-.14-.22-.26-.39-.3l-.17-.02c-.12,0-.23.03-.33.09l-.7.36c-.08.04-.14.1-.18.17-.06.06-.1.14-.12.22-.03.09-.03.17-.01.26,0,.09.03.17.08.24.09.14.22.26.39.3l.17.02c.12,0,.23-.03.33-.09h0Z"/><path class="cls-1" d="M307.62,39.63l.36.7c.04.08.1.14.17.18.06.06.14.1.22.12.09.03.17.03.26.01.09,0,.17-.03.24-.08.14-.09.26-.22.3-.39l.02-.17c0-.12-.03-.23-.09-.33l-.36-.7c-.04-.08-.1-.14-.17-.18-.06-.06-.14-.1-.22-.12-.09-.03-.17-.03-.26-.01-.09,0-.17.03-.24.08-.14.09-.26.22-.3.39l-.02.17c0,.12.03.23.09.33h0Z"/><path class="cls-1" d="M304.17,36.45c.86,1.49,1.96,2.85,3.24,3.99.25.23.67.27.92,0,.23-.25.27-.68,0-.92-1.26-1.12-2.21-2.29-3.04-3.73-.17-.29-.59-.42-.89-.23s-.41.57-.23.89h0Z"/><path class="cls-1" d="M307.99,35.07c.61,1.15,1.22,2.31,1.83,3.46.16.3.6.42.89.23.31-.2.4-.57.23-.89-.61-1.15-1.22-2.31-1.83-3.46-.16-.3-.6-.42-.89-.23-.31.2-.4.57-.23.89h0Z"/><path class="cls-1" d="M312.08,37.83c.83,0,.84-1.3,0-1.3s-.84,1.3,0,1.3h0Z"/><path class="cls-1" d="M316.04,37.52l1.06,2.1c.15.3.61.41.89.23.31-.2.4-.56.23-.89-.35-.7-.7-1.4-1.06-2.1-.15-.3-.61-.41-.89-.23-.31.2-.4.56-.23.89h0Z"/><path class="cls-1" d="M317.8,38.92c.67,1.08,1.01,2.26,1,3.52,0,.34.3.66.65.65s.65-.28.65-.65c0-1.47-.4-2.93-1.18-4.17-.18-.29-.59-.43-.89-.23s-.42.58-.23.89h0Z"/><path class="cls-1" d="M310.92,41.14c.7.7,1.4,1.4,2.1,2.1.24.24.68.26.92,0s.26-.66,0-.92c-.7-.7-1.4-1.4-2.1-2.1-.24-.24-.68-.26-.92,0s-.26.66,0,.92h0Z"/><path class="cls-1" d="M311.39,43.32c.12.7.24,1.4.36,2.1.03.15.17.31.3.39.14.08.34.12.5.07s.31-.15.39-.3c.09-.16.1-.32.07-.5-.12-.7-.24-1.4-.36-2.1-.03-.15-.17-.31-.3-.39-.14-.08-.34-.12-.5-.07s-.31.15-.39.3c-.09.16-.1.32-.07.5h0Z"/><path class="cls-1" d="M313.24,41.38c.58.93,1.17,1.87,1.75,2.8.18.29.59.43.89.23s.42-.58.23-.89c-.58-.93-1.17-1.87-1.75-2.8-.18-.29-.59-.43-.89-.23s-.42.58-.23.89h0Z"/><path class="cls-1" d="M312.93,37.5c.57.94,1.15,1.88,1.72,2.82.18.29.59.42.89.23s.42-.58.23-.89c-.57-.94-1.15-1.88-1.72-2.82-.18-.29-.59-.42-.89-.23s-.42.58-.23.89h0Z"/><path class="cls-1" d="M318.5,45.24c-.12,1.05-.23,2.1-.35,3.15-.04.34.32.66.65.65.38-.02.61-.29.65-.65.12-1.05.23-2.1.35-3.15.04-.34-.32-.66-.65-.65-.38.02-.61.29-.65.65h0Z"/><path class="cls-1" d="M318.38,50.09c.83,0,.84-1.3,0-1.3s-.84,1.3,0,1.3h0Z"/><path class="cls-1" d="M314.02,46.79l1.41,1.75c.1.12.31.19.46.19.16,0,.35-.07.46-.19s.2-.29.19-.46c0-.18-.08-.32-.19-.46l-1.41-1.75c-.1-.12-.31-.19-.46-.19-.16,0-.35.07-.46.19s-.2.29-.19.46c0,.18.08.32.19.46h0Z"/><path class="cls-1" d="M317.73,45.59v2.1c0,.34.3.66.65.65s.65-.28.65-.65v-2.1c0-.34-.3-.66-.65-.65s-.65.28-.65.65h0Z"/><path class="cls-1" d="M273.31,33.45l.7-.7c.06-.06.11-.13.13-.21.04-.08.06-.16.06-.25,0-.09-.02-.17-.06-.25-.03-.08-.07-.15-.13-.21-.12-.11-.29-.2-.46-.19s-.33.07-.46.19l-.7.7c-.06.06-.11.13-.13.21-.04.08-.06.16-.06.25,0,.09.02.17.06.25.03.08.07.15.13.21.12.11.29.2.46.19s.33-.07.46-.19h0Z"/><path class="cls-1" d="M270.69,48.56c2.39-1.35,5.57-.78,7.37,1.27.55.63,1.47-.29.92-.92-2.18-2.48-6.08-3.1-8.94-1.48-.73.41-.07,1.53.65,1.12h0Z"/><path class="cls-1" d="M292.66,52.66c2.63-.69,5.52.18,7.36,2.18.57.62,1.48-.3.92-.92-2.15-2.33-5.55-3.31-8.62-2.51-.81.21-.46,1.46.34,1.25h0Z"/><path class="cls-1" d="M277.23,65.55c.12,1.67,1.12,3.27,2.67,3.97,1.65.75,3.57.46,4.97-.67.27-.22.23-.69,0-.92-.27-.27-.64-.22-.92,0-.95.77-2.38.95-3.49.43s-1.86-1.62-1.95-2.81c-.02-.35-.28-.65-.65-.65-.33,0-.67.3-.65.65h0Z"/><path class="cls-1" d="M320.05,35.2c.83,0,.84-1.3,0-1.3s-.84,1.3,0,1.3h0Z"/><path class="cls-1" d="M320.31,38.09c.83,0,.84-1.3,0-1.3s-.84,1.3,0,1.3h0Z"/><path class="cls-1" d="M320.31,42.03c.83,0,.84-1.3,0-1.3s-.84,1.3,0,1.3h0Z"/><path class="cls-1" d="M318.73,46.24c.83,0,.84-1.3,0-1.3s-.84,1.3,0,1.3h0Z"/><path class="cls-1" d="M271.08,34.76h.09c.09,0,.17-.02.25-.06.08-.03.15-.07.21-.13.06-.06.11-.13.13-.21.04-.08.06-.16.06-.25l-.02-.17c-.03-.11-.09-.21-.17-.29l-.13-.1c-.1-.06-.21-.09-.33-.09h-.09c-.09,0-.17.02-.25.06-.08.03-.15.07-.21.13-.06.06-.11.13-.13.21-.04.08-.06.16-.06.25l.02.17c.03.11.09.21.17.29l.13.1c.1.06.21.09.33.09h0Z"/><path class="cls-1" d="M273.76,34.99v.09c0,.09.02.17.06.25.03.08.07.15.13.21.06.06.13.11.21.13.08.04.16.06.25.06l.17-.02c.11-.03.21-.09.29-.17l.1-.13c.06-.1.09-.21.09-.33v-.09c0-.09-.02-.17-.06-.25-.03-.08-.07-.15-.13-.21-.06-.06-.13-.11-.21-.13-.08-.04-.16-.06-.25-.06l-.17.02c-.11.03-.21.09-.29.17l-.1.13c-.06.1-.09.21-.09.33h0Z"/><path class="cls-1" d="M270.29,38.18c.83,0,.84-1.3,0-1.3s-.84,1.3,0,1.3h0Z"/><path class="cls-1" d="M272.05,36.51c.83,0,.84-1.3,0-1.3s-.84,1.3,0,1.3h0Z"/><path class="cls-1" d="M270.48,35.86c.05-.17.11-.34.18-.51l-.07.15c.17-.4.39-.78.66-1.13l-.1.13c.06-.08.12-.15.18-.22.11-.13.19-.28.19-.46,0-.16-.07-.35-.19-.46-.24-.22-.68-.27-.92,0-.54.63-.95,1.35-1.19,2.15-.1.32.12.72.45.8s.69-.1.8-.45h0Z"/><path class="cls-1" d="M272.6,36.41c.38-.41.71-.87.95-1.37.08-.16.11-.33.07-.5-.04-.15-.16-.31-.3-.39-.15-.08-.33-.12-.5-.07-.15.05-.31.15-.39.3-.15.31-.34.61-.55.89l.1-.13c-.09.12-.19.24-.3.35-.12.13-.19.28-.19.46,0,.16.07.35.19.46s.29.2.46.19.34-.06.46-.19h0Z"/><path class="cls-1" d="M274.63,34.86c.46-.46.73-1.14.68-1.8-.01-.17-.06-.33-.19-.46-.11-.11-.3-.2-.46-.19s-.34.06-.46.19c-.11.12-.2.29-.19.46.01.12,0,.24,0,.36l.02-.17c-.02.16-.06.31-.12.45l.07-.15c-.06.13-.13.25-.21.37l.1-.13c-.04.06-.09.11-.14.16-.12.12-.19.29-.19.46s.07.35.19.46.29.2.46.19.34-.07.46-.19h0Z"/><path class="cls-1" d="M272.58,31.67c.44-.5.87-.99,1.31-1.49.11-.13.19-.28.19-.46,0-.16-.07-.35-.19-.46s-.29-.2-.46-.19-.35.06-.46.19c-.44.5-.87.99-1.31,1.49-.11.13-.19.28-.19.46,0,.16.07.35.19.46s.29.2.46.19.35-.06.46-.19h0Z"/><path class="cls-1" d="M275.39,31.06l.87-.79c.06-.06.11-.13.13-.21.04-.08.06-.16.06-.25,0-.09-.02-.17-.06-.25-.03-.08-.07-.15-.13-.21-.12-.11-.29-.2-.46-.19l-.17.02c-.11.03-.21.09-.29.17l-.87.79c-.06.06-.11.13-.13.21-.04.08-.06.16-.06.25,0,.09.02.17.06.25.03.08.07.15.13.21.12.11.29.2.46.19l.17-.02c.11-.03.21-.09.29-.17h0Z"/><path class="cls-1" d="M142.12,20.53c.27,1.2.43,2.41.49,3.63.04.91.04,1.84-.27,2.7s-1.02,1.56-2.02,1.45c-.61-.06-1.23-.34-1.77-.61-.43-.22-1.09-.8-.55-1.28.17-.15-.08-.4-.25-.25-.34.3-.36.8-.14,1.19.29.5.9.72,1.4.93,1.09.45,2.33.63,3.16-.39.63-.78.81-1.88.82-2.85.02-1.55-.19-3.11-.53-4.61-.05-.22-.39-.13-.34.09h0Z"/><path class="cls-1" d="M144.9,25.66c.24.66.03,1.37.15,2.05.1.55.46.98.99,1.15.49.16,1.05.09,1.51-.14.52-.26.86-.76,1.02-1.31.21-.71.13-1.48-.09-2.18-.07-.21-.41-.12-.34.09.31.97.35,2.4-.64,3.02-.37.23-.84.32-1.27.22-.48-.12-.77-.48-.85-.96-.11-.67.09-1.36-.15-2.02-.08-.21-.41-.12-.34.09h0Z"/><path class="cls-1" d="M150.15,22.23c.06,1.98.34,3.95.83,5.87.06.22.39.13.34-.09-.49-1.89-.76-3.82-.82-5.77,0-.22-.36-.23-.35,0h0Z"/><path class="cls-1" d="M153.16,26.1c.05.93.1,1.86.15,2.79.01.22.36.23.35,0-.05-.93-.1-1.86-.15-2.79-.01-.22-.36-.23-.35,0h0Z"/><path class="cls-1" d="M153.58,24.56h.21s.09-.02.12-.05c.02-.02.03-.03.04-.06.01-.02.02-.04.02-.07,0-.05-.02-.09-.05-.12s-.08-.05-.12-.05h-.21s-.09.02-.12.05c-.02.02-.03.03-.04.06-.01.02-.02.04-.02.07,0,.05.02.09.05.12s.08.05.12.05h0Z"/><path class="cls-1" d="M158.15,26.28c-.13-.55-.74-.73-1.24-.63-.67.14-.98.78-1.02,1.41-.02.37.03.74.11,1.1.07.34.19.68.52.86.53.28,1.18-.06,1.53-.47.58-.7.39-1.72.71-2.53l-.34-.09c-.35,1.26.27,2.69,1.44,3.28.2.1.38-.2.18-.3-1.03-.52-1.59-1.77-1.28-2.89.06-.22-.26-.3-.34-.09-.24.61-.21,1.27-.39,1.89-.14.47-.51.91-1.03.95-.62.06-.7-.75-.75-1.2-.05-.5-.02-1.2.49-1.48.35-.19.96-.18,1.07.29.05.22.39.13.34-.09h0Z"/><path class="cls-1" d="M167.83,26.08c-.79-.15-1.62.27-2,.98-.36.67-.19,1.45.37,1.95.5.44,1.25.66,1.89.41s.97-.91.95-1.58c-.02-.73-.44-1.46-1.17-1.68-.22-.07-.31.27-.09.34.98.3,1.28,1.91.39,2.49-.96.63-2.47-.37-2.14-1.5.21-.69.99-1.19,1.7-1.05.22.04.31-.3.09-.34h0Z"/><path class="cls-1" d="M169.29,27.18c.02.81.22,1.59.58,2.31l.3-.18c-.58-.77-.3-2.01.56-2.45.98-.51,2.28.39,2.28,1.46,0,.33-.13.7.08.99.16.22.48.34.71.17.18-.13,0-.44-.18-.3-.16.12-.29-.1-.3-.24-.02-.2.03-.4.04-.59,0-.27-.06-.54-.18-.78-.24-.5-.69-.89-1.21-1.08-1.07-.39-2.11.31-2.39,1.36-.15.56-.07,1.18.28,1.65.13.18.4.03.3-.18-.33-.67-.51-1.39-.53-2.14,0-.22-.36-.23-.35,0h0Z"/><path class="cls-1" d="M177.37,27.59c-.73-.47-1.63-.91-2.48-.47-.78.41-.82,1.37-.34,2.03.26.36.64.62,1.03.82s.84.47,1.29.42c.41-.05.63-.37.76-.73.18-.51.3-1.04.41-1.57.26-1.26.39-2.54.38-3.82,0-.19-.3-.24-.34-.05-.42,1.89-.26,3.87.47,5.67.08.21.42.12.34-.09-.71-1.74-.88-3.65-.47-5.48l-.34-.05c0,1.14-.09,2.28-.31,3.4-.1.51-.22,1.02-.36,1.52-.07.24-.13.55-.32.73-.23.22-.58.1-.83,0-.74-.32-1.99-.99-1.64-2,.16-.47.7-.66,1.16-.63.52.04.99.33,1.41.6.19.12.37-.18.18-.3h0Z"/><path class="cls-1" d="M180,28.76c.47.16.98.32,1.48.21.38-.08.74-.33.89-.7.28-.7-.41-1.32-1.07-1.34-.8-.03-1.26.78-1.28,1.49-.02.75.41,1.41,1.03,1.81.68.43,1.57.52,2.3.16.2-.1.02-.4-.18-.3-1.01.5-2.42-.08-2.74-1.17-.16-.54-.03-1.28.52-1.56.42-.21,1.12.07,1.14.58.01.34-.31.59-.61.67-.46.13-.94-.04-1.38-.19-.21-.07-.31.27-.09.34h0Z"/><path class="cls-1" d="M184.15,28.56c.28.59.57,1.19.85,1.78l.27-.21c-.45-.47-.52-1.26-.14-1.8s1.13-.72,1.71-.46c.2.09.38-.21.18-.3-.57-.26-1.27-.19-1.78.18s-.77,1.02-.68,1.67c.05.36.21.7.47.96.14.15.36-.04.27-.21-.28-.59-.57-1.19-.85-1.78-.1-.2-.4-.03-.3.18h0Z"/><path class="cls-1" d="M188.65,24.59c.44,1.81.58,3.67.4,5.53-.02.16.2.21.3.12.5-.43.77-1.04,1.13-1.57.17-.25.38-.51.66-.63.42-.18.85.02,1.2.26.37.26.84.58,1.03,1,.09.2.12.45.02.65-.12.24-.37.29-.62.3-1.01.03-2.07-.25-2.99-.65-.2-.09-.38.21-.18.3.84.37,4.51,1.62,4.18-.43-.06-.39-.33-.71-.62-.97-.32-.28-.67-.57-1.06-.74-.62-.28-1.25-.09-1.68.41-.49.57-.75,1.33-1.33,1.83l.3.12c.18-1.88.04-3.78-.41-5.62-.05-.22-.39-.13-.34.09h0Z"/><path class="cls-1" d="M196.36,27.84c-.7-.09-1.44.29-1.78.92-.3.57-.19,1.26.19,1.77s.97.82,1.6.68c.53-.12.91-.58,1.07-1.09.18-.59.05-1.26-.46-1.64-.18-.14-.35.17-.18.3.68.51.36,1.74-.37,2.04-.97.39-1.92-.84-1.61-1.74.22-.62.91-.97,1.54-.89.09.01.17-.09.18-.18,0-.1-.08-.16-.18-.18h0Z"/><path class="cls-1" d="M198.45,29.34c-.15.56-.29,1.15-.17,1.73.09.44.38.88.79,1.09s.87.14,1.22-.14.56-.71.68-1.13c.16-.55.21-1.15.57-1.62.14-.18-.17-.35-.3-.18-.53.69-.42,1.64-.9,2.35-.2.3-.53.56-.91.48s-.67-.43-.78-.79c-.17-.56,0-1.16.13-1.7.06-.22-.28-.31-.34-.09h0Z"/><path class="cls-1" d="M203.08,29.92c-.13.42-.27.84-.4,1.26-.1.35-.12.72.18.98.54.46,1.31-.05,1.18-.72-.03-.16-.31-.17-.34,0-.12.87.66,1.56,1.49,1.62.91.06,1.52-.76,1.57-1.6.03-.49-.13-.98-.44-1.36-.14-.17-.39.07-.25.25.53.64.45,1.82-.32,2.24-.69.38-1.83-.22-1.72-1.06h-.34c.04.19-.1.41-.3.45s-.41-.11-.45-.3c-.05-.27.12-.6.2-.85l.26-.82c.07-.22-.27-.31-.34-.09h0Z"/><path class="cls-1" d="M210.01,31.07c-.66-.5-1.65-.57-2.32-.04-.61.49-.84,1.45-.41,2.13.38.6,1.24.85,1.88.54.86-.42.95-1.63,1.09-2.46.24-1.32.4-2.66.51-4,.02-.23-.33-.22-.35,0-.13,1.12-.14,2.25-.02,3.36.05.53.13,1.05.24,1.57.03.14.3,1.24-.13,1.14-.22-.05-.31.29-.09.34,1.1.25.52-1.73.45-2.15-.23-1.41-.26-2.84-.1-4.26h-.35c-.09,1.19-.24,2.37-.43,3.55-.09.52-.17,1.04-.3,1.55-.12.45-.32.94-.8,1.1-.92.3-1.69-.6-1.41-1.47.32-1.03,1.57-1.18,2.36-.58.18.14.35-.17.18-.3h0Z"/><path class="cls-1" d="M142.16,34.9c.13,1.25.03,2.51-.29,3.73-.04.14.13.29.26.2,1.07-.79,2.14-1.59,3.21-2.38.18-.13,0-.44-.18-.3-1.07.79-2.14,1.59-3.21,2.38l.26.2c.33-1.24.44-2.54.3-3.82-.02-.22-.37-.22-.35,0h0Z"/><path class="cls-1" d="M143.77,37.84c.6.69,1.2,1.39,1.8,2.08.15.17.39-.08.25-.25-.6-.69-1.2-1.39-1.8-2.08-.15-.17-.39.08-.25.25h0Z"/><path class="cls-1" d="M147.45,38.34c.46.21.96.27,1.45.16.22-.05.39-.1.51-.3.09-.14.13-.31.13-.48,0-.65-.58-1.34-1.27-1.23-.85.13-1.25,1.17-1.25,1.93,0,.83.41,1.65,1.14,2.07.84.49,1.93.41,2.69-.18.18-.14-.07-.38-.25-.25-.54.42-1.28.5-1.92.28s-1.09-.77-1.25-1.42c-.15-.61-.03-1.35.42-1.82.2-.21.5-.35.79-.24.23.09.4.3.49.53.08.21.12.59-.12.71-.41.19-.99.1-1.38-.07-.2-.09-.38.21-.18.3h0Z"/><path class="cls-1" d="M151.02,37.5c-.02.64.06,1.28.24,1.89.15.5.37,1.02.8,1.33.39.28.92.24,1.24-.13.35-.39.44-.97.48-1.47.05-.68-.08-1.37-.36-1.99-.09-.21-.39-.03-.3.18.27.61.37,1.28.3,1.94-.04.44-.17,1.23-.71,1.32s-.89-.61-1.04-1.02c-.23-.66-.33-1.35-.3-2.04,0-.23-.34-.22-.35,0h0Z"/><path class="cls-1" d="M156.37,38.09c.68.02,1.32.24,1.88.63l-.04-.27c-.58.63-1.64.45-2.19,1.12-.29.35-.3.84-.03,1.21.3.41.81.65,1.3.7.74.08,1.51-.17,2.23.12.21.08.3-.25.09-.34-.56-.23-1.16-.15-1.75-.13-.5.02-1.01-.03-1.41-.38-.31-.27-.43-.7-.12-1.02.25-.26.65-.34.98-.45.42-.13.85-.27,1.15-.6.08-.09.06-.21-.04-.27-.6-.42-1.32-.66-2.05-.68-.23,0-.23.34,0,.35h0Z"/><path class="cls-1" d="M159.58,40.59c.7.2,1.57.37,2.05-.32.39-.56,0-1.24-.64-1.32s-1.16.54-1.23,1.15c-.08.68.31,1.33.84,1.73.69.51,1.6.59,2.43.53.22-.02.23-.37,0-.35-1.07.07-2.44-.13-2.85-1.29-.16-.46-.08-1.04.36-1.32.2-.12.43-.14.64-.03s.33.33.25.56c-.09.26-.35.43-.6.48-.38.08-.78-.05-1.14-.15-.22-.06-.31.27-.09.34h0Z"/><path class="cls-1" d="M165.66,39.68c-.52-.2-1.11-.29-1.66-.2-.44.07-.78.42-.6.88s.62.69,1.02.89c.56.28,1.12.56,1.68.84l-.04-.27c-.83.66-2.08.66-2.94.04-.18-.13-.36.17-.18.3.99.72,2.41.66,3.36-.09.09-.07.06-.23-.04-.27-.46-.23-.92-.46-1.37-.69-.37-.19-.79-.34-1.06-.67-.08-.1-.18-.25-.14-.38.06-.18.27-.21.43-.23.48-.05.97.03,1.43.21.21.08.3-.26.09-.34h0Z"/><path class="cls-1" d="M174,40.04c.23,0,.23-.35,0-.35s-.23.35,0,.35h0Z"/><path class="cls-1" d="M174,40.04c.23,0,.23-.35,0-.35s-.23.35,0,.35h0Z"/><path class="cls-1" d="M174.71,40.25c-.74-1.22-2.76-.61-2.98.7-.13.78.28,1.63,1,1.98s1.7.16,2.23-.47c.68-.8.53-1.95.33-2.9-.04-.2-.34-.15-.34.05,0,.87-.02,1.74-.02,2.61,0,.71.02,1.5-.33,2.14-.34.6-1.05.94-1.73.81s-1.21-.75-1.28-1.43c-.02-.22-.37-.22-.35,0,.08.73.53,1.39,1.22,1.67s1.49.11,2.04-.37c.63-.55.75-1.43.77-2.22.03-1.07.02-2.14.03-3.21l-.34.05c.18.86.35,1.99-.35,2.67-.65.64-1.78.55-2.29-.22-.43-.66-.34-1.55.36-1.96.55-.32,1.36-.32,1.72.27.12.19.42.02.3-.18h0Z"/><path class="cls-1" d="M177.97,39.87c-1.31-.26-2.61,1.34-1.89,2.54.59.99,2.22,1,2.87.09.55-.77.2-1.81-.25-2.53-.12-.19-.42-.02-.3.18.35.57.66,1.33.36,1.99-.19.41-.61.63-1.05.68s-.91-.08-1.22-.41c-.35-.39-.33-.96-.09-1.4.28-.51.86-.91,1.46-.79.22.04.31-.29.09-.34h0Z"/><path class="cls-1" d="M179.86,41.55c.82-.26,1.91.43,2.59-.34.58-.67-.14-1.55-.88-1.59-.9-.04-1.87.81-2.1,1.65s.29,1.66,1,2.09c1.04.63,2.33.34,3.44.07.22-.05.13-.39-.09-.34-.85.2-1.77.43-2.64.19-.65-.18-1.29-.71-1.4-1.41-.12-.78.6-1.53,1.27-1.8.35-.14.75-.15,1.04.12.24.22.33.58.07.83s-.68.25-1.01.21c-.46-.05-.92-.16-1.37-.02-.21.07-.12.41.09.34h0Z"/><path class="cls-1" d="M187,41.61c-.29-1.66-3.11-1.82-3.26,0-.07.79.46,1.64,1.22,1.88.93.29,1.79-.44,2.18-1.23.65-1.33.18-2.81.37-4.22l-.34-.05c-.12,1.9.15,3.8.81,5.58.08.21.42.12.34-.09-.65-1.76-.92-3.62-.8-5.49.01-.19-.32-.24-.34-.05-.15,1.08.1,2.17-.06,3.25-.12.78-.56,1.69-1.36,1.95-1.53.49-2.42-2.19-.75-2.48.71-.13,1.54.3,1.67,1.05.04.22.38.13.34-.09h0Z"/><path class="cls-1" d="M122.31,49.88c-1.9,5.54-5.37,10.38-9.99,13.97-.11.08-.04.27.08.29,3.5.85,7-.05,10.05-1.85,1.59-.93,3.05-2.08,4.38-3.36.65-.63,1.23-1.35,1.92-1.94.76-.66,1.61-1.04,2.54-.51.53.3.93.71,1.42,1.06,1.52,1.09,3.42,1.52,5.19,2,2.17.58,4.36,1.11,6.57,1.58,4.34.93,8.73,1.64,13.14,2.13,9.03,1.01,18.16,1.11,27.2.29,4.42-.4,8.83-1.02,13.19-1.85,2.21-.42,4.41-.9,6.6-1.44.82-.2,1.65-.41,2.4-.81,1-.53,1.68-1.63,2.76-1.98,1.44-.47,2.98.43,4.2,1.09,1.05.56,2.11,1.11,3.2,1.61,2.12.97,4.31,1.78,6.54,2.44,4.68,1.37,9.54,2.03,14.41,1.98.13,0,.23-.15.15-.26-3.29-5.11-8.86-7.89-13.16-12-1.14-1.09-2.2-2.29-3.05-3.63-.16-.26-.56-.74-.47-1,.08-.24.65-.41.88-.53.7-.38,1.37-.81,2.02-1.28,2.41-1.76,4.37-4.1,5.76-6.74,2.95-5.63,2.88-12.28.17-17.99-2.95-6.22-8.51-10.07-14.85-12.35-3.55-1.28-7.23-2.17-10.88-3.09-4.09-1.02-8.2-1.98-12.33-2.81C184.27,1.28,176.06.15,167.8.01s-16.22.99-24.24,2.5c-7.2,1.35-14.54,3.27-20.45,7.79-5.8,4.43-8.76,10.9-9.79,18.02-.97,6.69,0,14.1,5.04,19.02,1.08,1.05,2.31,1.91,3.65,2.59.2.1.38-.2.18-.3-5.54-2.78-8.39-8.75-8.81-14.74-.42-6.13.99-12.97,4.28-18.21,6.85-10.89,21.04-13.15,32.72-15,13.72-2.18,27.34-1.28,40.93,1.37,6.44,1.26,12.85,2.78,19.17,4.52,5.69,1.57,11.5,3.67,15.68,8.02,4.48,4.65,6.85,11.42,5.69,17.84-1.1,6.05-5.12,11.4-10.71,13.99-.09.04-.1.16-.06.24,3.82,7.29,12.5,10.02,16.89,16.84l.15-.26c-4.47.04-8.92-.5-13.24-1.66-2.29-.62-4.54-1.4-6.72-2.34-1.9-.83-3.67-1.96-5.58-2.75-1.39-.58-2.76-.71-3.98.27-.96.77-1.67,1.45-2.89,1.85-1.06.34-2.16.56-3.25.81-4.53,1.03-9.11,1.83-13.71,2.38-9.02,1.08-18.15,1.25-27.2.51-4.63-.38-9.23-1-13.79-1.86-4.25-.8-8.73-1.61-12.8-3.12-1.31-.49-2.15-1.31-3.28-2.06-.53-.34-1.09-.51-1.7-.36-1.74.42-3,2.5-4.28,3.62-3.59,3.15-8.34,5.47-13.19,4.29l.08.29c4.67-3.63,8.16-8.53,10.08-14.13.07-.21-.27-.31-.34-.09h0Z"/></g></svg>