<?xml version="1.0" encoding="UTF-8"?><svg id="Layer_2" xmlns="http://www.w3.org/2000/svg" viewBox="0 0 181.85 76.06"><defs><style>.cls-1{fill:#1d1d1b;stroke-width:0px;}</style></defs><g id="Layer_1-2"><path class="cls-1" d="M31.02,21.16c.08,1.46.17,2.93.14,4.39-.03,1.32.02,2.98-.75,4.12-.67.98-1.97,1.52-3.13,1.25-1.22-.29-2.16-1.38-2.3-2.61-.03-.22-.38-.22-.35,0,.3,2.59,3.31,3.92,5.38,2.29,1.17-.92,1.34-2.38,1.44-3.77.13-1.89.02-3.78-.08-5.66-.01-.22-.36-.23-.35,0h0Z"/><path class="cls-1" d="M33.75,22.46c-.48.49-.6,1.21-.42,1.85.19.69.69,1.23,1.37,1.46.75.25,1.6.1,2.27-.29s1.18-1.06,1.43-1.81c.28-.85.23-1.79-.15-2.6-.1-.2-.4-.03-.3.18.58,1.23.25,2.85-.83,3.71-1.01.8-2.74.85-3.34-.46-.27-.58-.24-1.32.23-1.79.16-.16-.09-.41-.25-.25h0Z"/><path class="cls-1" d="M40.63,18.17v6.86c0,.23.35.23.35,0v-6.86c0-.23-.35-.23-.35,0h0Z"/><path class="cls-1" d="M43.32,22.05c0,.99,0,1.99,0,2.98,0,.23.35.23.35,0,0-.99,0-1.99,0-2.98,0-.23-.35-.23-.35,0h0Z"/><path class="cls-1" d="M44.26,19.66v-.3s-.02-.09-.05-.12-.08-.05-.12-.05-.09.02-.12.05-.05.08-.05.12v.3s.02.09.05.12.08.05.12.05.09-.02.12-.05.05-.08.05-.12h0Z"/><path class="cls-1" d="M49.72,21.77c-.26-.63-.91-.93-1.58-.88-.78.06-1.38.56-1.7,1.26-.17.38-.26.78-.3,1.19-.04.38-.12.95.1,1.3s.72.29,1.08.29c.61-.01,1.21-.03,1.82-.06.08,0,.15-.05.17-.13.25-.93.5-1.86.74-2.78.05-.19-.22-.31-.32-.13-.43.75-.38,1.73.17,2.41s1.47.92,2.29.67c.21-.07.12-.4-.09-.34-.67.2-1.42.01-1.89-.52-.49-.56-.54-1.42-.17-2.05l-.32-.13c-.25.93-.5,1.86-.74,2.78l.17-.13c-.44.02-.87.04-1.31.05-.21,0-.42,0-.62.01-.17,0-.42.04-.58-.05-.27-.17-.17-.81-.15-1.1.03-.33.09-.67.21-.98.22-.58.65-1.07,1.28-1.18.53-.1,1.18.06,1.4.6.08.21.42.12.34-.09h0Z"/><path class="cls-1" d="M58.49,15.49c.18,2.8.06,5.6-.36,8.37l.29-.08c-.49-.56-.57-1.4-.25-2.06.35-.72,1.14-.85,1.87-.72,1.31.23,2.48,1.34,2.51,2.71,0,.22.36.23.35,0-.04-1.68-1.58-3.04-3.22-3.1-.38-.01-.8.04-1.15.2s-.59.55-.74.9c-.31.78-.18,1.68.38,2.32.08.09.27.05.29-.08.43-2.8.55-5.64.37-8.47-.01-.22-.36-.23-.35,0h0Z"/><path class="cls-1" d="M65,22.19c.7-.27,1.27-.78,1.6-1.46.05-.1.01-.23-.1-.26-1.26-.34-2.89-.17-3.46,1.2-.5,1.21.53,2.35,1.68,2.6.88.19,1.78,0,2.64-.19.22-.05.13-.39-.09-.34-.83.19-1.73.4-2.57.17-.61-.17-1.22-.61-1.39-1.24-.19-.67.22-1.34.79-1.69.69-.43,1.56-.36,2.32-.16l-.1-.26c-.28.59-.77,1.06-1.39,1.3-.21.08-.12.42.09.34h0Z"/><path class="cls-1" d="M68.84,22.46c.94,0,1.86-.42,2.47-1.13.07-.08.06-.17,0-.25-.75-.92-2.37-.64-2.89.38-.29.57-.26,1.25,0,1.83s.79,1.05,1.41,1.25c.78.25,1.65.11,2.35-.29.2-.11.02-.41-.18-.3-1.02.58-2.5.51-3.16-.58-.27-.45-.37-1.01-.21-1.51.15-.47.53-.8,1-.92.51-.14,1.08-.02,1.43.4v-.25c-.56.65-1.37,1.03-2.22,1.03-.23,0-.23.35,0,.35h0Z"/><path class="cls-1" d="M75.81,21.44c.37-1.08.75-2.46-.23-3.34-.69-.62-1.7-.52-2.13.34-.22.43-.26.94-.28,1.42-.02.76-.02,1.52-.03,2.29-.01,1.63-.01,3.25,0,4.88,0,.23.35.23.35,0,0-.85.02-1.71.03-2.56l-.18.18c.88-.01,1.77-.03,2.65-.04.23,0,.23-.35,0-.35-.88.01-1.77.03-2.65.04-.1,0-.17.08-.18.18,0,.85-.02,1.71-.03,2.56h.35c-.02-2.4-.07-4.82.03-7.23.03-.85.46-2.28,1.61-1.6s.69,2.15.35,3.15c-.07.21.27.31.34.09h0Z"/><path class="cls-1" d="M78.45,18.41c-.41,2.11-.39,4.27.07,6.36.05.22.39.13.34-.09-.44-2.03-.47-4.14-.07-6.18.04-.22-.29-.31-.34-.09h0Z"/><path class="cls-1" d="M77.51,22.17c.73-.29,1.53-.38,2.31-.23.22.04.31-.29.09-.34-.84-.16-1.7-.09-2.5.23-.09.04-.15.12-.12.22.02.08.13.16.22.12h0Z"/><path class="cls-1" d="M84.54,18.08c-.18,1.91-.07,3.84.33,5.72l.34-.09c-.28-.72-.27-1.58.14-2.25.38-.62,1.07-.91,1.77-.71.66.19,1.1.71,1.03,1.41-.06.61-.37,1.42.27,1.82.19.12.37-.18.18-.3-.31-.2-.23-.62-.18-.93s.12-.61.1-.92c-.04-.54-.4-.99-.86-1.24-1.09-.59-2.32-.09-2.78,1.04-.28.69-.27,1.48,0,2.18.08.21.39.13.34-.09-.39-1.85-.5-3.74-.32-5.62.02-.22-.33-.22-.35,0h0Z"/><path class="cls-1" d="M90.29,22.12c.86.25,1.82-.41,1.96-1.29.03-.16.06-.46-.09-.57s-.42-.15-.61-.17c-.43-.04-.87.08-1.25.29-.81.46-1.24,1.34-1.08,2.26s.89,1.77,1.79,2.08c1.14.39,2.42,0,3.3-.78.17-.15-.08-.4-.25-.25-.99.87-2.6,1.19-3.67.29-.94-.79-1.21-2.25-.2-3.1.49-.41,1.19-.59,1.79-.32l-.08-.1c.13.81-.75,1.54-1.52,1.32-.22-.06-.31.27-.09.34h0Z"/><path class="cls-1" d="M94.29,19.07c-.02,1.85.26,3.69.84,5.44.07.21.41.12.34-.09-.56-1.73-.84-3.53-.82-5.35,0-.23-.35-.23-.35,0h0Z"/><path class="cls-1" d="M93.89,21.93h2.68c.23,0,.23-.35,0-.35h-2.68c-.23,0-.23.35,0,.35h0Z"/><path class="cls-1" d="M105.01,20.73c-1.03-.47-2.36-.63-3.31.1-.77.59-1.17,1.7-.66,2.58s1.74,1.33,2.73,1.33c.94,0,1.98-.43,2.25-1.41.24-.84-.13-1.95-1.07-2.13-.22-.04-.31.3-.09.34.68.13.96.88.87,1.51-.13.84-.95,1.28-1.74,1.34-.85.06-1.84-.22-2.43-.85-.63-.67-.45-1.66.17-2.27.82-.81,2.14-.68,3.11-.24.2.09.38-.21.18-.3h0Z"/><path class="cls-1" d="M107.73,21.45l.02,2.84h.35c-.15-1.14-.32-2.64.78-3.39,1.02-.7,2.11.24,2.39,1.24.2.73.13,1.49.06,2.23-.01.15.2.24.3.12.12-.15.25-.3.37-.44.14-.17-.1-.42-.25-.25-.12.15-.25.3-.37.44l.3.12c.12-1.33.17-2.89-1.05-3.74-.48-.33-1.09-.42-1.63-.19s-.94.74-1.16,1.28c-.31.81-.2,1.72-.09,2.56.03.22.35.23.35,0l-.02-2.84c0-.23-.35-.23-.35,0h0Z"/><path class="cls-1" d="M113.51,18.8c.33,2.1.66,4.2.99,6.29.03.22.37.13.34-.09-.33-2.1-.66-4.2-.99-6.29-.03-.22-.37-.13-.34.09h0Z"/><path class="cls-1" d="M113.28,21.97l3.27-.36c.22-.02.22-.37,0-.35l-3.27.36c-.22.02-.22.37,0,.35h0Z"/><path class="cls-1" d="M117.58,21.45c.05,1.08-1.38,2.59-.18,3.48.46.34,1.13.33,1.64.09.65-.31,1.06-.96,1.44-1.54l-.33-.09c.01.64.06,1.4.64,1.81.46.33,1.06.26,1.54.01,1.53-.79,1.08-2.69.65-4.01-.07-.21-.41-.12-.34.09.36,1.09.86,2.71-.3,3.5-.36.24-.86.39-1.26.17-.55-.3-.56-1.03-.58-1.58,0-.18-.23-.23-.33-.09-.33.52-.69,1.09-1.25,1.38-.44.23-1.12.26-1.46-.17s-.12-1.04.07-1.5c.2-.5.43-1.01.41-1.56-.01-.22-.36-.23-.35,0h0Z"/><path class="cls-1" d="M124.18,22.57c.96.39,2.57.9,3.22-.26.38-.69.21-1.86-.77-1.82-.31.01-.59.15-.87.27s-.52.25-.77.41c-.45.28-.87.64-1.06,1.14-.44,1.13.52,2.19,1.55,2.5.73.22,1.51.18,2.26.13.58-.04,1.22-.14,1.55-.67.12-.19-.18-.37-.3-.18-.25.39-.76.46-1.18.5-.52.04-1.06.07-1.58.01-.92-.09-2.1-.68-2.06-1.77.03-.91,1.02-1.42,1.74-1.76.37-.17.95-.44,1.23,0,.16.26.14.62.03.9-.45,1.18-2.07.59-2.9.25-.21-.08-.3.25-.09.34h0Z"/><path class="cls-1" d="M128.93,22.73l.8,1.68c.07.15.34.08.33-.09-.07-.82-.16-1.76.26-2.51.33-.59,1.04-1.05,1.72-.8.21.08.3-.26.09-.34-.78-.28-1.61.19-2.04.84-.55.82-.46,1.88-.39,2.81l.33-.09-.8-1.68c-.1-.2-.4-.03-.3.18h0Z"/><path class="cls-1" d="M131.05,22.34c.11,1.31.38,2.6.81,3.84.06.18.35.16.34-.05-.04-1.01-.01-2.03.1-3.03.05-.48.1-.96.21-1.43.05-.2.12-.42.31-.54.2-.13.46-.13.69-.14.88-.03,1.9-.03,2.53.68.58.64.4,1.51-.35,1.91-.97.52-2.06,0-2.95-.45-.2-.1-.38.2-.18.3.93.46,2.02.98,3.06.56.79-.31,1.36-1.12,1.03-1.98-.37-.96-1.39-1.33-2.34-1.38-.48-.02-1.08-.07-1.53.12s-.59.65-.67,1.11c-.24,1.41-.33,2.85-.27,4.27l.34-.05c-.41-1.21-.68-2.47-.8-3.75-.02-.22-.37-.22-.35,0h0Z"/><path class="cls-1" d="M136.84,22.86c-.26,1.25-.27,2.52-.05,3.77.03.17.31.17.34,0,.19-1.15.36-2.31.58-3.45.16-.87.46-1.93,1.4-2.25.8-.27,1.79.06,2.14.85.33.74.07,1.74-.64,2.18-.81.5-1.96.14-2.41-.68-.11-.2-.41-.02-.3.18.45.83,1.49,1.26,2.4,1.01s1.5-1.21,1.43-2.15-.81-1.68-1.75-1.81c-1.08-.14-1.93.51-2.32,1.49-.25.63-.33,1.32-.44,1.98-.14.85-.28,1.7-.42,2.55h.34c-.22-1.19-.2-2.4.05-3.59.05-.22-.29-.31-.34-.09h0Z"/><path class="cls-1" d="M142.87,22.94l-.18,1.61.33-.09c-.43-.78-.29-1.84.36-2.47s1.75-.72,2.51-.23c.19.12.37-.18.18-.3-.7-.45-1.61-.48-2.36-.12s-1.22,1.14-1.28,1.97c-.03.46.07.92.29,1.33.09.17.31.07.33-.09l.18-1.61c.03-.22-.32-.22-.35,0h0Z"/><path class="cls-1" d="M148.25,22c-.8-.16-1.6.26-2.05.93s-.43,1.5.06,2.12c.44.55,1.18.87,1.88.79s1.28-.6,1.49-1.29c.23-.75.04-1.65-.58-2.15-.17-.14-.42.11-.25.25.89.72.72,2.44-.44,2.79-.56.17-1.19,0-1.62-.39-.48-.42-.65-1.07-.39-1.66.3-.68,1.06-1.19,1.81-1.04.22.04.31-.29.09-.34h0Z"/><path class="cls-1" d="M153.3,22.54c-.96-.49-2.43-.43-3.05.57-.76,1.23.43,2.62,1.61,2.91.95.24,1.94.04,2.88-.16.22-.05.13-.38-.09-.34-1.27.27-2.86.58-3.84-.53-.37-.42-.58-1.01-.35-1.55.18-.43.6-.68,1.04-.79.54-.13,1.13-.06,1.62.19.2.1.38-.2.18-.3h0Z"/><path class="cls-1" d="M155.32,24.61h1.78c.39.01.89.01,1.03-.44.1-.33-.05-.72-.33-.92-.39-.28-.92-.23-1.37-.2-.87.07-1.88.24-2.29,1.13-.17.36-.19.77.01,1.12.22.38.64.65,1.01.87.95.57,2.04.86,3.15.84.23,0,.23-.35,0-.35-.79,0-1.58-.14-2.3-.45-.35-.15-.69-.34-1.01-.57-.29-.2-.61-.46-.64-.84-.06-.8.78-1.21,1.44-1.33.37-.07.77-.1,1.14-.1.34,0,.76.08.86.47.13.53-.58.43-.89.43h-1.58c-.23,0-.23.34,0,.34h0Z"/><path class="cls-1" d="M161.93,23.44c-.43-.37-.94-.79-1.54-.78-.47,0-.97.33-1.06.81-.12.6.51.99.9,1.32.57.48,1.13.97,1.7,1.45l.08-.29c-1.26.45-2.62.58-3.94.37-.22-.04-.32.3-.09.34,1.39.22,2.8.1,4.13-.37.11-.04.18-.2.08-.29-.44-.38-.89-.76-1.33-1.14-.21-.18-.42-.36-.64-.54-.18-.15-.41-.31-.5-.53-.18-.41.33-.76.69-.77.5,0,.94.38,1.29.68.17.15.42-.1.25-.25h0Z"/><path class="cls-1" d="M41.43,33.29c-1.44-.24-4.13-.28-4.07,1.84.02.84.58,1.63,1.37,1.91.9.32,1.94-.02,2.59-.69.82-.84.98-2.11.69-3.21l-.34.09c.27.95.53,1.9.8,2.85.24.87.67,1.92.27,2.8-.31.68-1.06,1.15-1.81,1.08-.81-.07-1.48-.72-1.64-1.5-.05-.22-.38-.13-.34.09.17.82.83,1.51,1.65,1.71s1.64-.14,2.16-.76c.64-.78.53-1.76.29-2.67-.33-1.23-.69-2.46-1.03-3.69-.06-.22-.39-.13-.34.09.27,1.06.1,2.31-.79,3.04-.82.68-2.14.77-2.83-.15-.6-.8-.41-1.92.51-2.37.83-.4,1.87-.28,2.75-.14.22.04.32-.3.09-.34h0Z"/><path class="cls-1" d="M46.64,33.72c-.68-.4-1.57-.31-2.22.12s-1.05,1.19-.8,1.94c.23.7.93,1.19,1.65,1.27.35.04.72-.03,1.01-.24.38-.27.59-.7.72-1.14.08-.29.14-.58.18-.87.05-.31.08-.63,0-.93-.13-.49-.65-.93-1.17-.74-.21.08-.12.42.09.34.43-.16.73.3.77.67.04.44-.08.92-.19,1.34-.1.37-.25.77-.56,1.01-.22.17-.51.23-.79.21-.56-.04-1.13-.42-1.35-.94-.24-.57.05-1.2.52-1.55.55-.42,1.35-.54,1.96-.18.19.11.37-.19.18-.3h0Z"/><path class="cls-1" d="M48.27,34.72c.59.07,1.19.08,1.78.01.4-.05.92-.08,1.19-.42s.07-.77-.24-1-.77-.27-1.15-.16c-.77.23-1.35,1-1.29,1.81.07.86.72,1.58,1.51,1.87,1.04.38,2.2-.05,3-.74.17-.15-.08-.39-.25-.25-.58.5-1.34.82-2.12.76-.7-.05-1.35-.48-1.65-1.11s-.14-1.3.38-1.73c.24-.2.55-.34.87-.33.27,0,.9.27.67.64-.1.15-.31.2-.47.23-.24.05-.48.08-.72.1-.5.04-1.01.02-1.51-.04-.22-.03-.22.32,0,.35h0Z"/><path class="cls-1" d="M55.94,34.56c.04-.44-.24-.81-.63-1-.44-.22-.93-.21-1.38-.01-.92.4-1.46,1.44-1.17,2.41s1.23,1.61,2.23,1.45,1.79-.94,2.16-1.84c.57-1.39.13-2.97-.28-4.33-.05-.18-.35-.16-.34.05.07,1.86.42,3.69,1.05,5.45.08.21.41.12.34-.09-.62-1.72-.97-3.52-1.03-5.35l-.34.05c.52,1.75,1.09,4.15-.73,5.37-.68.46-1.58.54-2.22-.05s-.75-1.62-.16-2.31c.3-.35.76-.61,1.23-.6.45.02.97.31.92.81-.02.22.33.22.35,0h0Z"/><path class="cls-1" d="M64.79,34.43c-.82-.65-1.98-.87-2.94-.39-.86.43-1.27,1.38-1.09,2.31s1.03,1.6,2.01,1.45c1.15-.18,1.94-1.19,2.2-2.27.18-.77.16-1.57.13-2.36-.04-.89-.08-1.77-.12-2.66h-.35c.14,1.58.28,3.16.43,4.74.05.58.02,1.24.33,1.77.2.35.55.6.94.37.19-.11.02-.42-.18-.3-.48.28-.65-.82-.67-1.08-.06-.62-.11-1.24-.17-1.86-.11-1.21-.22-2.43-.33-3.64-.02-.22-.36-.23-.35,0,.06,1.17.15,2.35.15,3.52,0,1.07-.17,2.24-1.05,2.96-.71.58-1.85.73-2.4-.14-.41-.66-.33-1.65.25-2.19.81-.77,2.15-.64,2.98.02.17.14.42-.11.25-.25h0Z"/><path class="cls-1" d="M70.06,33.91c-.52-.57-1.43-.65-2.09-.28-.84.47-.94,1.56-.75,2.42.18.8.67,1.65,1.46,1.98.84.36,1.72-.06,2.18-.8.71-1.12.33-2.46-.04-3.63-.07-.21-.41-.12-.34.09.29.91.62,1.92.3,2.87-.24.7-.87,1.36-1.67,1.23-.71-.11-1.2-.78-1.44-1.42-.25-.68-.36-1.72.21-2.27.51-.49,1.43-.49,1.91.04.15.17.4-.08.25-.25h0Z"/><path class="cls-1" d="M73.51,34.12c-.45-.55-1.3-.36-1.75.1-.62.63-.47,1.64-.35,2.43.06.41.15.84.44,1.15.21.23.5.35.8.38.66.06,1.35-.33,1.69-.88.55-.89.34-2.03.16-2.99-.04-.22-.38-.13-.34.09.14.74.29,1.54.07,2.28-.17.58-.62,1.01-1.21,1.13-.24.05-.5.03-.72-.09-.28-.16-.41-.46-.49-.77-.08-.35-.13-.72-.15-1.08s-.01-.77.15-1.11c.23-.5,1.03-.9,1.45-.39.14.17.39-.07.25-.25h0Z"/><path class="cls-1" d="M75.52,35.52l.76,2.69.32-.13c-.24-.5-.44-1.04-.48-1.6-.03-.45.04-.96.35-1.31.42-.47,1.36-.8,1.82-.19.13.18.44,0,.3-.18-.44-.59-1.23-.61-1.84-.29-.78.41-1.06,1.27-.96,2.11.07.57.27,1.12.51,1.64.09.18.37.05.32-.13l-.76-2.69c-.06-.22-.4-.12-.34.09h0Z"/><path class="cls-1" d="M82.56,36.55c.75.02,1.49-.07,2.22-.26.44-.12,1.15-.27,1.24-.82s-.52-.97-.93-1.2c-.53-.3-1.14-.54-1.77-.52-.96.03-1.99.9-1.75,1.94.13.55.64.91,1.1,1.16.51.28,1.07.47,1.65.56,1.3.2,2.65-.09,3.73-.85.18-.13,0-.43-.18-.3-1.51,1.06-3.6,1.16-5.19.2-.41-.25-.84-.59-.8-1.12.03-.43.33-.82.7-1.04.45-.27,1.01-.24,1.5-.09s1.01.38,1.35.73c.1.1.21.23.24.37.04.21-.13.34-.3.42-.27.12-.57.2-.85.27-.64.16-1.3.22-1.96.21-.23,0-.23.35,0,.35h0Z"/><path class="cls-1" d="M87.65,34.66c.29.9.58,1.8.87,2.7l.32-.13c-.8-1.09-.25-2.79,1.12-3.04.62-.12,1.32.07,1.78.52.57.56.67,1.44.53,2.19-.04.22.3.31.34.09.13-.69.09-1.44-.26-2.06-.3-.54-.83-.91-1.43-1.05-1.22-.3-2.43.39-2.73,1.62-.16.65-.05,1.36.35,1.91.11.15.39.07.32-.13-.29-.9-.58-1.8-.87-2.7-.07-.21-.41-.12-.34.09h0Z"/><path class="cls-1" d="M97.9,34.62l.64,2.44c.05.19.37.15.34-.05-.07-.68-.17-1.42.09-2.08s.89-1.21,1.61-.99c.99.3,1.3,1.7,1.44,2.58l.34-.09c-.16-.81.23-1.69.93-2.12.75-.46,1.7-.28,2.32.31.28.27.49.61.57.99s.04.82.24,1.17c.24.41.8.6,1.17.25.16-.15-.08-.4-.25-.25s-.45.03-.56-.11c-.13-.16-.16-.38-.19-.57s-.03-.39-.07-.58c-.07-.33-.22-.63-.43-.9-.43-.55-1.11-.91-1.82-.93-1.47-.04-2.53,1.45-2.25,2.83.04.22.37.13.34-.09-.17-1.07-.64-2.73-1.94-2.87-.67-.07-1.25.32-1.59.88-.47.77-.39,1.72-.3,2.58l.34-.05-.64-2.44c-.06-.22-.39-.13-.34.09h0Z"/><path class="cls-1" d="M111.53,34.14c-.82-.34-1.82-.6-2.69-.29-.73.26-1.22.9-1.2,1.68.02.71.4,1.42.99,1.82.67.46,1.55.39,2.22-.05.82-.54,1.32-1.53,1.22-2.51l-.34.05c.37,1.31,1.2,2.44,2.35,3.18.19.12.37-.18.18-.3-1.07-.69-1.84-1.75-2.19-2.97-.05-.18-.36-.16-.34.05.08.75-.22,1.48-.77,1.99-.51.47-1.29.71-1.94.38-1.16-.59-1.46-2.48-.07-2.98.81-.29,1.74-.03,2.5.29.21.09.3-.25.09-.34h0Z"/><path class="cls-1" d="M117.19,33.83c-1.3-.18-3.4.24-3.49,1.87-.04.75.5,1.38,1.17,1.65.74.31,1.54.17,2.14-.36.72-.64.99-1.67.86-2.61-.03-.19-.37-.15-.34.05.15,1.17.84,2.21,1.87,2.78.2.11.37-.19.18-.3-.92-.51-1.56-1.44-1.7-2.48l-.34.05c.18,1.32-.77,3.06-2.31,2.63-.59-.16-1.16-.65-1.17-1.3-.01-.62.42-1.07.94-1.33.64-.32,1.41-.4,2.11-.3.22.03.32-.31.09-.34h0Z"/><path class="cls-1" d="M119.95,33.09l.45,3.84c.02.17.22.24.33.09.79-1.1,1.82-2,3-2.67.11-.06.12-.24,0-.3-.98-.47-1.78.72-1.66,1.6.18,1.21,1.67,1.65,2.67,1.9.22.06.31-.28.09-.34-.84-.21-1.99-.5-2.36-1.4-.25-.6.29-1.85,1.08-1.47v-.3c-1.23.69-2.29,1.65-3.12,2.79l.33.09-.45-3.84c-.03-.22-.38-.22-.35,0h0Z"/><path class="cls-1" d="M125.29,32.6c.33.77.63,1.56.89,2.37.13.39.24.78.35,1.17.06.2.11.41.16.61.02.08.05.16.06.23,0,.05.01.09,0,.14.12,0,.12.05-.02.15.23,0,.23-.35,0-.35-.39,0-.25.6.09.56.54-.07.17-.99.1-1.26-.35-1.29-.8-2.56-1.33-3.79-.09-.21-.39-.03-.3.18h0Z"/><path class="cls-1" d="M124.91,35.05h3.58c.23,0,.23-.35,0-.35h-3.58c-.23,0-.23.35,0,.35h0Z"/><path class="cls-1" d="M135.62,36.46c.87.2,1.76-.6,1.65-1.5s-1.07-1.46-1.9-1.25-1.31,1.04-1.32,1.83c-.02.92.64,1.7,1.43,2.09,1.18.58,2.53.32,3.7-.14.21-.08.12-.42-.09-.34-.86.34-1.82.59-2.74.41-.73-.15-1.43-.59-1.77-1.27-.3-.61-.19-1.38.28-1.88.5-.53,1.32-.51,1.81.04.28.32.35.77.13,1.14s-.65.62-1.08.53c-.22-.05-.31.29-.09.34h0Z"/><path class="cls-1" d="M139.82,35.93c.65.06,1.3.04,1.95-.05.38-.06.91-.22.97-.67.06-.42-.33-.66-.69-.74-.46-.11-1.02-.13-1.48-.03-.91.2-1.3,1.08-1.04,1.93.3.98,1.22,1.44,2.18,1.58.53.08,1.13.13,1.66.06.41-.06.9-.26.88-.75,0-.22-.36-.23-.35,0,.01.32-.43.4-.68.42-.39.03-.8,0-1.19-.03-.75-.07-1.58-.3-1.99-.99-.31-.53-.39-1.33.19-1.7.34-.22.78-.23,1.18-.2.27.02.76,0,.94.26.29.41-.62.54-.83.56-.56.07-1.13.07-1.69.02-.22-.02-.22.33,0,.35h0Z"/><path class="cls-1" d="M144.5,35.17c.05,1.01.38,1.97.98,2.78.13.18.41.03.3-.18-.34-.68-.22-1.54.27-2.12s1.32-.74,2.03-.48c1.8.66.95,2.85,1.9,4.1.13.18.44,0,.3-.18-.48-.63-.46-1.45-.58-2.19-.1-.69-.35-1.33-.93-1.75-1.08-.79-2.66-.52-3.28.7-.33.66-.36,1.43-.03,2.09l.3-.18c-.56-.76-.89-1.66-.94-2.61-.01-.22-.36-.23-.35,0h0Z"/><path class="cls-1" d="M36.31,46.32c.42.91.39,2.09-.22,2.91-.55.74-1.54.97-2.38.61-.44-.19-.8-.53-.93-1-.06-.22-.4-.12-.34.09.28,1,1.38,1.52,2.37,1.41,1.16-.13,1.94-1.11,2.1-2.22.1-.68,0-1.36-.29-1.98-.09-.2-.4-.03-.3.18h0Z"/><path class="cls-1" d="M36.16,44.54l.3-.3s.05-.08.05-.12-.02-.09-.05-.12-.08-.05-.12-.05-.09.02-.12.05l-.3.3s-.05.08-.05.12.02.09.05.12.08.05.12.05.09-.02.12-.05h0Z"/><path class="cls-1" d="M39.49,45.44c-.78.7-.47,2.07.4,2.55,1.12.62,2.48-.09,3.05-1.11.37-.66.49-1.42.48-2.17,0-.23-.35-.23-.35,0,.01,1.07-.29,2.3-1.28,2.88-.81.47-1.98.36-2.32-.63-.15-.44-.09-.95.27-1.27.17-.15-.08-.4-.25-.25h0Z"/><path class="cls-1" d="M45.82,45.51c.79.27,1.37,1.06,1.41,1.89.01.22.36.23.35,0-.05-1-.72-1.9-1.67-2.23-.21-.07-.3.26-.09.34h0Z"/><path class="cls-1" d="M48.74,43.82v-.3s-.02-.09-.05-.12-.08-.05-.12-.05-.09.02-.12.05-.05.08-.05.12v.3s.02.09.05.12.08.05.12.05.09-.02.12-.05.05-.08.05-.12h0Z"/><path class="cls-1" d="M52.16,44.31c-1-.34-2.18-.01-2.85.8-.05.06-.07.14-.03.21.42.83,1.58.35,2.29.35.38,0,.81.15.84.6s-.26.87-.65,1.05c-.7.32-1.56-.08-2.21-.37-.2-.09-.38.21-.18.3.68.31,1.42.62,2.18.49.54-.1.97-.5,1.14-1.02.15-.47.01-1.01-.45-1.25s-.96-.14-1.43-.08c-.4.06-1.01.2-1.24-.25l-.03.21c.6-.73,1.61-1.02,2.5-.71.21.07.31-.26.09-.34h0Z"/><path class="cls-1" d="M54.24,42.9c.97,1.37,1.32,3.1.96,4.74-.05.22.29.31.34.09.39-1.72.03-3.57-.99-5.01-.13-.18-.43,0-.3.18h0Z"/><path class="cls-1" d="M54.55,45.06l2.71-.43c.22-.04.13-.37-.09-.34l-2.71.43c-.22.04-.13.37.09.34h0Z"/><path class="cls-1" d="M58.4,46.11c1.19,0,2.35-.27,3.41-.8.11-.05.11-.2.04-.27-.9-.98-2.55-1.09-3.58-.24-.55.45-.89,1.22-.54,1.9.29.56.95.84,1.54.93.99.14,1.98-.29,2.96-.03.22.06.31-.28.09-.34-.75-.2-1.51-.03-2.27.03-.58.05-1.2-.01-1.68-.37-.57-.42-.54-1.12-.1-1.63.39-.45.97-.69,1.56-.71.66-.02,1.31.22,1.76.71l.04-.27c-1,.51-2.11.76-3.23.75-.23,0-.23.35,0,.35h0Z"/><path class="cls-1" d="M67.02,43.09c.58,1.29.56,2.81-.04,4.09-.08.17.14.37.27.21,1.06-1.26,2.34-2.31,3.78-3.09.2-.11.02-.41-.18-.3-1.47.8-2.78,1.87-3.85,3.14l.27.21c.67-1.4.68-3.03.04-4.44-.09-.2-.39-.03-.3.18h0Z"/><path class="cls-1" d="M69,45.39c.55,1.09,1.59,1.9,2.78,2.17.22.05.31-.29.09-.34-1.11-.25-2.06-1-2.57-2.01-.1-.2-.4-.02-.3.18h0Z"/><path class="cls-1" d="M72.75,45.65c.5.17,1.05.34,1.58.21.4-.1.78-.42.89-.83.05-.19.07-.45-.1-.58-.14-.11-.31-.2-.48-.25-.35-.11-.75-.09-1.1.03-.75.26-1.26.93-1.22,1.74s.55,1.57,1.31,1.88c.94.38,2.06.05,2.73-.68.15-.16-.09-.41-.25-.25-.48.52-1.2.81-1.91.72s-1.23-.57-1.44-1.21c-.2-.6-.06-1.27.47-1.65.24-.17.52-.28.82-.3.25-.02.63.02.82.21.11.11,0,.34-.07.46-.11.16-.28.29-.47.35-.48.16-1.02-.03-1.47-.19-.21-.07-.31.27-.09.34h0Z"/><path class="cls-1" d="M76.84,44.46c-.09.69-.18,1.42.06,2.09.19.53.63,1,1.18,1.15.47.13,1-.02,1.31-.41.28-.35.35-.83.32-1.27-.03-.57-.19-1.13-.41-1.65-.09-.21-.39-.03-.3.18.17.39.29.8.34,1.22.05.37.05.79-.12,1.14s-.54.54-.92.48c-.47-.07-.87-.46-1.04-.88-.26-.64-.16-1.38-.07-2.05.03-.22-.32-.22-.35,0h0Z"/><path class="cls-1" d="M83.45,44.26c-.45-.03-.89-.05-1.34-.04-.34,0-.73-.02-1.05.13-.54.25-.54.84-.19,1.25.19.22.44.39.7.51s.56.16.84.23c.42.11,1.24.39,1.08.97l.08-.1c-1.21.84-2.89.84-4.09-.01-.18-.13-.36.17-.18.3.66.46,1.45.7,2.25.69.4,0,.8-.06,1.18-.18.18-.06.35-.13.52-.21s.41-.18.53-.32c.18-.21.07-.61-.08-.8-.19-.26-.48-.42-.77-.53-.64-.26-1.48-.23-1.89-.9-.09-.15-.12-.31,0-.45.14-.17.39-.2.59-.21.6-.04,1.22-.02,1.82.03.22.02.22-.33,0-.35h0Z"/><path class="cls-1" d="M89.96,45.95c.63.57.93,1.46.75,2.29-.05.22.29.31.34.09.2-.95-.12-1.97-.84-2.63-.17-.15-.41.1-.25.25h0Z"/><path class="cls-1" d="M91.21,43.99h.6c.09,0,.18-.08.18-.18s-.08-.18-.18-.18h-.6c-.09,0-.18.08-.18.18s.08.18.18.18h0Z"/><path class="cls-1" d="M92.76,45.66l.48,2.33.32-.13c-.39-.88-.82-2.31.42-2.71,1.06-.34,2.46-.11,3.06.92.3.52.37,1.17.07,1.7-.11.2.19.37.3.18.31-.55.31-1.21.07-1.79-.26-.61-.76-1.06-1.37-1.3-1.08-.42-3.04-.31-3.28,1.11-.12.71.15,1.43.43,2.06.08.19.36.05.32-.13l-.48-2.33c-.05-.22-.38-.13-.34.09h0Z"/><path class="cls-1" d="M101.57,42.97c.86,1.39,1.41,2.95,1.61,4.57l.33-.09c-.31-.61-.11-1.35.35-1.82.52-.53,1.32-.69,2.04-.64s1.49.34,1.89.98c.38.6.45,1.34.51,2.02.02.22.37.22.35,0-.07-.83-.16-1.73-.7-2.4s-1.43-.95-2.27-.96-1.7.26-2.23.93c-.46.59-.59,1.39-.25,2.07.07.15.35.09.33-.09-.21-1.69-.77-3.3-1.66-4.75-.12-.19-.42-.02-.3.18h0Z"/><path class="cls-1" d="M109.41,46.25c.7.25,1.86.46,2.42-.19.66-.76-.13-1.7-.98-1.73-1.05-.03-1.5,1.18-1.34,2.05s.85,1.52,1.67,1.81c.91.32,1.98.19,2.68-.5.16-.16-.09-.4-.25-.25-.99.96-2.86.63-3.54-.55-.37-.64-.36-1.69.34-2.11.57-.34,1.64.22,1.24.93-.18.31-.58.39-.91.4-.42.01-.84-.08-1.23-.22-.21-.08-.3.26-.09.34h0Z"/><path class="cls-1" d="M113.97,43.11c1.19,1.42,1.71,3.34,1.39,5.16-.04.22.3.31.34.09.34-1.96-.2-3.98-1.48-5.5-.14-.17-.39.08-.25.25h0Z"/><path class="cls-1" d="M113.27,45.78h3.58c.23,0,.23-.35,0-.35h-3.58c-.23,0-.23.35,0,.35h0Z"/><path class="cls-1" d="M124.1,45.51c-.54-.58-1.31-1-2.12-.9-.69.08-1.35.62-1.49,1.32-.13.64.25,1.24.82,1.52.61.3,1.33.25,1.88-.15.68-.5,1-1.36,1.03-2.18,0-.19-.3-.24-.34-.05-.17.77,0,1.53.21,2.27s.5,1.53.39,2.31c-.13.85-.87,1.48-1.74,1.43s-1.58-.95-1.46-1.83c.03-.22-.31-.32-.34-.09-.2,1.46,1.2,2.68,2.61,2.15.64-.24,1.11-.79,1.25-1.46s-.04-1.4-.22-2.06c-.24-.84-.55-1.73-.36-2.62l-.34-.05c-.03.74-.32,1.54-.96,1.96-.56.36-1.35.29-1.81-.2-.58-.61-.15-1.5.54-1.8.8-.35,1.68.12,2.22.7.15.17.4-.08.25-.25h0Z"/><path class="cls-1" d="M126.1,46.69c.6.02,1.2-.02,1.8-.11.51-.08,1.1-.15,1.53-.48.31-.23.52-.64.24-.97s-.8-.31-1.19-.31c-.81-.01-1.84.16-2.12,1.05-.26.8.35,1.67,1.05,2.02,1.14.57,2.47-.08,3.49-.61.2-.1.02-.4-.18-.3-.8.41-1.7.87-2.63.75-.67-.08-1.32-.62-1.43-1.31-.13-.79.62-1.17,1.29-1.24.34-.03.71-.03,1.05,0,.16.02.38.06.44.23.06.19-.15.36-.29.45-.39.25-.93.3-1.38.37-.55.08-1.11.11-1.67.09-.23,0-.23.34,0,.35h0Z"/><path class="cls-1" d="M130.95,43.14c.24,1.59.48,3.18.72,4.77.03.2.34.14.34-.05.03-1.24,1.13-2.66,2.49-2.17.57.2,1.09.74,1.11,1.37.01.52-.36.92-.84,1.07s-1.08.07-1.33-.42c-.1-.2-.41-.02-.3.18.59,1.13,2.5.71,2.78-.45.18-.75-.26-1.48-.88-1.87-.67-.43-1.5-.42-2.16,0-.76.49-1.2,1.39-1.22,2.29l.34-.05c-.24-1.59-.48-3.18-.72-4.77-.03-.22-.37-.13-.34.09h0Z"/><path class="cls-1" d="M137.05,46.24c.1.66.21,1.32.31,1.99l.34-.09c-.17-.81-.36-1.75.03-2.53.26-.51.87-.81,1.43-.7.28.05.52.21.61.49.07.21.41.12.34-.09-.23-.69-1.02-.87-1.66-.69-.34.1-.65.29-.86.56-.29.37-.41.86-.43,1.33-.03.58.08,1.16.2,1.72.05.22.37.12.34-.09-.1-.66-.21-1.32-.31-1.99-.03-.22-.37-.13-.34.09h0Z"/><path class="cls-1" d="M140.86,45.58c-.17.94.03,2.17.83,2.79.4.31.94.4,1.41.21.55-.22.94-.72,1.11-1.27.24-.8,0-1.67-.31-2.41-.08-.21-.42-.12-.34.09.25.6.45,1.24.38,1.89-.06.51-.33,1.02-.78,1.29-.37.22-.84.22-1.2-.03-.33-.23-.54-.61-.66-.99-.15-.47-.19-.99-.11-1.48.04-.22-.3-.31-.34-.09h0Z"/><path class="cls-1" d="M146.85,45.68l1.15,2.11c.11.2.41.02.3-.18l-1.15-2.11c-.11-.2-.41-.02-.3.18h0Z"/><path class="cls-1" d="M147.99,43.94l.3-.3s.05-.08.05-.12-.02-.09-.05-.12-.08-.05-.12-.05-.09.02-.12.05l-.3.3s-.05.08-.05.12.02.09.05.12.08.05.12.05.09-.02.12-.05h0Z"/><path class="cls-1" d="M148.44,44.17c1.37.31,2.29,1.82,1.94,3.18-.04.16.12.26.26.2.86-.37,1.66-.89,2.35-1.52.2-.19.66-.57.39-.88-.17-.19-.58-.11-.55.18.02.22.37.22.35,0,0,0-.15.17-.17.2-.04.05-.09.09-.14.14-.1.09-.2.18-.3.27-.22.18-.44.36-.67.52-.45.31-.92.57-1.42.78l.26.2c.4-1.54-.63-3.25-2.18-3.61-.22-.05-.31.29-.09.34h0Z"/><path class="cls-1" d="M151.68,46.92c.99.7,1.98,1.4,2.97,2.11.18.13.36-.17.18-.3-.99-.7-1.98-1.4-2.97-2.11-.18-.13-.36.17-.18.3h0Z"/><path class="cls-1" d="M57.06,55.71c-.21,1.15.03,2.35.68,3.33.08.12.29.11.32-.04.35-1.6,1.24-3.04,2.5-4.08.17-.14-.07-.39-.25-.25-1.31,1.07-2.23,2.58-2.59,4.23l.32-.04c-.59-.9-.83-2-.64-3.06.04-.22-.3-.31-.34-.09h0Z"/><path class="cls-1" d="M64.51,55.51c-.81-.37-1.77-.47-2.61-.11-.75.32-1.25.99-1.27,1.81-.02.7.31,1.46.98,1.76.9.4,1.99-.17,2.66-.77.76-.68,1.28-1.73.82-2.72-.06-.13-.29-.1-.32.04-.25,1.42.51,2.91,1.83,3.5.2.09.38-.21.18-.3-1.17-.52-1.89-1.83-1.67-3.1l-.32.04c.34.74-.03,1.54-.56,2.09s-1.49,1.16-2.31.95c-.59-.15-.9-.77-.93-1.34-.03-.68.3-1.25.89-1.57.75-.4,1.7-.33,2.45.01.2.09.38-.21.18-.3h0Z"/><path class="cls-1" d="M68.31,55.75c.07.88.14,1.76.21,2.65l.34-.05c-.23-.86.06-1.82.74-2.4.72-.61,1.8-.68,2.62-.23l-.08-.1c.38.99.51,2.05.38,3.11-.03.22.32.22.35,0,.09-.72.06-1.46-.09-2.17-.04-.17-.08-.35-.13-.52s-.09-.37-.18-.53c-.12-.21-.55-.3-.76-.35-1.18-.27-2.44.28-2.99,1.37-.29.59-.37,1.27-.2,1.91.05.19.36.15.34-.05-.07-.88-.14-1.76-.21-2.65-.02-.22-.37-.22-.35,0h0Z"/><path class="cls-1" d="M77.66,56.09l.33,2.15.34-.09c-.17-.55-.3-1.17-.13-1.74.2-.64.8-.94,1.44-.8,1.38.31,1.65,1.87,1.84,3.04l.34-.09c-.36-1.29.8-2.8,2.17-2.64,1.28.15,2.15,1.69,1.65,2.86-.09.21.21.38.3.18.59-1.39-.37-3.2-1.91-3.39-1.62-.2-2.98,1.55-2.56,3.08.06.22.37.12.34-.09-.22-1.4-.7-3.26-2.44-3.33-.63-.03-1.19.32-1.44.9-.29.67-.15,1.45.06,2.11.07.22.37.13.34-.09-.11-.72-.22-1.43-.33-2.15-.03-.22-.37-.13-.34.09h0Z"/><path class="cls-1" d="M88.28,57.13c.97-.19,1.85-.65,2.56-1.33.1-.1.04-.25-.08-.29-.75-.28-1.62-.42-2.36-.06-.6.29-1.09.92-1.04,1.61s.57,1.22,1.18,1.48c.77.33,1.66.23,2.47.12.67-.09,1.45-.31,1.69-1.02.07-.21-.27-.31-.34-.09-.23.69-1.19.75-1.8.81-.82.08-1.75.12-2.4-.47-.59-.54-.56-1.36.04-1.89.69-.6,1.69-.45,2.48-.15l-.08-.29c-.67.64-1.5,1.06-2.41,1.24-.22.04-.13.38.09.34h0Z"/><path class="cls-1" d="M93.19,53.4c.29,1.79.58,3.58.88,5.37.04.22.37.13.34-.09-.29-1.79-.58-3.58-.88-5.37-.04-.22-.37-.13-.34.09h0Z"/><path class="cls-1" d="M92.7,55.91l3.87.38c.22.02.22-.33,0-.35l-3.87-.38c-.22-.02-.22.33,0,.35h0Z"/><path class="cls-1" d="M97.89,53.54l-.65-.78c-.09-.11-.31-.02-.3.12.19,1.73.61,3.41,1.27,5.02l.29-.17c-.85-.8-.02-2.37,1.04-2.44,1.35-.09,2.09,1.6,1.7,2.72-.07.21.26.3.34.09.38-1.1-.14-2.51-1.23-3s-2.17.23-2.48,1.3c-.16.56-.06,1.17.38,1.58.12.11.36,0,.29-.17-.64-1.58-1.07-3.24-1.25-4.93l-.3.12.65.78c.14.17.39-.08.25-.25h0Z"/><path class="cls-1" d="M104.03,55.27l-.8.04-.4.02c-.11,0-.25-.02-.34.06-.26.22-.37.65-.39.97-.04.73.35,1.48.93,1.91s1.43.61,2.14.36c.66-.23,1.11-.78,1.13-1.49s-.36-1.42-1.08-1.57c-.22-.04-.31.29-.09.34.94.19,1.06,1.57.4,2.13-.43.36-1.04.42-1.56.28-.56-.14-1.02-.5-1.29-1.01s-.34-1.21.07-1.68l-.12.05,1.42-.07c.22-.01.23-.36,0-.35h0Z"/><path class="cls-1" d="M110.07,55.95c-.57-.63-1.55-.8-2.32-.47s-1.2,1.2-.88,2.03c.3.78,1.16,1.4,2.01,1.08s1.16-1.29,1.18-2.13c.03-1.4-.89-2.77-.37-4.16h-.34c.4,2.05,1.06,4.05,1.95,5.94.1.2.4.03.3-.18-.88-1.86-1.52-3.83-1.92-5.85-.04-.19-.28-.15-.34,0-.66,1.78.98,3.62.12,5.36-.37.76-1.25.99-1.88.39-.57-.55-.68-1.48,0-1.99s1.69-.38,2.24.23c.15.17.4-.08.25-.25h0Z"/><path class="cls-1" d="M112.68,56.22l2.07-.05c.09,0,.18-.08.18-.18-.02-.23-.04-.45-.05-.68-.02-.2.01-.39-.16-.51-.23-.16-.51-.25-.79-.26-.55-.02-1.12.25-1.46.68-.86,1.09-.06,2.67,1.08,3.16.8.34,1.72.27,2.52-.05.21-.08.12-.42-.09-.34-1.02.41-2.35.39-3.09-.54-.6-.75-.59-1.92.33-2.4.41-.21.96-.24,1.34.06l-.05-.12c.03.33.05.67.08,1l.18-.18-2.07.05c-.22,0-.23.35,0,.35h0Z"/><path class="cls-1" d="M117.91,54.87c-.88-.49-2.11.22-2.11,1.23,0,.08.06.14.13.17.52.18,1.05.37,1.57.55.23.08.48.14.69.26.12.07.35.22.34.38-.01.19-.37.19-.5.21-.26.03-.52.04-.78.03-.53-.01-1.06-.1-1.57-.24-.22-.06-.31.28-.09.34.47.13.95.22,1.44.25.25.01.5.01.75,0,.22-.01.46-.02.68-.09.37-.11.54-.48.32-.81-.24-.35-.66-.48-1.04-.61-.57-.2-1.14-.4-1.71-.6l.13.17c0-.74.93-1.29,1.58-.93.2.11.37-.19.18-.3h0Z"/><path class="cls-1" d="M18.19,62.37c-4.68,4.51-9.72,8.62-15.01,12.39-.18.13-.12.41.12.43,6.9.41,14.05-.2,20.63-2.38,2.73-.91,5.43-2.11,7.72-3.88.9-.7,1.72-1.48,2.42-2.38.18-.23.23-.38.49-.44.37-.09,1.1.26,1.48.36,1.03.27,2.06.54,3.09.8,16.44,4.16,33.28,6.75,50.19,7.97,16,1.15,32.25,1.33,48.17-.93,7.11-1.01,14.2-2.52,20.95-5.01,5.85-2.16,11.63-5.1,16.14-9.48,4.26-4.14,7.14-9.64,7.27-15.66.12-5.93-2.39-11.58-6.13-16.08-4-4.83-9.23-8.58-14.66-11.65-6.34-3.58-13.17-6.28-20.12-8.43C125.03,3.07,108.31,1.13,91.74.37,82.95-.03,74.15-.07,65.35.08s-17.15.52-25.64,1.7c-7.79,1.09-15.57,2.87-22.75,6.15-5.85,2.67-11.74,6.53-14.46,12.59-1.4,3.13-1.88,6.55-2.13,9.95-.29,3.99-.6,8.06-.14,12.05.74,6.36,3.93,11.71,9.14,15.41,2.76,1.96,5.87,3.33,9.11,4.26.28.08.4-.36.12-.44-5.84-1.68-11.4-4.96-14.78-10.14C-.02,45.72.32,38.61.74,31.88c.2-3.32.5-6.67,1.64-9.82s3.01-5.7,5.44-7.86c4.71-4.2,10.79-6.79,16.74-8.66C38.9,1.04,54.28.64,69.19.49c14.94-.16,29.94.29,44.77,2.25,13.96,1.85,27.95,5.04,40.78,10.97,10.11,4.67,21.37,11.71,25.34,22.72,1.83,5.07,1.74,10.65-.48,15.59-2.47,5.48-7.11,9.59-12.21,12.59-10.6,6.24-23.31,8.63-35.39,9.91-14.16,1.5-28.51,1.27-42.69.25-15.04-1.08-30.02-3.26-44.71-6.66-3.42-.79-6.81-1.65-10.2-2.57-.1-.03-.2.02-.26.1-2.83,4.17-8.11,6.21-12.79,7.44-5.86,1.55-12.02,2-18.06,1.64l.12.43c5.33-3.79,10.4-7.92,15.1-12.46.21-.2-.11-.53-.32-.32h0Z"/></g></svg>