<?xml version="1.0" encoding="UTF-8"?><svg id="Layer_2" xmlns="http://www.w3.org/2000/svg" viewBox="0 0 57.69 73.21"><defs><style>.cls-1{fill:#1d1d1b;stroke-width:0px;}</style></defs><g id="Layer_1-2"><path class="cls-1" d="M51.89,20.63c2.51,5.61,3.52,11.78,2.99,17.89-.07.83,1.22.83,1.3,0,.55-6.35-.57-12.73-3.17-18.55-.34-.76-1.46-.1-1.12.65h0Z"/><path class="cls-1" d="M49.61,28.46c-.92,8.25-1.84,16.49-2.77,24.74-.22,1.95-.33,3.96-.86,5.85s-1.65,3.35-3.21,4.53c-3.06,2.31-6.63,4.12-10.19,5.52s-7.82,2.82-11.81,2.21c-3.26-.5-6.12-2.33-8.53-4.5s-4.67-4.95-6.72-7.65c-1.03-1.36-2.15-2.71-2.9-4.25-.9-1.85-.98-3.84-.77-5.86.46-4.58,1.37-9.15,2.25-13.66s1.96-9.19,3.13-13.73c.19-.72-.93-1.03-1.11-.31C3.88,30.04,2.06,38.88.85,47.78c-.25,1.88-.43,3.8.01,5.67.42,1.76,1.41,3.28,2.47,4.72,2.12,2.87,4.31,5.74,6.83,8.27,2.33,2.34,5.04,4.44,8.22,5.49,3.84,1.27,7.86.54,11.61-.66s7.43-2.9,10.82-4.98c3.21-1.97,5.76-4.09,6.53-7.95.93-4.72,1.16-9.66,1.7-14.44.58-5.14,1.15-10.29,1.73-15.43.08-.74-1.07-.73-1.15,0h0Z"/><path class="cls-1" d="M38.07,22.01c.83,0,.84-1.3,0-1.3s-.84,1.3,0,1.3h0Z"/><path class="cls-1" d="M38.07,22.01c.83,0,.84-1.3,0-1.3s-.84,1.3,0,1.3h0Z"/><path class="cls-1" d="M38.12,20.88l-.06.04c-.62.4-.23,1.34.5,1.18,2.1-.46-1.4-4.93-2.03-5.68-1.9-2.24-4.4-3.94-7.08-5.11-6.78-2.97-14.37-2.32-21.54-1.65-.82.08-.83,1.37,0,1.3,6.21-.58,12.72-1.2,18.78.7,2.42.76,4.74,1.93,6.71,3.53.96.78,1.85,1.67,2.61,2.66.39.5.74,1.03,1.05,1.58.15.26.29.53.42.8l.15.33c.04.57.23.67.57.3l.5,1.18.06-.04c.7-.45.05-1.58-.65-1.12h0Z"/><path class="cls-1" d="M41.07,19.03c-.74-3.05-2.46-5.64-4.24-8.18s-3.57-4.48-6.57-5.54c-6.17-2.2-13.07-2.16-19.29-.19-.79.25-.45,1.5.34,1.25,5.76-1.83,11.98-1.91,17.76-.09,1.49.47,2.93,1.05,4.1,2.11,1.05.95,1.85,2.14,2.66,3.29,1.67,2.39,3.29,4.83,3.99,7.7.2.81,1.45.47,1.25-.34h0Z"/><path class="cls-1" d="M40.38,19.06c2.06-5.87-2.63-11-6.98-14.32C28.61,1.09,22.23-.61,16.45,1.62c-.77.3-.44,1.55.34,1.25,5.22-2.02,10.9-.63,15.34,2.54,4.12,2.94,8.91,7.83,6.99,13.3-.28.79.97,1.13,1.25.34h0Z"/><path class="cls-1" d="M42.08,19.31c.78-2.96,1.56-6.14.51-9.13-.88-2.52-2.72-4.97-4.53-6.92-1.95-2.09-4.57-2.71-7.32-3.05-3.12-.39-6.27-.22-9.34.43-.82.17-.47,1.42.34,1.25,2.71-.57,5.48-.74,8.23-.47s5.29.75,7.16,2.76c1.64,1.76,3.38,4.06,4.19,6.34.99,2.77.21,5.71-.51,8.44-.21.81,1.04,1.15,1.25.34h0Z"/><path class="cls-1" d="M42.86,18.36c.78-1.99,1.41-4.04,1.84-6.14.33-1.6.55-3.35-.06-4.91-.64-1.64-2.1-2.52-3.57-3.36-1.96-1.13-3.92-2.26-5.88-3.38-.72-.42-1.38.7-.65,1.12,1.67.96,3.33,1.92,5,2.88,1.46.84,3.35,1.62,3.94,3.33.53,1.52.15,3.25-.2,4.77-.42,1.83-.99,3.61-1.67,5.36-.3.78.95,1.11,1.25.34h0Z"/><path class="cls-1" d="M39.31,17.68c-7.04-8.96-19.33-11.9-29.72-7.32-.76.34-.1,1.45.65,1.12,9.89-4.37,21.5-1.36,28.15,7.11.51.66,1.43-.27.92-.92h0Z"/><path class="cls-1" d="M40.77,18.71c-2.21-4.78-8.11-6.98-12.56-9.08-5.35-2.52-11.47-4.4-17.25-2.16-.77.3-.43,1.55.34,1.25,5.62-2.18,11.5-.24,16.67,2.23,4.13,1.97,9.63,3.99,11.68,8.42.35.76,1.47.1,1.12-.65h0Z"/><path class="cls-1" d="M39.99,19.38c-2.82-1.14-5.63-2.29-8.45-3.43-2.62-1.07-5.06-2.1-7.91-2.33-5.39-.43-11.05-.76-16.22,1.12-.78.28-.44,1.54.34,1.25,5.06-1.84,10.59-1.5,15.87-1.07,2.8.22,5.22,1.33,7.8,2.37,2.74,1.11,5.48,2.22,8.22,3.34.77.31,1.11-.94.34-1.25h0Z"/><path class="cls-1" d="M40.98,16.04c-10.53.44-21.95-2.87-31.67,2.7-.72.41-.07,1.53.65,1.12,9.46-5.42,20.76-2.1,31.02-2.53.83-.03.84-1.33,0-1.3h0Z"/><path class="cls-1" d="M7.79,16.99c-3.69.73-6.79,3.66-7.76,7.28-.22.81,1.03,1.15,1.25.34.86-3.21,3.6-5.73,6.86-6.37.82-.16.47-1.41-.34-1.25h0Z"/><path class="cls-1" d="M7.45,18.28c-1.5,2.25-3.18,4.36-5.05,6.31-.58.6.34,1.52.92.92,1.94-2.03,3.69-4.24,5.25-6.58.46-.7-.66-1.35-1.12-.65h0Z"/><path class="cls-1" d="M9.09,19.62c-.84,1.36-1.69,2.72-2.53,4.08-.56.91-1.67,2.51-.51,3.44.27.22.65.27.92,0,.23-.23.28-.7,0-.92-.14-.11-.14-.12-.11-.32.03-.17.11-.37.2-.53.29-.55.65-1.07.98-1.59.73-1.17,1.45-2.34,2.18-3.52.44-.71-.68-1.36-1.12-.65h0Z"/><path class="cls-1" d="M42.63,23.07c3.71,4.49,6.44,9.72,8.03,15.31.23.8,1.48.46,1.25-.34-1.66-5.82-4.51-11.22-8.36-15.88-.53-.64-1.44.28-.92.92h0Z"/><path class="cls-1" d="M45.89,19.24c.61,1.39,1.72,2.41,2.84,3.39,1.22,1.06,2.35,2.15,3.24,3.5,1.78,2.72,2.59,5.96,2.33,9.2-.07.83,1.23.83,1.3,0,.27-3.28-.53-6.61-2.23-9.42-.83-1.36-1.86-2.57-3.05-3.63-1.25-1.11-2.6-2.14-3.3-3.71-.34-.76-1.45-.1-1.12.65h0Z"/><path class="cls-1" d="M47.51,17.45c5.81,3.04,9.23,9.67,8.41,16.16-.1.83,1.19.82,1.3,0,.88-6.91-2.89-14.05-9.05-17.28-.74-.39-1.39.73-.65,1.12h0Z"/><path class="cls-1" d="M44.52,20.63c3.17,5.35,6.12,10.83,8.84,16.43.36.75,1.48.09,1.12-.65-2.72-5.6-5.66-11.08-8.84-16.43-.43-.72-1.55-.07-1.12.65h0Z"/><path class="cls-1" d="M49.48,15.5c3.28.56,5.27,3.81,6.14,6.77s.86,6.4.68,9.6c-.05.83,1.25.83,1.3,0,.2-3.57.22-7.29-.97-10.71-1.08-3.1-3.35-6.33-6.8-6.91-.82-.14-1.17,1.11-.34,1.25h0Z"/><path class="cls-1" d="M16.75,56.22c2.83,2.12,6.63,2.77,10.01,1.76.8-.24.46-1.49-.34-1.25-3.08.92-6.44.3-9.01-1.63-.67-.5-1.31.62-.65,1.12h0Z"/><path class="cls-1" d="M2.13,44.29c.07,3.4-.09,6.8-.48,10.17-.08.71,1.03.7,1.11,0,.39-3.38.55-6.78.48-10.17-.01-.72-1.13-.72-1.11,0h0Z"/><path class="cls-1" d="M3.52,49.19v6.66c0,.72,1.11.72,1.11,0v-6.66c0-.72-1.11-.72-1.11,0h0Z"/><path class="cls-1" d="M5.25,50.25c-.11,2.8-.22,5.6-.33,8.41-.03.72,1.09.72,1.11,0,.11-2.8.22-5.6.33-8.41.03-.72-1.09-.72-1.11,0h0Z"/><path class="cls-1" d="M7.7,52c.05,3.15-.06,6.31-.34,9.45-.06.71,1.05.71,1.11,0,.28-3.14.39-6.3.34-9.45-.01-.72-1.13-.72-1.11,0h0Z"/><path class="cls-1" d="M9.13,56.91c-.12,2.57-.24,5.13-.37,7.7-.03.72,1.08.71,1.11,0,.12-2.57.24-5.13.37-7.7.03-.72-1.08-.71-1.11,0h0Z"/><path class="cls-1" d="M12.06,57.26c-.08,3.27-.27,6.53-.57,9.79-.07.71,1.05.71,1.11,0,.3-3.26.49-6.52.57-9.79.02-.72-1.1-.72-1.11,0h0Z"/><path class="cls-1" d="M14.37,61.46c.06,2.69-.05,5.38-.34,8.05-.08.71,1.04.71,1.11,0,.29-2.67.4-5.36.34-8.05-.02-.72-1.13-.72-1.11,0h0Z"/><path class="cls-1" d="M17.22,63.57c-.29,2.76-.2,5.53.24,8.26.05.3.42.46.69.39.32-.08.44-.39.39-.69-.42-2.63-.48-5.32-.2-7.97.07-.71-1.04-.71-1.11,0h0Z"/><path class="cls-1" d="M19.69,65.45c.38,2.22.39,4.51,0,6.72-.05.3.08.6.39.69.27.07.63-.09.69-.39.42-2.43.42-4.89,0-7.31-.05-.3-.42-.46-.69-.39-.31.09-.44.39-.39.69h0Z"/><path class="cls-1" d="M22.99,64.96c0,2.57,0,5.14,0,7.71,0,.72,1.11.72,1.11,0,0-2.57,0-5.14,0-7.71,0-.72-1.11-.72-1.11,0h0Z"/><path class="cls-1" d="M26.65,64.75c.41,2.22.3,4.53-.32,6.71-.2.69.88.98,1.07.3.68-2.37.78-4.88.32-7.3-.13-.7-1.2-.41-1.07.3h0Z"/><path class="cls-1" d="M30.79,63.91c.06,1.84-.12,3.67-.56,5.45-.17.7.9.99,1.07.3.46-1.88.66-3.82.6-5.75-.02-.71-1.14-.72-1.11,0h0Z"/><path class="cls-1" d="M35.34,61.33c-.34,2.35-.87,4.67-1.6,6.93-.22.68.86.98,1.07.3.72-2.26,1.25-4.58,1.6-6.93.04-.3-.07-.6-.39-.69-.26-.07-.64.09-.69.39h0Z"/><path class="cls-1" d="M38.02,60.4c.15,2.16-.18,4.37-1.09,6.34-.13.27-.08.6.2.76.24.14.64.07.76-.2.99-2.15,1.41-4.54,1.24-6.9-.05-.71-1.16-.72-1.11,0h0Z"/><path class="cls-1" d="M40.89,59.37c-.24,2.43-.91,4.83-2.04,7-.33.64.63,1.2.96.56,1.22-2.36,1.93-4.92,2.19-7.56.03-.3-.28-.56-.56-.56-.33,0-.53.26-.56.56h0Z"/><path class="cls-1" d="M43.41,57.97c-.29,2.42-.84,4.81-1.62,7.11-.23.68.85.97,1.07.3.81-2.41,1.35-4.89,1.66-7.41.04-.3-.28-.56-.56-.56-.33,0-.52.26-.56.56h0Z"/><path class="cls-1" d="M45.58,59.57c-.27,1.05-.54,2.11-.81,3.16-.07.28.09.62.39.69s.61-.09.69-.39c.27-1.05.54-2.11.81-3.16.07-.28-.09-.62-.39-.69s-.61.09-.69.39h0Z"/><path class="cls-1" d="M12.62,39.71c1.84-1.59,5.07-1.19,6.47.8.46.65,1.54.03,1.08-.63-1.88-2.68-5.95-3.19-8.44-1.05-.61.53.28,1.41.88.88h0Z"/><path class="cls-1" d="M33.86,43.71c2.09-.22,4.23.75,5.38,2.52.44.67,1.52.05,1.08-.63-1.37-2.12-3.93-3.4-6.45-3.14-.34.03-.62.26-.62.62,0,.31.29.66.62.62h0Z"/><path class="cls-1" d="M42.77,15.16c-9.8,3.83-21.71,4.41-29.08,12.82-.55.63.37,1.55.92.92,7.19-8.22,18.93-8.75,28.51-12.49.77-.3.43-1.55-.34-1.25h0Z"/></g></svg>