<svg xmlns="http://www.w3.org/2000/svg" xmlns:xlink="http://www.w3.org/1999/xlink" width="332.416" height="354.5" viewBox="0 0 332.416 354.5">
  <defs>
    <clipPath id="clip-path">
      <rect id="Rectangle_96" data-name="Rectangle 96" width="220.094" height="306.202" fill="#3c3c3c"/>
    </clipPath>
    <clipPath id="clip-path-2">
      <rect id="Rectangle_97" data-name="Rectangle 97" width="62.447" height="98.078" fill="none"/>
    </clipPath>
    <clipPath id="clip-path-3">
      <rect id="Rectangle_98" data-name="Rectangle 98" width="58.057" height="91.182" fill="none"/>
    </clipPath>
  </defs>
  <g id="Group_56" data-name="Group 56" transform="translate(-227.078 -308.5)">
    <g id="Group_9" data-name="Group 9" transform="translate(297.953 356.798)">
      <g id="Group_8" data-name="Group 8" clip-path="url(#clip-path)">
        <path id="Path_40" data-name="Path 40" d="M153.216,29.32q2.091,16.419,3.636,32.9c.922,9.862,2,19.836,1.334,29.749-.674,10.05-3.569,19.755-10.24,27.484-5.99,6.942-13.737,12.466-21.786,16.776a89.549,89.549,0,0,1-50.9,10.251,75.559,75.559,0,0,1-25.7-7.273c-4.347-2.145-8.656-4.72-11.866-8.419-3.358-3.868-4.889-8.76-6.147-13.628A580.388,580.388,0,0,1,17.713,43.212c-.225-1.825-3.122-1.848-2.9,0A609.1,609.1,0,0,0,27.59,113.246c1.172,4.794,2.247,9.7,4.435,14.159a27.593,27.593,0,0,0,9.184,10.3c7.453,5.239,16.581,8.535,25.452,10.365a90.8,90.8,0,0,0,53.774-5.888c17.112-7.347,34.291-20.06,38.974-38.965,2.726-11.016,1.948-22.539.989-33.728q-1.72-20.126-4.287-40.167c-.232-1.823-3.129-1.846-2.9,0" transform="translate(19.487 36.779)" fill="#3c3c3c"/>
        <path id="Path_41" data-name="Path 41" d="M45.194,65.986c4.361,2.891,9.1,5.948,14.508,6.117,4.352.137,8.938-1.712,11.1-5.654.9-1.635-1.6-3.1-2.5-1.462-1.8,3.28-5.7,4.47-9.248,4.185-4.586-.368-8.683-3.224-12.4-5.686-1.559-1.033-3.009,1.473-1.462,2.5" transform="translate(58.612 83.237)" fill="#3c3c3c"/>
        <path id="Path_42" data-name="Path 42" d="M33.96,53.759a14.3,14.3,0,0,1,18.363-2.916c1.573,1.01,3.025-1.5,1.462-2.5a17.177,17.177,0,0,0-21.872,3.37c-1.177,1.427.859,3.486,2.047,2.047" transform="translate(41.536 60.319)" fill="#3c3c3c"/>
        <path id="Path_43" data-name="Path 43" d="M56.757,49.249a30.8,30.8,0,0,1,11.37-6.073c2.814-.806,7.775-2.015,9.73,1.035,1,1.563,3.509.113,2.5-1.461-2.557-4-7.812-3.666-11.861-2.668A34.055,34.055,0,0,0,54.709,47.2c-1.424,1.2.632,3.243,2.047,2.048" transform="translate(71.374 51.901)" fill="#3c3c3c"/>
        <path id="Path_44" data-name="Path 44" d="M77.318,15.978C76.3,24.064,69.153,29.463,62.777,33.567A191.594,191.594,0,0,1,40.345,45.924c-4.079,1.911-8.225,3.657-12.422,5.292-3.307,1.29-6.731,2.58-8.987,5.473-4.308,5.524-3.3,14.453-3.446,20.978A557.749,557.749,0,0,0,36.965,244.156a1.45,1.45,0,0,0,2.793-.769,556.036,556.036,0,0,1-19.537-106.05q-2.29-27-1.936-54.14.08-6.083.294-12.162c.151-4.3-.063-9.536,2.967-12.982,2.705-3.078,7.458-4.12,11.115-5.619q5.607-2.3,11.074-4.924A157.058,157.058,0,0,0,67.882,33.6c6.057-4.4,11.361-9.909,12.331-17.619.232-1.844-2.666-1.827-2.9,0" transform="translate(20.193 19.218)" fill="#3c3c3c"/>
        <path id="Path_45" data-name="Path 45" d="M74.03,12.092C71.683,32.141,48.647,38.7,33.193,45.628c-7.435,3.331-15.511,7.5-18.18,15.8-1.441,4.482-1.29,9.36-1.327,14.008q-.063,7.793.072,15.588a630.836,630.836,0,0,0,14.608,124.6c2.474,11.266,5.133,22.539,8.417,33.6,2.976,10.015,6.826,19.836,13.008,28.336,1.086,1.492,3.6.049,2.5-1.462-11.449-15.741-15.37-36.118-19.667-54.724a624.274,624.274,0,0,1-11.083-62.076q-3.912-30.931-4.757-62.15c-.266-10.015-1.021-20.517.1-30.49A17.759,17.759,0,0,1,24.4,53.669a63.514,63.514,0,0,1,12.162-6.379c16.382-7.071,37.95-14.564,40.366-35.2.215-1.846-2.68-1.832-2.9,0" transform="translate(17.987 14.099)" fill="#3c3c3c"/>
        <path id="Path_46" data-name="Path 46" d="M73.693,11.454c-5.2,14.923-23.813,17.515-35.97,24.276-6.508,3.62-11.539,8.653-14.448,15.574-3.25,7.736-4.572,16.38-6.316,24.544C9.491,110.833,4.343,146.9,9.484,182.6a158.448,158.448,0,0,0,17.2,53.26c.892,1.638,3.391.178,2.5-1.462C12.7,204.119,8.563,168.976,10.883,135c1.239-18.168,4.25-36.162,7.942-53.978,1.783-8.607,3.261-17.538,6.082-25.879,2.675-7.907,7.738-13.425,15.064-17.339C52.94,30.872,71,27.954,76.484,12.223c.616-1.763-2.182-2.52-2.791-.769" transform="translate(9.754 13.767)" fill="#3c3c3c"/>
        <path id="Path_47" data-name="Path 47" d="M82.474,7.412C74.054,20.135,56.6,21.367,44,27.915,29.936,35.232,19.585,48.427,13.38,62.8c-7.375,17.086-9.288,35.9-9.837,54.321-.521,17.455.13,35.025,3.192,52.246,3.368,18.96,9.906,37.408,20.978,53.274,1.058,1.517,3.569.072,2.5-1.462C10.327,192.683,5.848,157,6.309,123.063c.449-33.235,5.624-74.157,37.99-92.019,13.441-7.419,31.544-8.368,40.674-22.17C86,7.315,83.5,5.863,82.474,7.412" transform="translate(4.45 8.884)" fill="#3c3c3c"/>
        <path id="Path_48" data-name="Path 48" d="M65.469,8.657c-7.5,6.779-17.093,10.337-25.376,15.963A65.739,65.739,0,0,0,23.032,41.758C13.387,55.72,8.611,72.584,5.853,89.151c-3.361,20.185-4.4,40.892-4.394,61.334A453.692,453.692,0,0,0,6.27,216.1q2.706,18.5,6.951,36.741c1.272,5.464,2.152,11.616,4.459,16.748,1.415,3.155,4.183,6.43,7.979,5.116,1.751-.6,1-3.4-.769-2.791-4.514,1.559-5.976-8.072-6.661-10.759q-1.973-7.73-3.664-15.525-3.332-15.318-5.582-30.844a448.281,448.281,0,0,1-4.623-62.648C4.282,132.4,5.2,112.429,8.171,92.9,10.6,76.873,14.733,60.6,23.287,46.666A63.715,63.715,0,0,1,41.953,26.851c8.41-5.619,17.985-9.295,25.564-16.146,1.385-1.253-.667-3.3-2.047-2.047" transform="translate(1.92 10.882)" fill="#3c3c3c"/>
        <path id="Path_49" data-name="Path 49" d="M43.8,11.045c-12.982,4.808-19.037,18-22.678,30.453C15.844,59.532,12.261,78.311,8.907,96.783c-6.8,37.478-10.224,75.9-5.545,113.849a237.28,237.28,0,0,0,15.287,60.306c.69,1.7,3.493.959,2.791-.769C7.932,236.881,3.237,200.751,4.208,165c1.028-37.886,8.246-75.273,16.973-112.049,3.409-14.374,7.812-33.339,23.386-39.111,1.732-.642.984-3.44-.769-2.791" transform="translate(1.585 14.41)" fill="#3c3c3c"/>
        <path id="Path_50" data-name="Path 50" d="M79.3,3.775C66.127,6.663,52.651,9.693,40.8,16.387,29.573,22.733,21.182,32.458,15.7,44.065,10.159,55.81,7.354,68.618,5.323,81.378a428.063,428.063,0,0,0-3.761,103.9c.157,1.844,3.053,1.86,2.9,0A428.5,428.5,0,0,1,6.949,89.962C10.425,65.054,15.831,36.28,38.335,21.3,50.773,13.017,65.684,9.723,80.065,6.566c1.821-.4,1.049-3.189-.769-2.791" transform="translate(0 4.918)" fill="#3c3c3c"/>
        <path id="Path_51" data-name="Path 51" d="M46.09,17.955c2.689,5.8,8.813,8.229,14.68,9.61,8.382,1.973,16.792,3.386,25.04,5.95,8.144,2.534,17,5.29,24.086,10.18,7.544,5.2,9.913,13.348,11.377,21.957,6.508,38.212,7.352,77.235,6.4,115.9-.535,21.682-1.67,43.345-2.814,65-.1,1.862,2.8,1.858,2.9,0,2.054-38.944,4.1-77.967,2.629-116.971a520.8,520.8,0,0,0-5.2-57.629C123.978,63.891,123.1,54.914,118.35,48c-4.283-6.235-11.178-9.568-17.985-12.341A171.79,171.79,0,0,0,70.3,26.522c-7.477-1.543-18.041-2.105-21.714-10.029-.783-1.688-3.28-.22-2.5,1.461" transform="translate(60.465 20.723)" fill="#3c3c3c"/>
        <path id="Path_52" data-name="Path 52" d="M46.791,12.607c.5,6.094,4.9,10.154,10,12.968,6.9,3.805,14.691,6.219,22,9.1q13.028,5.145,26.062,10.286c7.664,3.025,17.033,5.371,21.728,12.737,4.41,6.918,6.319,15.845,7.982,23.775A219.16,219.16,0,0,1,138.2,107.9c1.533,18.034,2.441,36.132,3.6,54.191q2,31.049,4,62.1c.12,1.851,3.016,1.865,2.9,0-2.379-36.954-4.445-73.946-7.173-110.877-1.246-16.827-3.08-34.078-9.059-49.983-2.557-6.8-6.344-12.132-12.95-15.456-7.488-3.768-15.667-6.407-23.456-9.482L67.333,27.06c-6.627-2.615-16.952-6.008-17.647-14.453-.153-1.844-3.048-1.86-2.9,0" transform="translate(61.578 14.765)" fill="#3c3c3c"/>
        <path id="Path_53" data-name="Path 53" d="M45.735,7.993c14.812-9.568,33.7-3.935,48.47,2.784,14.909,6.779,29.96,15.715,39.169,29.682,10.395,15.766,11.949,36.088,14.281,54.33q3.843,30.035,5.4,60.3,1.775,34.52.565,69.1c-.065,1.865,2.83,1.862,2.9,0a802.874,802.874,0,0,0-5.892-128.83c-2.351-18.508-3.877-39.011-14.015-55.215C127.614,25.768,112.782,16.3,97.74,9.235,81.539,1.621,60.723-5.132,44.274,5.494c-1.559,1.008-.109,3.514,1.462,2.5" transform="translate(57.392 0)" fill="#3c3c3c"/>
        <path id="Path_54" data-name="Path 54" d="M50.859,11.674c13.017,5.04,26.175,10.191,37.832,17.994a77.242,77.242,0,0,1,27.1,32.167c6.277,13.42,9.841,28.009,13.4,42.333q5.955,23.99,10.46,48.3,5.191,27.978,8.431,56.267c.211,1.83,3.108,1.851,2.9,0a832.971,832.971,0,0,0-17.923-100.976c-6.844-28.234-14.05-58.819-38.37-77.355C81.831,20.61,66.577,14.671,51.628,8.885c-1.737-.674-2.49,2.124-.769,2.789" transform="translate(65.658 11.557)" fill="#3c3c3c"/>
        <path id="Path_55" data-name="Path 55" d="M57.261,7.752c16.06,1.765,30.432,10.325,41.478,21.853C110.885,42.281,118.6,58.27,123.612,74.956c5.545,18.46,8.12,37.719,10.617,56.783q3.975,30.334,6.3,60.857,2.623,34.5,3.122,69.117a1.449,1.449,0,0,0,2.9,0,1128.956,1128.956,0,0,0-9.126-127.707c-4.644-36-9.3-75.993-34.539-104.186C91,16.551,75.165,6.823,57.261,4.857c-1.848-.2-1.834,2.694,0,2.9" transform="translate(73.547 6.379)" fill="#3c3c3c"/>
        <path id="Path_56" data-name="Path 56" d="M47.419,11.753C64.666.9,83.593,14.507,96.865,25.238c7.113,5.753,14.344,11.551,20.151,18.675a71.53,71.53,0,0,1,12.459,24.248c5.728,18.478,7.173,38.377,8.994,57.541,1.939,20.382,3.305,40.815,5.1,61.212,2,22.731,4.57,45.434,8.961,67.841.359,1.827,3.15,1.054,2.791-.769-8.327-42.492-9.906-85.839-14.015-128.846-1.865-19.518-3.317-39.9-9.336-58.678A74.768,74.768,0,0,0,120,43.038c-5.978-7.648-13.58-13.777-21.084-19.847C84.594,11.617,64.453-2.38,45.958,9.254c-1.573.989-.123,3.5,1.461,2.5" transform="translate(59.597 6.426)" fill="#3c3c3c"/>
        <path id="Path_57" data-name="Path 57" d="M77.313,45.857a643.751,643.751,0,0,1,5.57,69.724c.561,22.233-.66,44.517.748,66.726a182.008,182.008,0,0,0,5.679,36.324,1.45,1.45,0,0,0,2.793-.769c-5.922-21.751-6.346-44.355-6.228-66.752.118-22.652-.016-45.228-1.728-67.834Q82.7,64.127,80.1,45.088c-.248-1.839-3.037-1.056-2.791.769" transform="translate(101.736 57.963)" fill="#3c3c3c"/>
        <path id="Path_58" data-name="Path 58" d="M84.6,63.28q1.65,63.86,9.306,127.361c.22,1.825,3.118,1.848,2.9,0q-7.65-63.422-9.306-127.361c-.049-1.86-2.944-1.867-2.9,0" transform="translate(111.346 81.448)" fill="#3c3c3c"/>
        <path id="Path_59" data-name="Path 59" d="M14.142,69.556c-4.269,19.484-2.263,39.419.086,59.014,2.365,19.729,4.82,39.569,8.454,59.111,1.814,9.744,4.528,19.414,10.166,27.69,1.042,1.531,3.551.086,2.5-1.461-4.938-7.25-7.553-15.565-9.3-24.088-1.878-9.13-3.118-18.414-4.459-27.637-2.826-19.414-5.821-39.023-6.844-58.631-.581-11.134-.2-22.3,2.193-33.228.4-1.816-2.393-2.592-2.791-.769" transform="translate(15.326 90.179)" fill="#3c3c3c"/>
        <path id="Path_60" data-name="Path 60" d="M8.434,63.277a422.279,422.279,0,0,0,9.825,123.852q4.009,17.343,9.489,34.3c.567,1.767,3.365,1.012,2.791-.769A419.358,419.358,0,0,1,10.363,98.3q-.254-17.524.966-35.023c.127-1.86-2.768-1.851-2.9,0" transform="translate(9.799 81.451)" fill="#3c3c3c"/>
        <path id="Path_61" data-name="Path 61" d="M11.283,53.479A466.335,466.335,0,0,0,24.041,190.941c.445,1.809,3.238,1.042,2.793-.769A463.479,463.479,0,0,1,14.179,53.479c.1-1.862-2.791-1.855-2.9,0" transform="translate(13.884 68.553)" fill="#3c3c3c"/>
      </g>
    </g>
    <g id="Group_11" data-name="Group 11" transform="translate(497.047 308.5)">
      <g id="Group_10" data-name="Group 10" transform="translate(0 0)" clip-path="url(#clip-path-2)">
        <path id="Path_62" data-name="Path 62" d="M21.512,1.1c1.53,5.192-1.161,10.94-5.38,14.329S6.458,20.248,1.1,21.037A23.335,23.335,0,0,1,18.837,41.4,20.184,20.184,0,0,1,21.6,29.65a12.685,12.685,0,0,1,10.086-6.066A43.069,43.069,0,0,1,24.9,2.242l-2.73-.172" transform="translate(0.857 0.853)" fill="#ff0"/>
        <path id="Path_63" data-name="Path 63" d="M20.442,2.481c1.212,4.6-1.093,9.269-4.634,12.191C11.791,17.987,6.456,19.2,1.429,19.962c-1.989.3-1.822,3.427,0,3.855A21.415,21.415,0,0,1,17.694,42.25c.236,2.515,4.081,2.613,4,0-.21-6.843,2.821-15.427,10.856-15.813a2.019,2.019,0,0,0,1.726-3.009A41.945,41.945,0,0,1,27.755,3.095a2.051,2.051,0,0,0-2-2L23.026.923c-2.57-.162-2.561,3.839,0,4l2.73.172-2-2a46.089,46.089,0,0,0,7.067,22.35q.861-1.5,1.726-3.007c-10.277.494-15.138,10.62-14.855,19.812h4a25.481,25.481,0,0,0-19.2-22.288v3.855c6.112-.931,12.484-2.7,17.041-7.125C23.58,12.76,25.765,6.978,24.3,1.419c-.656-2.487-4.514-1.433-3.857,1.063" transform="translate(0 0)" fill="#fbb03b"/>
        <path id="Path_64" data-name="Path 64" d="M33.375,32.552c2.353-.229,3.4,2.949,3.164,5.3C35.622,47.059,27.2,54.91,17.953,55.183c8.551-.444,16.439,7.932,15.483,16.441C32.6,63.844,38.746,55.969,46.5,54.9a37.769,37.769,0,0,1-6.334-18.54c-.142-2.193-1.082-5.25-3.224-4.758" transform="translate(13.956 24.526)" fill="#ff0"/>
        <path id="Path_65" data-name="Path 65" d="M34.218,35.419c1.952-.007.992,4.543.727,5.538a17.192,17.192,0,0,1-3.4,6.521A17.845,17.845,0,0,1,18.8,54.051c-2.558.117-2.584,4.075,0,4,7.683-.227,14.167,6.834,13.483,14.441h4A13.913,13.913,0,0,1,47.872,57.7a2.01,2.01,0,0,0,1.194-2.938,36.633,36.633,0,0,1-5.81-15.077c-.455-3.21-.547-9.8-5.474-9.21-2.524.3-2.554,4.307,0,4,1.262-.151,1.246,3.213,1.34,4.12a39.5,39.5,0,0,0,6.491,18.188q.6-1.469,1.2-2.938a17.835,17.835,0,0,0-14.53,18.652,2,2,0,0,0,4,0c.874-9.72-7.776-18.728-17.482-18.44v4A22.109,22.109,0,0,0,36.348,47.625a18.633,18.633,0,0,0,3.061-9.631c-.032-3.112-1.671-6.587-5.19-6.573-2.574.011-2.577,4.01,0,4" transform="translate(13.112 23.658)" fill="#fbb03b"/>
      </g>
    </g>
    <g id="Group_13" data-name="Group 13" transform="translate(227.078 562)">
      <g id="Group_12" data-name="Group 12" transform="translate(0 0)" clip-path="url(#clip-path-3)">
        <path id="Path_66" data-name="Path 66" d="M20.077,1.1c1.423,4.827-1.079,10.17-5,13.322S6.082,18.9,1.1,19.635A21.694,21.694,0,0,1,17.591,38.563a18.765,18.765,0,0,1,2.573-10.921A11.793,11.793,0,0,1,29.541,22,40.041,40.041,0,0,1,23.225,2.161L20.687,2" transform="translate(0.72 0.716)" fill="#ff0"/>
        <path id="Path_67" data-name="Path 67" d="M19,2.307c1.127,4.273-1.016,8.617-4.308,11.334C10.962,16.722,6,17.846,1.329,18.558c-1.849.281-1.694,3.186,0,3.584A19.91,19.91,0,0,1,16.45,39.279c.22,2.338,3.794,2.429,3.718,0-.195-6.362,2.622-14.343,10.093-14.7a1.877,1.877,0,0,0,1.6-2.8A39,39,0,0,1,25.8,2.877a1.907,1.907,0,0,0-1.859-1.859L21.407.858c-2.389-.15-2.381,3.569,0,3.718l2.538.16L22.086,2.877a42.848,42.848,0,0,0,6.57,20.779q.8-1.4,1.6-2.8c-9.554.459-14.073,9.873-13.811,18.419h3.718A23.689,23.689,0,0,0,2.317,18.558v3.584C8,21.276,13.923,19.632,18.16,15.518c3.762-3.655,5.793-9.03,4.43-14.2-.61-2.312-4.2-1.332-3.586.988" transform="translate(0 0)" fill="#fbb03b"/>
        <path id="Path_68" data-name="Path 68" d="M32.291,32.482c2.188-.213,3.158,2.741,2.941,4.927A18.514,18.514,0,0,1,17.953,53.522c7.95-.413,15.283,7.375,14.394,15.285A14.7,14.7,0,0,1,44.49,53.259,35.114,35.114,0,0,1,38.6,36.023c-.132-2.039-1.006-4.881-3-4.423" transform="translate(11.712 20.583)" fill="#ff0"/>
        <path id="Path_69" data-name="Path 69" d="M33,35.069c1.814-.007.922,4.224.676,5.149a15.984,15.984,0,0,1-3.158,6.063,16.59,16.59,0,0,1-11.856,6.111c-2.378.109-2.4,3.789,0,3.718A12.551,12.551,0,0,1,31.2,69.534h3.718A12.935,12.935,0,0,1,45.692,55.78a1.869,1.869,0,0,0,1.11-2.731,34.058,34.058,0,0,1-5.4-14.017c-.423-2.984-.509-9.113-5.089-8.563-2.346.283-2.374,4,0,3.718,1.173-.14,1.158,2.988,1.246,3.83a36.723,36.723,0,0,0,6.035,16.909q.555-1.366,1.112-2.731A16.581,16.581,0,0,0,31.2,69.534a1.86,1.86,0,0,0,3.718,0c.813-9.037-7.229-17.411-16.253-17.144v3.718a20.554,20.554,0,0,0,16.317-9.693,17.323,17.323,0,0,0,2.845-8.954c-.03-2.893-1.553-6.124-4.825-6.111-2.393.01-2.4,3.728,0,3.718" transform="translate(11.005 19.855)" fill="#fbb03b"/>
      </g>
    </g>
  </g>
</svg>
