<?xml version="1.0" encoding="UTF-8"?><svg id="Layer_2" xmlns="http://www.w3.org/2000/svg" viewBox="0 0 159.58 94.28"><defs><style>.cls-1{fill:#1d1d1b;stroke-width:0px;}</style></defs><g id="Layer_1-2"><path class="cls-1" d="M30.54,27.18c.16,1.74.38,3.5.47,5.25.07,1.42-.07,3.08-1.36,3.94-1.16.77-2.76.71-4.09.6-1.07-.09-2.83-.48-2.81-1.84,0-.23-.35-.23-.35,0-.02,2.24,3.4,2.3,4.94,2.23,1.17-.06,2.4-.35,3.18-1.3s.9-2.23.86-3.4c-.06-1.82-.31-3.66-.48-5.47-.02-.22-.37-.22-.35,0h0Z"/><path class="cls-1" d="M34.24,27.93c-1,1.35-.21,3.46,1.37,3.93.83.24,1.77.05,2.47-.45s1.16-1.29,1.24-2.17c.09-1.05-.34-2.12-1.11-2.82-.17-.15-.41.09-.25.25,1.19,1.09,1.44,3.13.17,4.26-.56.5-1.36.76-2.11.66s-1.33-.58-1.64-1.25c-.34-.72-.32-1.59.16-2.24.13-.18-.17-.36-.3-.18h0Z"/><path class="cls-1" d="M40.91,23.63c.68,2.41,1.36,4.82,2.04,7.23.06.22.4.12.34-.09-.68-2.41-1.36-4.82-2.04-7.23-.06-.22-.4-.12-.34.09h0Z"/><path class="cls-1" d="M44.89,27.6c.6,1.13,1.02,2.35,1.23,3.61.04.22.37.13.34-.09-.22-1.29-.64-2.54-1.26-3.7-.11-.2-.41-.02-.3.18h0Z"/><path class="cls-1" d="M45.97,26.07c.23,0,.23-.35,0-.35s-.23.35,0,.35h0Z"/><path class="cls-1" d="M53.9,26.81c-1.39-.35-3.94-.61-4.36,1.28-.19.87.37,1.71,1.1,2.14.79.47,1.73.39,2.46-.14.88-.63,1.35-1.72,1.37-2.79,0-.19-.31-.24-.34-.05-.31,1.71.93,3.5,2.67,3.75.22.03.32-.31.09-.34-1.54-.22-2.7-1.78-2.42-3.32l-.34-.05c-.02,1.03-.51,2.12-1.44,2.64s-2.09.17-2.62-.75.02-1.87.97-2.15c.89-.27,1.89-.11,2.77.11.22.05.31-.28.09-.34h0Z"/><path class="cls-1" d="M66.87,24.58c.01,1.92.03,3.85.04,5.77,0,.19.23.22.33.09,1.07-1.43,2.07-2.9,3-4.41.12-.19-.18-.37-.3-.18-.93,1.51-1.94,2.99-3,4.41l.33.09c-.01-1.92-.03-3.85-.04-5.77,0-.23-.35-.23-.35,0h0Z"/><path class="cls-1" d="M68.33,29.02l4.28.98c.22.05.31-.29.09-.34l-4.28-.98c-.22-.05-.31.29-.09.34h0Z"/><path class="cls-1" d="M77.88,26.24c-.51-.77-1.5-1.05-2.38-.82-.99.26-1.65,1.17-1.86,2.14s-.07,2.1.69,2.75c.89.76,2.07.19,2.79-.51.92-.89,1.41-2.18,1.35-3.45,0-.19-.3-.25-.34-.05-.39,1.75.37,3.61,1.85,4.6.19.13.36-.18.18-.3-1.35-.9-2.04-2.62-1.69-4.21l-.34-.05c.05.93-.21,1.84-.74,2.6-.5.72-1.49,1.65-2.45,1.32-.83-.29-1.07-1.37-1.02-2.15.06-.86.48-1.78,1.27-2.2s1.89-.26,2.4.5c.12.19.43.01.3-.18h0Z"/><path class="cls-1" d="M81.05,26.65c.5,1.15,1.01,2.3,1.51,3.45.08.18.39.05.32-.13-.22-.54-.39-1.12-.43-1.71-.03-.51.03-1.1.45-1.46.53-.45,1.23-.27,1.71.15.57.5.82,1.18.92,1.92.13.9.12,1.82.46,2.67.08.21.42.12.34-.09-.35-.88-.32-1.84-.47-2.76-.13-.79-.45-1.54-1.08-2.05-.54-.43-1.25-.61-1.88-.25-.52.3-.75.87-.79,1.45-.05.76.16,1.54.44,2.23l.32-.13c-.5-1.15-1.01-2.3-1.51-3.45-.09-.21-.39-.03-.3.18h0Z"/><path class="cls-1" d="M93.27,28.13c1.41.71,3.38.87,4.7-.12.5-.38.93-.97.83-1.63s-.72-1.18-1.37-1.35c-1.39-.38-2.82.51-3.37,1.77-.32.73-.39,1.55-.29,2.34.09.69.25,1.45.97,1.72.87.32,1.92.32,2.82.19.98-.13,1.91-.47,2.75-.98.19-.12.02-.42-.18-.3-1.2.73-2.61,1.08-4.01.98-.35-.02-.7-.07-1.04-.16-.44-.11-.68-.32-.82-.76-.19-.63-.25-1.32-.15-1.97.18-1.25,1.02-2.35,2.32-2.55.61-.09,1.29.06,1.72.53.5.54.3,1.22-.18,1.69-1.16,1.13-3.2.97-4.54.29-.2-.1-.38.2-.18.3h0Z"/><path class="cls-1" d="M100.65,28.7c.67-.05,1.32-.2,1.94-.47.53-.23,1.21-.56,1.51-1.09.51-.92-.67-1.66-1.48-1.36-.54.2-.9.69-1.18,1.17s-.53,1.04-.64,1.6c-.1.47-.11,1,.13,1.43.27.47.77.69,1.29.73.75.06,1.56-.13,2.28-.32.78-.21,1.54-.5,2.26-.87.2-.1.02-.4-.18-.3-1,.51-2.08.87-3.19,1.05-.49.08-1.05.17-1.53.02s-.75-.56-.78-1.05c-.05-.85.41-1.79.88-2.47.27-.38.67-.77,1.17-.72.36.04.81.31.73.73-.11.53-.91.89-1.35,1.09-.59.27-1.22.42-1.86.46-.22.02-.23.37,0,.35h0Z"/><path class="cls-1" d="M107.46,26.79c-.8.96-.58,2.51.47,3.19.17.11.35-.13.21-.27-.51-.54-.61-1.38-.32-2.06s.99-1.07,1.73-1.01,1.37.5,1.64,1.19c.24.62.28,1.3.45,1.95s.48,1.2,1.15,1.35c.22.05.31-.29.09-.34-.73-.16-.89-.95-1.01-1.58-.14-.7-.22-1.49-.68-2.08s-1.26-.91-2.01-.84-1.41.55-1.7,1.26c-.33.8-.19,1.77.41,2.41l.21-.27c-.85-.55-1.06-1.86-.4-2.64.14-.17-.1-.42-.25-.25h0Z"/><path class="cls-1" d="M125.39,26.18c-1.41-1.34-4.39-.74-4.57,1.42-.09,1.09.67,2.17,1.66,2.58s2.02.01,2.64-.81c.78-1.04.9-2.48.93-3.74l-.34.05c.27,1.27.47,2.55.57,3.85.09,1.16.19,2.39-.14,3.52-.29,1.01-1.05,2.01-2.15,2.19s-2.26-.82-1.91-1.95c.07-.22-.27-.31-.34-.09-.3.99.38,2,1.33,2.32,1.06.36,2.16-.27,2.79-1.1.85-1.12.89-2.6.83-3.95-.08-1.64-.3-3.27-.65-4.87-.04-.2-.34-.15-.34.05-.03,1.12-.12,2.38-.73,3.35-.73,1.15-2.17,1.33-3.12.34-.89-.92-.9-2.37.22-3.1.93-.61,2.27-.57,3.09.21.16.16.41-.09.25-.25h0Z"/><path class="cls-1" d="M131.16,26.45c-1.89-.85-4.25,1.39-3.05,3.26.5.78,1.47,1.27,2.39,1.18s1.66-.79,1.86-1.71c.21-1-.14-2.14-1.06-2.66-.2-.11-.37.19-.18.3,1.36.77,1.26,3.23-.34,3.67-.77.21-1.63-.11-2.16-.69-.58-.63-.63-1.53-.13-2.23.53-.76,1.62-1.21,2.5-.82.2.09.38-.21.18-.3h0Z"/><path class="cls-1" d="M134.21,27.96c.85.21,2.14.33,2.78-.42.81-.95-.17-2.25-1.28-2.21-1.23.04-2.09,1.2-2.22,2.34s.39,2.27,1.38,2.81c1.11.61,2.59.43,3.49-.46.16-.16-.09-.41-.25-.25-.67.67-1.71.87-2.6.6s-1.54-1.1-1.66-2.04.28-1.99,1.16-2.46c.49-.26,1.09-.28,1.53.09.35.3.52.79.28,1.21-.21.37-.66.52-1.07.56-.48.06-.98,0-1.45-.12-.22-.05-.31.28-.09.34h0Z"/><path class="cls-1" d="M142.79,27.52c-.69-.78-1.86-.89-2.77-.44-1,.49-1.42,1.62-.96,2.64s1.71,1.76,2.84,1.31,1.65-1.64,1.81-2.75c.28-1.91-.59-3.82-.03-5.71l-.34-.05c-.36,3.12.16,6.27,1.5,9.11.1.2.4.03.3-.18-1.31-2.78-1.81-5.88-1.45-8.93.02-.2-.29-.23-.34-.05-.69,2.36.83,4.97-.46,7.21-.57.98-1.73,1.49-2.73.8-.9-.62-1.31-1.96-.44-2.78.77-.73,2.13-.76,2.84.05.15.17.4-.08.25-.25h0Z"/><path class="cls-1" d="M146.75,29c.91-.06,1.79-.28,2.61-.68.06-.03.1-.13.08-.2-.48-1.34-2.48-1.47-3.31-.41-.5.62-.55,1.49-.28,2.23.29.81.9,1.41,1.7,1.71,1.02.38,2.17.22,3.14-.22.21-.09.03-.39-.18-.3-1.4.63-3.37.55-4.18-.95-.32-.59-.42-1.35-.11-1.97.27-.53.8-.82,1.39-.84s1.28.24,1.49.86l.08-.2c-.77.37-1.59.58-2.44.63-.22.01-.23.36,0,.35h0Z"/><path class="cls-1" d="M26.67,46.35l.38-2.14-.34-.05c0,2.03,0,4.07-.01,6.1,0,.23.35.23.35,0,0-2.03,0-4.07.01-6.1,0-.19-.31-.25-.34-.05l-.38,2.14c-.04.22.3.31.34.09h0Z"/><path class="cls-1" d="M26.95,48.32c1.15-1.1,3.07-2.21,4.47-.84.55.54.71,1.37.21,2.01-.45.57-1.24.83-1.95.74-1.03-.13-1.89-.82-2.61-1.52-.16-.16-.41.09-.25.25.73.72,1.6,1.41,2.64,1.59.83.15,1.74-.09,2.32-.71s.66-1.53.19-2.24-1.38-1.16-2.26-1.1c-1.18.07-2.19.79-3.01,1.58-.16.16.08.4.25.25h0Z"/><path class="cls-1" d="M36.5,46.27c-.54-.72-1.47-.46-2.15-.09-.76.41-1.71,1.11-1.8,2.05-.08.88.63,1.68,1.44,1.91.94.27,1.92-.21,2.55-.9.85-.94,1.09-2.23,1.24-3.44.02-.19-.3-.24-.34-.05-.33,1.61.35,3.3,1.71,4.24.19.13.36-.17.18-.3-1.22-.84-1.84-2.39-1.55-3.84l-.34-.05c-.14,1.1-.34,2.3-1.1,3.15-.67.76-1.82,1.24-2.74.6-.4-.28-.71-.74-.69-1.24.02-.54.42-.95.81-1.27.54-.44,1.88-1.41,2.49-.6.13.18.44,0,.3-.18h0Z"/><path class="cls-1" d="M40.82,41.97c-.66,2.29-.33,4.79.91,6.82.12.19.42.02.3-.18-1.19-1.96-1.51-4.35-.88-6.55.06-.22-.27-.31-.34-.09h0Z"/><path class="cls-1" d="M46.42,45.94c-.38-.79-1.39-.99-2.16-.72-.97.35-1.46,1.36-1.68,2.3s-.28,2,.72,2.43c.72.31,1.65.12,2.22-.41.9-.83,1.02-2.18,1.11-3.32h-.35c.03,1.46.43,2.89,1.16,4.16.11.2.42.02.3-.18-.7-1.21-1.08-2.58-1.11-3.98,0-.23-.33-.22-.35,0-.07.89-.15,1.84-.64,2.62-.39.62-1.07.99-1.81.9-.3-.04-.6-.16-.8-.39-.32-.37-.27-.91-.19-1.36.14-.84.45-1.79,1.2-2.28.65-.42,1.71-.35,2.07.41.1.2.4.03.3-.18h0Z"/><path class="cls-1" d="M49.12,46.97c.1.87.3,1.73.6,2.55.08.21.41.12.34-.09-.25-.74-.58-1.62-.28-2.39.22-.57.9-1.13,1.52-.83.31.15.51.44.68.72.2.34.38.69.56,1.04.37.75.69,1.53.96,2.33.07.21.41.12.34-.09-.24-.71-.51-1.4-.83-2.08-.29-.62-.59-1.31-1.04-1.83-.37-.43-.92-.64-1.47-.43s-.94.67-1.09,1.2c-.23.82.05,1.69.32,2.46l.34-.09c-.29-.8-.49-1.62-.59-2.46-.03-.22-.38-.22-.35,0h0Z"/><path class="cls-1" d="M58.93,46.53c-1.09-1.34-3.65-.67-3.94,1.04-.01.08.02.2.12.22,1.3.2,2.49.81,3.41,1.75l.04-.27c-1.17.67-2.65.68-3.83.03-.2-.11-.37.19-.18.3,1.29.72,2.91.71,4.19-.03.1-.06.11-.2.04-.27-.96-.98-2.22-1.63-3.57-1.84l.12.22c.25-1.46,2.42-2.03,3.35-.88.14.17.39-.07.25-.25h0Z"/><path class="cls-1" d="M65.89,44.72c.33,1.45,1,2.79,1.94,3.94.09.11.25.03.29-.08.56-1.51,1.13-3.02,1.69-4.53.08-.21-.26-.3-.34-.09-.56,1.51-1.13,3.02-1.69,4.53l.29-.08c-.9-1.1-1.53-2.4-1.85-3.78-.05-.22-.39-.13-.34.09h0Z"/><path class="cls-1" d="M71.82,44.67v2.96c0,.23.35.23.35,0v-2.96c0-.23-.35-.23-.35,0h0Z"/><path class="cls-1" d="M72.98,42.54h.33s.09-.02.12-.05.05-.08.05-.12-.02-.09-.05-.12-.08-.05-.12-.05h-.33s-.09.02-.12.05-.05.08-.05.12.02.09.05.12.08.05.12.05h0Z"/><path class="cls-1" d="M74.72,45.33c.07.84.14,1.68.21,2.53.01.17.23.25.33.09.65-1.11-.27-2.43.39-3.53.12-.2.3-.4.54-.44.34-.07.63.16.88.36.52.41,1,.9,1.34,1.47.37.61.58,1.35.28,2.04-.09.2.21.38.3.18.62-1.43-.43-2.87-1.48-3.77-.47-.41-1.09-.88-1.72-.5-.49.3-.72.94-.76,1.49-.06.84.37,1.75-.09,2.53l.33.09c-.07-.84-.14-1.68-.21-2.53-.02-.22-.37-.22-.35,0h0Z"/><path class="cls-1" d="M85.67,44.87c-.75-.94-2.05-.76-3.01-.28s-2.21,1.54-1.77,2.73c.35.95,1.53,1.48,2.49,1.32,1.23-.21,1.96-1.46,2.23-2.57.46-1.88-.2-3.8.09-5.7l-.34-.05c-.33,2.5-.09,5.04.72,7.43.07.21.41.12.34-.09-.8-2.36-1.04-4.87-.71-7.34.03-.19-.31-.24-.34-.05-.36,2.33.89,5.35-.89,7.33-.74.82-1.88.94-2.76.25-.36-.29-.63-.74-.55-1.22.1-.59.65-1.09,1.12-1.42.88-.63,2.34-1.11,3.14-.1.14.18.39-.07.25-.25h0Z"/><path class="cls-1" d="M88.48,46.04c.65.16,1.35.33,2.01.14.5-.14.87-.49,1.03-.98.14-.43.08-.95-.31-1.23-.44-.33-1.11-.24-1.58-.03-.9.39-1.51,1.35-1.56,2.32s.6,1.86,1.53,2.19c1.01.35,2.22.1,2.88-.77.14-.18-.17-.35-.3-.18-.96,1.27-3.37.87-3.72-.73-.17-.8.19-1.66.8-2.18.3-.26.69-.44,1.09-.47.47-.03.9.16.89.68,0,.46-.32.88-.76,1.03-.62.21-1.3.04-1.92-.11-.22-.06-.31.28-.09.34h0Z"/><path class="cls-1" d="M92.98,44.94c-.44.84-.46,1.82-.06,2.67.07.16.34.08.33-.09-.06-.71.05-1.44.34-2.09.14-.32.33-.64.55-.92.11-.14.25-.3.45-.25.18.04.32.22.43.35.94,1.13,1.51,2.56,1.65,4.01.02.22.37.22.35,0-.13-1.34-.59-2.63-1.35-3.74-.28-.4-.73-1.14-1.33-.96-.28.09-.46.36-.62.58-.18.26-.34.54-.46.83-.29.69-.41,1.44-.35,2.18l.33-.09c-.34-.74-.32-1.6.06-2.32.1-.2-.2-.38-.3-.18h0Z"/><path class="cls-1" d="M103.1,45.66v2.96c0,.23.35.23.35,0v-2.96c0-.23-.35-.23-.35,0h0Z"/><path class="cls-1" d="M103.81,41.5l.33.33s.08.05.12.05.09-.02.12-.05.05-.08.05-.12-.02-.09-.05-.12l-.33-.33s-.08-.05-.12-.05-.09.02-.12.05-.05.08-.05.12.02.09.05.12h0Z"/><path class="cls-1" d="M104.75,45.66c0,.93.01,1.86.02,2.79l.34-.05c-.24-1.25-.08-2.93,1.29-3.46.51-.2,1.15-.2,1.59.16.48.4.57,1.04.62,1.62.05.68.05,1.38.33,2.02.09.21.39.03.3-.18-.52-1.19.1-2.91-1.1-3.79-.51-.37-1.2-.4-1.78-.2-.65.23-1.14.71-1.41,1.34-.35.81-.33,1.72-.17,2.57.04.2.35.15.34-.05,0-.93-.01-1.86-.02-2.79,0-.23-.35-.23-.35,0h0Z"/><path class="cls-1" d="M117.1,44.32c-.77.96-1.88,2.82-.58,3.84.57.45,1.38.42,2.01.14.79-.36,1.33-1.09,1.82-1.78l-.32-.13c-.25.87.18,1.77.91,2.26s1.73.43,2.46-.1c1.8-1.28,1.31-3.77-.19-5.06-.17-.15-.42.1-.25.25,1.25,1.08,1.83,3.08.47,4.34-.58.53-1.42.76-2.14.38s-1.16-1.18-.93-1.97c.06-.2-.21-.29-.32-.13-.39.55-.81,1.12-1.38,1.49s-1.37.49-1.93.05c-1.09-.87-.02-2.53.62-3.32.14-.17-.11-.42-.25-.25h0Z"/><path class="cls-1" d="M130.07,45.57c-.62-.73-1.65-1.06-2.58-.84s-1.53.96-1.61,1.88c-.08.87.34,1.78,1.17,2.13.96.4,2.06-.04,2.75-.74.97-.99,1.15-2.47,1.32-3.78.02-.2-.3-.23-.34-.05-.44,1.74.13,3.65,1.46,4.87.17.15.41-.1.25-.25-1.24-1.13-1.78-2.9-1.37-4.53l-.34-.05c-.13,1.04-.27,2.13-.83,3.03-.46.75-1.32,1.35-2.23,1.29-1.8-.11-1.95-2.77-.39-3.39.87-.34,1.92-.05,2.52.66.15.17.39-.08.25-.25h0Z"/><path class="cls-1" d="M134.03,41.7c.02,2.29.51,4.55,1.43,6.65.09.21.39.03.3-.18-.89-2.04-1.36-4.25-1.38-6.47,0-.23-.35-.23-.35,0h0Z"/><path class="cls-1" d="M132.87,44.87l4.61.63c.22.03.32-.31.09-.34l-4.61-.63c-.22-.03-.32.31-.09.34h0Z"/><path class="cls-1" d="M19.39,60.39c.23-1.1-.84-1.89-1.86-1.75-1.18.16-2.16,1.19-2.39,2.34-.22,1.07.28,2.15,1.28,2.62.9.43,1.93.17,2.52-.63.69-.95.71-2.28.62-3.41-.02-.22-.35-.23-.35,0-.03,1.86-.07,3.72-.1,5.58,0,.41.1,1.07-.29,1.31-.32.2-.92.17-1.29.17-.78,0-1.95-.48-1.64-1.47.07-.22-.27-.31-.34-.09-.23.76.31,1.49,1.01,1.76.51.19,1.06.18,1.59.13.38-.03.84-.04,1.1-.38s.2-.86.2-1.26c.01-.62.02-1.24.03-1.86.02-1.29.05-2.59.07-3.88h-.35c.08.97.08,2.08-.4,2.96-.56,1.03-1.82,1.23-2.71.46-.97-.85-.79-2.29.02-3.18.43-.47,1.05-.83,1.7-.83.69,0,1.39.59,1.23,1.33-.05.22.29.31.34.09h0Z"/><path class="cls-1" d="M22.3,61.38c.64.63,1.79.02,1.77-.84-.02-.49-.35-.94-.79-1.16-.46-.23-.99-.19-1.45.02-1.98.92-1.81,4.01.05,4.94,1.02.51,2.3.39,3.18-.34.17-.14-.07-.39-.25-.25-.63.52-1.5.67-2.28.46s-1.41-.79-1.66-1.58c-.23-.74-.14-1.58.3-2.23.48-.7,1.54-1.2,2.24-.5.3.3.43.79.11,1.12-.25.26-.7.37-.98.1-.16-.16-.41.09-.25.25h0Z"/><path class="cls-1" d="M25.82,59.87c.72,1.67,1.87,3.13,3.33,4.22.09.07.24,0,.26-.1.29-1.38.59-2.75.88-4.13.05-.22-.29-.31-.34-.09-.29,1.38-.59,2.75-.88,4.13l.26-.1c-1.41-1.05-2.51-2.48-3.2-4.09-.09-.21-.39-.03-.3.18h0Z"/><path class="cls-1" d="M31.89,61.54c.27.71.54,1.42.81,2.13l.32-.13c-.62-.85-.64-2.08.02-2.92s1.77-1.1,2.73-.75c.21.08.3-.26.09-.34-1.08-.39-2.38-.03-3.09.87s-.75,2.34-.05,3.3c.11.15.4.07.32-.13-.27-.71-.54-1.42-.81-2.13-.08-.21-.42-.12-.34.09h0Z"/><path class="cls-1" d="M40.42,60.7c-.3-.71-1.03-1.16-1.81-1.14-.36,0-.8.1-.99.43-.28.47-.54.94-.72,1.46-.3.9-.21,1.89.55,2.52.65.54,1.53.54,2.07-.15.36-.46.57-1.06.74-1.62.19-.63.3-1.29.33-1.95,0-.19-.31-.24-.34-.05-.3,1.74.45,3.54,1.89,4.55.18.13.36-.17.18-.3-1.3-.92-2-2.59-1.73-4.16l-.34-.05c-.04.92-.25,1.83-.62,2.68-.16.36-.35.77-.71.98-.3.18-.66.14-.96-.02-.71-.37-.97-1.15-.83-1.91.08-.42.25-.82.45-1.2.09-.18.2-.36.3-.53.11-.18.23-.24.43-.29.68-.17,1.5.19,1.77.85.09.2.42.11.34-.09h0Z"/><path class="cls-1" d="M47.33,60.42c-.41-.75-1.33-.91-2.1-.71-.92.25-1.6,1.02-1.82,1.94s.14,1.97,1.02,2.45c.81.44,1.78.26,2.34-.47.61-.79.68-1.9.66-2.86,0-.22-.35-.23-.35,0,.02.75-.02,1.56-.35,2.25s-1,1.13-1.77.92c-.82-.22-1.32-.99-1.28-1.82s.55-1.64,1.31-1.97c.67-.29,1.62-.28,2.02.44.11.2.41.02.3-.18h0Z"/><path class="cls-1" d="M47.29,60.65c.23,0,.23-.35,0-.35s-.23.35,0,.35h0Z"/><path class="cls-1" d="M47.34,60.85c-.86,1.29-.31,3.27,1.1,3.93.2.09.38-.21.18-.3-1.25-.58-1.73-2.3-.97-3.45.13-.19-.18-.36-.3-.18h0Z"/><path class="cls-1" d="M52.93,60.8c-.38-.67-1.16-.95-1.9-.85-.82.11-1.47.66-1.69,1.46-.24.86.03,1.82.6,2.48.63.74,1.61.99,2.42.38,1.04-.79,1.02-2.15.95-3.33l-.34.05c.46,1.98.58,4.02.35,6.05l.13-.17c-.87.26-1.84.56-2.75.3-.72-.21-1.42-.9-1.3-1.7.03-.22-.3-.32-.34-.09-.13.89.45,1.66,1.24,2.02,1.03.47,2.21.13,3.24-.18.08-.02.12-.09.13-.17.23-2.05.11-4.13-.36-6.14-.04-.19-.36-.15-.34.05.07,1.08.14,2.44-.89,3.11s-2.05-.29-2.35-1.25c-.27-.86-.07-1.93.81-2.35.71-.34,1.69-.2,2.1.53.11.2.41.02.3-.18h0Z"/><path class="cls-1" d="M58.13,61.47c-1.4-1.35-4.24.04-3.54,2.04.33.95,1.37,1.67,2.38,1.54,1.11-.14,1.76-1.21,1.98-2.22.36-1.66-.35-3.34.04-5l-.34-.05c-.09,1.74.1,3.5.57,5.17.17.6.3,1.36.86,1.72.34.21.82.24.86-.26.02-.22-.33-.22-.35,0s-.49-.17-.54-.22c-.18-.21-.24-.52-.33-.78-.19-.59-.35-1.19-.47-1.79-.25-1.26-.33-2.55-.26-3.84.01-.2-.3-.24-.34-.05-.29,1.22,0,2.44.05,3.67.05.96-.1,2.07-.8,2.78s-1.82.63-2.53-.08c-.67-.67-.74-1.71,0-2.35.69-.59,1.82-.69,2.49-.04.16.16.41-.09.25-.25h0Z"/><path class="cls-1" d="M68.45,59.75c-.73-.64-1.41.82-1.64,1.3-.39.8-.58,1.74-.11,2.55.39.67,1.18.96,1.91.66.82-.34,1.36-1.19,1.75-1.94l-.33-.09c.07.86.67,1.55,1.48,1.83.85.3,1.77.02,2.37-.64,1.41-1.53.55-3.8-1.18-4.64-.2-.1-.38.2-.18.3,1.43.69,2.29,2.46,1.29,3.88-.44.62-1.19,1-1.95.84s-1.4-.78-1.47-1.57c-.01-.16-.24-.25-.33-.09-.47.89-1.76,2.72-2.87,1.53-.47-.5-.49-1.25-.3-1.87.08-.27.88-2.17,1.31-1.79.17.15.42-.1.25-.25h0Z"/><path class="cls-1" d="M79.28,60.29c-.49-.75-1.55-.83-2.26-.36-.78.52-1.22,1.53-1.25,2.45-.03.82.32,1.75,1.19,1.98s1.77-.36,2.18-1.1c.64-1.16.32-2.63.18-3.87-.02-.22-.37-.22-.35,0,.11.94.3,1.95.13,2.89-.14.8-.65,1.56-1.49,1.74-.79.17-1.36-.43-1.47-1.17s.14-1.63.62-2.23c.28-.34.66-.61,1.12-.64.42-.03.86.11,1.1.48.12.19.43.01.3-.18h0Z"/><path class="cls-1" d="M81.74,60.44c-.2.96-.11,1.96.27,2.86l.29-.17c-.82-.89-.21-2.29.64-2.91.52-.37,1.12-.59,1.73-.75.3-.08.62-.19.92-.22.11-.01.22.02.31.08.02.01.11.1.13.1.01.02.01.03.01.01.04-.05.04-.06,0-.05-.21.07-.12.41.09.34.19-.07.31-.23.21-.43-.09-.19-.31-.31-.5-.37-.27-.08-.56.02-.83.09-.32.07-.64.16-.95.26-1.15.38-2.24,1.12-2.48,2.39-.11.62,0,1.24.44,1.71.11.12.36,0,.29-.17-.35-.85-.45-1.77-.27-2.68.05-.22-.29-.31-.34-.09h0Z"/><path class="cls-1" d="M90.64,60.12c-1.08-.67-2.5-.89-3.69-.37-1.05.46-1.65,1.47-1.5,2.61.13.96.79,1.95,1.83,2.03,1.23.1,2.08-.97,2.51-1.99.31-.74.44-1.51.55-2.3.15-1.12.2-2.24.16-3.37,0-.23-.32-.22-.35,0-.11.87-.19,1.74-.24,2.61-.05.8-.1,1.62-.04,2.42.08.99.42,2.21,1.52,2.47.22.05.31-.29.09-.34-1.1-.26-1.27-1.67-1.28-2.61,0-1.52.11-3.04.3-4.55h-.35c.05,1.52-.02,3.09-.38,4.58-.23.97-.71,2.17-1.69,2.6s-1.86-.19-2.17-1.12c-.33-.98-.03-2.02.87-2.57,1.12-.69,2.61-.47,3.69.19.19.12.37-.18.18-.3h0Z"/><path class="cls-1" d="M93.54,56.14c-.49,2.54-.49,5.14-.02,7.68.04.22.38.13.34-.09-.46-2.48-.46-5.02.02-7.49.04-.22-.3-.31-.34-.09h0Z"/><path class="cls-1" d="M92.08,60.66c1.2-.14,2.42-.04,3.58.3.22.06.31-.27.09-.34-1.19-.34-2.44-.45-3.67-.31-.22.03-.22.38,0,.35h0Z"/><path class="cls-1" d="M101,61.31c.72.3,1.49.61,2.28.49.6-.09,1.14-.49,1.37-1.05s.04-1.15-.45-1.5-1.13-.44-1.71-.33c-1.17.22-2.13,1.22-2.22,2.42s.71,2.46,1.83,2.94c1.35.58,2.99.07,3.91-1.04.14-.17-.1-.42-.25-.25-.69.84-1.81,1.32-2.9,1.15s-1.92-1-2.18-2.04.21-2.03,1.11-2.55c.42-.24.91-.36,1.39-.31.52.06,1.19.38,1.21.98s-.54,1.1-1.08,1.21c-.77.16-1.55-.18-2.24-.47-.21-.09-.3.25-.09.34h0Z"/><path class="cls-1" d="M106.78,60.11c-.31,1.21-.04,2.5.73,3.48.11.14.35-.01.29-.17-.41-1.13-.94-2.83.31-3.66.5-.33,1.1-.23,1.53.15.46.4.7.97.82,1.56.16.79.17,1.61.44,2.38.07.21.41.12.34-.09-.48-1.39-.16-3.16-1.45-4.17-.48-.38-1.11-.5-1.68-.23s-.95.85-1.08,1.45c-.21.92.12,1.86.43,2.71l.29-.17c-.68-.88-.92-2.06-.64-3.14.06-.22-.28-.31-.34-.09h0Z"/><path class="cls-1" d="M117.89,58.93c.3.63-.23,1.32-.49,1.88s-.36,1.08-.14,1.65c.41,1.02,1.66,1.58,2.62.95.45-.3.79-.79.88-1.33.02-.13.03-.26.03-.39,0-.1-.07-.27-.01-.33.09-.09.3,0,.39.05.2.11.3.27.38.47.19.51.28,1.12.85,1.34.47.18,1.01,0,1.37-.32,1.34-1.19-.15-3.2.46-4.62.09-.2-.21-.38-.3-.18-.25.57-.24,1.17-.15,1.78.1.7.32,1.43.12,2.13-.15.54-.76,1.13-1.37.89s-.5-1.07-.84-1.51c-.23-.29-.7-.55-1.07-.35-.19.1-.25.23-.21.43.06.29.04.58-.07.85-.22.55-.75,1.02-1.37,1.01s-1.19-.48-1.4-1.06c-.46-1.26,1.22-2.27.62-3.52-.1-.2-.4-.03-.3.18h0Z"/><path class="cls-1" d="M129.53,59.49c-.1-1.04-1.17-1.71-2.16-1.56s-1.93,1.03-2.3,1.99c-.3.79-.33,1.82.2,2.52.64.85,1.79.76,2.58.17,1.19-.89,1.39-2.45,2.3-3.55l-.29-.17c-.41,1.37.06,2.92,1.18,3.82.17.14.42-.11.25-.25-1.02-.83-1.46-2.22-1.09-3.48.05-.16-.18-.31-.29-.17-.66.79-.94,1.79-1.48,2.65-.48.77-1.5,1.63-2.46,1.13-.69-.36-.83-1.24-.73-1.94.13-.87.66-1.66,1.42-2.1.47-.27,1.01-.38,1.53-.21s.93.6.98,1.14c.02.22.37.22.35,0h0Z"/><path class="cls-1" d="M133.12,55.21c-.04,2.49.33,4.98,1.11,7.35.07.21.41.12.34-.09-.77-2.34-1.14-4.79-1.1-7.25,0-.23-.35-.23-.35,0h0Z"/><path class="cls-1" d="M132.31,59.03c1.08-.17,2.18-.11,3.23.19.22.06.31-.28.09-.34-1.11-.31-2.27-.37-3.41-.19-.22.04-.13.37.09.34h0Z"/><path class="cls-1" d="M34.32,69.89c-.35,2.29-.58,4.6-.67,6.91h.35c-.06-1.36,0-3.49,1.79-3.62.85-.06,1.2.57,1.29,1.33.11.94.2,1.89.3,2.83.02.22.37.22.35,0-.06-.62-.13-1.24-.19-1.86-.05-.51-.07-1.04-.2-1.54-.19-.73-.79-1.16-1.54-1.12s-1.37.46-1.72,1.08c-.49.87-.46,1.92-.42,2.89,0,.23.34.23.35,0,.09-2.28.31-4.56.66-6.82.03-.22-.3-.32-.34-.09h0Z"/><path class="cls-1" d="M43.4,73.29c-.26-.75-1.16-1.01-1.87-.76-.91.32-1.34,1.35-1.54,2.22s-.2,1.88.55,2.44c.69.53,1.65.28,2.27-.24.91-.76,1-2.09,1.07-3.18.01-.23-.33-.22-.35,0-.16,1.53-.09,3.92,1.73,4.43.22.06.31-.28.09-.34-1.64-.46-1.61-2.74-1.47-4.09h-.35c-.05.85-.11,1.75-.57,2.49-.37.58-1.13,1.03-1.83.84-.78-.21-.94-1.09-.87-1.78.07-.75.34-1.63.92-2.16.52-.47,1.62-.55,1.9.24.07.21.41.12.34-.09h0Z"/><path class="cls-1" d="M50.01,73.62c-.46-.72-1.39-.93-2.18-.7-.92.27-1.5,1.13-1.72,2.02s-.28,2.12.59,2.64c.7.42,1.67.18,2.25-.35.87-.78.95-2.11,1.01-3.19.01-.23-.34-.22-.35,0-.05.88-.11,1.83-.61,2.59-.38.57-1.13.94-1.82.77-.89-.22-.92-1.27-.81-2.01.12-.79.5-1.63,1.24-2.01.68-.35,1.66-.26,2.09.42.12.19.42.01.3-.18h0Z"/><path class="cls-1" d="M49.93,73.82c.23,0,.23-.35,0-.35s-.23.35,0,.35h0Z"/><path class="cls-1" d="M49.86,74.31c-.03,1.42.68,2.79,1.84,3.6.19.13.36-.17.18-.3-1.06-.74-1.7-2.01-1.67-3.3,0-.23-.35-.23-.35,0h0Z"/><path class="cls-1" d="M53.74,70.69c-.24,2.34-.07,4.71.5,6.99.05.22.39.13.34-.09-.56-2.26-.73-4.59-.49-6.9.02-.22-.33-.22-.35,0h0Z"/><path class="cls-1" d="M57,71.01c0,2.31,0,4.61,0,6.92,0,.23.35.23.35,0,0-2.31,0-4.61,0-6.92,0-.23-.35-.23-.35,0h0Z"/><path class="cls-1" d="M57.67,75.46c.9-1.04,2.8-1.13,3.49.19.29.56.32,1.29.02,1.85s-.87.84-1.49.81-1.31-.41-1.52-1.06c-.07-.21-.41-.12-.34.09.45,1.42,2.55,1.78,3.46.61.47-.6.56-1.46.3-2.17-.27-.75-.9-1.29-1.68-1.44-.91-.16-1.89.15-2.49.86-.15.17.1.42.25.25h0Z"/><path class="cls-1" d="M67.49,74.47c-.81-.49-1.86-.64-2.76-.31-.83.31-1.43,1-1.49,1.9-.05.76.29,1.62.98,2.01.94.53,2.08-.05,2.74-.77.79-.87,1.13-2.1.89-3.25-.03-.15-.25-.17-.32-.04-.83,1.43-.43,3.36.88,4.36.18.14.35-.17.18-.3-1.15-.89-1.47-2.63-.75-3.89l-.32-.04c.19.89-.02,1.82-.53,2.57s-1.48,1.46-2.4,1.14c-.63-.22-.97-.92-1-1.55-.03-.76.37-1.39,1.05-1.72.84-.41,1.89-.28,2.68.19.19.12.37-.19.18-.3h0Z"/><path class="cls-1" d="M73.34,74.51c-1.65-.55-3.5.81-3.74,2.47-.12.85.18,1.87,1.17,1.92.91.05,1.83-.4,2.47-1.02.76-.73,1.23-1.75,1.19-2.81,0-.19-.31-.25-.34-.05-.24,1.5.39,3.03,1.63,3.9.18.13.36-.17.18-.3-1.1-.78-1.69-2.18-1.47-3.51l-.34-.05c.05,1.58-1.13,3.08-2.68,3.42-.41.09-.97.15-1.25-.24-.22-.31-.26-.75-.23-1.11.06-.72.5-1.38,1.05-1.82.64-.51,1.48-.73,2.27-.47.21.07.31-.27.09-.34h0Z"/><path class="cls-1" d="M77.8,76.58c-.27.66-.12,1.43.37,1.95l.25-.25c-.66-.57-1.09-1.59-.7-2.43.32-.7,1.25-1.17,1.98-.82.2.1.38-.2.18-.3-.89-.43-2,.04-2.44.9-.5.99-.07,2.21.73,2.9.17.15.4-.08.25-.25-.41-.43-.5-1.06-.28-1.61.09-.21-.25-.3-.34-.09h0Z"/><path class="cls-1" d="M85.02,75.91c-.17.92-.08,1.87.28,2.74.04.09.12.15.22.12.08-.02.16-.13.12-.22-.33-.81-.44-1.69-.28-2.55.04-.22-.3-.31-.34-.09h0Z"/><path class="cls-1" d="M85.71,72.08l.33.66c.04.08.16.11.24.06.08-.05.11-.15.06-.24l-.33-.66c-.04-.08-.16-.11-.24-.06-.08.05-.11.15-.06.24h0Z"/><path class="cls-1" d="M90.75,74.83c-.38-1.01-1.8-1.36-2.5-.48-.31.39-.44.95-.28,1.43.19.57.71.89,1.22,1.14.58.29,1.61.76,1.35,1.59l.17-.13c-1.3.01-2.61.03-3.91.04-.23,0-.23.35,0,.35,1.3-.01,2.61-.03,3.91-.04.08,0,.15-.05.17-.13.21-.68-.31-1.3-.85-1.64s-1.37-.52-1.68-1.16c-.25-.53,0-1.27.53-1.52s1.31.07,1.53.64c.08.21.42.12.34-.09h0Z"/><path class="cls-1" d="M143.25,77.69c4.02,5.49,8.45,10.65,13.25,15.47l.17-.41c-9.54.8-22.46-1.76-27.03-11.29-.04-.09-.18-.14-.27-.11-13.25,5.12-27.1,8.65-41.17,10.62-13.35,1.86-27.08,2.56-40.49,1.05-11.52-1.3-23.46-4.3-32.95-11.25S-.26,63.7.55,51.78C2.3,26.19,28.57,11.14,50.75,5.3,64.65,1.63,79.09.52,93.42.48s29.09.17,42.44,5.41c5.69,2.23,11.16,5.45,15.35,9.95,4.68,5.03,6.68,11.34,7.31,18.08.32,3.43.43,6.89.53,10.33.11,3.72.1,7.46-.43,11.14-.88,6.08-3.29,11.86-7.71,16.22-2.21,2.18-4.81,3.88-7.68,5.04-.28.11-.16.57.13.46,5.89-2.39,10.54-7.02,13.2-12.77,3.21-6.93,3.19-14.73,2.9-22.2s-.48-15.24-4.32-21.84c-3.2-5.51-8.43-9.61-14.01-12.53C127.08.41,110.35.03,94.84,0c-16.26-.03-32.75,1.25-48.36,6.02-12.93,3.95-25.63,10.49-34.9,20.53C3,35.84-1.85,48.41.66,61.08c1.25,6.28,4.31,12.09,8.76,16.69s9.69,7.75,15.38,10.14c12.56,5.27,26.59,6.57,40.09,6.35,16.29-.26,32.56-2.6,48.25-7,3.92-1.1,7.8-2.33,11.63-3.69.94-.33,1.87-.67,2.8-1.02.42-.16.85-.38,1.28-.49.54-.14.54,0,.79.47.63,1.15,1.43,2.21,2.33,3.16,4,4.23,9.9,6.37,15.53,7.24,3.03.47,6.11.56,9.17.31.2-.02.32-.25.17-.41-4.76-4.8-9.17-9.92-13.17-15.38-.18-.24-.59,0-.41.24h0Z"/></g></svg>