<?xml version="1.0" encoding="UTF-8"?><svg id="Layer_2" xmlns="http://www.w3.org/2000/svg" viewBox="0 0 78.56 71.39"><defs><style>.cls-1{fill:#1d1d1b;stroke-width:0px;}</style></defs><g id="Layer_1-2"><path class="cls-1" d="M12.49,22.33c-.51,4.05-.96,8.1-1.32,12.16-.3,3.41-.62,6.87-.14,10.29.45,3.17,1.68,6.05,3.86,8.41s4.91,4.22,7.75,5.64c5.33,2.66,11.44,3.8,17.36,3.03,2.92-.38,5.77-1.23,8.39-2.56,3.01-1.53,4.97-3.64,5.91-6.92,2.38-8.27,3.76-16.94,4.82-25.46.08-.61-.88-.6-.96,0-.9,7.27-2.19,14.48-3.88,21.61-.82,3.47-1.48,6.83-4.63,8.94-2.39,1.6-5.23,2.6-8.04,3.16-5.77,1.16-11.92.33-17.28-2.06-5.69-2.53-11.06-6.76-12.24-13.17-.66-3.59-.29-7.3.03-10.91.36-4.06.81-8.12,1.32-12.16.08-.61-.88-.6-.96,0h0Z"/><path class="cls-1" d="M21.58,49.27c2.55,1.69,6.3,1.14,8.25-1.22.39-.47-.28-1.15-.68-.68-1.7,2.05-4.87,2.54-7.09,1.07-.51-.34-.99.49-.48.83h0Z"/><path class="cls-1" d="M15.89,37.82c1.26-1.18,3.26-1.39,4.74-.52.53.31,1.01-.51.48-.83-1.86-1.09-4.33-.8-5.89.67-.45.42.23,1.1.68.68h0Z"/><path class="cls-1" d="M30.18,38.2c1.64-.95,3.85-.58,5.11.83.41.46,1.08-.22.68-.68-1.54-1.73-4.27-2.14-6.27-.98-.53.31-.05,1.14.48.83h0Z"/><path class="cls-1" d="M40.56,18.3c-.9,3.69,1.38,7.09,4.2,9.27,3.46,2.68,7.96,3.81,11,7.07,2.88,3.08,3.97,7.34,4.57,11.4.71,4.84,1.01,9.77,1.47,14.64.06.61,1.01.61.96,0-.44-4.71-.76-9.45-1.39-14.13-.5-3.73-1.34-7.58-3.47-10.75-2.27-3.38-5.78-5.06-9.26-6.94-3.69-1.99-8.33-5.47-7.15-10.3.15-.6-.78-.85-.92-.25h0Z"/><path class="cls-1" d="M43.58,18.08c-.49,3.91,3.02,6.3,5.99,7.98,3.41,1.93,6.46,4.29,9.02,7.28,5.25,6.16,7.91,14.19,7.33,22.27-.35,4.91-1.87,9.67-4.39,13.89l.65-.17c-.65-.44-1.3-.87-1.96-1.31-.51-.34-.99.48-.48.83.65.44,1.3.87,1.96,1.31.22.14.53.04.65-.17,4.22-7.07,5.65-15.66,3.82-23.7-1.66-7.29-6.03-13.9-11.99-18.4-1.76-1.33-3.69-2.33-5.56-3.48-2.25-1.38-4.44-3.44-4.08-6.32.08-.61-.88-.6-.96,0h0Z"/><path class="cls-1" d="M46.7,19.67c.3,4.84,5.14,6.76,8.7,8.95,4.6,2.83,6.51,7.85,8.45,12.63s3.93,10.31,3.63,15.79c-.24,4.32-2.05,8.85-5.52,11.57-.91.71-2.25,1.67-3.43,1.77-1.57.14-2.51-2.55-2.97-3.74-1.12-2.87-1.45-5.99-.98-9.04.09-.6-.83-.86-.92-.25-.42,2.73-.28,5.5.5,8.15.33,1.11.77,2.2,1.3,3.23.46.89,1.02,2.07,2.01,2.49,1.72.73,4.15-1.08,5.39-2.11,1.81-1.51,3.17-3.5,4.09-5.66,2.04-4.75,1.77-9.96.47-14.88-.82-3.11-2.02-6.1-3.25-9.07-1-2.41-2-4.86-3.45-7.04-1.74-2.61-4.02-4.26-6.72-5.76s-6.12-3.49-6.34-7.04c-.04-.61-.99-.62-.96,0h0Z"/><path class="cls-1" d="M48.15,20.25c2.01.65,2.76,3.23,4.4,4.45,1.92,1.42,4.35,1.99,6.36,3.31,4.01,2.66,6.81,6.89,8.43,11.36,1.91,5.27,2.2,10.95,2.01,16.5-.1,2.92-.28,5.86-.57,8.77-.15,1.48-.42,3.1-1.52,4.2-1.22,1.22-2.82,1.2-4.09.08-2.11-1.85-3.24-5-3.67-7.69-.47-2.99-.06-6.08,1.19-8.84.25-.56-.57-1.04-.83-.48-2.26,5.02-1.96,11.04,1.03,15.71,1.22,1.9,3.23,3.88,5.66,2.85s3.01-3.87,3.22-6.26c1.02-11.76,1.7-25.67-7.46-34.65-.98-.96-2.06-1.83-3.23-2.57-1.43-.91-3-1.46-4.51-2.2s-2.52-1.86-3.52-3.24c-.71-.99-1.46-1.84-2.65-2.22-.59-.19-.84.73-.25.92h0Z"/><path class="cls-1" d="M50.64,16.09c.98,2.95,3.53,4.7,6.09,6.22,3.15,1.88,6,3.86,8.33,6.74,5.23,6.47,7.16,14.87,7.5,23.02.22,5.25-.15,10.5-.52,15.73-.04.61.91.61.96,0,1.08-15.27,1.73-34.67-12.64-44.41-3.13-2.12-7.49-3.66-8.79-7.57-.19-.58-1.12-.33-.92.25h0Z"/><path class="cls-1" d="M57.03,16.76c7.29,3.87,9.89,12.5,11.3,20.07,1.89,10.09,2.22,20.44,1.05,30.64-.07.61.89.6.96,0,.95-8.34.91-16.77-.17-25.09-.86-6.62-2.07-13.63-5.54-19.45-1.74-2.92-4.1-5.4-7.12-7-.54-.29-1.03.54-.48.83h0Z"/><path class="cls-1" d="M64.32,16.64c5.56,6.42,7.06,15.08,7.38,23.32.37,9.7-.31,19.51-1.43,29.14-.07.61.89.6.96,0,.95-8.16,1.47-16.38,1.5-24.6.02-6.5-.36-13.19-2.51-19.37-1.17-3.36-2.89-6.47-5.22-9.17-.4-.47-1.08.21-.68.68h0Z"/><path class="cls-1" d="M71.44,22.46c3.8,6.68,5.9,14.24,6.12,21.92.11,3.79-.23,7.6-1.04,11.31-.74,3.38-1.69,7.33-4.19,9.88-1.34,1.37-3.09,2.12-5.01,1.76-1.68-.31-3.13-1.37-3.38-3.14-.09-.61-1.01-.35-.92.25.41,2.88,3.57,4.25,6.21,3.86,3.53-.52,5.57-4.04,6.7-7.08,2.98-8.04,3.31-17.15,1.56-25.49-1.01-4.83-2.79-9.47-5.23-13.76-.3-.53-1.13-.05-.83.48h0Z"/><path class="cls-1" d="M60.49,40.88l-.63-2.25c-.15-.54-.9-.4-.94.13-.58,7.7-2.05,15.3-4.36,22.66-.18.59.74.84.92.25,2.34-7.45,3.81-15.13,4.39-22.92l-.94.13.63,2.25c.17.59,1.09.34.92-.25h0Z"/><path class="cls-1" d="M62.41,43.81c.38,4.04.74,8.13.3,12.18-.22,2.04-.67,4.06-1.42,5.97-.71,1.8-1.86,4.13-4.03,4.34-.61.06-.61,1.01,0,.96,4.06-.39,5.52-5.9,6.12-9.19.85-4.71.44-9.53,0-14.26-.06-.61-1.01-.61-.96,0h0Z"/><path class="cls-1" d="M57.98,39.39c.06,3.61-.15,7.22-.65,10.79-.39,2.78-.84,7.65-4.52,7.91-.61.04-.61,1,0,.96,3.67-.26,4.72-4.12,5.22-7.14.68-4.14.97-8.32.91-12.51,0-.61-.97-.62-.96,0h0Z"/><path class="cls-1" d="M20.87,17.93c-1.69.43-4.08,1.01-5.46-.43s-.67-3.64.16-5.11c1.79-3.2,5.13-5.64,8.59-6.73,1.95-.61,4-.8,6.03-1.03,2.29-.26,4.58-.53,6.87-.79,2.92-.34,8.13-1.74,10.14,1.27.34.51,1.17.03.83-.48-1.62-2.44-4.75-2.44-7.37-2.16-4.43.47-8.88.94-13.29,1.55-3.48.48-6.68,1.72-9.36,4.03-2.19,1.89-4.59,4.81-4.27,7.91.4,3.82,4.6,3.6,7.39,2.89.6-.15.34-1.07-.25-.92h0Z"/><path class="cls-1" d="M27.21,17.28c-1.63-.43-3.14.02-4.77.1-2.16.1-3.97-1.1-3.12-3.47,1.1-3.06,4.43-4.85,7.28-5.95,6.73-2.59,14.39-3.59,21.32-1.24.58.2.83-.73.25-.92-4.09-1.38-8.42-1.63-12.68-1.08-3.97.52-8.09,1.57-11.66,3.43-2.58,1.34-6.24,4.21-5.68,7.57.7,4.16,6.26,1.81,8.78,2.48.59.16.85-.76.25-.92h0Z"/><path class="cls-1" d="M25.86,14.16c-.93-.08-1.48-.92-1.58-1.78-.1-.96.41-1.8,1.04-2.48,1.05-1.14,2.53-1.98,3.89-2.68,2.8-1.44,5.96-2.25,9.12-2.22,2.95.03,5.84.83,8.37,2.34,1.25.75,2.39,1.66,3.38,2.72.48.51.93,1.06,1.33,1.63.45.65.76,1.53,1.45,1.94-.53-.32-1.01.51-.48.83l.13.08c.14.08.35.09.48,0,.85-.59.34-1.52-.06-2.23-.72-1.27-1.64-2.44-2.69-3.46-2.12-2.05-4.79-3.52-7.64-4.26-3.17-.82-6.55-.69-9.7.17-2.94.8-6.32,2.28-8.38,4.6-.9,1.01-1.47,2.31-1.09,3.66.33,1.17,1.21,1.99,2.43,2.09.61.05.61-.9,0-.96h0Z"/><path class="cls-1" d="M30,14.29c5.05-3.72,10.8-6.37,16.91-7.78.6-.14.35-1.06-.25-.92-6.18,1.43-12.03,4.11-17.14,7.87-.49.36-.01,1.19.48.83h0Z"/><path class="cls-1" d="M29.42,15.77c9.86,1.1,20.97-.31,27.61-8.49.38-.47-.29-1.15-.68-.68-6.5,8.01-17.31,9.29-26.94,8.21-.61-.07-.61.89,0,.96h0Z"/><path class="cls-1" d="M37.95,12.26c5.29-.07,10.42-2.38,13.97-6.3.41-.46-.26-1.13-.68-.68-3.38,3.74-8.24,5.95-13.29,6.02-.61,0-.62.96,0,.96h0Z"/><path class="cls-1" d="M32.16,17.93c6.31.99,12.79.1,18.6-2.55,2.86-1.3,5.75-3.03,8.01-5.24.69-.67,1.4-1.63,1.04-2.64-.34-.94-1.35-1.43-2.23-.92-.53.31-.05,1.13.48.83l.8.29c.13.24.12.47-.03.7-.11.39-.33.65-.61.94-.4.41-.85.77-1.3,1.13-1,.81-2.05,1.55-3.14,2.22-2.11,1.3-4.37,2.34-6.72,3.11-4.71,1.54-9.75,1.97-14.65,1.2-.6-.09-.86.83-.25.92h0Z"/><path class="cls-1" d="M50.4,15.85c2.13-.12,4.25-.45,6.32-1,1.08-.29,2.15-.63,3.2-1.04.82-.32,1.65-.64,2.34-1.2,2.26-1.83,1-5.7-1.82-6.07-.61-.08-.6.88,0,.96,1.08.14,1.83,1.17,2.01,2.18.25,1.41-.69,2.29-1.89,2.84-3.15,1.45-6.73,2.17-10.17,2.37-.61.04-.62.99,0,.96h0Z"/><path class="cls-1" d="M48.79,5.07c3.12,0,6.35.98,8.8,2.95,1.07.86,2.02,1.98,2.36,3.33s.06,2.77-.93,3.72c-.44.43.23,1.1.68.68,1.09-1.05,1.49-2.57,1.29-4.04-.21-1.58-1.14-2.96-2.3-4.01-2.65-2.39-6.36-3.57-9.89-3.58-.61,0-.62.95,0,.96h0Z"/><path class="cls-1" d="M48.24,4.18c.9-1.39,2.43-2.34,4.09-2.52l-.46-.35c.6,1.82,1.51,3.49,2.7,4.99.38.48,1.06-.2.68-.68-1.09-1.36-1.92-2.91-2.46-4.56-.06-.18-.25-.37-.46-.35-2.01.21-3.81,1.3-4.91,2.99-.34.52.49,1,.83.48h0Z"/><path class="cls-1" d="M53.43,1.62c4.77-2.44,9.14,1.98,11.46,5.69,2.61,4.19,4.43,8.83,5.44,13.66.13.6,1.05.35.92-.25-1.13-5.37-3.24-10.71-6.41-15.21-2.62-3.72-7.25-7.07-11.89-4.7-.55.28-.06,1.1.48.83h0Z"/><path class="cls-1" d="M54.88,4.4c3.95-1.32,7.58,2.01,9.8,4.9,2.47,3.21,4.14,6.97,4.93,10.93.12.6,1.04.35.92-.25-.87-4.33-2.78-8.41-5.56-11.84-2.41-2.98-6.29-6.01-10.35-4.65-.58.19-.33,1.12.25.92h0Z"/><path class="cls-1" d="M63.69,12.57c.79,2.41,1.58,4.83,2.38,7.24.19.58,1.11.33.92-.25-.79-2.41-1.58-4.83-2.38-7.24-.19-.58-1.11-.33-.92.25h0Z"/><path class="cls-1" d="M14.56,19.57c-.02.09-.06.19-.09.28-.03.08.05-.11.01-.03-.01.02-.02.04-.03.07-.02.04-.04.08-.06.12-.05.08-.1.16-.15.23-.06.09,0-.02.02-.02,0,0-.04.05-.05.06-.03.04-.06.07-.1.11-.06.07-.13.13-.2.19-.01.01-.09.07-.02.02s0,0,0,0c-.04.03-.08.06-.12.08-.08.05-.17.1-.25.14-.02.01-.04.02-.07.03l.07-.03s-.03.01-.04.02c-.05.02-.09.03-.14.05-.24.08-.42.34-.33.59.08.24.33.42.59.33.92-.29,1.66-1.05,1.9-1.99.06-.24-.08-.53-.33-.59s-.52.08-.59.33h0Z"/><path class="cls-1" d="M14.39,17.71c-1.51.69-2.53,2.11-3.04,3.65-.65,1.92-.48,4-.32,5.99.05.61,1.01.61.96,0-.25-3.06-.45-7.29,2.89-8.81.56-.25.07-1.08-.48-.83h0Z"/><path class="cls-1" d="M14.13,16.74c-3.9,3.24-5.79,8.51-4.92,13.49.11.6,1.03.35.92-.25-.81-4.66,1.05-9.55,4.68-12.56.47-.39-.21-1.07-.68-.68h0Z"/><path class="cls-1" d="M10.57,26.4c-1,3.98-1.4,8.08-1.2,12.18.03.61.99.62.96,0-.2-4.01.19-8.02,1.16-11.92.15-.6-.77-.85-.92-.25h0Z"/><path class="cls-1" d="M9.01,40.08c-1.08,3.02-1.75,6.16-2.02,9.35-.05.61.9.61.96,0,.26-3.11.94-6.16,1.98-9.1.21-.58-.72-.83-.92-.25h0Z"/><path class="cls-1" d="M6.86,48.47c-.66,4.04-1.87,7.96-3.51,11.71-.8,1.82-1.7,3.58-2.65,5.32-.4.74-.8,2.28.5,2.33.62.02.61-.94,0-.96-.07,0,.88-1.92.97-2.08.37-.7.73-1.41,1.08-2.12.68-1.41,1.31-2.85,1.88-4.32,1.21-3.11,2.11-6.33,2.65-9.62.1-.6-.82-.86-.92-.25h0Z"/><path class="cls-1" d="M8.83,39.91c.84,4.91.67,9.95-.52,14.79-.58,2.38-1.4,4.71-2.45,6.92-.55,1.15-3.37,7.33-5.04,5.55-.42-.45-1.1.23-.68.68,3.43,3.65,7.77-8.45,8.42-10.49,1.82-5.71,2.21-11.8,1.2-17.7-.1-.6-1.02-.35-.92.25h0Z"/><path class="cls-1" d="M9.39,45.93c.97,3.82,1.39,7.76,1.22,11.7-.08,1.83-.15,3.86-.97,5.54-.36.74-.9,1.4-1.6,1.84-.36.22-2.6,1.06-2.61.05,0-.61-.96-.62-.96,0,.02,1.73,2.45,1.54,3.54,1.05,1.96-.89,2.88-2.92,3.23-4.93.87-5.08.34-10.52-.92-15.49-.15-.6-1.07-.34-.92.25h0Z"/><path class="cls-1" d="M12.68,51.5c.87,3.01,1.89,6.38.93,9.49-.74,2.39-2.78,4.6-5.42,4.57-.62,0-.62.95,0,.96,2.86.03,5.13-2.14,6.13-4.68,1.35-3.41.25-7.24-.72-10.59-.17-.59-1.09-.34-.92.25h0Z"/><path class="cls-1" d="M19.11,57.42c-.11,2.26-.9,4.67-2.76,6.09-1.65,1.26-4.24,1.53-5.89.11-.46-.4-1.14.27-.68.68,1.93,1.67,4.9,1.56,6.93.12,2.24-1.58,3.22-4.35,3.35-7,.03-.61-.93-.61-.96,0h0Z"/></g></svg>