<?xml version="1.0" encoding="UTF-8"?><svg id="Layer_2" xmlns="http://www.w3.org/2000/svg" viewBox="0 0 59.06 78.86"><defs><style>.cls-1{fill:#1d1d1b;stroke-width:0px;}</style></defs><g id="Layer_1-2"><path class="cls-1" d="M1.08,34.66c1.21,9.32,2.3,18.66,3.62,27.96.28,1.94.7,3.91,1.9,5.51,1.06,1.43,2.55,2.44,4.08,3.33,3.73,2.17,7.72,3.92,11.82,5.25s8.58,2.5,12.95,2.03c3.6-.38,6.94-1.9,9.87-3.99s5.72-4.9,8.23-7.7,5.27-5.48,5.49-9.33c.14-2.42-.46-4.91-.89-7.28-.46-2.53-.96-5.04-1.51-7.55-1.13-5.17-2.47-10.29-3.99-15.36-.23-.76-1.43-.44-1.2.33,2.44,8.14,4.4,16.42,5.84,24.8.36,2.1.82,4.32.31,6.44s-1.9,3.62-3.22,5.14c-2.26,2.61-4.58,5.19-7.19,7.47s-5.72,4.34-9.17,5.29c-4.09,1.13-8.31.46-12.33-.63s-7.9-2.59-11.6-4.48c-1.7-.87-3.48-1.76-4.98-2.97-1.67-1.35-2.54-3.07-2.96-5.15-.95-4.73-1.31-9.65-1.93-14.43s-1.27-9.8-1.9-14.7c-.1-.78-1.34-.79-1.24,0h0Z"/><path class="cls-1" d="M32.74,19.16c-.67.27-1.37-.29-1.47-.98-.12-.83.72-1.47,1.42-1.69.73-.22,1.66-.12,2.21.45.41.43.47,1.44-.27,1.6-.93.21-.82-1.27-.6-1.74.31-.67,1.09-1.82,1.92-1.84,1.5-.04,1.92,3.07.64,3.62-.73.31-1.57-.1-1.94-.75-.47-.8-.41-1.82-.09-2.65.65-1.71,2.41-2.77,4.21-2.57.74.08,2.02.45,2.35,1.21s-1.35,1-1.79,1.04c-1.72.17-3.8-.63-3.96-2.6-.09-1.08.66-1.8,1.52-2.31.33-.19,1.11-.75,1.5-.57.32.14.33.66.29.95-.13.91-.94,1.7-1.83,1.86-.96.17-1.92-.35-2.4-1.18-.42-.72-1.54-.07-1.12.65.69,1.2,2.06,1.97,3.46,1.84s2.6-1.14,3.05-2.47c.39-1.16-.02-2.9-1.49-2.97-.74-.04-1.49.41-2.11.77s-1.23.84-1.65,1.46c-.78,1.18-.63,2.75.13,3.9.83,1.26,2.24,1.89,3.72,1.98,1.24.08,3.11-.15,3.81-1.35.84-1.46-.79-2.69-1.98-3.16-2.82-1.12-6,.41-7,3.24-.48,1.35-.35,3.01.64,4.11.86.96,2.47,1.28,3.57.53,2.15-1.48,1.08-6.33-1.85-5.86-1.38.22-2.61,1.82-2.98,3.09s.25,2.9,1.7,3.05c1.3.14,2.28-1.2,2.16-2.42-.15-1.4-1.55-2.23-2.84-2.33s-2.8.59-3.4,1.79-.15,2.68,1.03,3.36c.55.31,1.2.4,1.8.16.77-.3.43-1.56-.34-1.25h0Z"/><path class="cls-1" d="M34.64,6.87s.16.04.16.05c0-.02-.13-.06-.02,0,.03.01.05.03.08.04.05.03.1.06.15.09.02.02.05.03.07.05.05.03-.1-.09,0,0,.09.08.17.17.26.26.05.05.04,0-.02-.03.01,0,.04.06.05.07.04.05.07.11.1.16s.06.11.09.17c0,.01.04.07.04.08,0,0-.06-.15-.02-.03s.08.25.11.37c0,.02.02.17.03.17-.02,0-.01-.14,0-.04,0,.03,0,.06,0,.09,0,.05-.03.36-.01.38-.02-.02.03-.14,0-.05,0,.03-.01.06-.02.08-.01.06-.03.11-.04.16-.01.03-.02.07-.03.1-.02.05-.06.06,0,.02.05-.04.01-.02-.01.02-.02.03-.03.06-.05.09-.03.06-.07.11-.11.16-.04.07.08-.09.02-.03-.02.02-.04.04-.06.07-.04.05-.09.09-.14.14-.01,0-.06.06-.07.06.03,0,.12-.08.01-.01s-.21.13-.32.18c-.09.04.03,0,.04-.01,0,0-.08.03-.08.03-.07.02-.14.05-.21.06-.06.01-.11.03-.17.04-.01,0-.09.02-.09.01,0,0,.17-.02.04,0s-.26.01-.39,0c-.03,0-.06,0-.09,0-.15,0,.15.03,0,0-.06-.01-.13-.02-.19-.04-.07-.02-.14-.04-.21-.06-.03,0-.05-.02-.08-.03-.08-.03.12.06.02,0-.06-.03-.13-.07-.19-.1-.02-.01-.05-.03-.07-.05-.02-.01-.04-.02-.05-.04-.04-.03-.02-.02.05.04-.04,0-.14-.12-.16-.14-.05-.05-.1-.11-.14-.16-.21-.27-.7-.24-.92,0-.26.28-.23.63,0,.92.87,1.09,2.59,1.25,3.75.57.6-.36,1.06-.95,1.21-1.64s.04-1.41-.27-2.05c-.34-.69-.96-1.23-1.7-1.45-.32-.1-.72.12-.8.45s.1.69.45.8h0Z"/><path class="cls-1" d="M34.09,5.84c2.39-.03,4.5,1.21,6.33,2.64.47.37.92.75,1.38,1.14.42.36.91.72,1.23,1.18.7.99-.78.9-1.36.78-.81-.17-1.16,1.08-.34,1.25,1.09.22,2.71.25,3.12-1.07.47-1.5-1.25-2.66-2.22-3.48-2.31-1.95-4.98-3.78-8.13-3.74-.83,0-.84,1.31,0,1.3h0Z"/><path class="cls-1" d="M37.01,7.49c-.08.01.14,0,.17,0-.11,0,.08.02.09.02.17.05-.06-.05.1.03.04.02.17.1.17.1.18.13.36.38.43.57.1.26.11.48.04.72s-.2.49-.38.68c-.45.49-1.01.74-1.67.86-.86.15-1.77.02-2.63-.08-.35-.04-.65.33-.65.65,0,.38.3.61.65.65,1.62.19,3.38.31,4.76-.74,1.16-.89,1.71-2.5.78-3.76-.53-.71-1.31-1.1-2.2-.94-.34.06-.54.48-.45.8.1.36.45.51.8.45h0Z"/><path class="cls-1" d="M31.81,8.98c.57.23.91.93.94,1.51.03.73-.34,1.39-.97,1.8-1.62,1.05-3.54.19-4.75-1.07-.58-.61-1.49.31-.92.92,1.33,1.4,3.34,2.34,5.27,1.75,1.76-.54,3-2.2,2.56-4.06-.23-.97-.88-1.73-1.8-2.1-.32-.13-.71.14-.8.45-.1.37.13.67.45.8h0Z"/><path class="cls-1" d="M27.22,10.08c.8-.2,1.44.6,1.67,1.27.29.87.4,1.93.32,2.84-.06.74-.48,1.32-1.29,1.19-.91-.14-1.51-1-2.01-1.69-.21-.28-.56-.42-.89-.23-.28.16-.44.6-.23.89.61.84,1.26,1.7,2.24,2.11.94.39,2.12.31,2.81-.5.62-.72.71-1.71.65-2.63-.07-1.05-.17-2.19-.71-3.12-.58-1.01-1.75-1.68-2.92-1.39-.81.2-.47,1.45.34,1.25h0Z"/><path class="cls-1" d="M25.2,13.41c.09.07,0,0-.02-.01.02.02.05.04.07.06.05.04.09.09.13.13.04.04.13.16.05.05.05.06.09.13.13.19.03.05.06.11.09.16.02.05.08.21.03.06.04.13.09.25.12.38.01.06.02.12.04.19.02.09,0-.12,0-.03,0,.03,0,.06,0,.09,0,.13,0,.27,0,.4,0,.02,0,.07,0,.09.04-.1.02-.09,0-.03s-.02.12-.04.19-.03.12-.05.18c-.02.05-.12.25-.04.11-.06.11-.11.22-.18.33-.02.03-.04.05-.05.08.01-.02.09-.11.01-.02-.05.05-.09.11-.15.16-.04.04-.08.07-.12.11.11-.11-.01,0-.06.04-.05.03-.11.07-.16.09-.03.01-.06.03-.08.04-.14.07.13-.04-.02,0-.12.04-.23.08-.36.11-.05.01-.22.07-.06.02-.06.02-.15.01-.21.02-.13,0-.25,0-.38,0-.17-.01.1.02-.06,0-.07-.01-.14-.03-.21-.05-.08-.02-.15-.04-.22-.07-.03-.01-.06-.02-.09-.03.07.03.08.04,0,0-.13-.07-.26-.14-.38-.22-.03-.02-.09-.08.02.02-.03-.02-.06-.05-.09-.07-.05-.05-.1-.09-.15-.14-.04-.04-.16-.22-.08-.08-.04-.07-.09-.13-.13-.2-.17-.29-.59-.42-.89-.23s-.41.57-.23.89c.72,1.24,2.36,1.8,3.71,1.37.69-.22,1.29-.68,1.64-1.33s.45-1.4.34-2.13c-.12-.82-.58-1.53-1.24-2.02-.27-.2-.73-.06-.89.23-.18.34-.06.67.23.89h0Z"/><path class="cls-1" d="M20.96,15.28c1.2.95,1,2.87-.6,3.25-.31.07-.66.09-.96-.05-.43-.2-.48-.42-.06-.61.81-.37,1.7-.62,2.57-.81,1.62-.35,3.49-.51,5.12-.1.55.14,1.15.35,1.55.78.58.63.34,1.46-.17,2.06-1.96,2.33-5.67,1.78-8.09.61-.6-.29-1.27-.61-1.75-1.08-.63-.61-.46-1.41.19-1.93.6-.49,1.44-.57,2.19-.59.3-.01.79-.11,1.07,0,.37.15.42.64.45,1,.11,1.48-.91,3.03-2.37,3.37s-3.04-.49-3.69-1.84c-.36-.75-1.48-.09-1.12.65.87,1.82,3,2.86,4.97,2.47s3.42-2.31,3.51-4.29c.04-.94-.22-2.21-1.22-2.56-.94-.33-2.38-.15-3.31.13-2.19.65-3.25,3.2-1.27,4.76,1.72,1.36,4.12,2.16,6.31,2.2s4.58-.78,5.6-2.75c1.1-2.11-.58-3.8-2.58-4.26-2.46-.57-5.29-.18-7.63.67-1,.36-2.41.94-1.83,2.28.48,1.1,1.8,1.41,2.88,1.14,2.46-.61,3.16-3.84,1.17-5.41-.65-.51-1.57.4-.92.92h0Z"/><path class="cls-1" d="M15.34,17.75c-.61.76-1.46,1.88-2.51,1.99-1.72.19-1.94-1.8-1.42-2.99.23-.51.55-1.13.97-1.5.32-.29.87-1.38,1.49-.05.11.24-.07.72-.15.94-.39,1.06-1.49,2.02-2.39,2.66-.55.39-1.43.9-2.13.53-.58-.3-.85-1.1-.83-1.71.05-1.35,1.18-2.56,2.06-3.47,1.23-1.27,4.55-4.36,6.31-2.5.92.97,1.69,4.78.13,5.35-2.25.81-3.62-2.74-4.05-4.35s.35-2.65,1.9-3.21c1.11-.4,2.34-.53,3.5-.29,2.06.42,3.69,2.08,3.81,4.23.03.48-.03.98-.2,1.44-.09.24-.2.46-.35.67-.39.56-.48.57-1.16.42-1.27-.29-1.82-1.76-1.83-2.98-.02-2.11,2.05-3.96,4.17-3.21,1.93.69,2.48,3.82.34,4.61-2.47.91-3.82-2.05-2.21-3.81s4.41-1.67,6.36-.7c.91.46,1.82,1.16,2.35,2.04.4.66.7,1.63-.13,2.11-.7.4-1.47.12-2.13-.24-1.74-.92-3.89-2.5-4.49-4.47-.25-.81-.24-1.8.16-2.56.63-1.2,1.99-1.38,3.22-1.26,1.47.14,2.97.75,4.08,1.73.87.77,1.8,2.14,1.01,3.29-1.08,1.57-2.79-.37-3.59-1.27-.9-1.01-2.77-2.98-.64-3.79,1.14-.44,2.64-.33,3.8-.04s2.95.99,3.27,2.27c.37,1.46-1.34,2.17-2.5,2.44-1.44.34-2.91.29-4.35-.03-.81-.19-1.16,1.06-.34,1.25,2.49.57,9.18.46,8.55-3.67-.26-1.7-2.05-2.74-3.53-3.27-1.8-.65-4.02-.75-5.81-.02-3.82,1.57.94,6.89,3.02,7.79,1.41.61,2.85-.04,3.45-1.44.73-1.7-.27-3.46-1.57-4.55-2.38-2-7.79-3.46-9.35.28s1.88,6.56,4.61,8.24c1.33.82,3.29,1.34,4.46-.05s.26-3.14-.74-4.25c-2.34-2.6-6.84-3.48-9.66-1.13-2.51,2.09-1.8,6.6,1.87,6.56,3.23-.04,4.51-3.77,2.56-6.12-2.15-2.59-6.34-1.23-7.31,1.75-.51,1.59-.14,3.44.89,4.74s2.69,1.82,3.94.49c2.35-2.52.66-6.76-2.08-8.16s-8.6-.92-8.8,2.95c-.1,1.8.98,4.09,2.08,5.48.92,1.15,2.4,1.84,3.86,1.34,1.57-.54,1.73-2.07,1.66-3.52s-.34-3.16-1.51-4.18c-3.04-2.65-7.81,2.1-9.41,4.46-.94,1.39-1.42,3.23-.34,4.69,1.18,1.59,3.02,1.14,4.43.13,1.28-.91,2.9-2.43,3.04-4.1.12-1.38-1.08-2.85-2.55-2.29-2.74,1.04-4.3,6.86-.55,7.61,1.74.35,3.2-1.14,4.18-2.36.52-.64-.39-1.57-.92-.92h0Z"/><path class="cls-1" d="M21.14,4.93c.01.12,0,.24,0,.37,0,.18.03-.1,0,.07-.01.06-.02.12-.04.18s-.03.12-.05.18c0,.01-.08.18-.03.07-.05.11-.11.22-.18.32-.01.02-.12.16-.04.07-.04.05-.08.09-.12.14s-.09.09-.13.13c-.01,0-.13.11-.08.07.04-.03-.09.06-.11.07-.05.03-.11.06-.16.09-.03.01-.05.03-.08.04.05-.02.06-.02.01,0-.06.02-.12.04-.18.06-.05.01-.1.03-.15.04-.04,0-.18.02-.07.01-.12,0-.24.01-.36,0-.02,0-.2-.03-.07,0-.06-.01-.12-.02-.18-.04s-.12-.03-.17-.05c0,0-.19-.07-.07-.02-.11-.05-.22-.11-.32-.17-.05-.03-.1-.07-.15-.1.09.07-.04-.03-.06-.05-.08-.07-.16-.15-.23-.24-.03-.03-.03-.03,0,.01-.02-.02-.03-.05-.05-.07-.04-.06-.07-.12-.11-.18-.17-.31-.59-.4-.89-.23-.31.18-.4.58-.23.89.64,1.19,2.13,1.83,3.44,1.46s2.27-1.74,2.14-3.11c-.03-.35-.27-.65-.65-.65-.33,0-.68.3-.65.65h0Z"/><path class="cls-1" d="M20.38,2.93c1.06.04,1.99.81,2.39,1.78.42,1.02.17,2.15-.5,3-1.57,2.01-4.48,1.77-6.27.21-.63-.54-1.55.37-.92.92,1.88,1.63,4.76,2.26,6.94.82,2.01-1.32,2.96-3.99,1.6-6.11-.72-1.12-1.9-1.88-3.24-1.92-.83-.03-.83,1.27,0,1.3h0Z"/><path class="cls-1" d="M16.88,4.55c.38-.34,1.08-.11,1.37.3.45.64-.4,1.36-.94,1.65-1.77.98-4.04.75-5.69-.35-.7-.46-1.35.66-.65,1.12,1.82,1.22,4.27,1.49,6.31.66.98-.4,1.95-1.04,2.29-2.09.3-.92-.12-1.83-.9-2.35-.83-.56-1.95-.55-2.7.13-.62.56.3,1.48.92.92h0Z"/><path class="cls-1" d="M11.34,5.92c1.54-.88,3.27-1.16,5.01-.79l-.45-.45c.35,1.51-2.02,3.02-3.24,3.43-.68.23-1.51.25-2.09-.26-.34-.3-.53-.68-.31-1.11.19-.37.62-.57.98-.34l-.32-.56c.01,1.08-.15,2.3-.98,3.08-.66.62-2.07.97-2.63.03-.37-.63-.05-1.84.86-1.58.84.24,1.18,1.49,1.18,2.24.01,1.95-1.48,4.17-3.64,3.79-.83-.14-1.62-.73-1.68-1.62-.05-.82.49-1.77,1.36-1.84l-.56-.32c.93,2.06-.29,4.69-2.42,5.38l.8.45c-.39-1.59.85-2.95,2.41-3.05,1.29-.09,2.42.6,3.02,1.72,1.15,2.14.06,4.86-2.55,4.86-1.06,0-2.2-.45-2.83-1.33-.41-.58-.71-1.56-.04-2.06.52-.38,1.35-.46,1.97-.47,2.55-.06,5.13,1.58,6.11,3.95.33.8.68,1.99-.22,2.54-.6.37-1.38.48-2.07.43-1.52-.12-2.85-1.03-3.49-2.41v.65c.59-.86,2.12-1.88,3.23-1.39,1.45.64-.57,2.85-1.23,3.24-2.18,1.3-4.89-.35-4.99-2.82-.03-.83-1.33-.84-1.3,0,.11,2.73,2.59,5.02,5.36,4.54,1.3-.22,2.48-1.04,3.19-2.14.63-.97,1.1-2.6.2-3.56s-2.7-.66-3.76-.15c-.61.3-1.15.73-1.57,1.27-.48.61-.31,1.03.1,1.65,1.4,2.11,4.41,3.07,6.72,1.94,2.95-1.44.9-5.35-.84-6.93-1.9-1.73-4.81-2.67-7.32-1.8-2.94,1.03-1.72,4.51.49,5.6,2.03,1.01,4.77.61,6-1.44,1.34-2.23.38-5.56-1.94-6.74-2.91-1.48-6.74.82-5.9,4.23.08.33.47.56.8.45,2.98-.97,4.47-4.45,3.2-7.29-.09-.19-.35-.34-.56-.32-1.67.13-2.81,1.7-2.64,3.34.19,1.81,2.03,2.85,3.72,2.73,1.94-.14,3.36-1.67,3.91-3.46.5-1.65.28-3.93-1.35-4.91-1.5-.9-3.16.28-3.17,1.94-.01,1.77,1.65,2.8,3.29,2.45,2.1-.45,3.08-2.63,3.06-4.61,0-.83-.66-1.21-1.46-1.13-.87.09-1.65.82-1.86,1.66-.56,2.29,2.39,3.26,4.09,2.7,1.96-.65,4.69-2.68,4.14-5.02-.05-.21-.24-.41-.45-.45-2.08-.44-4.16-.13-6,.92-.72.41-.07,1.53.65,1.12h0Z"/><path class="cls-1" d="M42.96,16.32c.72.2,1.1.97,1.01,1.68-.1.79-.86,1.17-1.6,1.06-.85-.13-1.46-.82-1.34-1.7.16-1.12,1.38-1.69,2.36-1.18l-.3-.39c.75,1.95-.46,3.89-1.9,5.16-.96.84-3.76,2.38-4.34.33-.43-1.51.59-4.3,2.49-4.06.78.1,1.37.72,1.08,1.53-.32.89-1.27,1.49-2.08,1.89-1.49.74-3.99,1.33-5.18-.23-.5-.65-1.63,0-1.12.65,1.18,1.54,3.06,1.83,4.87,1.44s4-1.45,4.7-3.27c.75-1.94-1.03-3.54-2.91-3.29-2.08.27-3.1,2.53-3.22,4.41-.06,1.04.24,2.12,1.13,2.74.75.53,1.71.56,2.58.36,1.95-.43,3.69-2.01,4.65-3.71.5-.88.83-1.89.78-2.91-.02-.46-.09-.97-.29-1.4-.24-.52-.87-.68-1.4-.74-2.13-.23-3.82,1.92-3.02,3.94.71,1.77,3.34,2.34,4.67.93s.56-4-1.3-4.51c-.81-.22-1.15,1.03-.34,1.25h0Z"/><path class="cls-1" d="M35.27,17.83c.63,1.42-.79,3.01-2.13,3.28-1.83.37-3.58-1.05-4.49-2.5-.44-.71-1.56-.06-1.12.65,1.25,2,3.68,3.74,6.15,3.05,2.14-.6,3.65-3.02,2.7-5.14-.14-.32-.61-.4-.89-.23-.33.19-.38.57-.23.89h0Z"/><path class="cls-1" d="M33.15,20.57c.74.2.92,1.08.78,1.75-.22.99-1.15,1.47-2.1,1.57-2.47.26-5.07-1.26-6.76-2.95-.59-.59-1.51.33-.92.92,1.78,1.78,4.23,3.15,6.77,3.33,2.15.16,4.54-1.07,4.34-3.52-.09-1.08-.68-2.07-1.77-2.36-.81-.22-1.15,1.03-.34,1.25h0Z"/><path class="cls-1" d="M25.09,20.23s.04.04.06.06l-.1-.13s.06.08.08.13l-.07-.15c.02.05.04.11.04.17l-.02-.17c0,.06,0,.12,0,.19l.02-.17c-.01.08-.03.16-.07.24l.07-.15c-.04.09-.09.17-.14.24l.1-.13c-.06.07-.12.13-.19.19l.13-.1c-.06.04-.12.08-.19.11l.15-.07c-.06.02-.12.04-.18.05l.17-.02c-.05,0-.11,0-.16,0l.17.02c-.06,0-.11-.02-.16-.04l.15.07s-.03-.01-.04-.02c-.16-.08-.33-.11-.5-.07-.15.04-.31.16-.39.3-.08.15-.12.33-.07.5.05.15.15.31.3.39s.28.12.44.14.29.01.46-.02c.25-.05.47-.19.66-.36.15-.13.29-.31.37-.49.11-.23.19-.48.18-.74-.02-.33-.14-.63-.37-.87-.12-.12-.29-.19-.46-.19s-.35.07-.46.19-.2.29-.19.46.07.33.19.46h0Z"/><path class="cls-1" d="M39.89,15.59s-.08.08-.13.11c.04-.02.12-.09.03-.03-.02.02-.05.03-.07.05-.09.06-.19.12-.29.17-.02,0-.06.04-.08.04.01,0,.14-.06.06-.02-.05.02-.11.04-.16.06-.11.03-.22.06-.34.07l.17-.02c-.16.02-.31.02-.47,0l.17.02c-.08-.01-.15-.03-.23-.05-.02,0-.16-.06-.05-.01s-.02-.01-.05-.03c-.03-.01-.05-.03-.07-.04-.13-.08.1.09.03.02-.04-.04-.08-.08-.12-.12-.09-.09.09.13.03.04-.01-.02-.03-.04-.04-.07-.03-.05-.06-.11-.09-.16.11.21.01.03,0-.04-.02-.06-.03-.12-.04-.18l.02.17c-.01-.11-.01-.22,0-.33l-.02.17c0-.07.02-.14.05-.21,0-.02.01-.03.02-.05.02-.06-.07.14-.04.09.02-.03.03-.06.05-.1,0,0,.03-.03.03-.04,0,0-.11.13-.06.07.02-.02.04-.05.07-.07.01-.01.03-.02.04-.03-.14.13-.11.08-.06.05.03-.02.07-.04.1-.06.31-.15.41-.61.23-.89-.2-.31-.56-.39-.89-.23-.77.37-.99,1.4-.7,2.15.17.42.44.79.86,1,.49.24,1.01.28,1.54.18s1.02-.39,1.42-.76c.25-.23.25-.69,0-.92-.27-.25-.65-.24-.92,0h0Z"/><path class="cls-1" d="M42.02,14.17c.9.14,1.88.28,2.64.82.15.11.29.24.41.39-.04-.05.07.1.09.14.08.14.05.06.1.21.06.17.08.29.08.39s0,.18,0,.27c0,.03,0,.07,0,.1.01-.12-.02.08-.02.09-.05.2-.05.21-.13.35-.02.04-.04.07-.07.1-.06.08.06-.06-.01.01-.03.03-.06.06-.08.09-.05.05.06-.03-.03.03-.11.07-.15.1-.32.1-.19,0-.37-.06-.53-.16-.75-.44-1.16-1.37-1.29-2.2s.03-1.67.51-2.33c.23-.31.46-.49.78-.66.26-.14.68-.26.94-.28.72-.07,1.41.1,1.9.6s.59,1.25.41,1.92c-.21.75-.82,1.33-1.56,1.4-.82.08-1.65-.26-2.07-.96s-1.55-.06-1.12.65c1.22,2.04,4.4,2.18,5.64.09.58-.98.64-2.22.16-3.25s-1.53-1.61-2.62-1.73-2.18.22-3,.92c-.9.78-1.32,2.02-1.3,3.18s.5,2.49,1.39,3.33c.49.47,1.16.82,1.85.77.58-.04,1.08-.33,1.42-.79.69-.94.56-2.35-.15-3.23-.89-1.08-2.36-1.38-3.67-1.59-.35-.05-.7.09-.8.45-.08.31.1.74.45.8h0Z"/><path class="cls-1" d="M43.2,8.38h1.4c.17,0,.34-.07.46-.19s.2-.3.19-.46-.06-.34-.19-.46-.28-.19-.46-.19h-1.4c-.17,0-.34.07-.46.19s-.2.3-.19.46.06.34.19.46.28.19.46.19h0Z"/><path class="cls-1" d="M44.6,11.18c.83,0,.84-1.3,0-1.3s-.84,1.3,0,1.3h0Z"/><path class="cls-1" d="M41.35,5.19c.58-.54,1.77-.21,1.93.59.23,1.15-1.28,1.88-2.18,2.07-2.51.56-5.35-.85-6.78-2.9-.47-.68-1.6-.03-1.12.65,1.61,2.32,4.38,3.77,7.22,3.63,1.3-.06,2.67-.55,3.53-1.58.79-.96.9-2.39-.05-3.29s-2.51-.99-3.47-.09c-.61.57.31,1.49.92.92h0Z"/><path class="cls-1" d="M35.54,5.15s.18.19.12.1c.04.05.07.1.1.16.03.07.04.07,0,.01.01.04.03.08.04.12,0,.03.03.2.02.07,0,.08,0,.17,0,.25,0,.13.02-.06,0,.08-.02.07-.04.15-.06.22,0,.03-.02.06-.03.09.03-.05.02-.04-.01.03-.03.06-.06.12-.09.17-.02.04-.05.07-.07.11.04-.04.03-.04-.02.02-.04.05-.09.09-.14.14-.06.05-.07.06-.02.02-.04.02-.07.05-.11.07-.27.16-.55.2-.87.19-1.54-.06-2.48-1.62-3.2-2.82-.43-.71-1.55-.06-1.12.65.83,1.38,1.79,2.83,3.42,3.31,1.47.43,3.16-.18,3.55-1.77.18-.76.02-1.62-.59-2.15-.27-.23-.66-.26-.92,0-.23.23-.27.69,0,.92h0Z"/><path class="cls-1" d="M33.06,1.72c1.06-.57,1.86,1.18,1.79,1.99-.1,1.23-1,2.26-2.07,2.8-2.48,1.26-5.21-.76-5.79-3.23-.19-.81-1.44-.47-1.25.34.63,2.72,3.28,4.93,6.14,4.51,2.56-.38,5.12-3.2,4.01-5.86-.57-1.36-2.04-2.45-3.49-1.67-.74.39-.08,1.51.65,1.12h0Z"/><path class="cls-1" d="M26.77,2.04c.63-.35,1.32-.76,2.06-.74.45,0,1.04.31,1.1.81s-.74.92-1.11,1.12c-.49.26-1.04.44-1.59.53-1.06.18-2.21.03-3.19-.43-.51-.24-.98-.55-1.38-.95-.24-.24-.63-.7-.09-.8.48-.09.55.49.42.83-.25.64-1.08.74-1.66.63-.82-.15-1.17,1.1-.34,1.25,1,.18,2.11.04,2.82-.76.6-.68.74-1.77.22-2.54s-1.52-.91-2.28-.46c-.9.53-.93,1.6-.35,2.38,1.11,1.48,3.11,2.21,4.91,2.22.93,0,1.84-.18,2.69-.55s1.88-.97,2.15-1.9c.31-1.06-.46-2.1-1.42-2.49-1.24-.5-2.55.15-3.63.74-.73.41-.08,1.52.65,1.12h0Z"/><path class="cls-1" d="M15.17,22.85h-.35c-.09,0-.17.02-.25.06-.08.03-.15.07-.21.13-.06.06-.11.13-.13.21-.04.08-.06.16-.06.25l.02.17c.03.11.09.21.17.29l.13.1c.1.06.21.09.33.09h.35c.09,0,.17-.02.25-.06.08-.03.15-.07.21-.13.06-.06.11-.13.13-.21.04-.08.06-.16.06-.25l-.02-.17c-.03-.11-.09-.21-.17-.29l-.13-.1c-.1-.06-.21-.09-.33-.09h0Z"/><path class="cls-1" d="M13.99,23.37c-.07.06-.13.12-.2.17l.13-.1c-.19.14-.39.26-.61.35l.15-.07c-.23.09-.47.16-.71.19l.17-.02c-.19.02-.38.03-.57.01-.34-.03-.66.32-.65.65.02.37.29.62.65.65.93.07,1.87-.29,2.55-.92.25-.23.25-.69,0-.92-.27-.24-.65-.25-.92,0h0Z"/><path class="cls-1" d="M9.21,25.9c.83,0,.84-1.3,0-1.3s-.84,1.3,0,1.3h0Z"/><path class="cls-1" d="M5.36,25.9c.83,0,.84-1.3,0-1.3s-.84,1.3,0,1.3h0Z"/><path class="cls-1" d="M2.26,23.5v1.05c0,.17.07.34.19.46s.3.2.46.19.34-.06.46-.19.19-.28.19-.46v-1.05c0-.17-.07-.34-.19-.46s-.3-.2-.46-.19-.34.06-.46.19-.19.28-.19.46h0Z"/><path class="cls-1" d="M7.81,29.4c.83,0,.84-1.3,0-1.3s-.84,1.3,0,1.3h0Z"/><path class="cls-1" d="M11.31,28c.83,0,.84-1.3,0-1.3s-.84,1.3,0,1.3h0Z"/><path class="cls-1" d="M11.66,28h.7c.09,0,.17-.02.25-.06.08-.03.15-.07.21-.13.06-.06.11-.13.13-.21.04-.08.06-.16.06-.25l-.02-.17c-.03-.11-.09-.21-.17-.29-.13-.12-.28-.19-.46-.19h-.7c-.09,0-.17.02-.25.06-.08.03-.15.07-.21.13-.06.06-.11.13-.13.21-.04.08-.06.16-.06.25l.02.17c.03.11.09.21.17.29.13.12.28.19.46.19h0Z"/><path class="cls-1" d="M12.01,30.8c.83,0,.84-1.3,0-1.3s-.84,1.3,0,1.3h0Z"/><path class="cls-1" d="M8.16,32.9c.83,0,.84-1.3,0-1.3s-.84,1.3,0,1.3h0Z"/><path class="cls-1" d="M5.71,29.75c.83,0,.84-1.3,0-1.3s-.84,1.3,0,1.3h0Z"/><path class="cls-1" d="M3.71,31.21l-.35.7c-.05.07-.07.15-.08.24-.02.09-.02.17.01.26.02.08.06.16.12.22.05.07.11.13.18.17.15.08.33.12.5.07.15-.05.31-.15.39-.3l.35-.7c.05-.07.07-.15.08-.24.02-.09.02-.17-.01-.26-.02-.08-.06-.16-.12-.22-.05-.07-.11-.13-.18-.17-.15-.08-.33-.12-.5-.07-.15.05-.31.15-.39.3h0Z"/><path class="cls-1" d="M8.51,32.2c.83,0,.84-1.3,0-1.3s-.84,1.3,0,1.3h0Z"/><path class="cls-1" d="M10.61,30.1c.83,0,.84-1.3,0-1.3s-.84,1.3,0,1.3h0Z"/><path class="cls-1" d="M10.85,30.26l1.05,1.05c.12.12.29.19.46.19s.35-.07.46-.19.2-.29.19-.46-.07-.33-.19-.46l-1.05-1.05c-.12-.12-.29-.19-.46-.19s-.35.07-.46.19-.2.29-.19.46.07.33.19.46h0Z"/><path class="cls-1" d="M17.12,27.77l-.72,1.04c-.05.07-.07.15-.08.24-.02.09-.02.17.01.26.04.15.16.31.3.39.15.08.33.12.5.07l.15-.07c.1-.06.17-.14.23-.23l.72-1.04c.05-.07.07-.15.08-.24.02-.09.02-.17-.01-.26-.04-.15-.16-.31-.3-.39-.15-.08-.33-.12-.5-.07l-.15.07c-.1.06-.17.14-.23.23h0Z"/><path class="cls-1" d="M12.36,34.31c.83,0,.84-1.3,0-1.3s-.84,1.3,0,1.3h0Z"/><path class="cls-1" d="M8.16,36.76c.83,0,.84-1.3,0-1.3s-.84,1.3,0,1.3h0Z"/><path class="cls-1" d="M5.01,37.46c.83,0,.84-1.3,0-1.3s-.84,1.3,0,1.3h0Z"/><path class="cls-1" d="M4.98,35.55l-.02-.02.13.1c-.13-.1-.24-.21-.33-.33l.1.13c-.1-.13-.17-.26-.24-.41l.07.15c-.07-.17-.12-.34-.14-.51l.02.17c-.02-.17-.02-.33,0-.5l-.02.17c.02-.11.04-.21.07-.32.11-.32-.12-.72-.45-.8-.36-.08-.68.11-.8.45-.16.48-.15,1.03,0,1.51.08.23.18.47.32.67.18.26.38.46.63.64.13.09.36.11.5.07s.31-.16.39-.3c.08-.15.12-.33.07-.5s-.16-.28-.3-.39h0Z"/><path class="cls-1" d="M5.04,28.06c.11-1.17.22-2.34.33-3.51.03-.34-.32-.66-.65-.65-.38.02-.61.29-.65.65-.11,1.17-.22,2.34-.33,3.51-.03.34.32.66.65.65.38-.02.61-.29.65-.65h0Z"/><path class="cls-1" d="M3.31,26.3c0,.93,0,1.87,0,2.8,0,.34.3.66.65.65s.65-.28.65-.65c0-.93,0-1.87,0-2.8,0-.34-.3-.66-.65-.65s-.65.28-.65.65h0Z"/><path class="cls-1" d="M2.55,36.76c.83,0,.84-1.3,0-1.3s-.84,1.3,0,1.3h0Z"/><path class="cls-1" d="M3.6,40.26c.83,0,.84-1.3,0-1.3s-.84,1.3,0,1.3h0Z"/><path class="cls-1" d="M45.3,21.69c.83,0,.84-1.3,0-1.3s-.84,1.3,0,1.3h0Z"/><path class="cls-1" d="M49.15,21.34c.83,0,.84-1.3,0-1.3s-.84,1.3,0,1.3h0Z"/><path class="cls-1" d="M47.4,19.59c.83,0,.84-1.3,0-1.3s-.84,1.3,0,1.3h0Z"/><path class="cls-1" d="M15.82,25.08l-.7-.36c-.07-.05-.15-.07-.24-.08-.09-.02-.17-.02-.26.01-.08.02-.16.06-.22.12-.07.05-.13.11-.17.18-.08.15-.12.33-.07.5.05.16.15.31.3.39l.7.36c.07.05.15.07.24.08.09.02.17.02.26-.01.08-.02.16-.06.22-.12.07-.05.13-.11.17-.18.08-.15.12-.33.07-.5-.05-.16-.15-.31-.3-.39h0Z"/><path class="cls-1" d="M12.19,28.09l-.36.7c-.05.07-.07.15-.08.24-.02.09-.02.17.01.26.02.08.06.16.12.22.05.07.11.13.18.17.15.08.33.12.5.07.16-.05.31-.15.39-.3l.36-.7c.05-.07.07-.15.08-.24.02-.09.02-.17-.01-.26-.02-.08-.06-.16-.12-.22-.05-.07-.11-.13-.18-.17-.15-.08-.33-.12-.5-.07-.16.05-.31.15-.39.3h0Z"/><path class="cls-1" d="M15.65,24.92c-.83,1.44-1.78,2.61-3.04,3.73-.25.23-.25.69,0,.92.27.25.65.24.92,0,1.29-1.14,2.38-2.5,3.24-3.99.17-.29.08-.72-.23-.89s-.71-.08-.89.23h0Z"/><path class="cls-1" d="M11.83,23.53c-.61,1.15-1.22,2.31-1.83,3.46-.16.3-.09.72.23.89.3.16.72.09.89-.23.61-1.15,1.22-2.31,1.83-3.46.16-.3.09-.72-.23-.89-.3-.16-.72-.09-.89.23h0Z"/><path class="cls-1" d="M8.86,26.95c.83,0,.84-1.3,0-1.3s-.84,1.3,0,1.3h0Z"/><path class="cls-1" d="M3.77,25.99c-.35.7-.7,1.4-1.06,2.1-.15.3-.09.72.23.89.29.16.72.09.89-.23.35-.7.7-1.4,1.06-2.1.15-.3.09-.72-.23-.89-.29-.16-.72-.09-.89.23h0Z"/><path class="cls-1" d="M2.01,27.39c-.78,1.24-1.18,2.7-1.18,4.17,0,.34.3.66.65.65s.65-.28.65-.65c0-1.25.33-2.44,1-3.52.18-.29.07-.73-.23-.89s-.69-.08-.89.23h0Z"/><path class="cls-1" d="M9.1,29.35c-.7.7-1.4,1.4-2.1,2.1-.24.24-.26.68,0,.92s.66.26.92,0c.7-.7,1.4-1.4,2.1-2.1.24-.24.26-.68,0-.92s-.66-.26-.92,0h0Z"/><path class="cls-1" d="M8.29,32.09l-.36,2.1c-.03.18-.03.34.07.5.08.13.23.26.39.3.31.07.74-.1.8-.45l.36-2.1c.03-.18.03-.34-.07-.5-.08-.13-.23-.26-.39-.3-.31-.07-.74.1-.8.45h0Z"/><path class="cls-1" d="M6.58,29.85c-.58.93-1.17,1.87-1.75,2.8-.18.29-.07.73.23.89.32.17.69.07.89-.23.58-.93,1.17-1.87,1.75-2.8.18-.29.07-.73-.23-.89-.32-.17-.69-.07-.89.23h0Z"/><path class="cls-1" d="M6.89,25.96l-1.72,2.82c-.18.29-.07.73.23.89s.7.08.89-.23l1.72-2.82c.18-.29.07-.73-.23-.89s-.7-.08-.89.23h0Z"/><path class="cls-1" d="M1.14,34.37c.12,1.05.23,2.1.35,3.15.04.34.27.66.65.65.32-.01.69-.29.65-.65-.12-1.05-.23-2.1-.35-3.15-.04-.34-.27-.66-.65-.65-.32.01-.69.29-.65.65h0Z"/><path class="cls-1" d="M2.55,39.21c.83,0,.84-1.3,0-1.3s-.84,1.3,0,1.3h0Z"/><path class="cls-1" d="M6,34.99l-1.41,1.75c-.11.14-.19.27-.19.46,0,.16.07.35.19.46s.29.2.46.19c.16,0,.35-.06.46-.19l1.41-1.75c.11-.14.19-.27.19-.46,0-.16-.07-.35-.19-.46s-.29-.2-.46-.19c-.16,0-.35.06-.46.19h0Z"/><path class="cls-1" d="M1.9,34.71c0,.7,0,1.4,0,2.1,0,.34.3.66.65.65s.65-.28.65-.65c0-.7,0-1.4,0-2.1,0-.34-.3-.66-.65-.65s-.65.28-.65.65h0Z"/><path class="cls-1" d="M48.54,21.66l-.7-.7c-.06-.06-.13-.11-.21-.13-.08-.04-.16-.06-.25-.06-.09,0-.17.02-.25.06-.08.03-.15.07-.21.13-.11.12-.2.29-.19.46s.07.33.19.46l.7.7c.06.06.13.11.21.13.08.04.16.06.25.06.09,0,.17-.02.25-.06.08-.03.15-.07.21-.13.11-.12.2-.29.19-.46s-.07-.33-.19-.46h0Z"/><path class="cls-1" d="M50.9,36.56c-2.86-1.63-6.76-1.01-8.94,1.48-.55.62.36,1.54.92.92,1.8-2.05,4.98-2.63,7.37-1.27.73.41,1.38-.71.65-1.12h0Z"/><path class="cls-1" d="M28.62,40.53c-3.06-.8-6.47.18-8.62,2.51-.56.61.35,1.53.92.92,1.84-2,4.72-2.87,7.36-2.18.81.21,1.15-1.04.34-1.25h0Z"/><path class="cls-1" d="M42.41,54.67c-.08,1.2-.86,2.3-1.95,2.81s-2.54.33-3.49-.43c-.27-.22-.65-.27-.92,0-.23.23-.27.7,0,.92,1.4,1.13,3.32,1.43,4.97.67,1.55-.7,2.55-2.3,2.67-3.97.02-.35-.32-.65-.65-.65-.37,0-.62.3-.65.65h0Z"/><path class="cls-1" d="M.89,24.32c.83,0,.84-1.3,0-1.3s-.84,1.3,0,1.3h0Z"/><path class="cls-1" d="M.63,27.21c.83,0,.84-1.3,0-1.3s-.84,1.3,0,1.3h0Z"/><path class="cls-1" d="M.63,31.15c.83,0,.84-1.3,0-1.3s-.84,1.3,0,1.3h0Z"/><path class="cls-1" d="M2.2,35.36c.83,0,.84-1.3,0-1.3s-.84,1.3,0,1.3h0Z"/><path class="cls-1" d="M49.85,22.59h-.09c-.09,0-.17.02-.25.06-.08.03-.15.07-.21.13-.06.06-.11.13-.13.21-.04.08-.06.16-.06.25l.02.17c.03.11.09.21.17.29l.13.1c.1.06.21.09.33.09h.09c.09,0,.17-.02.25-.06.08-.03.15-.07.21-.13.06-.06.11-.13.13-.21.04-.08.06-.16.06-.25l-.02-.17c-.03-.11-.09-.21-.17-.29l-.13-.1c-.1-.06-.21-.09-.33-.09h0Z"/><path class="cls-1" d="M45.88,24.11v.09c0,.09.02.17.06.25.03.08.07.15.13.21.06.06.13.11.21.13.08.04.16.06.25.06l.17-.02c.11-.03.21-.09.29-.17l.1-.13c.06-.1.09-.21.09-.33v-.09c0-.09-.02-.17-.06-.25-.03-.08-.07-.15-.13-.21-.06-.06-.13-.11-.21-.13-.08-.04-.16-.06-.25-.06l-.17.02c-.11.03-.21.09-.29.17l-.1.13c-.06.1-.09.21-.09.33h0Z"/><path class="cls-1" d="M50.64,27.3c.83,0,.84-1.3,0-1.3s-.84,1.3,0,1.3h0Z"/><path class="cls-1" d="M48.89,25.63c.83,0,.84-1.3,0-1.3s-.84,1.3,0,1.3h0Z"/><path class="cls-1" d="M51.71,24.64c-.24-.8-.65-1.52-1.19-2.15-.1-.12-.3-.19-.46-.19s-.35.07-.46.19-.2.29-.19.46.07.32.19.46c.06.07.12.15.18.22l-.1-.13c.27.35.49.73.66,1.13l-.07-.15c.07.17.13.34.18.51.1.32.46.56.8.45s.56-.45.45-.8h0Z"/><path class="cls-1" d="M49.26,24.62c-.1-.11-.2-.23-.3-.35l.1.13c-.21-.28-.4-.58-.55-.89-.07-.14-.24-.26-.39-.3-.16-.04-.36-.02-.5.07s-.26.22-.3.39c-.04.18-.02.34.07.5.25.5.57.96.95,1.37.11.12.3.19.46.19s.35-.07.46-.19.2-.29.19-.46-.07-.33-.19-.46h0Z"/><path class="cls-1" d="M47.22,23.07c-.05-.05-.1-.1-.14-.16l.1.13c-.09-.11-.16-.24-.21-.37l.07.15c-.06-.14-.1-.3-.12-.45l.02.17c-.02-.12-.02-.24,0-.36.01-.16-.08-.35-.19-.46s-.3-.2-.46-.19-.34.06-.46.19-.17.28-.19.46,0,.35.03.53c.02.13.05.25.09.37.12.34.3.64.55.89.12.12.29.19.46.19s.35-.07.46-.19.2-.29.19-.46-.07-.33-.19-.46h0Z"/><path class="cls-1" d="M49.27,19.88l-1.31-1.49c-.11-.12-.3-.19-.46-.19s-.35.07-.46.19-.2.29-.19.46.07.32.19.46l1.31,1.49c.11.12.3.19.46.19s.35-.07.46-.19.2-.29.19-.46-.07-.32-.19-.46h0Z"/><path class="cls-1" d="M46.46,19.26l-.87-.79c-.13-.12-.28-.19-.46-.19-.09,0-.17.02-.25.06-.08.03-.15.07-.21.13-.11.12-.2.29-.19.46s.06.34.19.46l.87.79c.13.12.28.19.46.19.09,0,.17-.02.25-.06.08-.03.15-.07.21-.13.11-.12.2-.29.19-.46s-.06-.34-.19-.46h0Z"/></g></svg>