<svg id="Group_7" data-name="Group 7" xmlns="http://www.w3.org/2000/svg" xmlns:xlink="http://www.w3.org/1999/xlink" width="79" height="79" viewBox="0 0 79 79">
  <defs>
    <clipPath id="clip-path">
      <rect id="Rectangle_95" data-name="Rectangle 95" width="79" height="79" fill="none"/>
    </clipPath>
  </defs>
  <g id="Group_6" data-name="Group 6" clip-path="url(#clip-path)">
    <path id="Path_38" data-name="Path 38" d="M29.712,53.974c-8.951-5.223-18.39-11-22.854-20.331S5.834,10.507,15.911,8.106c8.222-1.939,17.1,6.124,15.95,14.489,1.2-6.21,5.352-12.053,11.3-14.171s13.518.371,16.168,6.108c3.58,7.8-2.633,16.589-9.319,21.972S35.162,46.932,33.115,55.28" transform="translate(6.869 10.681)" fill="#bdb0ff"/>
    <path id="Path_39" data-name="Path 39" d="M32.6,53.228C23.632,47.969,12.088,41.474,9.566,30.462,7.853,22.979,11.648,10.5,21.444,12.108A11.3,11.3,0,0,1,30.76,24.144c-.316,2.965,4.589,3.6,5.208.705,1.057-5.065,3.986-10.008,8.913-12.124,4.147-1.784,9.74-.777,12.6,2.841,3.671,4.625,1.04,10.8-2.119,14.9C51.886,35,47.05,38.086,42.691,41.651c-4.728,3.864-8.982,8.418-10.589,14.47-.882,3.3,4.238,4.694,5.1,1.413C38.9,51.181,44.315,47,49.274,43.151,54.6,39.021,59.916,34.7,62.757,28.4c2.647-5.876,2.437-12.954-2.523-17.577A16.516,16.516,0,0,0,43.98,7.412C37.009,9.865,32.315,16.36,30.832,23.439l5.206.705c.725-6.531-3.441-12.9-9.212-15.742a14.7,14.7,0,0,0-16.749,2.293c-4.183,3.776-6.124,9.637-6.246,15.161C3.69,32.4,6.371,38.244,10.52,43.2c5.242,6.249,12.459,10.553,19.413,14.614,2.946,1.729,5.613-2.841,2.664-4.572Z" transform="translate(5.323 9.132)"/>
  </g>
</svg>
