<?xml version="1.0" encoding="UTF-8"?><svg id="Layer_2" xmlns="http://www.w3.org/2000/svg" viewBox="0 0 159.58 94.28"><defs><style>.cls-1{fill:#1d1d1b;stroke-width:0px;}</style></defs><g id="Layer_1-2"><path class="cls-1" d="M32.39,27.29c-.39,2.1.64,4.24-.06,6.31-.3.89-.95,1.66-1.92,1.79-1.13.15-2.2-.53-3.03-1.22v.25c.17-.17.34-.34.51-.51.16-.16-.09-.41-.25-.25-.17.17-.34.34-.51.51-.06.06-.07.19,0,.25.82.69,1.82,1.33,2.92,1.35.97.02,1.8-.52,2.28-1.34,1.29-2.2-.05-4.7.39-7.03.04-.22-.3-.31-.34-.09h0Z"/><path class="cls-1" d="M35.12,27.98c-.14.83-.3,1.71-.06,2.54.18.61.6,1.2,1.2,1.46s1.29.11,1.8-.29c.6-.46.91-1.16,1.03-1.89.16-.96.11-1.96.12-2.93,0-.23-.35-.23-.35,0,0,.94.05,1.91-.1,2.84-.13.79-.52,1.6-1.29,1.93s-1.51-.09-1.89-.78c-.46-.85-.28-1.88-.12-2.78.04-.22-.3-.31-.34-.09h0Z"/><path class="cls-1" d="M40.92,24.42c.03,2.28.26,4.55.68,6.79.04.22.38.13.34-.09-.42-2.21-.65-4.45-.67-6.7,0-.23-.35-.23-.35,0h0Z"/><path class="cls-1" d="M45.09,28.11c.41.87.57,1.84.46,2.8-.02.22.33.22.35,0,.11-1.02-.07-2.05-.51-2.98-.1-.2-.4-.03-.3.18h0Z"/><path class="cls-1" d="M45.58,25.89l.45-.22s.07-.06.08-.1c.01-.04,0-.1-.02-.13-.05-.08-.15-.11-.24-.06l-.45.22s-.07.06-.08.1c-.01.04,0,.1.02.13.05.08.15.11.24.06h0Z"/><path class="cls-1" d="M51.11,28.18c.29-.76-.49-1.41-1.19-1.46-.87-.06-1.44.8-1.65,1.54s-.24,1.7.23,2.35c.54.76,1.49.65,2.13.09.93-.83.83-2.16,1.35-3.2l-.32-.13c-.39,1.53-.06,3.2.9,4.45.14.18.44,0,.3-.18-.91-1.18-1.24-2.74-.86-4.18.05-.19-.23-.32-.32-.13-.39.77-.42,1.65-.78,2.43-.28.61-1.02,1.33-1.74.99-.62-.3-.72-1.14-.67-1.74.05-.65.29-1.43.89-1.78.32-.19.69-.17,1.01.02s.52.5.39.86c-.08.21.26.3.34.09h0Z"/><path class="cls-1" d="M59.56,25.1c-.16,1.8-.33,3.6-.49,5.41-.01.14.16.21.26.15,1.39-.76,2.58-1.84,3.48-3.16.13-.19-.18-.36-.3-.18-.86,1.26-2.01,2.3-3.35,3.03l.26.15c.16-1.8.33-3.6.49-5.41.02-.22-.33-.22-.35,0h0Z"/><path class="cls-1" d="M61.08,29.4c.6.94,1.67,1.52,2.79,1.51.23,0,.23-.35,0-.35-.99.01-1.95-.5-2.48-1.34-.12-.19-.42-.01-.3.18h0Z"/><path class="cls-1" d="M67.89,28c-.41-.66-1.29-.83-1.99-.56-.83.32-1.28,1.21-1.41,2.04s-.05,1.82.68,2.33,1.68.1,2.23-.49c.81-.86.83-2.13,1.31-3.16l-.32-.13c-.53,1.39-.32,3,.53,4.22.13.18.43,0,.3-.18-.81-1.15-.99-2.64-.5-3.95.07-.18-.24-.31-.32-.13-.37.8-.47,1.69-.85,2.48-.3.63-.95,1.27-1.7,1.22-.82-.05-1.08-.95-1.07-1.64,0-.74.24-1.57.83-2.05.56-.46,1.55-.48,1.97.18.12.19.42.02.3-.18h0Z"/><path class="cls-1" d="M70.65,28.4c-.15,1.05.03,2.1.53,3.04.06.11.25.12.3,0,.27-.6.15-1.24.14-1.88s.24-1.17.85-1.41c1.25-.49,2.29.63,2.53,1.77.14.66.04,1.38.52,1.92.15.17.4-.08.25-.25-.46-.51-.31-1.34-.48-1.97s-.53-1.2-1.07-1.58c-.92-.65-2.45-.4-2.85.75-.28.8.15,1.69-.2,2.46h.3c-.45-.85-.63-1.82-.49-2.77.03-.22-.31-.32-.34-.09h0Z"/><path class="cls-1" d="M85.24,27.88c-.73-.76-1.94-.55-2.59.21s-.79,1.83-.38,2.72c.39.83,1.31,1.32,2.17.83,1.14-.65,1.11-2.09,1.01-3.22l-.33.09c.78,1.72,1.67,3.82.61,5.63-.42.72-1.13,1.2-1.98,1.19-.74-.02-1.48-.4-1.73-1.13-.07-.21-.41-.12-.34.09.27.79.99,1.26,1.8,1.36.89.11,1.73-.26,2.28-.96,1.53-1.91.54-4.41-.34-6.36-.07-.16-.34-.08-.33.09.08.93.18,2.03-.58,2.73-.67.61-1.52.33-1.91-.43-.35-.69-.29-1.51.12-2.16.48-.76,1.55-1.16,2.25-.43.16.16.4-.09.25-.25h0Z"/><path class="cls-1" d="M90.29,27.52c-1.14.13-2.18.7-2.86,1.63-.53.72-.95,1.88-.1,2.53.63.48,1.62.44,2.23-.04.91-.72,1-2.03.87-3.09l-.3.12c.92.79,2.19,1.24,3.41,1.04.84-.14,2.09-1,1.59-1.99-.44-.88-1.68-.68-2.21-.02-.65.8-.88,2.45-.12,3.24,1.06,1.1,2.66.42,3.77-.17.2-.11.02-.41-.18-.3-.95.5-2.36,1.19-3.31.27-.76-.74-.43-2.82.62-3.19.48-.17,1.21.03,1.18.66-.03.57-.7.98-1.19,1.12-1.13.33-2.46-.16-3.33-.9-.1-.09-.32-.04-.3.12.11.84.09,1.79-.44,2.5-.45.6-1.31.83-1.98.44-.93-.53-.31-1.74.21-2.34.61-.71,1.47-1.17,2.41-1.27.22-.02.22-.37,0-.35h0Z"/><path class="cls-1" d="M100.23,27.62c-1.03-.5-2.32-.71-3.12.3-.56.72-.7,1.81-.19,2.59s1.62,1.06,2.51.8c1.18-.34,1.66-1.4,1.74-2.55.12-1.81-.15-3.68-.58-5.44-.05-.2-.34-.15-.34.05-.08,2.62.39,5.22,1.39,7.64.08.21.42.12.34-.09-.99-2.39-1.46-4.96-1.38-7.55l-.34.05c.31,1.28.51,2.57.56,3.89.05,1.05.17,2.48-.69,3.25-.62.55-1.61.68-2.34.28-.79-.43-.99-1.37-.69-2.17.16-.43.47-.82.89-1.01.67-.3,1.45-.04,2.07.26.2.1.38-.2.18-.3h0Z"/><path class="cls-1" d="M112.51,27.35c-1.17-.3-2.53-.26-3.53.5-.81.62-1.16,1.73-.84,2.71.33,1.03,1.38,1.5,2.41,1.18,1.26-.39,1.89-1.65,2.2-2.84.46-1.78.46-3.65.06-5.44-.05-.22-.37-.13-.34.09.43,2.54-.88,5.67,1.16,7.77.16.16.4-.09.25-.25-1.94-2-.66-5.18-1.07-7.62l-.34.09c.29,1.3.36,2.65.19,3.97-.15,1.15-.43,2.49-1.29,3.33-.74.73-2.14.97-2.74-.06-.44-.75-.28-1.83.32-2.45.89-.91,2.31-.95,3.47-.66.22.06.31-.28.09-.34h0Z"/><path class="cls-1" d="M114.7,29.52c1.09-.12,2.52.37,3.19-.81.2-.36.26-.83-.02-1.16-.33-.39-.89-.38-1.32-.2-.87.37-1.31,1.36-1.27,2.27.04.96.58,1.82,1.48,2.19,1.05.44,2.33.2,3.15-.59.16-.16-.09-.4-.25-.25-1.17,1.13-3.43.91-3.94-.78-.21-.7-.1-1.54.4-2.1.27-.31.7-.58,1.13-.51s.55.48.4.85c-.49,1.14-1.99.65-2.94.75-.22.02-.22.37,0,.35h0Z"/><path class="cls-1" d="M21.46,42.24c-1.08.96-3.18,3.35-1.44,4.64,1.63,1.21,3.36-.29,4.45-1.47l-.3-.12c-.06,1.44,1.6,2.37,2.76,1.44.59-.47.77-1.27.85-1.99.1-.92-.05-1.85-.4-2.7-.08-.21-.42-.12-.34.09.47,1.14.66,2.68.06,3.82-.69,1.31-2.65.84-2.58-.67,0-.15-.2-.23-.3-.12-.94,1.02-2.38,2.43-3.86,1.53-1.71-1.04.43-3.37,1.36-4.2.17-.15-.08-.4-.25-.25h0Z"/><path class="cls-1" d="M28.54,44.31c.6-.2,1.18.12,1.76.2.4.06.86.04,1.2-.21.81-.58.19-1.72-.65-1.84-1.03-.16-1.88.92-2.17,1.78-.31.93.06,1.98.9,2.5.92.58,2.16.27,2.8-.57.14-.18-.17-.35-.3-.18-.47.62-1.37.87-2.08.57s-1.19-1.13-1.06-1.9.75-1.71,1.56-1.86c.38-.07.76.11.95.45.17.32.06.67-.28.82-.38.17-.82.09-1.2-.01-.5-.13-1.01-.28-1.52-.11-.21.07-.12.41.09.34h0Z"/><path class="cls-1" d="M33.91,43.45c.01.93.02,1.85.03,2.78l.34-.05c-.14-1.05-.27-2.59.93-3.1,1.09-.46,1.75.82,1.91,1.69.12.7.13,1.42.38,2.09.08.21.42.12.34-.09-.45-1.21-.12-2.72-1.15-3.69-.4-.37-.95-.54-1.48-.37s-.96.65-1.17,1.17c-.31.76-.19,1.61-.08,2.4.03.2.35.15.34-.05-.01-.93-.02-1.85-.03-2.78,0-.23-.35-.23-.35,0h0Z"/><path class="cls-1" d="M42.36,42.26c-.73-.11-1.56-.23-2.23.17-.48.29-.82.88-.72,1.45.13.67.81.87,1.39.96.33.05.66.1.94.31.3.22.4.55.1.83-.65.59-1.71.77-2.55.63-.22-.04-.32.3-.09.34.75.12,1.51.03,2.2-.29.53-.24,1.24-.72.9-1.39-.3-.6-1-.69-1.59-.8-.32-.06-.69-.15-.87-.45-.16-.27-.09-.6.06-.86.48-.82,1.57-.68,2.37-.56.22.03.32-.3.09-.34h0Z"/><path class="cls-1" d="M43.96,44.65c.94-.05,2.25-.21,2.45-1.34.07-.39,0-.84-.32-1.1-.42-.34-1.02-.2-1.44.07-.76.48-1.19,1.44-1.09,2.33s.72,1.59,1.6,1.74,1.94-.24,2.3-1.14c.08-.21-.25-.3-.34-.09-.25.62-.95.93-1.59.92-.7-.01-1.33-.41-1.55-1.09s-.03-1.5.46-2.04c.27-.29.67-.57,1.08-.55.37.02.55.33.56.68,0,1.09-1.31,1.23-2.13,1.26-.22.01-.23.36,0,.35h0Z"/><path class="cls-1" d="M48.96,42.98c-.43,1.03-.39,2.21.1,3.21.09.19.35.05.32-.13-.19-1.03-.38-2.48.68-3.12.44-.27.95-.21,1.38.06.46.28.76.75.91,1.26.19.65.17,1.34.15,2.01,0,.23.34.23.35,0,.03-1.27,0-2.75-1.17-3.53-.47-.32-1.07-.43-1.6-.2s-.87.7-1.06,1.22c-.27.77-.13,1.62.02,2.4l.32-.13c-.44-.92-.45-2-.06-2.94.09-.21-.25-.3-.34-.09h0Z"/><path class="cls-1" d="M58.73,42.06c.57,1.51,1.45,2.88,2.61,4.01.07.07.23.07.27-.04.6-1.38,1.2-2.76,1.81-4.13.09-.2-.21-.38-.3-.18-.6,1.38-1.2,2.76-1.81,4.13l.27-.04c-1.11-1.09-1.97-2.4-2.52-3.86-.08-.21-.42-.12-.34.09h0Z"/><path class="cls-1" d="M67.78,42.9c-.85-.68-2.09-.57-2.93.09-.98.77-1.27,2.12-1.16,3.31,0,.08.05.14.13.17,1.05.33,2.17-.14,2.9-.91.86-.91,1.19-2.17,1.49-3.35h-.34c.41.99-.25,2.03.05,3.02.2.66.82,1.4,1.58,1.09.21-.08.12-.42-.09-.34-.74.3-1.22-.71-1.22-1.31,0-.86.37-1.72.02-2.56-.06-.15-.29-.18-.34,0-.28,1.06-.56,2.21-1.29,3.07-.64.76-1.68,1.26-2.67.95l.13.17c-.1-1.03.1-2.17.88-2.91.68-.64,1.85-.84,2.61-.24.17.14.42-.11.25-.25h0Z"/><path class="cls-1" d="M70.89,42.96c-.16.96-.07,1.94.27,2.85.08.21.39.13.34-.09-.14-.63-.29-1.29-.15-1.94.1-.46.37-.91.8-1.13s.94-.08,1.3.23c.41.35.63.83.75,1.35.15.66.15,1.35.27,2.02.04.22.38.13.34-.09-.23-1.24-.08-2.7-1.18-3.57-.43-.34-1-.5-1.52-.3-.5.19-.85.64-1.03,1.14-.28.77-.09,1.61.08,2.38l.34-.09c-.32-.85-.42-1.76-.27-2.66.04-.22-.3-.32-.34-.09h0Z"/><path class="cls-1" d="M83.63,43.44c-.35-.98-1.54-1.35-2.47-.99-1.09.42-1.57,1.7-1.54,2.79.01.53.16,1.07.7,1.27.49.18,1.07,0,1.5-.26.98-.62,1.53-1.8,1.75-2.89.29-1.41.17-2.88,0-4.3-.02-.18-.29-.25-.34-.05-.6,2.2-.29,4.58.86,6.55.11.19.42.02.3-.18-1.1-1.89-1.4-4.17-.82-6.28l-.34-.05c.23,1.89.44,4.11-.59,5.81-.25.41-.58.82-.99,1.08-.36.23-.93.42-1.33.17-.46-.29-.38-1.11-.3-1.57.09-.51.31-1.01.68-1.38.71-.71,2.21-.71,2.6.36.08.21.41.12.34-.09h0Z"/><path class="cls-1" d="M85.59,44.06c.87.09,1.86.08,2.58-.47.59-.46.96-1.27.67-2-.03-.08-.08-.13-.17-.13-1.17-.05-2.34.66-2.83,1.74-.25.55-.36,1.23.06,1.72s1.14.62,1.73.71c.83.12,1.68.06,2.49-.15.22-.06.13-.4-.09-.34-.79.21-1.62.27-2.43.14-.63-.1-1.61-.3-1.64-1.1-.03-.66.4-1.31.89-1.73s1.15-.66,1.81-.63l-.17-.13c.26.64-.1,1.35-.66,1.71-.66.42-1.51.4-2.26.32-.22-.02-.22.33,0,.35h0Z"/><path class="cls-1" d="M96.15,39.64l.06,4.66c0,.15.19.23.3.12,1.09-1.13,2.23-2.21,3.41-3.24.17-.15-.08-.4-.25-.25-1.18,1.03-2.32,2.11-3.41,3.24l.3.12-.06-4.66c0-.23-.35-.23-.35,0h0Z"/><path class="cls-1" d="M97.82,43.37c1.03.72,2.18,1.26,3.38,1.63.22.07.31-.27.09-.34-1.18-.35-2.29-.89-3.3-1.59-.19-.13-.36.17-.18.3h0Z"/><path class="cls-1" d="M102.76,38.29c-.16,2.1.22,4.2,1.1,6.12.09.2.39.03.3-.18-.85-1.86-1.2-3.91-1.05-5.94.02-.22-.33-.22-.35,0h0Z"/><path class="cls-1" d="M109.32,41.88c-.41-.69-1.24-.99-2.02-.87-.84.14-1.46.82-1.67,1.63s-.06,1.9.69,2.36c.87.53,1.87-.23,2.45-.85.78-.83,1.3-1.89,1.47-3.01l-.34-.09c-.21,1.37-.35,3.24,1.02,4.08.19.12.37-.18.18-.3-1.21-.74-1.04-2.48-.86-3.69.03-.22-.3-.32-.34-.09-.12.81-.42,1.57-.89,2.25-.43.63-1.11,1.39-1.91,1.51-.92.14-1.25-.94-1.21-1.66s.45-1.45,1.15-1.71,1.58-.04,1.97.62c.12.19.42.02.3-.18h0Z"/><path class="cls-1" d="M112.46,41.66l.18,3.17c.01.22.35.23.35,0,.01-1.2.06-2.69,1.27-3.32.47-.25,1.05-.26,1.47.1s.59.93.66,1.46c.1.75.04,1.52.3,2.24.08.21.41.12.34-.09-.45-1.24.06-2.94-1.09-3.89-1.03-.84-2.44-.03-2.91,1.02-.35.78-.37,1.64-.38,2.48h.35l-.18-3.17c-.01-.22-.36-.23-.35,0h0Z"/><path class="cls-1" d="M119.72,37.81c-.34,2.28.01,4.59,1.01,6.67.1.2.4.03.3-.18-.95-1.98-1.29-4.22-.97-6.4.03-.22-.3-.32-.34-.09h0Z"/><path class="cls-1" d="M117.83,41.61h4.25c.23,0,.23-.35,0-.35h-4.25c-.23,0-.23.35,0,.35h0Z"/><path class="cls-1" d="M15.46,52.41l.09-.84h-.35c-.02,1.08-.05,2.17-.07,3.25-.01.52-.02,1.04-.04,1.56,0,.26-.01.52-.02.78,0,.15,0,.3-.01.46,0,0-.03.56.12.43l-.21.03.03.02c.2.1.38-.2.18-.3l-.03-.02c-.07-.04-.15-.03-.21.03-.25.22.08.61.34.38.17-.15.13-.43.14-.62,0-.41.02-.82.03-1.24.04-1.58.07-3.16.11-4.75,0-.23-.33-.22-.35,0l-.09.84c-.02.22.33.22.35,0h0Z"/><path class="cls-1" d="M13.48,54.8l3.13.29c.22.02.22-.33,0-.35l-3.13-.29c-.22-.02-.22.33,0,.35h0Z"/><path class="cls-1" d="M20.65,54.42c-.85-.05-1.74.18-2.41.74-.62.52-.94,1.29-.77,2.09.14.7.64,1.38,1.36,1.55.83.2,1.63-.35,2-1.07.54-1.05.16-2.27-.4-3.22-.11-.19-.42-.02-.3.18.44.76.79,1.69.52,2.57-.21.67-.84,1.31-1.59,1.23-.62-.06-1.06-.62-1.22-1.19-.18-.66.03-1.31.53-1.78.6-.57,1.47-.8,2.28-.74.22.01.22-.34,0-.35h0Z"/><path class="cls-1" d="M22.62,55.92c1.07.16,2.15-.02,3.11-.51.07-.04.09-.12.08-.2-.13-.69-.85-1.01-1.49-.98-.74.03-1.35.47-1.71,1.11s-.46,1.48-.22,2.19.86,1.29,1.61,1.52c.82.25,1.74.11,2.42-.43.18-.14-.07-.39-.25-.25-1.01.81-2.71.5-3.32-.66-.56-1.07-.1-2.79,1.17-3.09.56-.13,1.34.02,1.46.68l.08-.2c-.87.44-1.87.61-2.84.47-.22-.03-.32.31-.09.34h0Z"/><path class="cls-1" d="M27.07,55.16c.26,1.67.51,3.34.77,5.01.03.19.37.15.34-.05-.13-1.02-.21-2.05-.24-3.08-.01-.49-.05-1.01.01-1.5.05-.44.35-.7.79-.72,1.53-.08,3,2.02,1.83,3.28-.56.59-1.7.47-1.94-.37-.06-.22-.4-.12-.34.09.23.8,1.18,1.2,1.95.92.85-.32,1.24-1.32,1.07-2.17-.18-.91-.97-1.71-1.85-2-.39-.13-.85-.16-1.23.01-.43.2-.6.61-.63,1.07-.09,1.48.05,3,.24,4.47l.34-.05c-.26-1.67-.51-3.34-.77-5.01-.03-.22-.37-.13-.34.09h0Z"/><path class="cls-1" d="M35.2,55.56c-.44-.57-1.28-.61-1.86-.22-.67.45-1.01,1.32-1.17,2.08-.13.63-.16,1.4.27,1.94.46.59,1.28.59,1.87.2.86-.57,1-1.63,1.05-2.58l-.34.05c.44,1.25,1.19,2.37,2.2,3.24.17.15.42-.1.25-.25-.96-.82-1.69-1.88-2.11-3.08-.06-.19-.33-.15-.34.05-.04.68-.1,1.48-.58,2.01-.39.44-1.12.71-1.62.27-.4-.36-.42-.97-.36-1.47.07-.6.29-1.24.64-1.73.37-.52,1.3-.96,1.79-.32.14.18.44,0,.3-.18h0Z"/><path class="cls-1" d="M40.14,55.64c-.94-.27-2.3-.54-2.83.55-.17.34-.22.79-.01,1.13.29.46.83.44,1.31.49.63.06,1.22.35,1.67.8v-.25c-.67.69-1.79.81-2.59.29-.19-.12-.36.18-.18.3.93.61,2.25.46,3.02-.34.07-.07.07-.18,0-.25-.35-.34-.76-.6-1.22-.75-.23-.08-.46-.12-.7-.14s-.5,0-.73-.1c-.33-.13-.42-.47-.34-.8.1-.37.37-.65.73-.75.58-.17,1.21.01,1.78.17.22.06.31-.28.09-.34h0Z"/><path class="cls-1" d="M43.78,55.76c-.99-.39-2.17-.15-2.93.59-.06.06-.07.19,0,.25.37.29.74.59,1.11.88.19.15.37.29.56.44.17.14.37.26.51.43.33.39-.34.38-.56.38-.48,0-.96,0-1.44,0-.23,0-.23.35,0,.35.56,0,1.13.01,1.69,0,.36,0,.84-.17.75-.63-.04-.22-.21-.38-.37-.52-.21-.17-.43-.34-.65-.51-.45-.35-.9-.71-1.35-1.06v.25c.68-.65,1.72-.84,2.59-.5.21.08.3-.26.09-.34h0Z"/><path class="cls-1" d="M45.05,57.3c.47.02.94-.04,1.38-.21.38-.15.8-.36,1.06-.69.23-.29.25-.68-.02-.95-.24-.24-.63-.32-.95-.21-.39.13-.67.44-.92.75-.3.36-.59.74-.76,1.18-.3.79.02,1.58.75,1.99.96.54,2.06.21,3.02-.12.21-.07.12-.41-.09-.34-.71.24-1.51.53-2.27.35-.58-.14-1.17-.58-1.19-1.22-.02-.71.57-1.39,1.03-1.88.21-.22.49-.44.81-.39.28.04.52.28.35.57-.19.33-.65.54-.99.66-.4.14-.81.2-1.23.18-.23-.01-.22.34,0,.35h0Z"/><path class="cls-1" d="M49.27,55.99c.04,1.13.35,2.23.93,3.2.09.15.33.09.33-.09-.01-.73-.41-1.42-.36-2.15.03-.53.37-.93.87-1.09.47-.16,1-.13,1.45.08.53.25.88.78,1.05,1.33.23.73.19,1.52.02,2.25-.05.22.29.31.34.09.29-1.31.22-3.12-1.08-3.9-.91-.54-2.41-.39-2.87.68-.38.9.23,1.81.24,2.71l.33-.09c-.54-.92-.85-1.95-.88-3.02,0-.22-.36-.23-.35,0h0Z"/><path class="cls-1" d="M64.4,55.31c-1-.4-2.17-.47-3.14.03-.83.42-1.44,1.29-1.5,2.22s.51,1.78,1.36,2.12,1.67.05,2.2-.63c.6-.77.75-1.83.78-2.78,0-.23-.34-.22-.35,0-.07,1.39.48,2.77,1.48,3.74.16.16.41-.09.25-.25-.94-.91-1.43-2.19-1.37-3.49h-.35c-.04,1.21-.45,3.45-2.14,3.18-.78-.13-1.44-.83-1.49-1.62-.06-.86.46-1.69,1.19-2.12.92-.54,2.06-.46,3.01-.08.21.08.3-.25.09-.34h0Z"/><path class="cls-1" d="M69.13,55.84c-.47-.59-1.33-.71-2-.41-.78.35-1.19,1.22-1.25,2.03s.25,1.68,1.08,1.99c.69.26,1.51.08,2.05-.42.7-.65.89-1.67.77-2.58l-.32.13c.56,1,1.27,1.9,2.12,2.67.17.15.42-.1.25-.25-.83-.75-1.53-1.62-2.07-2.6-.1-.19-.34-.05-.32.13.11.84-.1,1.84-.82,2.36-.59.43-1.55.45-2.05-.13-.61-.7-.38-2.01.2-2.65.55-.61,1.58-.72,2.12-.04.14.18.39-.07.25-.25h0Z"/><path class="cls-1" d="M73.13,55.95c-.31.91-.18,1.94.35,2.74l.27-.21c-.73-.72-.32-2.07.58-2.43,1.15-.46,2.4.38,2.75,1.48.23.71.17,1.48-.08,2.18-.07.21.26.3.34.09.48-1.37.23-3.12-1.13-3.89-.56-.32-1.27-.44-1.89-.23-.59.2-1.01.67-1.2,1.26-.19.62-.09,1.32.38,1.79.14.14.39-.04.27-.21-.48-.73-.6-1.64-.32-2.47.07-.21-.27-.31-.34-.09h0Z"/><path class="cls-1" d="M86.98,55.81c-1.03-.24-2.29-.46-3.22.2-.77.55-1,1.59-.67,2.46s1.21,1.42,2.16,1.35c1.06-.08,1.88-.76,2.23-1.75.24-.7.28-1.46.31-2.19.04-.84,0-1.69-.08-2.53-.02-.19-.28-.24-.34-.05-.06.18-.12.37-.18.55l.12-.12c.17-.04.17.51.18.62.02.25.06.5.09.74.07.5.18.99.3,1.48.26.99.63,1.95,1.09,2.86.04.07.12.09.2.08.31-.05.53-.27.61-.56.06-.22-.28-.31-.34-.09-.05.19-.18.29-.36.32l.2.08c-.8-1.58-1.29-3.3-1.45-5.06-.02-.24-.03-.54-.27-.68-.18-.1-.38-.03-.45.16-.06.15-.03.35.15.4.33.1.38-.48.45-.68l-.34-.05c.12,1.17.13,2.36,0,3.54-.11,1.01-.45,2.04-1.47,2.44-.79.31-1.78.15-2.27-.59-.44-.66-.45-1.67.13-2.26.81-.81,2.14-.56,3.14-.33.22.05.31-.29.09-.34h0Z"/><path class="cls-1" d="M91.63,56.86l1.71-.04c.38,0,.88.01,1.08-.38.17-.31.02-.71-.24-.93-.33-.28-.81-.24-1.19-.11-.77.26-1.57.77-1.89,1.55-.27.65-.12,1.53.5,1.93.45.29,1.03.25,1.54.24.62-.01,1.25-.06,1.87-.14.22-.03.22-.38,0-.35-.84.1-1.7.18-2.55.13-.34-.02-.69-.11-.91-.4-.18-.23-.24-.53-.23-.82.03-.68.55-1.18,1.11-1.5.31-.18.68-.37,1.05-.39.3-.02.64.13.66.47.03.44-.72.34-.99.35l-1.52.04c-.22,0-.23.36,0,.35h0Z"/><path class="cls-1" d="M96.95,53.13l.03-.16h-.34c.32,2,.76,3.98,1.3,5.93.05.19.35.15.34-.05-.03-1.34.09-3.44,1.87-3.55.79-.05,1.56.36,2,1,.48.69.61,1.55.54,2.37-.02.22.33.22.35,0,.08-.93-.1-1.9-.67-2.66-.52-.69-1.36-1.11-2.23-1.07s-1.52.56-1.86,1.32c-.36.8-.37,1.71-.35,2.58l.34-.05c-.54-1.95-.97-3.93-1.3-5.93-.03-.17-.31-.17-.34,0l-.03.16c-.04.22.3.32.34.09h0Z"/><path class="cls-1" d="M106.71,55.72c-.4-.59-1.14-.8-1.82-.64-.76.18-1.27.84-1.4,1.59s.1,1.69.69,2.25,1.49.51,2.14.05c.86-.61,1.11-1.69,1.31-2.66l-.34-.05c.14,1.13.66,2.17,1.49,2.94.16.15.41-.09.25-.25-.76-.71-1.26-1.66-1.39-2.7-.02-.18-.3-.26-.34-.05-.15.71-.3,1.48-.75,2.07-.4.52-1.18.92-1.82.6-.61-.3-.91-1.09-.92-1.74s.26-1.31.85-1.61,1.38-.21,1.76.35c.12.19.43.01.3-.18h0Z"/><path class="cls-1" d="M110.52,55.5c-.36.97-.36,2.06,0,3.03.08.21.37.13.34-.09-.08-.46-.11-.93-.07-1.39.04-.4.14-.85.41-1.16.31-.35.79-.46,1.23-.3.5.18.88.63,1.05,1.12.24.7.18,1.46.12,2.18-.02.22.33.22.35,0,.06-.74.12-1.5-.11-2.22-.19-.58-.6-1.1-1.16-1.36-.5-.23-1.08-.2-1.53.14-.39.3-.59.78-.67,1.26-.1.6-.06,1.22.04,1.82l.34-.09c-.34-.92-.33-1.93,0-2.85.08-.21-.26-.3-.34-.09h0Z"/><path class="cls-1" d="M117.98,55.63c-1.13-1.35-3.81-.46-3.58,1.4.12.94.97,1.75,1.91,1.87.21.03.43.01.64-.04.29-.07.38-.3.53-.55.34-.56.63-1.17.85-1.79.51-1.4.7-2.92.56-4.4-.02-.22-.37-.23-.35,0,.09,1.35.24,2.69.44,4.02.1.61.14,1.3.35,1.89.12.35.38.68.78.58.22-.05.13-.39-.09-.34-.42.1-.51-1.05-.55-1.29-.09-.52-.18-1.04-.25-1.57-.15-1.1-.26-2.2-.34-3.3h-.35c.2,2.14-.3,4.33-1.45,6.15-.14.23-.24.28-.52.29-.22,0-.45-.04-.65-.12-.4-.16-.75-.47-.97-.85-.42-.74-.18-1.6.55-2.01s1.68-.35,2.23.3c.14.17.39-.08.25-.25h0Z"/><path class="cls-1" d="M126.41,53.57c.22.67.52,1.32.89,1.93.18.3.39.58.6.85.18.23.39.55.7.63.57.15.88-.52,1.05-.94.22-.55.4-1.13.65-1.67.28-.59.66-1.11,1.27-1.38.21-.09.03-.39-.18-.3-1.23.55-1.59,1.99-2.03,3.13-.1.25-.25.78-.58.83-.22.03-.41-.27-.53-.41-.13-.16-.26-.32-.38-.49-.49-.69-.87-1.45-1.13-2.26-.07-.21-.41-.12-.34.09h0Z"/><path class="cls-1" d="M135.18,54.1c-.64-.53-1.54-.69-2.32-.4s-1.29.97-1.41,1.77.14,1.77.91,2.13c.72.34,1.56-.09,2.04-.64.75-.85.77-2.08,1.32-3.04l-.32-.13c-.21,1.44.39,2.9,1.56,3.76.18.13.36-.17.18-.3-1.03-.76-1.59-2.1-1.4-3.37.03-.18-.21-.32-.32-.13-.4.7-.53,1.51-.84,2.25-.26.64-.79,1.27-1.52,1.37-.8.11-1.26-.72-1.28-1.42s.29-1.41.9-1.77c.7-.41,1.64-.34,2.26.17.17.14.42-.1.25-.25h0Z"/><path class="cls-1" d="M138.37,54.43c-.09,1.01.12,2.03.61,2.92.08.14.35.09.33-.09-.1-.73-.2-1.5-.01-2.23.15-.58.56-1.16,1.16-1.36.64-.22,1.25.16,1.68.61s.71,1.01.85,1.6c.16.67.12,1.38-.12,2.03-.08.21.26.3.34.09.48-1.31.18-2.85-.75-3.89-.46-.52-1.12-.95-1.84-.83-.66.11-1.21.63-1.48,1.22-.4.86-.28,1.85-.16,2.76l.33-.09c-.46-.84-.65-1.79-.56-2.74.02-.22-.33-.22-.35,0h0Z"/><path class="cls-1" d="M19.24,65.58c-.07-.28-.25-.47-.52-.56-.14-.05-.24.1-.22.22.28,1.65,1.26,3.13,2.66,4.06.07.05.2.02.24-.06.31-.7.63-1.39.98-2.07.17-.33.34-.65.52-.97.09-.16.18-.32.27-.48.05-.09.11-.18.16-.28.01-.02.18-.3.13-.29-.22.05-.13.39.09.34.32-.07.21-.55-.09-.56-.18,0-.31.14-.4.27-.16.24-.29.49-.43.74-.57,1.01-1.08,2.05-1.55,3.11l.24-.06c-1.32-.88-2.23-2.29-2.5-3.85l-.22.22c.15.05.24.16.28.32.05.22.39.13.34-.09h0Z"/><path class="cls-1" d="M27.42,65.91c-.86-.25-1.9-.23-2.6.41-.58.53-.84,1.47-.37,2.15.99,1.44,3.51.68,3.65-1.02.07-.84-.49-1.71-1.32-1.91-.22-.05-.31.29-.09.34.6.14,1.02.71,1.06,1.31.05.66-.37,1.22-.95,1.5s-1.39.25-1.89-.22-.42-1.28.02-1.78c.59-.67,1.59-.68,2.39-.45.22.06.31-.27.09-.34h0Z"/><path class="cls-1" d="M30.92,65.99c-.33-.75-1.39-.73-1.89-.18-.58.64-.54,1.63-.1,2.34s1.2,1.11,2.02.98c.77-.13,1.46-.72,1.57-1.51.11-.84-.44-1.73-1.28-1.93-.22-.05-.31.29-.09.34.58.13,1,.69,1.04,1.27.04.64-.4,1.19-.98,1.4-.62.23-1.28.06-1.73-.42s-.66-1.23-.4-1.86c.13-.32.4-.6.76-.65.33-.04.66.1.79.41.09.21.39.03.3-.18h0Z"/><path class="cls-1" d="M33.01,67.01c.33.83.66,1.66.99,2.48.08.2.41.12.34-.09-.27-.81-.65-1.84-.22-2.66.29-.55,1.02-1.04,1.63-.68.2.11.37-.19.18-.3-.74-.43-1.62.03-2.04.69-.59.92-.21,2.11.11,3.05l.34-.09c-.33-.83-.66-1.66-.99-2.48-.08-.21-.42-.12-.34.09h0Z"/><path class="cls-1" d="M37.7,64.89c.3-.12.39.76.42.92.09.41.17.82.26,1.24.17.82.35,1.65.52,2.47l.32-.13c-.32-.69-.75-1.7-.23-2.4.49-.66,1.48-.53,2.1-.15.37.23.68.56.96.89.12.15.25.3.37.45.19.25.3.5-.03.67-.4.21-.95.27-1.39.32-.25.03-.51.04-.77.04-.12,0-.25,0-.36-.03-.08-.03-.25-.16-.1-.23.21-.09.03-.39-.18-.3-.32.14-.28.58-.03.76.36.27,1.02.15,1.43.11.59-.07,2.35-.24,1.9-1.25-.18-.41-.57-.79-.87-1.11-.32-.34-.7-.65-1.13-.83-.7-.29-1.63-.24-2.14.39-.67.83-.22,1.99.17,2.83.09.19.36.05.32-.13-.21-1.02-.43-2.05-.64-3.07-.09-.45-.14-.96-.31-1.39-.11-.27-.36-.55-.68-.43-.21.08-.12.42.09.34h0Z"/><path class="cls-1" d="M44.16,68.03c.52.04,1.05-.01,1.55-.17.41-.13.93-.32,1.18-.68s.04-.74-.39-.81-.87-.09-1.3-.04c-.78.1-1.5.58-1.54,1.43-.04.76.49,1.52,1.14,1.87,1.04.55,2.31.24,3.38-.03.22-.06.13-.39-.09-.34-.82.21-1.7.43-2.55.25-.66-.14-1.22-.57-1.44-1.22s.02-1.24.64-1.5c.3-.12.64-.15.96-.15.17,0,.33.01.5.03.13.01.48,0,.46.19-.02.19-.3.33-.45.4-.21.11-.43.2-.66.27-.45.13-.92.17-1.39.14-.22-.02-.22.33,0,.35h0Z"/><path class="cls-1" d="M48.3,68.04c.52-.32,1.14-.2,1.71-.24.45-.04.86-.21,1.15-.57.25-.3.36-.72.11-1.06-.27-.35-.73-.36-1.11-.21-.81.34-1.13,1.31-1.01,2.13.12.89.71,1.65,1.56,1.95,1.03.37,2.21.05,3.01-.66.17-.15-.08-.4-.25-.25-1.13,1.02-3.23,1-3.84-.59-.24-.62-.21-1.39.22-1.92.22-.27.67-.55,1.02-.36.41.22.12.69-.13.9-.38.31-.85.29-1.31.29s-.9.03-1.29.28c-.19.12-.02.42.18.3h0Z"/><path class="cls-1" d="M53.19,64.77c.51,1.85,1.12,3.67,1.83,5.45.08.21.42.12.34-.09-.71-1.78-1.32-3.6-1.83-5.45-.06-.22-.4-.12-.34.09h0Z"/><path class="cls-1" d="M60.01,67.84c-.35-.84-1.36-1.32-2.23-1.02s-1.31,1.35-1.03,2.21c.3.94,1.34,1.32,2.24,1.11,1.04-.23,1.68-1.19,1.82-2.2.19-1.36-.48-2.63-1.28-3.69-.13-.18-.43-.02-.3.18,1.08,1.67,1.8,3.54,2.13,5.5.04.22.38.13.34-.09-.34-1.99-1.08-3.89-2.17-5.58l-.3.18c.58.78,1.13,1.67,1.24,2.65.1.86-.14,1.84-.85,2.39-.61.47-1.6.55-2.19,0s-.53-1.53.03-2.06c.67-.63,1.87-.31,2.22.51.09.2.42.11.34-.09h0Z"/><path class="cls-1" d="M63.03,68.27c.56-.18,1.12-.34,1.67-.53.34-.11.74-.29.88-.65.29-.8-.79-1.15-1.37-.91-.66.27-1.01.96-1.05,1.64-.04.76.33,1.45.96,1.86.78.51,1.8.56,2.67.27.21-.07.12-.41-.09-.34-1.16.39-2.85.08-3.15-1.3-.11-.53.01-1.16.41-1.55.2-.19.46-.33.74-.32.22.01.56.13.58.4.02.38-.54.53-.82.62l-1.52.48c-.21.07-.12.41.09.34h0Z"/><path class="cls-1" d="M67.1,67.44c.28.91.56,1.82.85,2.73l.34-.09c-.25-.75-.54-1.61-.24-2.39.26-.68.91-1.06,1.61-.79s1.19.94,1.51,1.59c.34.7.47,1.48.41,2.25-.02.22.33.22.35,0,.1-1.33-.37-2.82-1.4-3.71-.48-.41-1.13-.71-1.77-.51-.55.17-.93.67-1.09,1.2-.25.82.02,1.68.28,2.46.07.21.4.12.34-.09-.28-.91-.56-1.82-.85-2.73-.07-.21-.4-.12-.34.09h0Z"/><path class="cls-1" d="M79.86,68.06c.05-.73-.82-1.24-1.46-.95-.73.34-.86,1.32-.48,1.95.43.72,1.36,1.1,2.17,1,.36-.04.71-.18.96-.45.31-.35.37-.82.32-1.27-.06-.61-.2-1.21-.31-1.82-.13-.69-.25-1.39-.38-2.08l-.32.13c.83,1.13,1.41,2.43,1.69,3.81.07.35.12.7.15,1.05.02.26.03.53.18.75.23.33.84.35.93-.1.05-.22-.29-.31-.34-.09-.03.12-.19.1-.27.04-.11-.09-.13-.3-.14-.43-.03-.25-.04-.5-.08-.74-.07-.54-.19-1.08-.36-1.6-.33-1.03-.82-2-1.46-2.87-.12-.16-.36-.07-.32.13.2,1.09.4,2.19.6,3.28.08.46.22,1.04-.08,1.46-.23.33-.65.45-1.03.45-.8,0-1.81-.58-1.76-1.48.02-.39.27-.84.7-.88.39-.03.79.28.76.68-.02.22.33.22.35,0h0Z"/><path class="cls-1" d="M84.79,67.41c0,.97.2,1.91.58,2.8.04.09.16.11.24.06.09-.05.1-.15.06-.24-.35-.83-.53-1.73-.53-2.63,0-.23-.35-.23-.35,0h0Z"/><path class="cls-1" d="M85.71,65.97l.22-.22s.05-.08.05-.12c0-.02,0-.05-.02-.07,0-.02-.02-.04-.04-.06-.03-.03-.08-.05-.12-.05s-.09.02-.12.05l-.22.22s-.05.08-.05.12c0,.02,0,.05.02.07,0,.02.02.04.04.06.03.03.08.05.12.05s.09-.02.12-.05h0Z"/><path class="cls-1" d="M87.97,68.22c.47.2.97.3,1.48.26.36-.03,1.02-.11,1.18-.5s-.24-.82-.51-1.03c-.33-.26-.73-.41-1.15-.41-.87,0-1.64.71-1.74,1.57s.47,1.69,1.18,2.14c1.02.65,2.31.55,3.46.45.22-.02.22-.37,0-.35-1.46.12-3.46.2-4.16-1.41-.29-.66-.09-1.42.52-1.82s1.42-.26,1.88.29c.12.14.32.4.1.52-.19.11-.46.16-.67.18-.47.06-.94-.01-1.37-.2-.2-.09-.38.21-.18.3h0Z"/><path class="cls-1" d="M97.23,65.6c.99.1,1.97.33,2.91.67l-.04-.32c-.65.29-1.3.58-1.95.86-.47.21-1.03.43-1.14.99-.09.46.15.94.51,1.22.46.38,1.11.41,1.68.36.71-.06,1.49-.28,2.18.03.2.09.38-.21.18-.3-.68-.31-1.39-.19-2.1-.11-.63.08-1.44.13-1.88-.43-.17-.21-.28-.52-.19-.79.1-.29.41-.44.67-.56.74-.34,1.49-.66,2.23-.99.15-.07.08-.27-.04-.32-.97-.36-1.97-.59-3-.69-.22-.02-.22.33,0,.35h0Z"/><path class="cls-1" d="M103.77,66.29v3.13c0,.23.35.23.35,0v-3.13c0-.23-.35-.23-.35,0h0Z"/><path class="cls-1" d="M103.73,65.35c.23,0,.23-.35,0-.35s-.23.35,0,.35h0Z"/><path class="cls-1" d="M105.8,66.55c.28.69.52,1.39.72,2.1s.42,1.47.36,2.21c-.05.63-.4,1.32-1.05,1.51-.6.17-1.33-.39-1.11-1.03.07-.21-.26-.3-.34-.09-.22.64.26,1.3.88,1.47.68.19,1.35-.28,1.67-.85.44-.76.32-1.67.13-2.49-.23-1-.55-1.98-.93-2.93-.08-.21-.42-.12-.34.09h0Z"/><path class="cls-1" d="M107.76,65.12c.23,0,.23-.35,0-.35s-.23.35,0,.35h0Z"/><path class="cls-1" d="M113.84,66.75c-.3-.76-1.1-1.26-1.93-1.15s-1.41.86-1.46,1.67c-.13,2.01,3.02,2.92,4.27,1.56.63-.69.75-1.78.13-2.52-.13-.15-.39.05-.27.21.55.74,1.02,1.55,1.35,2.41s.63,1.84.61,2.78-.65,2.06-1.73,1.8c-.48-.12-2.14-1.35-1.57-1.95.16-.16-.09-.41-.25-.25-.69.72.47,1.78,1.01,2.18.83.62,1.86.47,2.46-.39.69-.97.4-2.32.1-3.38-.35-1.22-.93-2.37-1.69-3.39l-.27.21c.58.68.3,1.77-.4,2.25-.83.57-2.01.33-2.76-.26s-.89-1.63-.16-2.29,1.88-.27,2.22.58c.08.21.42.12.34-.09h0Z"/><path class="cls-1" d="M118.05,68.11c.76.25,1.81.17,2.31-.53.55-.77-.02-1.69-.82-1.96-.9-.3-1.72.36-1.95,1.22-.25.95.21,1.86.97,2.42,1.13.84,2.58.8,3.92.73.22-.01.23-.36,0-.35-1,.05-2.05.11-3-.27-.75-.3-1.49-.93-1.6-1.78-.08-.68.28-1.58,1.03-1.69.67-.1,1.52.54,1.27,1.26-.27.78-1.38.83-2.04.61-.21-.07-.31.27-.09.34h0Z"/><path class="cls-1" d="M122.82,66.71c.31.73.63,1.46.94,2.18.24.55.43,1.25.92,1.64.4.31.92.2,1.17-.23.14-.23.19-.5.23-.77.07-.37.14-.73.24-1.09.21-.83.5-1.64.85-2.42.09-.2-.21-.38-.3-.18-.35.77-.63,1.56-.85,2.38-.1.39-.19.78-.26,1.17-.05.28-.09.66-.31.86-.59.54-1.09-.87-1.24-1.21-.36-.84-.72-1.68-1.08-2.52-.09-.21-.39-.03-.3.18h0Z"/><path class="cls-1" d="M128.13,67.76c.33.46.8.83,1.38.89.49.05,1.01-.13,1.3-.54s.29-.97,0-1.35c-.33-.43-.94-.49-1.42-.33-.94.3-1.5,1.29-1.5,2.24,0,1.05.74,1.96,1.67,2.38,1.21.54,2.63.26,3.61-.61.17-.15-.08-.4-.25-.25-.71.63-1.7.93-2.63.73-.8-.17-1.56-.7-1.89-1.46-.31-.71-.17-1.58.32-2.17.26-.3.61-.53,1.01-.58.47-.06.92.19.94.7s-.41.86-.89.9c-.55.05-1.04-.29-1.35-.72-.13-.18-.43,0-.3.18h0Z"/><path class="cls-1" d="M133.13,67.67l1.1,2.85c.06.17.37.17.34-.05-.15-1.16-.2-3.51,1.53-3.47.89.02,1.63.8,2.02,1.53.48.88.71,1.88.69,2.88,0,.23.35.23.35,0,.02-1.59-.54-3.47-1.94-4.38-.59-.38-1.33-.51-1.97-.17-.52.27-.83.81-.98,1.37-.19.73-.16,1.51-.06,2.25l.34-.05-1.1-2.85c-.08-.21-.42-.12-.34.09h0Z"/><path class="cls-1" d="M143.25,77.69c4.02,5.49,8.45,10.65,13.25,15.47l.17-.41c-9.54.8-22.46-1.76-27.03-11.29-.04-.09-.18-.14-.27-.11-13.25,5.12-27.1,8.65-41.17,10.62-13.35,1.86-27.08,2.56-40.49,1.05-11.52-1.3-23.46-4.3-32.95-11.25S-.26,63.7.55,51.78C2.3,26.19,28.57,11.14,50.75,5.3,64.65,1.63,79.09.52,93.42.48s29.09.17,42.44,5.41c5.69,2.23,11.16,5.45,15.35,9.95,4.68,5.03,6.68,11.34,7.31,18.08.32,3.43.43,6.89.53,10.33.11,3.72.1,7.46-.43,11.14-.88,6.08-3.29,11.86-7.71,16.22-2.21,2.18-4.81,3.88-7.68,5.04-.28.11-.16.57.13.46,5.89-2.39,10.54-7.02,13.2-12.77,3.21-6.93,3.19-14.73,2.9-22.2-.29-7.42-.48-15.24-4.32-21.84-3.2-5.51-8.43-9.61-14.01-12.53C127.08.41,110.35.03,94.84,0c-16.26-.03-32.75,1.25-48.36,6.02-12.93,3.95-25.63,10.49-34.9,20.53C3,35.84-1.85,48.41.66,61.08c1.25,6.28,4.31,12.09,8.76,16.69,4.31,4.46,9.69,7.75,15.38,10.14,12.56,5.27,26.59,6.57,40.09,6.35,16.29-.26,32.56-2.6,48.25-7,3.92-1.1,7.8-2.33,11.63-3.69.94-.33,1.87-.67,2.8-1.02.42-.16.85-.38,1.28-.49.54-.14.54,0,.79.47.63,1.15,1.43,2.21,2.33,3.16,4,4.23,9.9,6.37,15.53,7.24,3.03.47,6.11.56,9.17.31.2-.02.32-.25.17-.41-4.76-4.8-9.17-9.92-13.17-15.38-.18-.24-.59,0-.41.24h0Z"/></g></svg>