<?xml version="1.0" encoding="UTF-8"?><svg id="Layer_2" xmlns="http://www.w3.org/2000/svg" viewBox="0 0 164.54 101.97"><defs><style>.cls-1{fill:#1d1d1b;stroke-width:0px;}</style></defs><g id="Layer_1-2"><path class="cls-1" d="M74.07,90.83c4.58,7.48,13.37,11.88,22.1,11.04.14-.01.26-.13.22-.29-1.33-4.85-2.67-9.71-4-14.56l-.22.29c14.49,1.69,29.46.98,43.64-2.58,5.98-1.5,11.92-3.71,16.87-7.47,4.47-3.39,7.79-7.98,9.75-13.23,4.12-11.06,1.96-23.33-4.35-33.11-6.84-10.6-17.6-17.85-29.2-22.39C116.25,3.59,102.46,1.18,88.95.31c-13.76-.89-27.68.1-41.12,3.21-6.62,1.53-13.13,3.58-19.41,6.17s-12.1,5.4-17.03,9.79C2.65,27.26-1.61,39.66.56,51.17s10.55,21.3,21.52,25.73c3.24,1.31,6.61,2.27,9.96,3.24,3.52,1.01,7.05,2.01,10.61,2.89,7.06,1.75,14.32,3.08,21.63,2.94,3.47-.06,6.91-.48,10.29-1.28l-.28-.28c-.44,2.49-.48,4.97-.14,7.47.04.29.47.16.43-.12-.33-2.42-.29-4.83.14-7.23.03-.17-.1-.32-.28-.28-14.19,3.37-28.65-.64-42.28-4.55-6.26-1.79-12.6-3.67-17.91-7.59-4.62-3.41-8.33-8.03-10.74-13.24C-1.58,47.87-.08,34.76,7.01,24.99c3.79-5.22,9.07-8.95,14.79-11.82s12.13-5.3,18.44-7.18c25.29-7.53,53.04-7.29,78.43-.34,12.35,3.38,24.41,8.93,33.36,18.33,8.06,8.47,13.11,19.78,11.9,31.62-.59,5.75-2.63,11.41-6.16,16.02-3.81,4.96-9.24,8.3-15.02,10.49s-12.31,3.51-18.6,4.39c-7.1,1-14.29,1.38-21.46,1.15-3.51-.11-7.02-.39-10.51-.79-.15-.02-.25.16-.22.29,1.33,4.85,2.67,9.71,4,14.56l.22-.29c-8.58.83-17.21-3.46-21.72-10.82-.15-.25-.54-.02-.39.23h0Z"/><path class="cls-1" d="M15.47,30.21c.11,1.35.22,2.71.33,4.06.1,1.24.12,2.47-.84,3.39-.77.74-1.9,1.06-2.92.71s-1.87-1.37-2-2.49c-.02-.22-.37-.22-.35,0,.26,2.39,2.98,3.79,5.01,2.44,1.04-.69,1.52-1.8,1.51-3.03-.02-1.69-.26-3.4-.4-5.08-.02-.22-.37-.22-.35,0h0Z"/><path class="cls-1" d="M18.42,34.94c-.14,1.27.73,2.5,1.89,2.95.59.23,1.3.25,1.88-.03.7-.34.79-1.05.85-1.75.08-1.02.16-2.04.25-3.06.02-.22-.33-.22-.35,0-.08.97-.16,1.95-.24,2.92-.03.41-.02.9-.27,1.25-.23.33-.66.47-1.05.5-1.47.1-2.77-1.33-2.62-2.78.02-.22-.33-.22-.35,0h0Z"/><path class="cls-1" d="M26.51,29.5c.19,2.78.53,5.55,1,8.3.04.22.38.13.34-.09-.47-2.72-.79-5.46-.98-8.21-.02-.22-.37-.23-.35,0h0Z"/><path class="cls-1" d="M30.55,33.98c.1,1.34.19,2.69.29,4.03.02.22.37.23.35,0-.1-1.34-.19-2.69-.29-4.03-.02-.22-.37-.23-.35,0h0Z"/><path class="cls-1" d="M31.73,31.98l.47-.47c.06-.06.07-.18,0-.25s-.18-.07-.25,0l-.47.47c-.06.06-.07.18,0,.25s.18.07.25,0h0Z"/><path class="cls-1" d="M38.2,34.21c-.63-.73-1.62-1.05-2.56-.9s-1.75.84-2.12,1.74c-.32.77-.44,2.1.3,2.7.41.34,1.01.15,1.47.04.57-.13,1.13-.31,1.63-.62.96-.59,1.66-1.79,1.22-2.91-.07-.18-.33-.16-.34.05-.07,1.57.46,3.11,1.48,4.3.15.17.39-.08.25-.25-.96-1.12-1.45-2.58-1.38-4.06l-.34.05c.33.84-.08,1.77-.76,2.31-.37.3-.82.5-1.27.64-.22.07-.44.12-.66.17-.24.05-.52.14-.77.12-.48-.04-.64-.64-.68-1.04s0-.8.12-1.18c.26-.79.87-1.45,1.69-1.67.9-.24,1.89.04,2.5.75.15.17.39-.08.25-.25h0Z"/><path class="cls-1" d="M44.2,35.59c-.16,1.19.09,2.41.73,3.43.12.19.42.01.3-.18-.59-.94-.84-2.07-.7-3.16.03-.22-.31-.32-.34-.09h0Z"/><path class="cls-1" d="M45.18,32.69l.24.24s.08.05.12.05c.02,0,.05,0,.07-.02.02,0,.04-.02.06-.04.03-.03.05-.08.05-.12s-.02-.09-.05-.12l-.24-.24s-.08-.05-.12-.05c-.02,0-.05,0-.07.02-.02,0-.04.02-.06.04-.03.03-.05.08-.05.12s.02.09.05.12h0Z"/><path class="cls-1" d="M49.6,34.78c-.86-.12-1.74-.05-2.56.27-.29.11-.63.27-.71.6-.08.35.21.63.46.81.29.22.63.36.97.5s.7.27.96.52c.39.37.75,1.26.02,1.49-.44.14-.96.12-1.41.07-.52-.05-1.04-.19-1.52-.39-.2-.09-.38.21-.18.3.8.34,1.66.51,2.53.45.35-.02.75-.05,1.03-.28.22-.18.32-.44.32-.72,0-.62-.44-1.17-.96-1.46-.34-.18-.71-.31-1.06-.47-.17-.08-.33-.16-.48-.27-.14-.1-.4-.29-.35-.48s.37-.29.53-.35c.23-.08.46-.15.7-.2.52-.1,1.06-.12,1.59-.04.22.03.32-.31.09-.34h0Z"/><path class="cls-1" d="M58.18,33.06c-.2,2-.4,4-.61,5.99-.02.16.2.22.3.12,1.4-1.34,2.79-2.68,4.19-4.02.16-.16-.08-.4-.25-.25-1.4,1.34-2.79,2.68-4.19,4.02l.3.12c.21-2,.41-3.99.61-5.99.02-.22-.33-.22-.35,0h0Z"/><path class="cls-1" d="M59.98,37.18c.8,1.35,2,2.44,3.43,3.09.2.09.38-.21.18-.3-1.38-.63-2.54-1.67-3.31-2.97-.11-.19-.42-.02-.3.18h0Z"/><path class="cls-1" d="M65.98,35.84c-.24,1.52-.13,3.07.34,4.54.05.16.29.17.34,0,.29-1.08-.44-2.17-.05-3.23.33-.87,1.3-1.5,2.24-1.37.22.03.32-.31.09-.34-1.01-.15-2.02.39-2.52,1.28-.27.49-.32,1.02-.25,1.56.09.66.33,1.33.14,2h.34c-.45-1.4-.58-2.9-.34-4.35.04-.22-.3-.32-.34-.09h0Z"/><path class="cls-1" d="M71.36,36.82c-.09,1.28,0,2.56.26,3.82.05.22.38.13.34-.09-.25-1.23-.33-2.48-.25-3.73.02-.22-.33-.22-.35,0h0Z"/><path class="cls-1" d="M73.12,34.22v-.24s-.02-.09-.05-.12c-.02-.02-.03-.03-.06-.04-.02-.01-.04-.02-.07-.02-.05,0-.09.02-.12.05s-.05.08-.05.12v.24s.02.09.05.12c.02.02.03.03.06.04.02.01.04.02.07.02.05,0,.09-.02.12-.05s.05-.08.05-.12h0Z"/><path class="cls-1" d="M74.69,33.08c.76,2.53,1.27,5.13,1.51,7.77.02.22.37.22.35,0-.24-2.67-.75-5.3-1.52-7.86-.06-.22-.4-.12-.34.09h0Z"/><path class="cls-1" d="M74.6,37.47h3.31c.23,0,.23-.35,0-.35h-3.31c-.23,0-.23.35,0,.35h0Z"/><path class="cls-1" d="M79.85,37.53c-.06,1.25.2,2.5.75,3.63.1.2.4.03.3-.18-.52-1.07-.76-2.26-.7-3.45.01-.23-.34-.22-.35,0h0Z"/><path class="cls-1" d="M81.26,35.1l.71-.24c.09-.03.15-.12.12-.22-.03-.09-.12-.15-.22-.12l-.71.24c-.09.03-.15.12-.12.22.03.09.12.15.22.12h0Z"/><path class="cls-1" d="M86.18,36.42c-.47-.05-.94-.05-1.41,0-.4.05-.83.1-1.2.28-.64.32-.59,1.03-.17,1.51.47.54,1.12.64,1.77.86.3.1.62.24.8.51.22.32.15.71-.1,1-.73.84-1.9.3-2.7-.11-.2-.1-.38.2-.18.3.72.37,1.6.8,2.42.52.63-.22,1.21-.86,1.01-1.57-.18-.64-.85-.9-1.42-1.07-.33-.1-.67-.17-.97-.36-.27-.18-.61-.49-.61-.84,0-.51.73-.59,1.1-.65.55-.09,1.11-.1,1.66-.04.22.02.22-.33,0-.35h0Z"/><path class="cls-1" d="M91.66,36.76c-1.16-.78-2.85-.03-3.25,1.25-.49,1.56.72,3.15,2.21,3.52.98.24,2.03.05,2.92-.4.2-.1.02-.4-.18-.3-1.32.67-3.11.68-4.11-.54-.83-1.01-.82-2.57.4-3.25.57-.32,1.28-.36,1.83.01.19.13.36-.18.18-.3h0Z"/><path class="cls-1" d="M95.28,34.09l-.43-.4c-.12-.11-.29-.03-.3.12-.23,2.56.2,5.13,1.22,7.48l.27-.21c-.77-.7-.61-1.82-.15-2.65.35-.62,1.22-2.08,2.11-1.65.74.36,1.04,1.56,1.33,2.24.21.49.42.98.63,1.47.06.14.43,1.24-.05,1.12-.22-.05-.31.28-.09.34.38.09.6-.17.66-.52.1-.55-.19-1.04-.4-1.53-.31-.73-.61-1.47-.94-2.2-.21-.46-.49-.97-.96-1.22-1.1-.58-2.06.88-2.52,1.66-.58.98-.78,2.34.14,3.19.15.14.35-.03.27-.21-1-2.3-1.4-4.81-1.17-7.31l-.3.12.43.4c.17.15.41-.1.25-.25h0Z"/><path class="cls-1" d="M110.54,36.22c-1.01-.28-2.16-.13-2.99.53-.78.61-1.18,1.65-1.01,2.62s.93,1.67,1.85,1.85c.97.19,1.83-.31,2.33-1.12.68-1.1.78-2.54.62-3.79-.03-.22-.38-.22-.35,0,.13,1.01.09,2.1-.29,3.06-.31.78-.93,1.53-1.83,1.55-.81.02-1.62-.52-1.89-1.29-.29-.82-.04-1.77.56-2.39.74-.78,1.92-.97,2.92-.69.22.06.31-.28.09-.34h0Z"/><path class="cls-1" d="M112.16,36.83c.45,2.06.9,4.11,1.35,6.17l.22-.22c-.51-.07-.47-.81-.47-1.19.01-.62.05-1.24.13-1.86.08-.67.2-1.33.35-1.99.14-.59.27-1.19.91-1.42.92-.33,2.07.12,2.67.86s.62,1.95-.12,2.63-2.15.36-2.4-.68c-.05-.22-.39-.13-.34.09.24,1,1.44,1.55,2.39,1.2,1.07-.4,1.51-1.75,1.14-2.78-.41-1.12-1.65-1.83-2.81-1.78-.56.03-1.13.24-1.44.74-.19.31-.26.68-.34,1.03-.1.45-.19.91-.26,1.37-.14.91-.22,1.84-.22,2.76,0,.51.11,1.24.73,1.33.13.02.25-.07.22-.22-.45-2.06-.9-4.11-1.35-6.17-.05-.22-.39-.13-.34.09h0Z"/><path class="cls-1" d="M123.79,38.9c.78-.19,1.58.09,2.37-.02.51-.07,1.03-.36,1.31-.8s.18-1.03-.25-1.37-1.02-.41-1.54-.3c-1.07.23-1.92,1.25-1.95,2.34-.03,1.16.76,2.25,1.77,2.75,1.37.68,3.02.32,4.24-.5.19-.13.01-.43-.18-.3-.93.63-2.1.98-3.21.73-.98-.22-1.85-.95-2.16-1.91s.06-1.95.9-2.49c.39-.25.86-.39,1.33-.3.51.09,1.09.53.79,1.1s-.97.73-1.55.71c-.66-.02-1.3-.15-1.95,0-.22.05-.13.39.09.34h0Z"/><path class="cls-1" d="M131.38,36.54c-.44,1.59-.4,3.28.12,4.85.07.21.41.12.34-.09-.5-1.51-.54-3.13-.12-4.66.06-.22-.28-.31-.34-.09h0Z"/><path class="cls-1" d="M133.21,35.76l.71-.24c.09-.03.15-.12.12-.22-.03-.09-.12-.15-.22-.12l-.71.24c-.09.03-.15.12-.12.22.03.09.12.15.22.12h0Z"/><path class="cls-1" d="M138.25,37.94c-.53-.86-1.61-1.24-2.57-.97-1.02.28-1.76,1.25-1.97,2.26s.09,2.17,1.14,2.5c.9.28,1.95-.15,2.58-.81.99-1.06,1.09-2.66,1.41-3.99l-.34-.05c.29,2.33,1.34,5.07.03,7.27-.53.89-1.52,1.62-2.6,1.56s-2.1-1.08-1.92-2.2c.04-.22-.3-.32-.34-.09-.18,1.07.5,2.06,1.48,2.47,1.04.43,2.2.02,2.99-.71,2.32-2.15,1.03-5.65.7-8.3-.02-.18-.29-.26-.34-.05-.3,1.2-.39,2.57-1.13,3.61-.57.79-1.9,1.42-2.78.77-1.08-.79-.56-2.57.25-3.35.88-.85,2.43-.86,3.11.26.12.19.42.02.3-.18h0Z"/><path class="cls-1" d="M140.18,38.59c.95.43,2.46.72,3.11-.35.44-.73.25-1.95-.75-2.03-1.1-.09-1.87,1.06-2,2.02-.14,1.04.29,2.08,1.14,2.7,1.04.75,2.46.79,3.61.3.21-.09.03-.39-.18-.3-1.65.71-3.93.03-4.22-1.93-.12-.79.13-1.68.79-2.17.36-.26.96-.45,1.3-.05.22.26.23.65.14.97-.35,1.21-1.9.93-2.77.54-.2-.09-.38.21-.18.3h0Z"/><path class="cls-1" d="M147.42,37.06c-.09,1.42.03,2.84.37,4.22.05.22.38.13.34-.09-.2-1.06-.41-2.26.2-3.23.53-.85,1.54-1.09,2.37-.49,1.92,1.39.92,4.03.94,5.98,0,.23.35.23.35,0-.02-1.9.8-4.02-.5-5.68-.44-.57-1.12-1.03-1.86-.99s-1.4.58-1.73,1.25c-.5,1.02-.3,2.18-.1,3.26l.34-.09c-.33-1.35-.45-2.74-.36-4.12.01-.22-.34-.22-.35,0h0Z"/><path class="cls-1" d="M18.59,45.04c-.79.48-1.46,1.2-1.7,2.12-.21.8-.03,1.73.54,2.34.53.58,1.36.77,2.1.5.32-.12.61-.32.81-.59.27-.37.26-1.01.66-1.26l-.26-.1c.17.88.51,1.92,1.41,2.3.96.4,1.98-.21,2.51-.99.32-.46.5-1.01.66-1.54.18-.61.4-1.25.37-1.89-.04-.87-.77-1.8-1.73-1.52-.22.06-.12.4.09.34.45-.13.88.14,1.1.52.26.44.2,1.01.09,1.49-.18.82-.42,1.72-.89,2.42s-1.42,1.24-2.22.77c-.69-.39-.92-1.28-1.06-2-.02-.11-.17-.16-.26-.1-.57.35-.46,1.12-.95,1.55-.56.49-1.47.5-2.04.01s-.81-1.36-.63-2.1c.2-.85.83-1.52,1.56-1.97.19-.12.02-.42-.18-.3h0Z"/><path class="cls-1" d="M28.02,48.04c.58.24,1.19.47,1.83.36.47-.08.94-.37,1.13-.83.36-.87-.5-1.61-1.29-1.72-1.01-.14-1.73.7-2.03,1.58-.17.5-.25,1.05-.24,1.57,0,.58.26,1.02.77,1.3,1.18.64,2.66.6,3.83,0,.2-.1.02-.4-.18-.3-.87.45-1.9.54-2.84.26-.44-.13-1.02-.34-1.17-.82-.13-.41-.06-.92.02-1.34.14-.74.52-1.68,1.33-1.88.59-.15,1.54.24,1.54.95,0,.47-.45.79-.87.88-.59.14-1.2-.12-1.73-.34-.21-.09-.3.25-.09.34h0Z"/><path class="cls-1" d="M33.07,47.74c.29,1.06.57,2.12.86,3.18.06.22.39.13.34-.09-.14-.62-.27-1.24-.27-1.88,0-.56.13-1.18.53-1.59.53-.55,1.7-.87,2.18-.07.12.19.42.02.3-.18-.43-.72-1.34-.77-2.05-.46-.37.16-.71.43-.92.77-.29.46-.39,1.03-.39,1.57,0,.66.14,1.31.28,1.94l.34-.09c-.29-1.06-.57-2.12-.86-3.18-.06-.22-.4-.13-.34.09h0Z"/><path class="cls-1" d="M38.57,46.75c-.06,1.5-.12,3.01-.19,4.51,0,.12.16.23.26.15,1.37-1.05,2.73-2.13,4.06-3.23.17-.14-.07-.39-.25-.25-1.31,1.08-2.64,2.14-3.99,3.17l.26.15c.06-1.5.12-3.01.19-4.51,0-.23-.34-.22-.35,0h0Z"/><path class="cls-1" d="M40.87,49.58c.11,1.31,1.23,2.42,2.55,2.5.22.01.22-.34,0-.35-1.12-.07-2.11-1.04-2.2-2.15-.02-.22-.37-.22-.35,0h0Z"/><path class="cls-1" d="M51.27,48.17c-1.61-.36-3.24,1.1-2.9,2.75.16.79.73,1.5,1.47,1.81s1.76.19,2.1-.66c.2-.5.18-1.08.21-1.61.04-.68.07-1.37.11-2.05.01-.23-.34-.22-.35,0-.05.95-.08,1.9-.16,2.84-.03.37-.09.81-.39,1.07s-.73.28-1.09.19c-1.4-.34-2.09-2.15-1.13-3.26.5-.58,1.29-.89,2.04-.73.22.05.31-.29.09-.34h0Z"/><path class="cls-1" d="M54.55,49.34c-.16,1.22-.32,2.44-.48,3.66-.02.17.26.24.33.09.56-1.32.48-3.66,2.2-4.1.9-.23,1.46.55,1.63,1.33.18.83.03,1.7.22,2.53.04.16.31.17.34,0,.13-.77.26-1.6.7-2.27.39-.61,1.14-1.12,1.89-.96s1.21,1.01,1.46,1.68c.29.79.36,1.64.23,2.47-.04.22.3.32.34.09.15-.97.06-1.96-.32-2.87-.3-.73-.79-1.53-1.62-1.72-.74-.17-1.52.21-2.01.75-.67.74-.85,1.77-1.01,2.72h.34c-.23-1,.03-2.06-.37-3.03-.28-.67-.86-1.19-1.62-1.13s-1.39.64-1.74,1.26c-.53.94-.54,2.07-.95,3.05l.33.09c.16-1.22.32-2.44.48-3.66.03-.22-.32-.22-.35,0h0Z"/><path class="cls-1" d="M67.64,47.53l.29-.63-.33-.09c-.14,1.83-.07,3.66.19,5.47.03.19.36.15.34-.05-.07-.78-.13-1.63.17-2.37s1.05-1.18,1.86-1.08c1.95.24,2.4,2.42,2.07,4.04-.05.22.29.31.34.09.3-1.44.1-3.24-1.26-4.09-1.18-.74-2.77-.45-3.33.91-.32.78-.27,1.68-.2,2.5l.34-.05c-.26-1.78-.32-3.59-.18-5.38.01-.17-.25-.24-.33-.09l-.29.63c-.09.2.21.38.3.18h0Z"/><path class="cls-1" d="M74.55,50.7c.65.18,1.32.26,1.99.24.15,0,.3-.02.45-.03.12-.01.3,0,.41-.06.18-.07.27-.36.3-.53.06-.41-.14-.83-.43-1.1-.34-.31-.78-.41-1.22-.29-1.01.26-1.55,1.37-1.5,2.34s.58,1.89,1.45,2.33c1.02.52,2.31.34,3.16-.43.17-.15-.08-.4-.25-.25-.61.56-1.51.76-2.3.54s-1.38-.86-1.61-1.64-.07-1.66.55-2.22c.29-.26.71-.45,1.1-.35.33.09.6.39.69.72.04.14.07.43-.06.54-.07.06-.3.05-.4.06-.14.01-.27.02-.41.02-.61.01-1.22-.07-1.81-.23-.22-.06-.31.28-.09.34h0Z"/><path class="cls-1" d="M80.87,47.68l.75,6.17c.03.22.38.22.35,0l-.75-6.17c-.03-.22-.38-.22-.35,0h0Z"/><path class="cls-1" d="M80.27,50.48c1.56-.12,3.13-.07,4.68.15.22.03.32-.3.09-.34-1.58-.23-3.18-.29-4.78-.17-.22.02-.22.37,0,.35h0Z"/><path class="cls-1" d="M91.38,48.58c-.33,2.05-.48,4.12-.42,6.2,0,.22.36.23.35,0-.05-2.04.08-4.09.41-6.1.04-.22-.3-.32-.34-.09h0Z"/><path class="cls-1" d="M91.75,52.37c.93-.7,2.29-.61,3.19.1.51.41.89,1.06.84,1.73-.06.73-.73,1.16-1.41,1.19-.89.04-1.66-.55-2.28-1.12-.17-.15-.41.09-.25.25.64.59,1.4,1.17,2.3,1.22.72.05,1.53-.29,1.85-.97.35-.75.03-1.66-.49-2.25-.45-.51-1.1-.83-1.77-.94-.75-.12-1.54.02-2.15.49-.18.13,0,.44.18.3h0Z"/><path class="cls-1" d="M97.74,53.65c.54.24,1.13.48,1.73.41.44-.06.84-.32,1.04-.72.19-.38.17-.83-.15-1.13-.36-.33-.92-.36-1.37-.26-.92.22-1.63,1.09-1.72,2.03s.49,1.93,1.29,2.44c1.06.69,2.47.55,3.53-.06.2-.11.02-.41-.18-.3-.78.45-1.72.61-2.59.34-.78-.25-1.41-.89-1.63-1.68s.06-1.58.69-2.08c.29-.23.66-.38,1.03-.39s.89.15.88.61c0,.38-.35.74-.7.83-.56.15-1.16-.11-1.67-.33-.2-.09-.38.21-.18.3h0Z"/><path class="cls-1" d="M107,52.02c-.62-.23-1.28-.32-1.94-.27-.6.05-1.3.19-1.8.53s-.43.89-.04,1.28c.24.24.54.4.81.58.32.21.65.42.97.63.73.48,1.47.95,2.2,1.43v-.3c-.6.29-1.24.61-1.91.63-.56.01-1.15-.18-1.46-.67-.12-.19-.42-.01-.3.18.36.55.99.82,1.63.84.79.02,1.53-.34,2.22-.67.12-.06.1-.24,0-.3-.7-.45-1.39-.9-2.09-1.35-.35-.23-.7-.45-1.05-.68-.3-.19-.65-.37-.87-.65-.55-.7.9-1,1.35-1.07.73-.12,1.48-.04,2.18.22.21.08.3-.26.09-.34h0Z"/><path class="cls-1" d="M109.33,50.11c.35,1.96.7,3.93,1.04,5.89.04.22.38.13.34-.09-.35-1.96-.7-3.93-1.04-5.89-.04-.22-.38-.13-.34.09h0Z"/><path class="cls-1" d="M109.09,52.35h3.31c.23,0,.23-.35,0-.35h-3.31c-.23,0-.23.35,0,.35h0Z"/><path class="cls-1" d="M113.87,54.27c.63-.25,1.26.02,1.9.05.44.02.94-.09,1.26-.4s.38-.81.13-1.19c-.27-.4-.77-.61-1.24-.63-1.05-.03-2.06.74-2.29,1.76s.26,2.15,1.22,2.65c1.07.55,2.38.38,3.51.16.22-.04.13-.38-.09-.34-.87.16-1.8.3-2.68.08s-1.6-.9-1.67-1.85.55-1.79,1.46-2.04c.42-.12.88-.09,1.25.17.33.23.48.67.15.98s-.88.33-1.31.27c-.57-.08-1.14-.22-1.7,0-.21.08-.12.42.09.34h0Z"/><path class="cls-1" d="M125.86,50.05c.07,1.46.15,2.91.22,4.37h.35c-.09-1.44-.17-3.27,1.27-4.1.55-.32,1.23-.37,1.75.03.49.38.69,1.01.81,1.59.17.86.18,1.76.24,2.63.02.22.37.23.35,0-.06-.87-.08-1.76-.24-2.63-.12-.65-.34-1.35-.86-1.79-1.22-1.04-2.89-.04-3.41,1.24-.39.96-.33,2.02-.27,3.03.01.22.36.23.35,0-.07-1.46-.15-2.91-.22-4.37-.01-.22-.36-.23-.35,0h0Z"/><path class="cls-1" d="M136.55,51.58c-.86-.62-2.04-.76-3-.28-.88.44-1.4,1.44-1.32,2.41s.73,1.7,1.65,1.91,1.9-.18,2.34-1.06c.53-1.07.3-2.38.93-3.41l-.33-.09c.21,1.77.84,3.45,1.84,4.93.13.19.43.01.3-.18-.96-1.42-1.59-3.05-1.79-4.75-.02-.16-.23-.25-.33-.09-.46.75-.49,1.63-.65,2.47s-.54,1.71-1.48,1.87c-.83.14-1.73-.3-2.03-1.1s-.02-1.8.64-2.35c.86-.73,2.17-.62,3.04.02.18.13.36-.17.18-.3h0Z"/><path class="cls-1" d="M143.74,52.02c-.62-.62-1.65-.64-2.37-.16-.8.54-1.19,1.55-1.19,2.49,0,.88.45,1.76,1.38,1.93.81.15,1.7-.23,2.21-.86.72-.89.86-2.07.98-3.17h-.35c.01,1.38.26,2.75.74,4.04.08.21.42.12.34-.09-.47-1.27-.72-2.6-.73-3.95,0-.23-.33-.22-.35,0-.16,1.45-.48,3.47-2.26,3.7-.79.1-1.41-.37-1.57-1.15s.08-1.72.61-2.32c.57-.64,1.64-.86,2.3-.21.16.16.41-.09.25-.25h0Z"/><path class="cls-1" d="M147.46,53.13c-.12,1.17.2,2.36.88,3.32.13.18.42.02.3-.18-.63-1.01-.55-2.41.26-3.3s2.14-1.13,3.2-.64c.2.09.38-.21.18-.3-1.2-.56-2.72-.3-3.62.69s-1.03,2.58-.32,3.73l.3-.18c-.65-.91-.95-2.02-.84-3.14.02-.22-.33-.22-.35,0h0Z"/><path class="cls-1" d="M43.98,58.32c-.18,2.04-.37,4.09-.55,6.13-.02.22.33.22.35,0,.18-2.04.37-4.09.55-6.13.02-.22-.33-.22-.35,0h0Z"/><path class="cls-1" d="M44.02,61.88c1.14-.49,2.72-1.08,3.72,0,.41.45.43,1.07.11,1.57-.34.53-.94.84-1.56.85-.8.01-1.55-.38-2.18-.86-.18-.14-.35.17-.18.3.65.49,1.42.88,2.25.9.73.02,1.42-.29,1.87-.87.41-.53.51-1.24.17-1.84s-.96-.91-1.59-1c-.97-.14-1.91.26-2.78.63-.21.09-.03.39.18.3h0Z"/><path class="cls-1" d="M52.28,61.19c-.86-.35-1.82.09-2.35.79s-.57,1.66,0,2.37c.51.63,1.4.93,2.19.82.86-.12,1.52-.75,1.75-1.58.26-.95-.03-2.07-.81-2.69-.17-.14-.42.11-.25.25,1.14.91,1.11,3.16-.46,3.62-.64.19-1.39.03-1.9-.39-.58-.48-.76-1.25-.4-1.93.4-.75,1.31-1.27,2.14-.92.21.09.3-.25.09-.34h0Z"/><path class="cls-1" d="M55.34,60.72c.3,1.54.97,2.98,1.94,4.21.07.09.22.05.27-.04.83-1.36,1.67-2.71,2.53-4.06.12-.19-.18-.37-.3-.18-.86,1.34-1.7,2.69-2.53,4.06l.27-.04c-.93-1.19-1.56-2.58-1.85-4.06-.04-.22-.38-.13-.34.09h0Z"/><path class="cls-1" d="M61.8,63.89c.58.12,1.19.11,1.76-.04.46-.12,1-.3,1.21-.76.17-.38.13-.84-.07-1.2-.23-.41-.67-.63-1.13-.65-1.13-.04-1.88.95-2.1,1.96s-.17,2.27.78,2.85,2.3.07,3.24-.4c.2-.1.02-.4-.18-.3-.71.36-1.59.74-2.4.58-.95-.18-1.22-1.13-1.18-1.98s.35-1.89,1.23-2.24c.38-.15.86-.17,1.2.09.26.2.39.57.36.9-.06.5-.53.67-.96.79-.55.16-1.12.18-1.68.07-.22-.05-.31.29-.09.34h0Z"/><path class="cls-1" d="M67.94,63.71c-.37.83-.45,1.73-.24,2.61.03.14.26.18.32.04.3-.65.34-1.35.46-2.04.1-.59.3-1.22.78-1.61s1.14-.27,1.59.13c.49.44.77,1.06.96,1.68.25.82.33,1.67.25,2.52-.02.22.33.22.35,0,.08-.82.01-1.65-.21-2.45-.19-.69-.49-1.39-1-1.91-.45-.45-1.09-.73-1.71-.5-.59.21-.96.77-1.17,1.33-.32.86-.21,1.82-.6,2.66l.32.04c-.19-.78-.12-1.61.21-2.35.09-.2-.21-.38-.3-.18h0Z"/><path class="cls-1" d="M81.58,61.4c-.2,1.96-.4,3.93-.6,5.89-.02.22.33.22.35,0,.2-1.96.4-3.93.6-5.89.02-.22-.33-.22-.35,0h0Z"/><path class="cls-1" d="M79.55,64.21l4.27.56c.22.03.22-.32,0-.35l-4.27-.56c-.22-.03-.22.32,0,.35h0Z"/><path class="cls-1" d="M85.24,66.67c.62.25,1.29.5,1.96.36.48-.1.93-.45,1.1-.91.4-1.04-.83-1.74-1.72-1.64s-1.67.7-1.92,1.53c-.29.98.35,1.95,1.15,2.45,1.28.81,2.86.51,4.26.21.22-.05.13-.38-.09-.34-1.06.23-2.21.47-3.28.15-.79-.24-1.57-.86-1.73-1.71-.14-.76.35-1.44,1.02-1.76.32-.15.68-.23,1.04-.18.4.06.86.32.98.73.15.52-.36.99-.82,1.11-.62.16-1.28-.12-1.85-.35-.21-.08-.3.25-.09.34h0Z"/><path class="cls-1" d="M97.44,61.84c-.45,2.16-.66,4.37-.6,6.58,0,.23.33.22.35,0,.1-.89.34-1.76.74-2.56.19-.38.43-.96.9-1.06s.9.21,1.22.49c1.18,1,1.76,2.58,1.57,4.11-.03.22.32.22.35,0,.21-1.75-.59-3.83-2.18-4.72-.35-.19-.77-.32-1.16-.18-.41.14-.65.54-.85.9-.52.94-.83,1.96-.94,3.03h.35c-.05-2.18.14-4.35.59-6.48.05-.22-.29-.31-.34-.09h0Z"/><path class="cls-1" d="M107.4,66.13c-.65-.67-1.68-.91-2.56-.59s-1.45,1.16-1.5,2.09c-.12,2,2.31,3.18,3.85,1.92.89-.73,1.18-1.95,1.39-3.04l-.34-.05c.13,1.65.87,3.2,2.09,4.33.17.15.41-.09.25-.25-1.15-1.06-1.86-2.52-1.99-4.08-.01-.18-.3-.25-.34-.05-.28,1.48-.94,3.6-2.87,3.28-.82-.14-1.49-.72-1.65-1.55s.19-1.7.9-2.13c.81-.48,1.9-.31,2.54.35.16.16.4-.09.25-.25h0Z"/><path class="cls-1" d="M112.47,64.22c0,1.45-.02,2.89-.02,4.34,0,.82-.12,2.08.8,2.49.2.09.38-.21.18-.3-.43-.19-.55-.63-.6-1.07-.06-.54-.02-1.11-.02-1.65,0-1.27.01-2.53.02-3.8,0-.23-.35-.23-.35,0h0Z"/><path class="cls-1" d="M114.98,68.56c1.49.51,3.23-.19,3.96-1.58.04-.08.03-.2-.06-.24-1.18-.54-2.91-.27-3.38,1.1-.51,1.48.86,2.88,2.19,3.24,1.03.28,2.13.16,3.17.03.22-.03.22-.38,0-.35-1.73.21-4.1.39-4.94-1.54-.33-.75-.16-1.63.56-2.08.65-.41,1.52-.41,2.21-.09l-.06-.24c-.66,1.26-2.22,1.88-3.56,1.42-.21-.07-.31.27-.09.34h0Z"/><path class="cls-1" d="M122.05,67.07c-.06,1.43.09,2.86.45,4.24.05.19.37.15.34-.05-.13-1.05-.28-2.23.23-3.22.43-.83,1.29-1.43,2.24-1.12,1.01.33,1.54,1.34,1.78,2.3.27,1.08.36,2.21.52,3.31.03.22.37.13.34-.09-.14-1.02-.24-2.06-.46-3.06-.18-.84-.51-1.69-1.18-2.27-.57-.49-1.33-.76-2.07-.54s-1.26.82-1.55,1.49c-.44,1.01-.31,2.15-.19,3.21l.34-.05c-.35-1.36-.5-2.75-.44-4.15,0-.23-.34-.22-.35,0h0Z"/></g></svg>