<?xml version="1.0" encoding="UTF-8"?><svg id="Layer_2" xmlns="http://www.w3.org/2000/svg" viewBox="0 0 124 63.91"><defs><style>.cls-1{fill:#1d1d1b;stroke-width:0px;}</style></defs><g id="Layer_1-2"><path class="cls-1" d="M19.38,20.44c.51,2.16,1.22,4.82.16,6.93-.47.93-1.35,1.55-2.41,1.25-.55-.16-1.04-.49-1.48-.84-.21-.17-.43-.34-.62-.53-.21-.21-.57-.82-.03-.91.22-.04.13-.38-.09-.34-.47.08-.64.61-.48,1.01.22.55.89.97,1.35,1.3.98.7,2.24,1.09,3.27.26.97-.78,1.27-2.13,1.34-3.31.1-1.66-.29-3.31-.67-4.91-.05-.22-.39-.13-.34.09h0Z"/><path class="cls-1" d="M22.58,20.74c.68,1.12-.38,2.94.99,3.73.51.29,1.15.24,1.68.02.62-.26,1.04-.76,1.29-1.38.33-.85.3-1.79.26-2.69,0-.22-.36-.23-.35,0,.05,1.26.11,2.99-1.18,3.67-.45.24-1.06.34-1.52.07-.55-.31-.61-.98-.6-1.55.01-.69.11-1.43-.27-2.05-.12-.19-.42-.02-.3.18h0Z"/><path class="cls-1" d="M27.91,17.2c.39,1.98.65,3.97.77,5.98.01.22.36.23.35,0-.13-2.04-.39-4.07-.79-6.08-.04-.22-.38-.13-.34.09h0Z"/><path class="cls-1" d="M30.72,21.21c.44.82.6,1.75.49,2.67-.01.09.09.17.18.18.1,0,.16-.08.18-.18.12-.98-.07-1.98-.53-2.85-.11-.2-.41-.02-.3.18h0Z"/><path class="cls-1" d="M31.51,19.13l.23-.23s.05-.08.05-.12c0-.02,0-.05-.02-.07,0-.02-.02-.04-.04-.06-.03-.03-.08-.05-.12-.05s-.09.02-.12.05l-.23.23s-.05.08-.05.12c0,.02,0,.05.02.07,0,.02.02.04.04.06.03.03.08.05.12.05s.09-.02.12-.05h0Z"/><path class="cls-1" d="M36.18,21c-.41-.58-1.16-.64-1.78-.38-.72.29-1.2.96-1.33,1.72-.14.82.2,1.67.95,2.07s1.56.13,2.09-.46c.73-.83.73-1.98.69-3.02,0-.21-.27-.22-.34-.05-.51,1.22.09,2.75,1.29,3.3.2.09.38-.21.18-.3-1.07-.49-1.58-1.82-1.12-2.91l-.34-.05c.03.78.07,1.63-.3,2.35-.3.57-.89,1.08-1.58.97s-1.15-.76-1.19-1.42.28-1.36.84-1.71c.48-.31,1.26-.46,1.65.08.13.18.43,0,.3-.18h0Z"/><path class="cls-1" d="M46.77,20c-.71-.29-1.53-.24-2.22.1-.57.28-1.37,1-.88,1.68.37.52,1.14.53,1.71.57.33.03.69.15.93.38.29.27.14.55-.16.73-.86.52-1.93.63-2.89.35-.22-.06-.31.28-.09.34.82.24,1.72.21,2.52-.09.35-.13.8-.31,1.02-.63.17-.25.15-.56-.02-.81-.19-.26-.49-.42-.79-.53-.32-.11-.65-.09-.98-.13-.29-.04-.64-.1-.87-.31-.31-.28-.1-.66.15-.9.66-.62,1.66-.77,2.49-.43.21.09.3-.25.09-.34h0Z"/><path class="cls-1" d="M49.04,17.9c.34,1.93.69,3.86,1.03,5.79.04.22.38.13.34-.09-.34-1.93-.69-3.86-1.03-5.79-.04-.22-.38-.13-.34.09h0Z"/><path class="cls-1" d="M48.12,21.5h3.25c.23,0,.23-.35,0-.35h-3.25c-.23,0-.23.35,0,.35h0Z"/><path class="cls-1" d="M56.02,21.07c-.14-.78-.99-1.17-1.72-1.08-.88.11-1.42.92-1.54,1.74s.07,2.12,1.13,2.19c.84.05,1.63-.46,2.11-1.11.55-.76.73-1.76.36-2.64-.08-.18-.31-.06-.33.09-.15,1.19.13,2.4.79,3.4.12.19.43.01.3-.18-.63-.95-.88-2.09-.74-3.23l-.33.09c.52,1.24-.33,2.83-1.61,3.16-.4.1-.87.12-1.12-.26-.21-.32-.26-.76-.25-1.13.01-.67.31-1.48,1-1.72.62-.21,1.48.06,1.6.77.04.22.38.13.34-.09h0Z"/><path class="cls-1" d="M60.96,20.62c-.88-1.16-3.04-.69-3.23.81-.1.78.38,1.57,1.05,1.94s1.54.25,2.11-.31c.61-.6.84-1.55.48-2.34-.08-.18-.38-.05-.32.13.3.95.69,1.87,1.16,2.75.11.2.41.02.3-.18-.45-.85-.83-1.74-1.12-2.67l-.32.13c.52,1.15-.63,2.74-1.91,2.26-.59-.22-1.06-.81-1.1-1.44s.34-1.1.89-1.3,1.31-.14,1.7.37c.13.18.44,0,.3-.18h0Z"/><path class="cls-1" d="M63.74,17.84c.22,1.85.36,3.71.41,5.57,0,.22.36.23.35,0-.05-1.86-.18-3.72-.41-5.57-.03-.22-.38-.22-.35,0h0Z"/><path class="cls-1" d="M62.82,21.04c.67-.11,1.37-.04,2.01.19.21.08.3-.26.09-.34-.7-.25-1.46-.31-2.19-.19-.09.02-.15.13-.12.22.03.1.12.14.22.12h0Z"/><path class="cls-1" d="M72.6,20.75c-.72-.39-1.6-.21-2.21.3s-.88,1.37-.53,2.12c.33.71,1.13,1.2,1.9,1.2s1.43-.55,1.66-1.3c.24-.81,0-1.76-.71-2.25-.19-.13-.36.18-.18.3,1.04.71.75,2.65-.54,2.88-.64.11-1.34-.24-1.7-.76-.38-.56-.32-1.27.15-1.76.49-.52,1.32-.78,1.98-.42.2.11.37-.19.18-.3h0Z"/><path class="cls-1" d="M74.02,21.36c.31,1.49.5,2.99.58,4.51.01.22.35.23.35,0,.03-1.73.07-3.46.1-5.18,0-.17-.02-.43.11-.56.15-.15.42-.08.6-.04.33.08.66.2.96.37.61.33,1.11.82,1.46,1.42v-.18c-.75,1.13-2.49,1.42-3.55.57-.17-.14-.42.11-.25.25,1.25,1,3.22.7,4.1-.64.03-.05.03-.13,0-.18-.4-.67-.98-1.22-1.67-1.58-.49-.25-1.53-.74-1.96-.16-.22.29-.16.76-.17,1.1-.01.55-.02,1.1-.03,1.65-.02,1.06-.04,2.12-.06,3.18h.35c-.08-1.55-.28-3.09-.59-4.6-.05-.22-.38-.13-.34.09h0Z"/><path class="cls-1" d="M78.85,22.2c.67-.16,1.35.04,2.03.05.5,0,.99-.16,1.36-.49.32-.3.5-.74.33-1.17-.15-.37-.5-.56-.88-.6-.93-.09-1.66.64-1.84,1.51s.16,1.9.96,2.38c.91.55,2.2.35,2.89-.46.14-.17-.1-.42-.25-.25-.51.6-1.36.81-2.11.57s-1.2-1-1.19-1.79c.01-.74.43-1.48,1.21-1.6.3-.05.67,0,.84.28.21.35,0,.72-.29.94-.42.32-.91.35-1.42.3-.58-.05-1.15-.16-1.73-.01-.22.05-.13.39.09.34h0Z"/><path class="cls-1" d="M84.44,21.09v2.48c.12-.02.23-.03.35-.05-.22-.97.25-2.18,1.25-2.5.89-.29,2.07.29,2.16,1.28.06.66-.23,1.36.17,1.95.12.19.43.01.3-.18-.39-.58-.02-1.36-.16-2-.11-.53-.5-.96-.96-1.21s-1.04-.34-1.56-.19-.99.56-1.26,1.04c-.33.58-.43,1.26-.28,1.91.04.19.34.15.34-.05v-2.48c0-.23-.36-.23-.36,0h0Z"/><path class="cls-1" d="M93.74,19.71c.07,1.2.51,2.34,1.24,3.28.07.09.22.05.27-.04.69-1.06,1.38-2.11,2.06-3.17.12-.19-.18-.36-.3-.18-.69,1.06-1.38,2.11-2.06,3.17l.27-.04c-.68-.87-1.07-1.94-1.14-3.04-.01-.22-.36-.23-.35,0h0Z"/><path class="cls-1" d="M99.28,20.16c-.78,0-1.55.38-2.02,1s-.56,1.43-.16,2.1c.37.6,1.07,1.04,1.79.94s1.18-.67,1.36-1.32c.22-.79.11-1.67-.06-2.46-.05-.22-.38-.13-.34.09.21,1,.44,2.68-.69,3.24-.56.28-1.21,0-1.6-.44-.44-.5-.49-1.18-.16-1.75.38-.65,1.12-1.05,1.87-1.05.23,0,.23-.35,0-.35h0Z"/><path class="cls-1" d="M104.13,19.65c-.78.08-1.53.46-2.03,1.08-.45.57-.65,1.35-.32,2.03.28.59.9,1.03,1.54,1.1.74.09,1.35-.41,1.54-1.11.29-1.05-.32-2.02-.9-2.84-.13-.18-.43,0-.3.18.45.63.94,1.33.92,2.15-.01.61-.38,1.27-1.05,1.29-.53.02-1.06-.3-1.34-.74-.35-.53-.27-1.17.07-1.68.41-.62,1.14-1.02,1.87-1.1.22-.02.22-.37,0-.35h0Z"/><path class="cls-1" d="M106.09,21.83l.27,1.96.34-.09c-.14-.92-.33-2.04.22-2.88.39-.61,1.26-1.04,1.93-.61.19.12.36-.18.18-.3-.79-.51-1.8-.07-2.33.62-.7.92-.5,2.21-.34,3.27.03.22.37.13.34-.09l-.27-1.96c-.03-.22-.37-.13-.34.09h0Z"/><path class="cls-1" d="M23.37,35.71c.88-.42,1.74-.94,2.32-1.74.53-.74.76-1.78.39-2.64-.29-.69-1.1-1.22-1.67-.49-.24.31-.35.7-.41,1.08-.09.57-.16,1.15-.21,1.73-.12,1.43-.09,2.87.05,4.29l.33-.09c-.55-.97.55-1.98,1.48-1.38.19.12.37-.18.18-.3-.55-.35-1.31-.31-1.77.17-.44.45-.49,1.16-.19,1.69.08.14.34.09.33-.09-.13-1.22-.16-2.44-.1-3.66.03-.64.09-1.28.18-1.92.06-.45.12-1.02.46-1.37.54-.54,1.03.37,1.13.82.11.54,0,1.11-.24,1.6-.49.97-1.48,1.55-2.43,2-.2.1-.03.4.18.3h0Z"/><path class="cls-1" d="M27.01,34.85c.48.17,1,.33,1.51.22.37-.08.68-.35.82-.71.12-.32.08-.68-.18-.92-.31-.28-.79-.31-1.17-.2-.76.21-1.35.96-1.32,1.75s.62,1.58,1.38,1.88c.93.37,1.99.04,2.71-.6.17-.15-.08-.4-.25-.25-.51.45-1.21.72-1.9.63-.65-.08-1.23-.52-1.48-1.13s-.07-1.28.45-1.69c.25-.19.55-.31.87-.3.3.02.64.17.61.51-.03.31-.27.58-.56.66-.46.13-.96-.05-1.39-.2-.21-.07-.3.26-.09.34h0Z"/><path class="cls-1" d="M31.15,34.99l2.34-.02c.07,0,.15-.05.17-.13.24-1.18-1.39-1.92-2.25-1.2-.45.39-.59,1.02-.49,1.59.1.62.51,1.14,1.08,1.42.71.34,1.55.32,2.27.05.21-.08.12-.42-.09-.34-.98.37-2.41.24-2.83-.88-.16-.43-.16-.94.1-1.34s.68-.52,1.11-.39.86.52.76,1l.17-.13-2.34.02c-.23,0-.23.35,0,.35h0Z"/><path class="cls-1" d="M37.86,34.52l-.07-.33c-.02-.1-.02-.23-.09-.31-.09-.1-.23-.17-.35-.22-.25-.11-.53-.15-.81-.12-.55.06-1.07.35-1.41.79s-.4,1.04-.15,1.54c.23.47.72.79,1.21.92.58.15,1.23.04,1.65-.41.15-.16-.09-.41-.25-.25-.59.63-1.73.4-2.21-.26-.25-.35-.29-.8-.08-1.18s.62-.67,1.05-.78c.23-.06.47-.06.7,0,.12.03.23.08.33.15.05.04.04.09.06.18l.07.36c.04.22.38.13.34-.09h0Z"/><path class="cls-1" d="M38.07,34.67l.23-.46s.03-.09.02-.13c-.01-.04-.04-.08-.08-.1-.08-.04-.2-.02-.24.06l-.23.46s-.03.09-.02.13c.01.04.04.08.08.1.08.04.2.02.24-.06h0Z"/><path class="cls-1" d="M37.78,33.72c.48-1.04.43-2.25-.14-3.25-.08-.13-.28-.1-.32.04-.55,1.98-.09,4.16,1.22,5.75.14.17.39-.07.25-.25-1.22-1.49-1.65-3.55-1.13-5.41l-.32.04c.51.88.56,1.97.14,2.89-.09.2.21.38.3.18h0Z"/><path class="cls-1" d="M39.57,31.55c.03,1.69.29,3.37.76,5l.32-.13c-.47-.83.24-1.72,1.04-1.93.73-.2,1.88-.07,2.3.66s-.36,1.19-.96,1.32c-.84.18-1.74.03-2.59-.03-.22-.01-.22.34,0,.35.86.06,1.76.2,2.62.03.57-.11,1.21-.4,1.36-1.02.17-.73-.4-1.29-1.02-1.55-.75-.31-1.74-.28-2.43.18s-1.04,1.41-.61,2.17c.1.17.38.06.32-.13-.46-1.6-.72-3.24-.75-4.91,0-.22-.35-.23-.35,0h0Z"/><path class="cls-1" d="M48.77,34.73c-.79-1.06-2.75-.98-3.26.33-.54,1.4,1.26,2.94,2.51,2.04.75-.54.96-1.55,1.09-2.41h-.34c.23,1.07.77,2.04,1.55,2.8.16.16.41-.09.25-.25-.74-.72-1.24-1.64-1.46-2.65-.04-.16-.31-.17-.34,0-.1.63-.21,1.31-.59,1.84s-.99.75-1.57.44c-.51-.27-.92-.85-.85-1.44.07-.56.55-.93,1.07-1.05.58-.13,1.26.03,1.63.52.13.18.44,0,.3-.18h0Z"/><path class="cls-1" d="M53.31,34.73c-.81-.71-2.18-.33-2.56.66-.2.51-.11,1.11.16,1.58.29.5.79.83,1.36.91.67.09,1.35-.13,1.84-.59.17-.15-.08-.4-.25-.25-.7.65-1.93.72-2.54-.08-.53-.7-.42-1.79.46-2.14.42-.17.93-.14,1.28.16.17.15.42-.1.25-.25h0Z"/><path class="cls-1" d="M54.65,33.41c.01,1.38.22,2.76.61,4.08.03.1.16.17.26.1,1.2-.8,2.3-1.74,3.28-2.79.08-.09.06-.27-.08-.29-.26-.05-.52-.1-.78-.16-.22-.04-.31.29-.09.34.26.05.52.1.78.16l-.08-.29c-.97,1.03-2.04,1.95-3.21,2.74l.26.1c-.38-1.3-.58-2.64-.59-3.99,0-.23-.35-.23-.35,0h0Z"/><path class="cls-1" d="M56.98,35.27c.05,1.21,1.41,2.16,2.57,1.75.21-.07.12-.41-.09-.34-.93.33-2.08-.42-2.12-1.42,0-.22-.36-.23-.35,0h0Z"/><path class="cls-1" d="M63.65,36.35c.81.16,2.12.05,2.5-.84.16-.39-.05-.77-.45-.87-.38-.09-.82-.04-1.2.03-.69.11-1.51.41-1.83,1.09-.36.76.05,1.57.72,1.99,1.05.65,2.3.18,3.33-.25.2-.09.11-.42-.09-.34-.78.32-1.68.72-2.53.51-.62-.15-1.27-.69-1.21-1.39.05-.6.59-.95,1.11-1.13.3-.1.61-.16.92-.18.25-.02.77-.1.92.15.21.35-.41.71-.66.79-.46.16-.95.2-1.42.1-.22-.04-.31.29-.09.34h0Z"/><path class="cls-1" d="M67.69,35.15c.52.72.85,1.54.98,2.42.03.19.37.15.34-.05-.15-1.2.55-2.92,2.03-2.63.54.11,1.1.5,1.17,1.08s-.37,1.31.17,1.77c.17.14.42-.1.25-.25-.25-.21-.17-.57-.13-.85.04-.26.09-.53.04-.79-.09-.48-.45-.87-.87-1.09-1.01-.53-2.13-.09-2.67.88-.31.57-.42,1.25-.34,1.89l.34-.05c-.13-.91-.48-1.76-1.02-2.51-.13-.18-.43,0-.3.18h0Z"/><path class="cls-1" d="M79.53,35.36c-.56-.9-2.13-.76-2.41.3-.31,1.13.99,2.22,2.02,1.58.56-.35.87-1.05.69-1.69l-.34.09c.44,1.4.6,3.09-.44,4.28-.41.47-1.04.86-1.69.81-.29-.02-.64-.16-.71-.47-.06-.24.05-.59.33-.61.22-.02.23-.37,0-.35-.5.04-.78.56-.68,1.02.13.6.82.8,1.36.75,1.38-.15,2.3-1.5,2.48-2.78.13-.92-.04-1.85-.32-2.73-.07-.21-.4-.13-.34.09.15.53-.15,1.13-.64,1.36-.53.25-1.1-.07-1.32-.58-.21-.48-.06-1.02.44-1.23.44-.18,1-.08,1.26.34.12.19.42.02.3-.18h0Z"/><path class="cls-1" d="M84.1,35.41c-.64-1.16-2.66-.88-2.95.42-.16.72.23,1.46.82,1.87.62.43,1.42.38,2-.09.65-.51.96-1.42.71-2.21-.07-.21-.39-.13-.34.09.21.92.49,1.82.82,2.71.08.21.42.12.34-.09-.33-.88-.61-1.79-.82-2.71l-.34.09c.36,1.12-.76,2.61-1.98,2.04-.52-.25-.92-.81-.91-1.4.02-.54.42-.92.92-1.05.53-.13,1.15.01,1.42.51.11.2.41.02.3-.18h0Z"/><path class="cls-1" d="M89.05,35.27c-.92-.86-2.66-.27-2.8,1-.08.7.35,1.4.95,1.74s1.32.28,1.87-.15c.61-.48.92-1.31.7-2.06-.05-.18-.35-.16-.34.05.03.9.41,1.76,1.06,2.39.16.16.41-.09.25-.25-.58-.56-.93-1.33-.96-2.14l-.34.05c.31,1.05-.72,2.33-1.84,1.91-.52-.2-.93-.71-.98-1.27-.05-.52.26-.96.72-1.18s1.09-.22,1.49.15c.16.15.41-.09.25-.25h0Z"/><path class="cls-1" d="M91.82,32.72c.1,1.86.2,3.72.29,5.58.01.22.36.23.35,0-.1-1.86-.2-3.72-.29-5.58-.01-.22-.36-.23-.35,0h0Z"/><path class="cls-1" d="M90.89,35.45h3.02c.23,0,.23-.35,0-.35h-3.02c-.23,0-.23.35,0,.35h0Z"/><path class="cls-1" d="M97.98,32.25c-.1,2.13-.2,4.25-.29,6.38h.35c.01-.79.12-2.06.96-2.43.55-.24,1.15.08,1.46.55.37.57.34,1.31.25,1.96-.03.22.31.32.34.09.11-.74.14-1.57-.28-2.23-.35-.54-.98-.92-1.63-.78-1.21.25-1.42,1.83-1.44,2.84,0,.23.34.22.35,0,.1-2.13.2-4.25.29-6.38.01-.23-.34-.22-.35,0h0Z"/><path class="cls-1" d="M102.06,36.11c.48.7.62,1.59.37,2.4-.07.22.27.31.34.09.27-.9.12-1.9-.41-2.67-.13-.18-.43-.01-.3.18h0Z"/><path class="cls-1" d="M103.21,34.29c.23,0,.23-.35,0-.35s-.23.35,0,.35h0Z"/><path class="cls-1" d="M103.74,36.65c.19.67,1.17.82,1.57.27.46-.62,0-1.53-.73-1.64-.8-.12-1.49.52-1.53,1.3-.04.72.42,1.45,1.04,1.79.98.54,2.18.24,3.13-.2.2-.09.03-.4-.18-.3-.67.31-1.45.54-2.19.4-.61-.12-1.11-.49-1.34-1.07-.2-.51-.13-1.14.38-1.44s1.23-.08,1.25.58c0,.29-.17.54-.46.57-.25.03-.53-.09-.6-.35-.06-.22-.4-.12-.34.09h0Z"/><path class="cls-1" d="M107.89,35.74c.04.79.23,1.56.56,2.27l.3-.18c-.7-1.16.32-2.9,1.67-2.85.23,0,.23-.34,0-.35-1.62-.05-2.81,2-1.97,3.38.12.2.4.02.3-.18-.31-.66-.48-1.37-.51-2.1-.01-.22-.36-.23-.35,0h0Z"/><path class="cls-1" d="M32.82,41.73c-.72-.41-1.65-.85-2.4-.24-.54.43-.57,1.24.05,1.6.5.29,1.12.23,1.65.45.28.12.51.34.5.66,0,.34-.24.67-.53.84-.45.27-1.04.2-1.53.1-.36-.07-1.04-.14-1.17-.57-.06-.22-.4-.12-.34.09.11.37.43.55.78.66.43.14.91.23,1.37.25.77.02,1.6-.35,1.75-1.18.13-.71-.44-1.13-1.06-1.28-.29-.07-.6-.1-.89-.18-.24-.06-.51-.17-.62-.41-.2-.44.28-.88.68-.96.55-.11,1.11.22,1.58.48.2.11.37-.19.18-.3h0Z"/><path class="cls-1" d="M35.29,44.26c.58.09,1.16.07,1.73-.09.46-.13,1.12-.36.93-.97-.25-.83-1.31-1.11-2.07-.95-.84.19-1.42.9-1.45,1.76s.47,1.74,1.27,2.09c.96.42,2.14.13,2.84-.63.15-.16-.09-.41-.25-.25-.51.55-1.31.83-2.05.68s-1.26-.69-1.42-1.41c-.15-.67.07-1.4.69-1.74.54-.3,1.29-.29,1.78.11.15.12.35.33.33.54-.02.25-.43.34-.62.4-.53.16-1.09.2-1.63.11-.22-.04-.32.3-.09.34h0Z"/><path class="cls-1" d="M39.33,43.93l.48,1.83c.06.22.37.12.34-.09-.1-.61-.23-1.3.03-1.88.2-.44.67-.86,1.19-.75.22.05.31-.29.09-.34-.64-.14-1.25.27-1.55.83-.36.69-.23,1.5-.1,2.23l.34-.09-.48-1.83c-.06-.22-.39-.13-.34.09h0Z"/><path class="cls-1" d="M42.42,43.87c.07.78.15,1.55.22,2.33.02.22.37.22.35,0-.07-.78-.15-1.55-.22-2.33-.02-.22-.37-.22-.35,0h0Z"/><path class="cls-1" d="M43.36,42.6l.23-.23s.05-.08.05-.12c0-.02,0-.05-.02-.07,0-.02-.02-.04-.04-.06-.03-.03-.08-.05-.12-.05s-.09.02-.12.05l-.23.23s-.05.08-.05.12c0,.02,0,.05.02.07,0,.02.02.04.04.06.03.03.08.05.12.05s.09-.02.12-.05h0Z"/><path class="cls-1" d="M45.46,45.35c.56.47,1.47.19,1.58-.56.1-.7-.53-1.23-1.2-1.04-.63.18-1.08.78-1.11,1.42-.03.73.38,1.46,1.02,1.82.74.41,1.7.27,2.32-.3.17-.15-.08-.4-.25-.25-.42.39-1.04.53-1.59.37s-.95-.61-1.09-1.15-.02-1.02.39-1.36c.32-.26.87-.39,1.1.05.12.25.08.59-.15.76s-.57.17-.78-.01c-.17-.14-.42.1-.25.25h0Z"/><path class="cls-1" d="M49.06,44.57c-.63.87-.11,2.2.81,2.62.47.22,1.03.18,1.46-.12.4-.29.67-.74.76-1.22.1-.56-.02-1.15-.44-1.55-.16-.15-.41.09-.25.25.61.57.43,1.61-.15,2.14-.3.27-.72.37-1.11.24s-.72-.48-.88-.86c-.19-.43-.19-.93.09-1.33.13-.18-.17-.36-.3-.18h0Z"/><path class="cls-1" d="M55.26,44.57c-1.02-.77-2.69.11-2.69,1.37,0,.07.05.16.13.17.83.14,1.62.4,2.36.79l-.06-.24c-.5.95-2.11.9-2.57-.07-.09-.2-.4-.03-.3.18.56,1.21,2.55,1.24,3.17.07.04-.08.02-.19-.06-.24-.77-.4-1.59-.68-2.45-.82l.13.17c0-1.02,1.36-1.67,2.16-1.06.18.14.35-.17.18-.3h0Z"/><path class="cls-1" d="M60.41,46.19l.12,1.66h.35c-.07-.56-.16-1.17.02-1.72.15-.46.54-.92,1.06-.93s.94.4,1.13.84c.24.53.22,1.14.19,1.71-.01.2.3.24.34.05.13-.57.26-1.24.71-1.65.39-.35,1.1-.5,1.43,0,.47.72-.04,1.76.69,2.38.17.14.42-.1.25-.25-.44-.37-.35-1.03-.41-1.54-.06-.48-.23-.98-.72-1.17s-1.11-.02-1.49.34c-.49.46-.66,1.17-.8,1.8l.34.05c.04-.68.04-1.42-.31-2.03-.28-.48-.79-.87-1.36-.87s-1.02.39-1.27.87c-.34.66-.26,1.42-.17,2.13.03.22.37.23.35,0l-.12-1.66c-.02-.22-.37-.23-.35,0h0Z"/><path class="cls-1" d="M68.34,47.31c.54-.03,1.06-.15,1.56-.36.41-.18.94-.43,1.04-.91.08-.42-.18-.82-.51-1.07-.34-.26-.78-.33-1.19-.27-.81.12-1.54.79-1.73,1.58s.19,1.52.86,1.93c.71.44,1.66.46,2.33-.07.18-.14-.07-.39-.25-.25-.92.74-2.61.04-2.64-1.17-.02-.68.49-1.31,1.1-1.57s1.47-.13,1.67.58c.13.47-.41.71-.76.87-.46.22-.97.33-1.48.36-.22.01-.23.36,0,.35h0Z"/><path class="cls-1" d="M71.89,47.32c.51-.21,1.05-.02,1.58.05.36.05.75.02,1.08-.14.3-.15.54-.45.54-.8,0-.32-.21-.6-.47-.77-.28-.19-.64-.27-.97-.21-.37.07-.68.33-.9.62-.25.33-.4.74-.52,1.13-.11.36-.26.85.03,1.17.16.17.38.23.6.26.3.04.61.07.91.08.62.02,1.24-.04,1.84-.15.22-.04.13-.38-.09-.34-.86.17-1.8.22-2.67.06-.16-.03-.34-.08-.39-.26s.01-.38.06-.55c.09-.32.18-.63.34-.92.28-.53.81-.97,1.43-.69.21.1.43.28.44.53.01.29-.24.49-.5.57-.81.25-1.64-.33-2.44.01-.2.09-.11.42.09.34h0Z"/><path class="cls-1" d="M83.11,46.19c-.85-.39-2.07-.65-2.82.1-.52.52-.71,1.51-.07,2.02.36.29.9.38,1.35.44.42.06.85.08,1.27.01.81-.14,1.5-.77,1.39-1.64-.06-.5-.36-.94-.83-1.14-.49-.21-1.05-.12-1.47.21-.18.14.07.38.25.25.3-.24.74-.28,1.09-.13s.55.46.61.81c.11.71-.45,1.17-1.09,1.29s-1.4,0-2.02-.21c-.32-.11-.56-.33-.6-.68-.03-.29.07-.6.24-.84.57-.8,1.77-.53,2.52-.19.2.09.38-.21.18-.3h0Z"/><path class="cls-1" d="M84.44,46.9l.14,1.53.34-.05c-.18-.8.33-1.77,1.18-1.9s1.66.83,1.35,1.64l.34.09c.2-.8.73-2.1,1.78-1.92.54.09.94.59,1.09,1.09.19.64.08,1.33-.02,1.98-.04.22.3.32.34.09.12-.75.26-1.56-.02-2.29-.21-.56-.67-1.08-1.27-1.2-1.28-.26-1.97,1.15-2.23,2.16-.06.22.26.3.34.09.38-1.02-.59-2.19-1.65-2.09s-1.78,1.32-1.55,2.35c.04.19.36.15.34-.05l-.14-1.53c-.02-.22-.37-.22-.35,0h0Z"/><path class="cls-1" d="M111.36,52.7c3.15,3.74,6.59,7.22,10.27,10.45l.12-.3c-4.1.29-8.29-.09-12.21-1.35-3.47-1.11-6.98-3.01-8.81-6.3-.04-.06-.12-.1-.2-.08-10.15,3.41-20.65,5.77-31.28,7.11-10.01,1.26-20.23,1.77-30.31.97C23.41,61.96-.27,55.93.35,36.11c.27-8.8,5.96-16.06,12.77-21.11,7.59-5.63,16.65-9.11,25.79-11.26C49.43,1.26,60.28.46,71.05.36s21.67-.04,31.98,2.86c4.46,1.26,8.86,3.12,12.58,5.93s6.41,6.85,7.29,11.67c.44,2.42.53,4.88.65,7.34.12,2.63.21,5.28-.06,7.91-.5,4.69-2.36,9.04-5.91,12.22-1.83,1.64-3.96,2.84-6.26,3.67-.21.07-.12.41.09.33,4.39-1.57,8.14-4.6,10.31-8.76,2.62-5.02,2.4-10.78,2.14-16.27-.24-5.07-.75-10.23-3.95-14.39-2.93-3.83-7.28-6.41-11.68-8.22C97.13.07,84.53-.02,72.73,0c-12.27.03-24.67.91-36.57,4.06-9.83,2.61-19.77,6.91-27.23,13.99C2.33,24.32-1.82,33.38.79,42.5c2.62,9.12,11.06,14.58,19.59,17.49,10,3.41,20.83,4.11,31.32,3.89,12.3-.26,24.58-1.85,36.53-4.8,2.99-.74,5.96-1.56,8.91-2.48.73-.23,1.46-.46,2.18-.7.11-.04.7-.31.87-.29.54.06.29.08.6.4.66.68,1.14,1.51,1.86,2.17,3.21,2.9,7.68,4.23,11.88,4.81,2.39.33,4.81.39,7.22.22.14,0,.24-.19.12-.3-3.67-3.23-7.11-6.71-10.27-10.45-.14-.17-.39.08-.24.24h0Z"/></g></svg>