<?xml version="1.0" encoding="UTF-8"?><svg id="Layer_2" xmlns="http://www.w3.org/2000/svg" viewBox="0 0 51.18 51"><defs><style>.cls-1{fill:none;stroke:#000;stroke-miterlimit:10;stroke-width:2px;}.cls-2{fill:#000;}.cls-2,.cls-3{stroke-width:0px;}.cls-3{fill:#bdb0ff;}</style></defs><g id="Layer_3"><polygon class="cls-3" points="50.17 25.72 49.31 33.39 45.28 39.93 40.25 45.71 33.17 48.62 25.73 49.99 18.14 49.08 11.19 45.74 5.98 40.07 2.35 33.32 1.02 25.72 2.81 18.28 6.18 11.52 11.24 5.77 18.24 2.66 25.73 1.02 33.31 2.39 40.22 5.77 45.72 11.2 49.1 18.13 50.17 25.72"/><polygon class="cls-1" points="50.17 25.72 49.31 33.39 45.28 39.93 40.25 45.71 33.17 48.62 25.73 49.99 18.14 49.08 11.19 45.74 5.98 40.07 2.35 33.32 1.02 25.72 2.81 18.28 6.18 11.52 11.24 5.77 18.24 2.66 25.73 1.02 33.31 2.39 40.22 5.77 45.72 11.2 49.1 18.13 50.17 25.72"/><path class="cls-2" d="M24.94,41.84c.75-4.47,1.59-8.99,1.67-13.53s-.15-8.99-.11-13.48l-2.8.76c2.18,3.58,4.37,7.15,6.55,10.73.86,1.41,3.29.51,2.74-1.16-.88-2.68-1.97-5.3-3.29-7.79-.64-1.22-1.34-2.42-2.09-3.58-.67-1.05-1.38-2.46-2.65-2.87-2.63-.85-3.48,2.36-4.16,4.12-.91,2.36-2.57,4.43-4.62,5.89-1.56,1.11-.07,3.71,1.51,2.59,1.67-1.19,3.11-2.6,4.27-4.3.57-.84,1.04-1.74,1.44-2.67.2-.47.38-.94.54-1.43.05-.15.55-1.26.53-1.31.1-.12.03-.12-.19,0-.27-.01-.31.07-.11.24.02.19.38.56.49.72.32.49.63.98.94,1.47.61.99,1.18,2.01,1.71,3.05,1.11,2.16,2.03,4.39,2.78,6.69l2.74-1.16c-2.18-3.58-4.37-7.15-6.55-10.73-.77-1.27-2.78-.74-2.8.76-.04,4.43.18,8.86.11,13.28s-.86,8.65-1.57,12.92c-.32,1.89,2.58,2.7,2.89.8h0Z"/></g></svg>