<svg id="Group_40" data-name="Group 40" xmlns="http://www.w3.org/2000/svg" xmlns:xlink="http://www.w3.org/1999/xlink" width="113.25" height="111.2" viewBox="0 0 113.25 111.2">
  <defs>
    <clipPath id="clip-path">
      <rect id="Rectangle_124" data-name="Rectangle 124" width="113.25" height="111.2" fill="none"/>
    </clipPath>
  </defs>
  <g id="Group_39" data-name="Group 39" clip-path="url(#clip-path)">
    <path id="Path_106" data-name="Path 106" d="M44.668,82.227a25.551,25.551,0,0,1-22.39-38.112c.768-1.36,1.688-2.739,1.719-4.3a10.634,10.634,0,0,0-.645-3.047,16.4,16.4,0,0,1,.493-10.3,3.91,3.91,0,0,1,1.161-1.782c1.094-.821,2.641-.466,3.938-.028a55.639,55.639,0,0,1,8.179,3.519,13.073,13.073,0,0,0,3.8,1.576A13.289,13.289,0,0,0,46,29.207a50.291,50.291,0,0,1,18.5-.628,21.426,21.426,0,0,0,5.108.451c4.581-.411,8.337-4.3,12.932-4.522a2.882,2.882,0,0,1,1.815.389,3.042,3.042,0,0,1,.881,1.165,12.687,12.687,0,0,1,1.094,8.115,11.7,11.7,0,0,0-.523,3.74,9.038,9.038,0,0,0,1.143,2.889c4.251,8.218,4.945,18.378,1.1,26.795s-12.4,14.7-21.642,15.073a79.123,79.123,0,0,1,2.529,24.482,3.011,3.011,0,0,0,.338,1.967,2.414,2.414,0,0,0,1.075.737c3.142,1.269,6.7-.029,9.72-1.572A60.806,60.806,0,0,0,111.8,65.077a36.259,36.259,0,0,0,.475-10.1,45.18,45.18,0,0,0-2.7-10.222c-3.631-10.054-8.272-19.91-15.263-28S77.75,2.447,67.145,1.112A48.954,48.954,0,0,0,55.2,1.273,81.063,81.063,0,0,0,25.76,10.785C15.957,16.2,6.967,24.174,3.3,34.759A47.2,47.2,0,0,0,1.085,46.483C-.009,60.141,2.18,74.295,8.942,86.212s18.4,21.356,31.865,23.889a29.16,29.16,0,0,0,.967-7.648c-.009-1.234-.2-2.654-1.237-3.322a4.032,4.032,0,0,0-2.592-.327c-3.982.387-8.467.634-11.479-2-3.187-2.786-3.565-7.888-6.841-10.569-2.55-2.088-6.914-2.993-7.092-6.283,3.684-1.88,8.05.747,11,3.647s5.961,6.431,10.087,6.716a14.793,14.793,0,0,0,5.992-1.285A3.423,3.423,0,0,0,41.3,88,4.489,4.489,0,0,0,41.83,85.9a7.191,7.191,0,0,1,2.428-4.452" fill="#bdb0ff"/>
    <path id="Path_107" data-name="Path 107" d="M44.668,81.412A24.958,24.958,0,0,1,19.92,58.289a25.688,25.688,0,0,1,1.222-9.6,23.931,23.931,0,0,1,1.84-4.167c.823-1.476,1.8-2.961,1.831-4.712.03-1.558-.686-3.031-.977-4.538a15.5,15.5,0,0,1-.033-5.649c.254-1.41.7-4.258,2.4-4.584,1.641-.314,3.693.79,5.165,1.373a53.436,53.436,0,0,1,4.926,2.25,15.1,15.1,0,0,0,4.627,1.905,13.344,13.344,0,0,0,4.839-.475,52.2,52.2,0,0,1,5.889-1,50.2,50.2,0,0,1,11.428.1c3.475.431,6.582,1.126,9.964-.2,2.667-1.044,5.088-2.75,7.891-3.434a5.228,5.228,0,0,1,2.522-.186c.976.291,1.379,1.668,1.666,2.518a11.93,11.93,0,0,1,.5,5.63c-.239,1.536-.843,3.028-.6,4.6.272,1.77,1.412,3.336,2.117,4.955a31.63,31.63,0,0,1,2.48,9.594,27.4,27.4,0,0,1-5.845,20.195,24.531,24.531,0,0,1-17.363,8.981.827.827,0,0,0-.787,1.032,78.965,78.965,0,0,1,2.612,20.465c-.008,1.491-.187,3-.129,4.49a2.83,2.83,0,0,0,1.531,2.584c2.415,1.278,5.456.774,7.9-.125a48.645,48.645,0,0,0,13.736-8.456,62.238,62.238,0,0,0,10.614-11.372c6.323-8.721,10.639-19.39,11.315-30.2.417-6.675-1.67-12.854-4.047-18.995a100.937,100.937,0,0,0-7.8-16.2C95.447,15.4,87.126,7.01,76.477,2.721,64.888-1.946,51.609.052,40.022,3.756,29.1,7.247,18.266,12.971,10.458,21.519a37.5,37.5,0,0,0-8.233,13.9C.367,41.3-.048,47.707,0,53.847.108,65.823,2.879,78,9.209,88.263a50.3,50.3,0,0,0,23.756,20.4,41.91,41.91,0,0,0,7.626,2.228.831.831,0,0,0,1-.569,31.445,31.445,0,0,0,.957-6.174,8.66,8.66,0,0,0-.559-4.585,3.577,3.577,0,0,0-3.664-1.6,50.847,50.847,0,0,1-5.162.259c-3.655-.128-6.477-1.533-8.244-4.8-1.41-2.6-2.274-5.649-4.591-7.648a23.855,23.855,0,0,0-3.923-2.452c-1.329-.757-2.9-1.684-3.06-3.366l-.4.7c3.473-1.631,7.27.923,9.731,3.249,2.371,2.241,4.532,4.9,7.549,6.313,3.268,1.531,6.529.789,9.763-.461A3.422,3.422,0,0,0,42.5,87.035c.349-2.006.758-3.579,2.331-5.005.779-.707-.377-1.857-1.153-1.154A8.233,8.233,0,0,0,41.2,84.907a8.8,8.8,0,0,1-.531,2.5c-.478.761-1.7,1.011-2.523,1.289a9.972,9.972,0,0,1-5.759.6,11.138,11.138,0,0,1-4.261-2.408c-4.369-3.681-9.4-10.731-16-7.633a.789.789,0,0,0-.4.7c.257,2.723,2.519,4.035,4.705,5.239A12.6,12.6,0,0,1,19.9,87.635a15.556,15.556,0,0,1,2.324,3.94c1.259,2.712,2.561,5.51,5.339,6.968,2.821,1.48,6.155,1.434,9.246,1.18.945-.078,2.175-.4,3.067.009,1,.464,1.062,1.754,1.078,2.722a28.15,28.15,0,0,1-.937,7.43l1-.569A45.742,45.742,0,0,1,15.208,93.75C7.975,85.269,3.854,74.546,2.331,63.579a78.979,78.979,0,0,1-.393-17.555c.5-5.883,1.793-11.62,4.792-16.759,5.344-9.159,14.44-15.571,23.857-20.041A80.341,80.341,0,0,1,47.86,3.339C53.972,2,60.42,1.158,66.669,1.872c10.656,1.216,20.167,7.48,27.07,15.46,7.651,8.843,12.773,20.042,16.245,31.129a32.388,32.388,0,0,1,1.65,9.4,42.737,42.737,0,0,1-1.039,9.209A58.266,58.266,0,0,1,105.725,81,60.507,60.507,0,0,1,86.1,103.737a56.329,56.329,0,0,1-6.438,3.847c-2.59,1.318-5.777,2.631-8.7,1.636-1.63-.556-1.195-2.1-1.146-3.488q.088-2.495.018-4.989a81.349,81.349,0,0,0-.795-9.209,81.019,81.019,0,0,0-1.845-9.076l-.786,1.032a25.842,25.842,0,0,0,16.519-7.32,27.916,27.916,0,0,0,8.291-17.293,32.368,32.368,0,0,0-.7-10.709,32.908,32.908,0,0,0-1.647-5.135c-.692-1.672-2.016-3.446-2.241-5.241-.246-1.961.746-4.013.753-6.012a13.518,13.518,0,0,0-1.037-5.233c-.585-1.4-1.313-2.6-2.936-2.82a9.577,9.577,0,0,0-4.489.77c-3.021,1.151-5.788,3.264-9.054,3.684-2.075.267-4.157-.264-6.2-.537a51.313,51.313,0,0,0-6.054-.448,51.891,51.891,0,0,0-12.049,1.277c-2.232.5-4.215.84-6.363-.143-1.775-.811-3.46-1.8-5.249-2.59A42.953,42.953,0,0,0,28.617,23.7a4.6,4.6,0,0,0-4.105.345c-1.212.911-1.695,2.679-2.048,4.077a17.2,17.2,0,0,0-.486,5.418c.136,1.91.835,3.631,1.133,5.5.341,2.135-1.2,3.917-2.1,5.718a26.763,26.763,0,0,0,2.82,28.221A27.069,27.069,0,0,0,39.97,82.618a26.634,26.634,0,0,0,4.7.425.816.816,0,0,0,0-1.631"/>
  </g>
</svg>
