<svg xmlns="http://www.w3.org/2000/svg" xmlns:xlink="http://www.w3.org/1999/xlink" width="42" height="27.608" viewBox="0 0 42 27.608">
  <defs>
    <clipPath id="clip-path">
      <rect id="Rectangle_104" data-name="Rectangle 104" width="42" height="27.608" fill="#bdb0ff" stroke="#bdb0ff" stroke-width="1.2"/>
    </clipPath>
  </defs>
  <g id="Group_29" data-name="Group 29" transform="translate(0 0)">
    <g id="Group_20" data-name="Group 20" transform="translate(0 0)" clip-path="url(#clip-path)">
      <path id="Path_94" data-name="Path 94" d="M.454,21.959q11.041.22,22.076-.257c.6-.025.607-.967,0-.941Q11.5,21.237.454,21.018a.471.471,0,0,0,0,.941" transform="translate(0 5.276)" fill="#bdb0ff" stroke="#bdb0ff" stroke-width="1.2"/>
      <path id="Path_95" data-name="Path 95" d="M.955,24.209c.036-3.06.112-6.434,2.256-8.851a11.583,11.583,0,0,1,8.236-3.638c5.868-.147,11.227,4.952,10.088,11.024-.112.592.8.845.907.25,1.221-6.515-4.261-12.2-10.665-12.217a12.674,12.674,0,0,0-8.991,3.659C.244,17.061.055,20.754.014,24.209a.471.471,0,0,0,.941,0" transform="translate(0.004 2.738)" fill="#bdb0ff" stroke="#bdb0ff" stroke-width="1.2"/>
      <path id="Path_96" data-name="Path 96" d="M18.517,23.085a9.183,9.183,0,1,1,18.069-.858c-.066.6.875.6.941,0a10.3,10.3,0,0,0-6.605-10.709,10.2,10.2,0,0,0-12.177,4.447,10.461,10.461,0,0,0-1.134,7.369c.127.592,1.035.341.907-.25" transform="translate(4.415 2.781)" fill="#bdb0ff" stroke="#bdb0ff" stroke-width="1.2"/>
      <path id="Path_97" data-name="Path 97" d="M18.749,22.519a51.826,51.826,0,0,1,17.322-1.426c.6.051.6-.889,0-.941A52.589,52.589,0,0,0,18.5,21.612a.47.47,0,0,0,.25.907" transform="translate(4.616 5.072)" fill="#bdb0ff" stroke="#bdb0ff" stroke-width="1.2"/>
      <path id="Path_98" data-name="Path 98" d="M11.267,3.779A3.808,3.808,0,0,0,6.89,4.791,3.792,3.792,0,0,0,6.731,9.4a3.847,3.847,0,0,0,4.251,1.627A3.237,3.237,0,0,0,13.512,7.5c-.329-1.737-2.4-3.075-4.044-2.173-.53.291-.056,1.1.475.813,1.025-.563,2.281.342,2.595,1.343a2.186,2.186,0,0,1-1.571,2.556A2.882,2.882,0,0,1,7.729,9.17a2.96,2.96,0,0,1-.369-3.45,2.881,2.881,0,0,1,3.431-1.127.488.488,0,0,0,.645-.169.475.475,0,0,0-.169-.643" transform="translate(1.532 0.881)" fill="#bdb0ff" stroke="#bdb0ff" stroke-width="1.2"/>
      <path id="Path_99" data-name="Path 99" d="M27.329,4.265c-1.726-.29-3.853-.484-4.98,1.165a3.581,3.581,0,0,0,.508,4.438,5.056,5.056,0,0,0,5.033,1.045,8.275,8.275,0,0,0,2.615-1.4c.706-.543,1.427-1.278,1.107-2.25a4.489,4.489,0,0,0-2.1-2.2,5.676,5.676,0,0,0-2.952-.72c-.6.02-.607.961,0,.941a4.727,4.727,0,0,1,3.77,1.65c.216.257.493.6.4.958a1.747,1.747,0,0,1-.68.789,7.666,7.666,0,0,1-2.018,1.19,4.393,4.393,0,0,1-4.09-.314,2.7,2.7,0,0,1-1-3.276c.709-1.6,2.729-1.346,4.134-1.11.592.1.847-.806.25-.907" transform="translate(5.539 1.035)" fill="#bdb0ff" stroke="#bdb0ff" stroke-width="1.2"/>
      <path id="Path_100" data-name="Path 100" d="M13.041,12.349c-.367-.958,1.961-1.763,2.621-1.968A9.114,9.114,0,0,1,18.871,10a8.818,8.818,0,0,1,5.78,2.561c.426.431,1.091-.235.666-.666A9.974,9.974,0,0,0,14.411,9.851c-1.008.44-2.805,1.369-2.276,2.748.214.559,1.124.317.907-.25" transform="translate(3.059 2.299)" fill="#bdb0ff" stroke="#bdb0ff" stroke-width="1.2"/>
      <path id="Path_101" data-name="Path 101" d="M18.711.312A2.716,2.716,0,0,0,15.1,1.535a5.679,5.679,0,0,0-.625,2.417,2.975,2.975,0,0,0,.468,2.4,3.709,3.709,0,0,0,3.9.524,3.336,3.336,0,0,0,2.18-3.02A3.2,3.2,0,0,0,18.647.679c-.591-.12-.844.786-.25.907a2.2,2.2,0,0,1,1.648,1.864,2.272,2.272,0,0,1-1.1,2.32,3.136,3.136,0,0,1-2.849.24,1.3,1.3,0,0,1-.591-.456,1.657,1.657,0,0,1-.122-.918,7.4,7.4,0,0,1,.258-1.99,2.426,2.426,0,0,1,1.1-1.467,1.461,1.461,0,0,1,1.5-.051c.519.316.992-.5.475-.813" transform="translate(3.667 0)" fill="#bdb0ff" stroke="#bdb0ff" stroke-width="1.2"/>
    </g>
  </g>
</svg>
