<svg xmlns="http://www.w3.org/2000/svg" xmlns:xlink="http://www.w3.org/1999/xlink" width="27.025" height="27.113" viewBox="0 0 27.025 27.113">
  <defs>
    <clipPath id="clip-path">
      <rect id="Rectangle_119" data-name="Rectangle 119" width="27.025" height="27.113" fill="#bdb0ff"/>
    </clipPath>
  </defs>
  <g id="Group_35" data-name="Group 35" transform="translate(0 0)">
    <g id="Group_34" data-name="Group 34" transform="translate(0 0)" clip-path="url(#clip-path)">
      <path id="Path_102" data-name="Path 102" d="M1.027,19.707q12.488.249,24.971-.291c1.365-.058,1.372-2.186,0-2.128q-12.478.538-24.971.291a1.065,1.065,0,0,0,0,2.128" transform="translate(0 7.236)" fill="#bdb0ff"/>
      <path id="Path_103" data-name="Path 103" d="M2.129,23.029c.04-3.308.082-7.012,2.4-9.636a12.549,12.549,0,0,1,8.94-3.959c6.266-.156,12.123,5.26,10.9,11.8-.251,1.339,1.8,1.912,2.053.566C27.859,14.089,21.447,7.321,13.838,7.3A14.87,14.87,0,0,0,3.292,11.6C.31,14.676.051,18.97,0,23.029a1.065,1.065,0,0,0,2.128,0" transform="translate(0 3.057)" fill="#bdb0ff"/>
      <path id="Path_104" data-name="Path 104" d="M12.741.417A4.836,4.836,0,0,0,7.147,1.646,4.82,4.82,0,0,0,6.881,7.5a4.9,4.9,0,0,0,5.412,2.084,4.189,4.189,0,0,0,3.231-4.634c-.444-2.312-3.207-3.955-5.356-2.776a1.064,1.064,0,1,0,1.075,1.837c.043-.023.3-.118.07-.044.084-.027.167-.047.251-.072.248-.074-.2-.016.057-.006.057,0,.113,0,.17,0s.312.06.058,0c.085.02.169.035.253.06.057.017.111.038.166.055-.237-.077.1.05.149.078.078.044.152.1.228.14.243.143-.092-.085.038.024s.24.23.359.348c.2.2-.094-.165.061.07.033.051.068.1.1.152.048.078.088.159.133.237.051.111.052.108,0-.007.021.055.041.112.06.169s.037.145.057.216.024.257.011.027c0,.089.011.177.009.268,0,.052-.054.322,0,.078-.033.149-.074.291-.121.435.074-.228-.016.031-.037.072-.04.078-.085.155-.132.23-.021.033-.2.258-.043.071-.057.07-.115.136-.177.2a3.341,3.341,0,0,1-.332.3c.192-.15-.051.027-.078.044-.077.05-.155.1-.234.139-.054.03-.109.055-.162.085-.112.051-.111.052,0,.006-.057.023-.115.044-.172.065a3.9,3.9,0,0,1-.488.139c-.075.017-.15.031-.227.044.254-.045-.043,0-.084,0a4.14,4.14,0,0,1-.46,0c-.04,0-.34-.041-.082,0-.121-.02-.241-.044-.359-.075-.074-.02-.146-.045-.22-.067-.05-.016-.24-.1-.06-.017A3.627,3.627,0,0,1,9.5,7.2c-.055-.035-.108-.072-.16-.109.18.128-.07-.062-.087-.077-.146-.131-.275-.274-.409-.417-.206-.223.1.162-.072-.091-.054-.081-.111-.16-.162-.244-.085-.139-.159-.282-.231-.428-.136-.274.051.187-.043-.1-.028-.094-.062-.183-.089-.277-.018-.062-.034-.125-.05-.187-.01-.044-.074-.437-.045-.192a3.642,3.642,0,0,1-.024-.528c0-.079.009-.159.014-.24.02-.3-.061.19.018-.1.043-.155.082-.309.131-.462.085-.274-.1.162.038-.087.06-.108.115-.217.182-.321.033-.051.068-.1.1-.152-.132.19.094-.108.125-.142A3.782,3.782,0,0,1,9.15,2.67c-.183.146.061-.037.084-.052.1-.068.21-.132.319-.19.068-.037.138-.071.209-.1s.055-.027-.043.016c.058-.023.116-.045.174-.065.186-.064.4-.081.58-.152.149-.057-.237.011.035-.006.122-.007.243-.016.365-.016.077,0,.152.007.228.011q.068,0,.136.013c-.132-.018-.136-.016-.013.006.088.024.177.04.265.067.045.013.394.156.177.057a1.1,1.1,0,0,0,1.455-.382A1.072,1.072,0,0,0,12.741.417" transform="translate(2.519 0.001)" fill="#bdb0ff"/>
    </g>
  </g>
</svg>
