<svg id="Group_18" data-name="Group 18" xmlns="http://www.w3.org/2000/svg" xmlns:xlink="http://www.w3.org/1999/xlink" width="102.348" height="102.355" viewBox="0 0 102.348 102.355">
  <defs>
    <clipPath id="clip-path">
      <rect id="Rectangle_102" data-name="Rectangle 102" width="102.348" height="102.355" transform="translate(0 0)" fill="none"/>
    </clipPath>
  </defs>
  <g id="Group_17" data-name="Group 17" clip-path="url(#clip-path)">
    <path id="Path_87" data-name="Path 87" d="M9.826,1.473A7.737,7.737,0,0,0,3.46,5.339a16.814,16.814,0,0,0-2.131,7.415C.721,19.206,1.6,25.69,2,32.158,3.057,49.174.786,66.22.844,83.268c.013,3.755.159,7.611,1.62,11.069a8.143,8.143,0,0,0,2.244,3.236c1.526,1.236,3.573,1.564,5.52,1.82,23.778,3.135,47.882,2.179,71.846,1.217,2.6-.1,5.207-.209,7.8-.468,2.283-.229,4.661-.62,6.493-2a10.209,10.209,0,0,0,2.863-3.716c5.233-10.579-.343-23.287,1.182-34.991" fill="#bdb0ff"/>
    <path id="Path_88" data-name="Path 88" d="M9.826.658C2.063.785.493,9.87.327,15.9A116.25,116.25,0,0,0,.9,28.276c.329,4.154.535,8.308.559,12.475C1.511,49.2.975,57.628.546,66.058.333,70.235.145,74.415.067,78.6a63.273,63.273,0,0,0,.451,11.87c.541,3.143,1.745,6.848,4.751,8.45a13.877,13.877,0,0,0,4.743,1.263c1.943.262,3.891.49,5.841.695,8.4.888,16.853,1.306,25.3,1.435,8.383.128,16.768-.029,25.148-.295,4.273-.136,8.545-.3,12.817-.471,4.021-.16,8.084-.2,12.077-.742,3.316-.45,6.111-1.7,7.964-4.583a21.788,21.788,0,0,0,3.026-9.669c.7-7.225-1.078-14.409-1.223-21.62a38.348,38.348,0,0,1,.264-5.494c.128-1.039-1.5-1.03-1.631,0-.842,6.844.574,13.644,1,20.463a33.513,33.513,0,0,1-.613,10.052c-.775,3.168-2.251,6.855-5.4,8.308-3.285,1.514-7.508,1.326-11.041,1.476q-5.906.252-11.812.463c-7.806.284-15.615.507-23.426.525s-15.6-.166-23.377-.695q-5.892-.4-11.762-1.084c-3.516-.414-7.56-.451-9.475-3.938C1.9,91.751,1.708,87.8,1.665,84.171c-.045-3.907.062-7.817.217-11.721.307-7.786.852-15.56,1.094-23.349.135-4.337.176-8.678.029-13.015-.149-4.394-.594-8.764-.872-13.15-.272-4.273-.477-8.758.423-12.973.779-3.646,3.089-7.606,7.27-7.674a.816.816,0,0,0,0-1.631"/>
    <path id="Path_89" data-name="Path 89" d="M9.642,1.476q30.1,1.161,60.218-.325c8.292-.41,16.822-.94,24.691,1.708a7.443,7.443,0,0,1,3.3,1.878,7.525,7.525,0,0,1,1.473,3.354,70.449,70.449,0,0,1,1.394,13.279c.569,13.8,1.136,27.665-.364,41.4" fill="#bdb0ff"/>
    <path id="Path_90" data-name="Path 90" d="M9.642,2.291q29.1,1.113,58.229-.23C76.763,1.648,86.354.618,94.88,3.838A5.4,5.4,0,0,1,97.451,5.56a8.334,8.334,0,0,1,1.192,3.213,50.3,50.3,0,0,1,.99,7.343c.334,4.7.452,9.424.614,14.132a230.39,230.39,0,0,1-.71,32.518c-.112,1.042,1.52,1.034,1.631,0a219.7,219.7,0,0,0,.789-30.05c-.149-4.976-.315-9.958-.589-14.929-.127-2.3-.32-4.594-.672-6.869-.323-2.086-.631-4.509-1.885-6.274a8.272,8.272,0,0,0-4.482-2.716A37.637,37.637,0,0,0,87.86.5,78.636,78.636,0,0,0,73.79.146c-10.018.438-20.025.868-30.053.981Q26.686,1.317,9.642.66c-1.05-.04-1.048,1.591,0,1.631"/>
    <path id="Path_91" data-name="Path 91" d="M23.489,14.446a4.761,4.761,0,0,0-3.432,1.681,9.929,9.929,0,0,0-1.864,3.437,11.755,11.755,0,0,0-.7,3.177,8.286,8.286,0,0,0,5.643,8.122,8.359,8.359,0,0,0,9.287-3.44,8.436,8.436,0,0,0-.889-9.878A10.6,10.6,0,0,0,22.8,14.534c-.371.032-.832.163-.88.532" fill="#fbfaf4"/>
    <path id="Path_92" data-name="Path 92" d="M17.888,38.972q-.208,21.91-.418,43.821a3.915,3.915,0,0,0,.5,2.414c.739,1,2.181,1.053,3.42,1.017l7.434-.211a2.381,2.381,0,0,0,1.118-.214c.791-.444.818-1.552.745-2.456a434.872,434.872,0,0,1-1.279-44.287,35.384,35.384,0,0,0-11.667.9" fill="#fbfaf4"/>
    <path id="Path_93" data-name="Path 93" d="M41.922,38.668A34.518,34.518,0,0,1,49.993,37.1a6.452,6.452,0,0,1,3.1.332c2.138.951,2.774,3.625,3.145,5.936,6.383-7.126,18.388-8.26,25.993-2.457a10.2,10.2,0,0,1,3.133,3.572,13.842,13.842,0,0,1,1.012,4.189C88,60.862,89.62,73.215,88.055,85.41A37.971,37.971,0,0,1,72.947,85.3a150.634,150.634,0,0,1-1.312-19.761,31.679,31.679,0,0,0-.6-7.95,9.38,9.38,0,0,0-4.593-6.238c-2.4-1.164-5.706-.589-7.087,1.69a8.731,8.731,0,0,0-.954,3.124,146.842,146.842,0,0,0-1.944,29.583l-13.24.119a2.165,2.165,0,0,1-1.777-.535,2.111,2.111,0,0,1-.321-1.253c-.34-8.97,1.074-17.992.023-26.908-.377-3.2-1.073-6.4-.87-9.617a34.769,34.769,0,0,1,2.454-9.516" fill="#fbfaf4"/>
  </g>
</svg>
