<svg xmlns="http://www.w3.org/2000/svg" xmlns:xlink="http://www.w3.org/1999/xlink" width="120.668" height="95.566" viewBox="0 0 120.668 95.566">
  <defs>
    <clipPath id="clip-path">
      <rect id="Rectangle_101" data-name="Rectangle 101" width="120.668" height="95.566" transform="translate(0 0)" fill="none"/>
    </clipPath>
  </defs>
  <g id="Group_16" data-name="Group 16" transform="translate(0 0)">
    <rect id="Rectangle_99" data-name="Rectangle 99" width="24.526" height="8.399" transform="translate(65.623 27.361)" fill="#e6e6e6"/>
    <rect id="Rectangle_100" data-name="Rectangle 100" width="24.526" height="8.399" transform="translate(65.623 27.361)" fill="none" stroke="#000" stroke-miterlimit="10" stroke-width="0.544"/>
    <g id="Group_15" data-name="Group 15">
      <g id="Group_14" data-name="Group 14" clip-path="url(#clip-path)">
        <path id="Path_70" data-name="Path 70" d="M4.423,30a32.258,32.258,0,0,1-.432,4.673c-.057.368-.105.739-.169,1.1a6.752,6.752,0,0,0-.15.83.854.854,0,0,0,.61.888.975.975,0,0,0,.962-.349c.735-.75-.417-1.9-1.154-1.153-.178.182.1-.05.192-.07l.629.082L4.9,36l.293.293-.006-.013L5.3,36.7c-.015-.156-.063.2-.007.037a2.417,2.417,0,0,0,.059-.281c.05-.251.086-.5.123-.758.095-.643.2-1.283.274-1.929.133-1.251.3-2.5.307-3.762a.816.816,0,0,0-1.631,0" fill="#fff"/>
        <path id="Path_71" data-name="Path 71" d="M87.8,23.676a.816.816,0,0,0,0-1.631.816.816,0,0,0,0,1.631"/>
        <path id="Path_72" data-name="Path 72" d="M90.794,28.179a12.9,12.9,0,0,0,1.906-5.2,7.9,7.9,0,0,0-3.252-6.517,13.387,13.387,0,0,0-7.067-2.452,12.242,12.242,0,0,0-5.624.675,12.543,12.543,0,0,0-2.713,1.594,22.941,22.941,0,0,0-8.421,12.405" fill="#e6e6e6"/>
        <path id="Path_73" data-name="Path 73" d="M91.5,28.591A12.939,12.939,0,0,0,93.527,22.6a8.3,8.3,0,0,0-1.759-4.942c-2.429-3.214-6.607-4.442-10.487-4.522-8.264-.17-14.434,8.045-16.445,15.33a.816.816,0,0,0,1.573.433,22.329,22.329,0,0,1,4.5-8.573c2.326-2.726,5.339-5.261,9.047-5.529,3.433-.249,7.439.569,9.9,3.128a6.927,6.927,0,0,1,2.028,4.487c.063,1.94-.907,3.7-1.8,5.357-.5.924.909,1.748,1.408.823"/>
        <path id="Path_74" data-name="Path 74" d="M65.891,59.061c-1.81,4.44-5.578,7.859-9.789,10.153S47.22,72.8,42.588,74.041a3.751,3.751,0,0,0-1.884.915,3.735,3.735,0,0,0-.726,1.787q-1.416,6.621-2.834,13.242A5.61,5.61,0,0,1,36,92.745a4.792,4.792,0,0,1-2,1.128,18.725,18.725,0,0,1-18.081-3.951A22.733,22.733,0,0,1,8.71,72.564,2.464,2.464,0,0,1,9.125,71a2.666,2.666,0,0,1,1.181-.671A38.563,38.563,0,0,0,31.389,51.487L20.831,44.919a60.961,60.961,0,0,1-5.971-4.05c-10-8-14-21.606-13.956-34.417.009-2.307.641-5.24,2.913-5.639a5.186,5.186,0,0,1,2.894.638Q37.957,15.122,68.069,31.214" fill="#e6e6e6"/>
        <path id="Path_75" data-name="Path 75" d="M65.187,58.65c-3.3,7.829-11.469,11.371-19.126,13.587-1.725.5-4.03.705-5.511,1.778s-1.562,3.465-1.915,5.113l-1.417,6.621-.708,3.31a6.557,6.557,0,0,1-1.083,3.11c-1.234,1.342-4.057,1.634-5.761,1.74a17.816,17.816,0,0,1-5.718-.585,18.659,18.659,0,0,1-9.46-6.061A21.913,21.913,0,0,1,9.817,76.8a22.36,22.36,0,0,1-.275-2.682c-.053-1.215-.279-2.416.981-3,1.564-.726,3.184-1.28,4.72-2.084A39.551,39.551,0,0,0,32.093,51.9a.834.834,0,0,0-.293-1.115c-4.093-2.547-8.21-5.06-12.278-7.647a35.641,35.641,0,0,1-9.063-7.858c-4.676-5.9-7.194-13.316-8.215-20.708a56.759,56.759,0,0,1-.483-5.662,16.236,16.236,0,0,1,.287-5.046A3.289,3.289,0,0,1,3.3,1.868C4.4,1.21,5.709,1.9,6.743,2.35c2.146.926,4.279,1.886,6.413,2.841Q26.182,11.024,39.01,17.282q14.458,7.053,28.648,14.637c.925.494,1.75-.913.823-1.408Q41.382,16.037,13.317,3.487C11.063,2.479,8.819,1.419,6.53.494c-1.624-.656-3.423-.816-4.751.517C-.616,3.414.025,7.967.243,11c.564,7.831,2.631,15.743,6.892,22.4a34.032,34.032,0,0,0,9.12,9.524c4.729,3.329,9.813,6.213,14.722,9.268q-.146-.558-.292-1.116A38.082,38.082,0,0,1,14.082,67.8c-.955.488-1.93.937-2.925,1.336A8.442,8.442,0,0,0,8.8,70.193c-1.309,1.1-.95,3.393-.823,4.893a24.22,24.22,0,0,0,3.637,10.986,20.171,20.171,0,0,0,19.8,9.274c1.728-.268,3.9-.71,5.167-2.024,1.424-1.482,1.55-4.057,1.957-5.958l1.518-7.093c.262-1.225.462-2.487.794-3.7.4-1.455,1.531-1.632,2.824-1.982C52.58,72.186,62.7,68.7,66.6,59.473c.4-.955-1-1.788-1.408-.823"/>
        <path id="Path_76" data-name="Path 76" d="M85.518,23.391a.816.816,0,0,0,0-1.631.816.816,0,0,0,0,1.631"/>
        <path id="Path_77" data-name="Path 77" d="M67.293,36.717a227.154,227.154,0,0,1,44.657-1.835,9.605,9.605,0,0,1,4.122.872c2.716,1.492,3.377,5.05,3.561,8.143a81.606,81.606,0,0,1-1.143,19.29,4.962,4.962,0,0,1-.788,2.208c-.806,1.042-2.248,1.3-3.555,1.458a168.428,168.428,0,0,1-49.605-1.2" fill="#fff"/>
        <path id="Path_78" data-name="Path 78" d="M67.51,37.5A227.174,227.174,0,0,1,94,35.375q6.516-.141,13.034.092a63.382,63.382,0,0,1,6.508.368,5.133,5.133,0,0,1,4.227,3.011c1.531,3.289,1.234,7.574,1.182,11.1a74.682,74.682,0,0,1-1.286,13.218,2.974,2.974,0,0,1-1.316,2.3,8.074,8.074,0,0,1-2.924.661q-3.24.389-6.494.651-6.385.516-12.8.543a168.442,168.442,0,0,1-29.376-2.456c-1.026-.177-1.467,1.394-.433,1.572A170.989,170.989,0,0,0,92.443,68.95q7.131.041,14.249-.523,3.494-.276,6.975-.7c1.641-.2,3.482-.4,4.612-1.757,1.208-1.452,1.245-3.9,1.494-5.676.313-2.23.544-4.471.677-6.719.249-4.205.456-8.724-.4-12.876-.714-3.479-2.75-6.019-6.4-6.488a114.5,114.5,0,0,0-14.241-.52A230.453,230.453,0,0,0,67.076,35.93c-1.035.145-.594,1.716.434,1.573"/>
        <path id="Path_79" data-name="Path 79" d="M66.107,37.147a131.682,131.682,0,0,1-.357,13.848q-.213,3.471-.427,6.941-.106,1.735-.214,3.47c-.064,1.037.074,2.412-.693,3.224-.721.763.43,1.918,1.153,1.153,1.372-1.453,1.133-3.764,1.247-5.616q.237-3.843.473-7.684a145.923,145.923,0,0,0,.449-15.336c-.046-1.045-1.677-1.051-1.631,0"/>
        <path id="Path_80" data-name="Path 80" d="M85.015,31.316a18.321,18.321,0,0,1,3.353,5.952c.117.346.374.779.721.666a.691.691,0,0,0,.349-.393,13.932,13.932,0,0,0,1.208-8.254,1.02,1.02,0,0,0-.309-.683.985.985,0,0,0-.757-.092,7.676,7.676,0,0,0-4.795,2.873" fill="#eae5be"/>
        <path id="Path_81" data-name="Path 81" d="M84.438,31.893a17.355,17.355,0,0,1,2.806,4.67c.3.757.494,1.9,1.41,2.159,1.127.317,1.579-.914,1.909-1.722a14.659,14.659,0,0,0,1.074-5.562,8,8,0,0,0-.339-2.844c-.4-.993-1.392-.994-2.295-.8a8.43,8.43,0,0,0-4.794,3.014.842.842,0,0,0,0,1.153.821.821,0,0,0,1.153,0A7.24,7.24,0,0,1,87.9,29.886a6.759,6.759,0,0,1,1.605-.534,1.458,1.458,0,0,0,.336-.054c.072-.048-.038-.107-.044-.071a4.059,4.059,0,0,0,.129.8,13.2,13.2,0,0,1-.124,3.754,13.886,13.886,0,0,1-.47,1.85c-.1.315-.217.629-.346.935-.048.113-.1.226-.15.338-.035.075-.071.15-.107.225-.1.149-.086.162.026.037h.434c.116.019.04.1-.022-.074-.043-.116-.081-.234-.123-.351q-.165-.462-.355-.915c-.259-.619-.54-1.227-.859-1.818a19.726,19.726,0,0,0-2.243-3.269.821.821,0,0,0-1.153,0,.833.833,0,0,0,0,1.153"/>
        <path id="Path_82" data-name="Path 82" d="M67.94,38.407A94.467,94.467,0,0,1,81.2,44.516q2.941,1.644,5.76,3.5c1.681,1.1,3.438,2.719,5.517,2.952,2.14.241,3.787-1.414,5.417-2.545q2.792-1.939,5.695-3.713A118.013,118.013,0,0,1,116.4,37.932c.955-.432.127-1.838-.823-1.408a118.153,118.153,0,0,0-12.041,6.3q-2.915,1.75-5.724,3.669c-1.626,1.11-3.749,3.408-5.882,2.676-2.017-.692-3.873-2.414-5.664-3.542q-2.85-1.8-5.825-3.384a97.572,97.572,0,0,0-12.07-5.412c-.986-.365-1.411,1.211-.434,1.573"/>
        <path id="Path_83" data-name="Path 83" d="M94.5,56.709a4.035,4.035,0,0,0-4.171-.127,2.681,2.681,0,0,0-.943,3.139c.551,1.276,2.234,1.536,3.446,1.187a2.58,2.58,0,0,0,1.9-3.126.618.618,0,0,0-1.117-.146,2.264,2.264,0,0,0,1.318,3.153,2.794,2.794,0,0,0,3.345-2.041,4.56,4.56,0,0,0-1.667-4.436,8.74,8.74,0,0,0-4.56-2.333,5.408,5.408,0,0,0-4.362,1.683,7.69,7.69,0,0,0-2.507,4.322c-.409,3.01,1.769,5.83,4.519,6.818a9.467,9.467,0,0,0,5.616.082,6.912,6.912,0,0,0,2.572-1.116,1.477,1.477,0,0,0,.491-2c-.471-.618-1.533-.009-1.056.618.424.555-2.434,1.349-2.821,1.435a8.285,8.285,0,0,1-3.72.024,5.745,5.745,0,0,1-4.344-4.295c-.479-2.28,1.232-4.649,3.1-5.8,2.262-1.391,5,.1,6.628,1.839.863.927,1.543,2.633.433,3.653a1.309,1.309,0,0,1-1.466.305,1.015,1.015,0,0,1-.466-1.3l-1.118-.146c.5,1.754-2.887,2.446-3.123.878a1.491,1.491,0,0,1,.8-1.52,2.983,2.983,0,0,1,2.652.3c.692.374,1.311-.682.617-1.056" fill="#c1272d"/>
        <path id="Path_84" data-name="Path 84" d="M67.624,59.983a.85.85,0,0,0,.056-.163c-.042.1-.05.119-.024.064.012-.026.025-.051.039-.076.027-.051.057-.1.088-.147.016-.024.119-.147.037-.057s.03-.03.047-.048c.039-.043.08-.083.122-.122.021-.02.042-.039.064-.057.046-.039.029-.026-.053.037a.836.836,0,0,0,.142-.1,2.978,2.978,0,0,1,.278-.15c.088-.044-.153.048-.008.008.055-.016.109-.036.164-.05a.877.877,0,0,0,.168-.036l-.1.013c.038-.005.076-.008.114-.01s.1,0,.143,0h.092c-.127,0,.029.007.062.015a1.546,1.546,0,0,1,.165.045c.028.008.055.018.081.028.057.021.037.012-.062-.028.037,0,.1.046.128.063a1.01,1.01,0,0,1,.266.169c-.128-.15-.03-.019.011.02s.083.079.123.121a.664.664,0,0,1,.112.131c-.041-.08-.069-.093-.009,0,.028.043.166.22.154.275-.039-.1-.048-.12-.026-.063.011.027.021.053.03.081.018.054.034.109.048.164s.048.134.034.168l-.015-.1c0,.038.006.077.007.115a.815.815,0,1,0,1.631,0,2.9,2.9,0,0,0-5.678-.738.824.824,0,0,0,.57,1,.834.834,0,0,0,1-.57"/>
        <path id="Path_85" data-name="Path 85" d="M67.1,62.843a6.868,6.868,0,0,1,.683-.449c.055-.031.111-.06.169-.088a.4.4,0,0,1,.086-.04c-.026,0-.171.066-.064.029a2.348,2.348,0,0,1,.4-.108l-.217.03a1.471,1.471,0,0,1,.392-.006l-.216-.029a1.356,1.356,0,0,1,.156.035l.077.025c.078.031.05.019-.083-.035.041.031.1.05.141.078.175.112-.1-.1,0-.007l.111.112c.092.1-.118-.183-.016-.009.012.022.024.044.035.067-.055-.139-.069-.169-.041-.091a1.406,1.406,0,0,1,.032.143c-.009-.072-.019-.144-.029-.216a.88.88,0,0,1,0,.185c.01-.072.019-.144.029-.216a.916.916,0,0,1-.025.113.816.816,0,1,0,1.573.433,1.838,1.838,0,0,0-1.462-2.179,3.294,3.294,0,0,0-2.553.815.881.881,0,0,0-.375.487.834.834,0,0,0,.082.628.825.825,0,0,0,1.116.293"/>
        <path id="Path_86" data-name="Path 86" d="M66.641,64.224c-.181.237-.045.062.008.01s.225-.151-.009-.005a2.235,2.235,0,0,1,.3-.168l-.2.082a1.809,1.809,0,0,1,.456-.122l-.217.029a2,2,0,0,1,.477,0l-.216-.029a1.928,1.928,0,0,1,.488.132l-.194-.082a1.8,1.8,0,0,1,.2.1c.036.022.07.046.1.069.111.074-.171-.151-.054-.041.054.05.1.1.154.155.109.118-.112-.165-.041-.052.022.036.046.071.067.108a.815.815,0,1,0,1.408-.823,2.464,2.464,0,0,0-2.023-1.177,2.387,2.387,0,0,0-1.024.155,2.344,2.344,0,0,0-.533.276,2.6,2.6,0,0,0-.558.561.812.812,0,0,0-.082.628.836.836,0,0,0,.374.488.825.825,0,0,0,.629.082.966.966,0,0,0,.487-.375"/>
      </g>
    </g>
  </g>
</svg>
