<svg id="Group_5" data-name="Group 5" xmlns="http://www.w3.org/2000/svg" xmlns:xlink="http://www.w3.org/1999/xlink" width="480.318" height="249.361" viewBox="0 0 480.318 249.361">
  <defs>
    <clipPath id="clip-path">
      <rect id="Rectangle_93" data-name="Rectangle 93" width="480.318" height="249.361" fill="none"/>
    </clipPath>
  </defs>
  <g id="Group_4" data-name="Group 4" clip-path="url(#clip-path)">
    <path id="Path_1" data-name="Path 1" d="M46.017,1.388c2.5,9.494-2.966,20.435-12.073,24.116,3.771-1.446,8.183-.015,11.253,2.623s5.023,6.32,6.752,9.971a19.6,19.6,0,0,1,5.515-19.108,23.126,23.126,0,0,1-9.39-16.723" transform="translate(16.649 0.681)" fill="#fcee21"/>
    <path id="Path_2" data-name="Path 2" d="M44.665,2.605c2.1,8.451-2.519,18.154-10.627,21.567-2.37,1-1.476,4.874,1.1,3.98,7.825-2.713,12.893,5.783,15.68,11.641,1.028,2.161,4.337.611,3.771-1.595A17.645,17.645,0,0,1,59.57,21.1a2.106,2.106,0,0,0-.417-3.249A21.22,21.22,0,0,1,50.776,2.9C50.537.28,46.409.25,46.647,2.9A25.649,25.649,0,0,0,57.066,21.415l-.417-3.249a21.858,21.858,0,0,0-6.036,21.12l3.771-1.595c-2-4.2-4.337-8.406-8.138-11.238a13.375,13.375,0,0,0-12.192-2.31l1.1,3.98A23.282,23.282,0,0,0,48.674,1.473c-.641-2.579-4.62-1.49-3.98,1.1Z" transform="translate(16.019 0)"/>
    <path id="Path_3" data-name="Path 3" d="M79.722,9.412C68.573,24.153,64.758,43.723,52.312,57.406c-1.789,1.967-3.771,3.831-4.9,6.23-3.011,6.409.879,14.607-2.444,20.867,7.214-.566,12.431-6.9,16.634-12.788A609.389,609.389,0,0,0,96.7,16.477a2.406,2.406,0,0,0,.447-1.893c-.268-.8-1.237-1.073-2.012-1.386-3.085-1.207-4.9-4.442-7.78-6.081s-7.959.253-6.841,3.368" transform="translate(22.054 3.195)" fill="#bdb0ff"/>
    <path id="Path_4" data-name="Path 4" d="M78.6,9.041c-6.662,8.9-10.687,19.287-15.5,29.228a91.738,91.738,0,0,1-8.213,14.219c-3.234,4.442-8.168,7.944-9.554,13.414-1.49,5.9,1.282,12.654-1.476,18.244-.626,1.267.1,3.279,1.789,3.1C53.4,86.487,58.7,80.733,63.084,74.8c5.485-7.438,10.627-15.143,15.665-22.879s9.807-15.456,14.458-23.341q1.789-3.041,3.532-6.1c1.028-1.789,2.519-3.711,3.07-5.709A3.625,3.625,0,0,0,98.066,12.6,20.879,20.879,0,0,1,93.714,9.92c-2.742-2.579-5.306-5.291-9.39-4.7-3.2.477-6.111,3-5.127,6.469.73,2.549,4.71,1.461,3.98-1.1-.447-1.55,3.07-1.431,4.039-.879,2.564,1.446,4.158,4.2,6.812,5.589a8.224,8.224,0,0,0,1.789.775c.268.06.209-.343-.119-.194-.253.119-.462.85-.626,1.133-.984,1.744-1.967,3.473-2.966,5.2q-2.817,4.874-5.723,9.7Q74.576,51.527,61.311,70.2c-3.8,5.351-8.54,12.222-15.68,12.923l1.789,3.1c2.5-5.053,1.371-10.418,1.49-15.814a12.015,12.015,0,0,1,2.623-7.676c1.833-2.266,3.8-4.114,5.53-6.335,6.812-8.719,10.9-19.048,15.62-28.945a95.033,95.033,0,0,1,9.465-16.306c1.595-2.131-1.982-4.188-3.562-2.087Z" transform="translate(21.402 2.522)"/>
    <path id="Path_5" data-name="Path 5" d="M48.222,45.446a29.122,29.122,0,0,1,12.49,5.321,2.075,2.075,0,0,0,2.832-.745A2.13,2.13,0,0,0,62.8,47.19a32.379,32.379,0,0,0-13.474-5.738,2.063,2.063,0,0,0-1.088,3.98Z" transform="translate(22.925 20.311)"/>
    <path id="Path_6" data-name="Path 6" d="M51.66,54.619v-.075l.075.551v-.164l-.075.551a.671.671,0,0,1,.03-.119l-.209.492a.408.408,0,0,1,.06-.1l-.328.417.075-.075-.417.328A.86.86,0,0,1,51,56.348l-.492.209s.134-.045.209-.06l-.551.075h.343l-.551-.075a2,2,0,0,1,.4.1l-.492-.209a1.072,1.072,0,0,1,.313.179l-.417-.328a1.287,1.287,0,0,1,.209.194l-.328-.417s.075.119.1.179l-.209-.492a.731.731,0,0,1,.045.194l-.075-.551v.209l.075-.551a1.531,1.531,0,0,1-.1.373l.209-.492a1.622,1.622,0,0,1-.209.343l.328-.417a2.032,2.032,0,0,1-.358.358l.417-.328a2.816,2.816,0,0,1-.745.417l.492-.209a8.362,8.362,0,0,1-1.356.4,1.522,1.522,0,0,0-.7.373,1.674,1.674,0,0,0-.537.581,1.438,1.438,0,0,0-.238.775,1.7,1.7,0,0,0,.03.82,2.1,2.1,0,0,0,.954,1.237l.492.209a1.982,1.982,0,0,0,1.1,0,6.27,6.27,0,0,0,.909-.238,3.708,3.708,0,0,0,.432-.164,6.846,6.846,0,0,0,.894-.4c.194-.119.373-.253.566-.388a3.751,3.751,0,0,0,.522-.447,3.688,3.688,0,0,0,.537-.73c.1-.209.194-.432.283-.641.03-.075.045-.149.075-.238a5.069,5.069,0,0,0,.089-.686v-.149a3.019,3.019,0,0,0-.343-1.252.325.325,0,0,0-.075-.119,3.34,3.34,0,0,0-.4-.507,3.274,3.274,0,0,0-.611-.492,1.416,1.416,0,0,0-.253-.149,6.472,6.472,0,0,0-.745-.3,3.625,3.625,0,0,0-.82-.119,3.082,3.082,0,0,0-.522.045,2.78,2.78,0,0,0-1,.313c-.03.015-.075.045-.1.06a4.011,4.011,0,0,0-.492.388,3.239,3.239,0,0,0-.343.447l-.03.045a3.393,3.393,0,0,0-.224.537.134.134,0,0,1-.015.075,3.2,3.2,0,0,0,0,1.356,1.522,1.522,0,0,0,.373.7,1.674,1.674,0,0,0,.581.537,1.438,1.438,0,0,0,.775.238,1.7,1.7,0,0,0,.82-.03,2.1,2.1,0,0,0,1.237-.954l.209-.492a1.982,1.982,0,0,0,0-1.1Z" transform="translate(22.93 25.715)"/>
    <path id="Path_7" data-name="Path 7" d="M59.655,68.695,43.811,70.782c-3.681.492-7.959,1.461-11.6.209s-4.024-5.187-1.848-8.049c2.534-3.324,7.348-3.756,11.194-3.816.238,0,1.192-.134,1.431.03.313.224-.045-.447.075.581a6.24,6.24,0,0,1-.6,2.325,13.5,13.5,0,0,1-2.608,4.352,17.876,17.876,0,0,1-8.988,5.351C23.526,73.628,16.327,70.2,11.438,64.76c-5.932-6.6-9.927-17.781-5.455-26.128,1.252-2.34-2.31-4.427-3.562-2.087C-2.722,46.174.975,58.381,7.458,66.429c6.066,7.527,15.9,11.969,25.457,9.047a21.562,21.562,0,0,0,10.925-7.467c2.087-2.757,5.723-9.822,1.55-12.311-1.982-1.192-4.948-.745-7.125-.522a18.96,18.96,0,0,0-7.78,2.28c-4.024,2.355-6.9,7.557-5.217,12.207,1.878,5.142,7.631,6.245,12.475,5.962,7.3-.432,14.637-1.848,21.88-2.8,2.593-.343,2.638-4.471,0-4.129Z" transform="translate(0 17.422)"/>
    <path id="Path_8" data-name="Path 8" d="M119.23,98.645c-16.216-9.152-38.246-1.967-49.574,12.8s-13.414,34.982-10.091,53.3c1.625,8.958,4.591,17.99,10.731,24.712,11.521,12.639,31.7,13.921,47.621,7.661,8.168-3.2,15.889-8.347,20.479-15.829,3.577-5.828,5.038-12.669,6.066-19.421,1.953-12.893,2.415-26.382-2-38.633s-14.517-23.088-27.35-25.413" transform="translate(28.512 46.391)" fill="#bdb0ff"/>
    <path id="Path_9" data-name="Path 9" d="M121.137,97.435c-17.588-9.733-40.452-2.1-52.286,13.146C55.2,128.169,53.916,153.507,60.116,174.24c3.13,10.478,9.226,19.883,19.183,24.921,9.017,4.561,19.451,5.41,29.333,3.756,10.284-1.714,20.777-6.439,28.036-14.055,8.3-8.719,10.344-20.792,11.6-32.329,1.312-12.162.835-24.891-4.1-36.263-3.994-9.211-11.194-17.513-20.494-21.627a32.32,32.32,0,0,0-7.2-2.266c-2.817-.537-4.009,3.771-1.192,4.308,9.166,1.744,16.738,7.8,21.687,15.561,5.843,9.152,7.631,20.122,7.438,30.823a115.909,115.909,0,0,1-1.684,17.126c-.909,5.366-2.176,10.791-4.844,15.576-4.844,8.69-14.04,14.249-23.326,17.155a47.4,47.4,0,0,1-26.948.715,32.291,32.291,0,0,1-20.658-17.856c-4.352-9.286-5.858-20.241-5.8-30.421.045-10.046,2-20.241,6.752-29.154,8.332-15.59,27.067-26.62,44.893-21.493a29.476,29.476,0,0,1,6.1,2.549c2.519,1.4,4.784-2.459,2.251-3.86Z" transform="translate(27.739 45.663)"/>
    <path id="Path_10" data-name="Path 10" d="M85.386,109.809c-10.031,2.877-14.8,14.353-16.231,24.7-1.759,12.669.179,27.261,10.21,35.19,10.717,8.451,28.692,4.814,35.28-7.139,2.817-5.127,3.637-11.1,3.816-16.947.3-9.807-1.252-20.122-7.169-27.947s-17.036-12.282-25.949-8.2" transform="translate(33.635 52.934)" fill="#fbfaf4"/>
    <path id="Path_11" data-name="Path 11" d="M85.526,108.37c-12.729,3.845-17.29,18.422-18.258,30.316-1.028,12.595,1.893,27.38,13.221,34.728,9.778,6.335,23.639,4.5,32.135-3.16,5.351-4.829,7.631-11.76,8.436-18.75a59.115,59.115,0,0,0-1.505-22.581c-2.146-7.631-6.528-14.592-13.385-18.78-6.439-3.92-14.249-4.978-21.225-1.923-2.623,1.148-.358,5.008,2.251,3.86,5.187-2.266,11.208-1.207,16.008,1.505a25.551,25.551,0,0,1,11.208,13.906,51.349,51.349,0,0,1,2.519,19.123c-.224,6.454-1.192,13.086-5.247,18.124-6.051,7.527-17.767,10.24-26.531,6.141-10.433-4.874-13.712-17.29-13.638-27.887s3.16-26.724,15.173-30.346c2.742-.835,1.58-5.142-1.192-4.307Z" transform="translate(32.899 52.212)"/>
    <path id="Path_12" data-name="Path 12" d="M84.416,124.7a20.776,20.776,0,0,0-2.981,14.741c.686,3.905,4.322,8.287,7.855,6.484,1.654-.85,2.429-2.728,3.085-4.457,1.4-3.711,2.817-7.646,2.042-11.536s-4.65-7.438-8.451-6.3" transform="translate(39.792 60.533)" fill="#ff1d25"/>
    <path id="Path_13" data-name="Path 13" d="M83.227,124.3a23.266,23.266,0,0,0-3.577,13.265c.179,4.129,1.684,8.749,5.545,10.881a6.188,6.188,0,0,0,5.962.149c1.908-1.014,3.011-3.041,3.816-5.023,1.759-4.367,3.592-9.554,2.146-14.279s-6.051-8.391-11-7.08c-2.787.73-1.595,5.053,1.192,4.308,2.4-.641,4.621,1.535,5.4,3.652,1.252,3.383-.209,7.288-1.386,10.478-.447,1.207-.864,2.772-1.833,3.681a1.633,1.633,0,0,1-2.266.119c-2.31-1.49-3-4.5-3.085-7.065A18.906,18.906,0,0,1,87.1,126.569c1.55-2.444-2.325-4.68-3.86-2.251Z" transform="translate(39.058 59.813)"/>
    <path id="Path_14" data-name="Path 14" d="M86.614,135.439c8.555-.134,17.543-.626,24.489-6.2a2.249,2.249,0,0,0,0-3.16,2.277,2.277,0,0,0-3.16,0c-5.872,4.71-14.174,4.784-21.329,4.889-2.877.045-2.877,4.516,0,4.471" transform="translate(41.425 61.526)"/>
    <path id="Path_15" data-name="Path 15" d="M102.5,129.049c2.877,0,2.877-4.471,0-4.471s-2.877,4.471,0,4.471" transform="translate(49.218 61.104)"/>
    <path id="Path_16" data-name="Path 16" d="M102.352,125.225l-4.278,4.844a2.264,2.264,0,0,0-.179,2.936,2.228,2.228,0,0,0,2.892.581,7.03,7.03,0,0,1,.909-.551c.164-.075.328-.149.477-.224-.075.045-.447.179-.164.075.089-.03.164-.06.253-.089a5.786,5.786,0,0,1,1.028-.268c.089-.015.179-.03.253-.045.313-.06-.119.03-.194.03.194,0,.4-.045.6-.045.358-.015.7,0,1.058.015a1.642,1.642,0,0,1,.268.03c.283.015-.492-.089-.194-.03.179.03.343.06.522.1a7.906,7.906,0,0,1,1.014.3c.075.03.373.149.045,0s-.03,0,.03.015a5.816,5.816,0,0,1,.522.283l1.133-4.173-4.367.358a2.236,2.236,0,1,0,0,4.471l4.367-.358a2.318,2.318,0,0,0,2.161-1.64,2.222,2.222,0,0,0-1.028-2.519,10.455,10.455,0,0,0-10.91.4l2.713,3.518,4.278-4.844a2.234,2.234,0,0,0-3.16-3.16Z" transform="translate(47.791 61.112)"/>
    <path id="Path_17" data-name="Path 17" d="M98.8,131.26c.447.119.879.253,1.312.4.209.075.432.149.641.238.089.045.194.075.283.119.253.1-.417-.194-.045,0a22.367,22.367,0,0,1,2.429,1.3c.373.224.73.477,1.073.73.089.075.224.134.313.224-.075-.089-.313-.253-.089-.075.179.149.358.283.537.432a18.051,18.051,0,0,1,2,2,2.249,2.249,0,0,0,3.16,0,2.292,2.292,0,0,0,0-3.16,21.5,21.5,0,0,0-10.418-6.513,2.268,2.268,0,0,0-2.757,1.565,2.294,2.294,0,0,0,1.565,2.757Z" transform="translate(47.662 62.232)"/>
    <path id="Path_18" data-name="Path 18" d="M98.071,132.921l8.57,6.6a2.242,2.242,0,0,0,3.294-2.534,2.753,2.753,0,0,0-1.028-1.341l-8.57-6.6a2.242,2.242,0,0,0-3.294,2.534,2.753,2.753,0,0,0,1.028,1.341" transform="translate(47.555 63.149)"/>
    <path id="Path_19" data-name="Path 19" d="M104.96,130.839l5.813-4.784a2.231,2.231,0,0,0,0-3.16,2.3,2.3,0,0,0-1.58-.656,2.575,2.575,0,0,0-1.58.656l-5.813,4.784a2.231,2.231,0,0,0,0,3.16,2.3,2.3,0,0,0,1.58.656A2.574,2.574,0,0,0,104.96,130.839Z" transform="translate(49.61 59.955)"/>
    <path id="Path_20" data-name="Path 20" d="M107.668,131.549l.179-.268-.343.447a2.144,2.144,0,0,1,.417-.4l-.447.343a2.95,2.95,0,0,1,.6-.343l-.537.224a3.507,3.507,0,0,1,.775-.209l-.6.075a4.188,4.188,0,0,1,.864,0l-.6-.075a2.815,2.815,0,0,1,.715.194l-.537-.224a3.422,3.422,0,0,1,.6.343l-.447-.343a2.144,2.144,0,0,1,.4.417l-.343-.447a1.765,1.765,0,0,1,.119.179,2.376,2.376,0,0,0,1.341,1.028,2.33,2.33,0,0,0,1.729-.224,2.226,2.226,0,0,0,1.028-1.341,2.262,2.262,0,0,0-.224-1.729,5.074,5.074,0,0,0-8.511.089,2.331,2.331,0,0,0-.224,1.729,2.236,2.236,0,0,0,2.757,1.565,2.342,2.342,0,0,0,1.341-1.028Z" transform="translate(50.792 62.256)"/>
    <path id="Path_21" data-name="Path 21" d="M106.285,135.389c.224-.045.432-.089.656-.119l-.6.075a7.579,7.579,0,0,1,2.012,0l-.6-.075a7.931,7.931,0,0,1,1.938.522l-.537-.224a7.982,7.982,0,0,1,1.267.686,2.253,2.253,0,0,0,1.729.224,2.226,2.226,0,0,0,1.341-1.028,2.277,2.277,0,0,0-.8-3.055,9.856,9.856,0,0,0-7.587-1.312,2.256,2.256,0,0,0-1.565,2.757A2.3,2.3,0,0,0,106.3,135.4Z" transform="translate(50.743 64.169)"/>
    <path id="Path_22" data-name="Path 22" d="M202.282,6.275c-11.834-2.862-25.115-1.1-34.713,6.379s-14.592,21.09-10.4,32.522a39.842,39.842,0,0,0,4.606,8.511c4.322,6.409,9.673,12.475,16.768,15.516,11.194,4.8,25.085.656,33.133-8.481s10.6-22.342,8.272-34.311c-1.818-9.36-8.064-19.287-17.573-19.883" transform="translate(76.355 2.441)" fill="#bdb0ff"/>
    <path id="Path_23" data-name="Path 23" d="M203.448,5.013c-14.234-3.354-30.972-.551-40.9,10.955a33.487,33.487,0,0,0-8.093,18.87c-.656,7.572,2.087,14.294,6.26,20.479s9.45,12.371,16.4,15.725a29.165,29.165,0,0,0,20.077,1.744c14.562-3.771,23.907-16.738,25.8-31.255,1.789-13.727-3.13-35-19.958-36.353-2.519-.209-2.5,3.726,0,3.935,5.9.477,10.18,5.068,12.788,10.046a36.155,36.155,0,0,1,3.607,18.02c-.462,12.937-7.214,25.681-19.645,30.629a26.729,26.729,0,0,1-17.528,1.058c-6.5-1.967-11.656-6.856-15.71-12.147s-7.8-11.164-8.2-17.916a28.361,28.361,0,0,1,4.71-17.006c8.362-12.833,25.189-16.336,39.364-13,2.459.581,3.518-3.2,1.043-3.8Z" transform="translate(75.711 1.81)"/>
    <path id="Path_24" data-name="Path 24" d="M170.971,37.4,137.734,66.149C135.14,68.4,132.442,70.785,131.25,74s-.283,7.5,2.847,8.9c3.488,1.565,7.333-1.043,10.269-3.488l37.352-31.2" transform="translate(64.129 18.343)" fill="#bdb0ff"/>
    <path id="Path_25" data-name="Path 25" d="M170.2,36.643,148.777,55.169l-10.7,9.256c-2.921,2.519-6.066,5.068-7.691,8.66-2.713,5.947.79,14.115,8.213,12.729,3.935-.73,7.065-3.786,10.031-6.26l10.746-8.988,24.34-20.33c1.938-1.625-.85-4.4-2.787-2.787-12.595,10.523-25.01,21.329-37.814,31.583-2.116,1.7-6.2,4.65-8.66,1.908-1.878-2.1-1.177-5.321.179-7.467,1.878-3,5.008-5.217,7.646-7.5l9.3-8.049L173,39.4c1.923-1.654-.879-4.427-2.787-2.787Z" transform="translate(63.504 17.712)"/>
    <path id="Path_26" data-name="Path 26" d="M182.944,11.535c-6.856,1.327-14.413,3.1-18.348,8.868a17.018,17.018,0,0,0-2.564,6.737C160.006,39.2,169.694,52.016,181.871,53.1S205.942,43,205.331,30.777,191.455,8.569,179.605,11.609" transform="translate(79.342 5.424)" fill="#fbfaf4"/>
    <path id="Path_27" data-name="Path 27" d="M183.059,10.269c-4.978.969-10.195,2.1-14.5,4.919a18.193,18.193,0,0,0-7.885,12.833c-1.327,9.554,3.845,19.272,11.909,24.34,8.615,5.41,19.287,3.935,26.888-2.534s10.717-16.932,6.558-26.113c-4.412-9.733-15.8-15.889-26.292-13.37-2.459.6-1.416,4.382,1.043,3.8,7.751-1.863,16.038,2.206,20.3,8.734,4.665,7.139,3.4,16.008-2.325,22.178s-14.338,8.719-22,5.112A21.893,21.893,0,0,1,164.369,31.3c-.075-4.9,1.789-9.748,5.947-12.58s9.047-3.741,13.772-4.665c2.489-.477,1.431-4.278-1.043-3.8Z" transform="translate(78.706 4.796)"/>
    <path id="Path_28" data-name="Path 28" d="M184.763,17.059a12.268,12.268,0,0,0-16.216,3.5,1.99,1.99,0,0,0,.7,2.7,2.029,2.029,0,0,0,2.7-.7s.3-.417.164-.238.149-.179.179-.224c.194-.224.4-.432.611-.641.1-.1.224-.194.328-.3.06-.045.373-.3.089-.075.238-.179.477-.343.73-.507.224-.134.462-.268.7-.388.134-.075.268-.134.4-.194.328-.164-.1.03.1-.045a11.853,11.853,0,0,1,1.714-.507c.149-.03.835-.119.447-.089.3-.03.6-.06.894-.06h.894c.149,0,.3.03.447.03.328.03-.462-.089.089,0a9.662,9.662,0,0,1,1.714.447,3.035,3.035,0,0,1,.328.134c-.343-.149.03.03.1.06.3.149.581.313.864.477a1.971,1.971,0,0,0,2-3.4Z" transform="translate(82.531 7.531)"/>
    <path id="Path_29" data-name="Path 29" d="M246.774,41.075a375.031,375.031,0,0,0,43.507-1.267c3.488-.313,7.02-.864,10.523-.924,2.668-.045,5.887.447,7.423,2.936,2.877,4.7-4.948,7.929-8.2,8.9a83.844,83.844,0,0,1-23.758,3.473c-2.877,0-2.877,4.486,0,4.471a89.466,89.466,0,0,0,23.922-3.339c5.276-1.505,12.267-4.427,13-10.7.85-7.318-7.05-10.463-13.057-10.21-4.144.179-8.272.79-12.4,1.118s-8.272.6-12.416.8q-14.264.671-28.543.253c-2.877-.089-2.877,4.382,0,4.471Z" transform="translate(119.981 16.872)"/>
    <path id="Path_30" data-name="Path 30" d="M299.6,57.063c2.981.253,5.6,1.982,8.272,3.16a15.586,15.586,0,0,0,8.988,1.431c6.648-1.1,12-6.32,17.6-9.688a95.672,95.672,0,0,1,9.554-5.038c3.279-1.505,6.618-3.19,10.046-3.562,6.111-.671,6.215,5.962,3.8,9.822-1.55,2.5-4.293,4.1-6.782,5.545a61.187,61.187,0,0,0-8.093,5.187c-4.561,3.726-7.229,9.33-11.954,12.863-5.381,4.039-12.505,3.264-18.75,2.266-7.706-1.222-15.412-2.549-23.117-3.816-8.719-1.446-17.424-2.906-26.143-4.322-7.974-1.3-16.187-2.34-24.056.06-2.742.835-1.58,5.157,1.192,4.308,7.542-2.3,15.412-1.088,23.028.164q12.408,2.035,24.787,4.1c8.257,1.371,16.231,2.8,24.369,4.009,6.782,1.014,14.294,1.535,20.285-2.444,5.291-3.518,8.168-9.345,12.863-13.474,4.919-4.337,11.969-6.036,15.844-11.611,2.847-4.084,3.816-10.6.164-14.517-5.112-5.485-13.653-1.163-19.153,1.3a95.2,95.2,0,0,0-11.611,6.186c-3.443,2.161-6.648,4.755-10.24,6.662a11.381,11.381,0,0,1-10.642.6c-3.413-1.49-6.5-3.339-10.284-3.667-2.862-.238-2.847,4.233,0,4.471Z" transform="translate(116.443 19.053)"/>
    <path id="Path_31" data-name="Path 31" d="M295.51,44.605c-7.557-4.412-15.531-9.286-19.3-17.17s-.865-19.54,7.646-21.567C290.8,4.228,298.3,11.039,297.328,18.1c1.014-5.247,4.516-10.18,9.539-11.969s11.417.313,13.653,5.157c3.026,6.588-2.221,14.011-7.87,18.557s-12.535,8.809-14.264,15.859" transform="translate(134.68 2.7)" fill="#bdb0ff"/>
    <path id="Path_32" data-name="Path 32" d="M297.38,43.407c-7.572-4.442-17.319-9.927-19.451-19.227-1.446-6.32,1.759-16.857,10.031-15.5a9.543,9.543,0,0,1,7.87,10.165c-.268,2.5,3.875,3.041,4.4.6.894-4.278,3.368-8.451,7.527-10.24,3.5-1.505,8.228-.656,10.642,2.4,3.1,3.905.879,9.122-1.789,12.58-2.936,3.831-7.02,6.439-10.7,9.45-3.994,3.264-7.587,7.11-8.943,12.222-.745,2.787,3.577,3.965,4.307,1.192,1.431-5.366,6.007-8.9,10.195-12.147,4.5-3.488,8.988-7.139,11.387-12.46,2.236-4.963,2.057-10.94-2.131-14.845a13.949,13.949,0,0,0-13.727-2.877c-5.887,2.072-9.852,7.557-11.1,13.534l4.4.6c.611-5.515-2.906-10.9-7.78-13.3a12.415,12.415,0,0,0-14.145,1.938c-3.532,3.19-5.172,8.138-5.276,12.8-.119,5.53,2.146,10.463,5.649,14.651,4.427,5.276,10.523,8.913,16.4,12.341,2.489,1.461,4.74-2.4,2.251-3.86Z" transform="translate(133.942 1.961)"/>
    <path id="Path_33" data-name="Path 33" d="M185.392,102.023l-5.217,89.593a2.282,2.282,0,0,0,2.236,2.236c27.678,3.041,55.4-2.1,83.109-.477a124.749,124.749,0,0,1,23.1,3.428,2.264,2.264,0,0,0,2.832-2.161q2.236-44.67,1-89.414a2.285,2.285,0,0,0-1.64-2.161,307.847,307.847,0,0,0-81.157-3.458q-11.447,1.051-22.79,2.921c-2.832.462-1.625,4.77,1.192,4.307a303.068,303.068,0,0,1,79.279-2.534q11.2,1.118,22.283,3.07l-1.64-2.161q1.23,44.715-1,89.414l2.832-2.161c-27.44-6.9-55.729-2.534-83.586-2.131a192.3,192.3,0,0,1-23.8-.969l2.236,2.236,5.217-89.593c.164-2.877-4.307-2.862-4.471,0Z" transform="translate(88.371 48.245)"/>
    <path id="Path_34" data-name="Path 34" d="M194.528,113.422l-1.774,27.947a171.957,171.957,0,0,0,25.368,1.61,4.243,4.243,0,0,0,2.579-.581c1.073-.775,1.207-2.28,1.267-3.607q.559-14.219,1.118-28.424a59.285,59.285,0,0,0-29.258.089" transform="translate(94.543 53.256)" fill="#bdb0ff"/>
    <path id="Path_35" data-name="Path 35" d="M193.029,114.148l-1.774,27.947a2.249,2.249,0,0,0,1.64,2.161c5.664.775,11.343,1.327,17.066,1.55q4.136.179,8.272.134c2.176-.015,4.471-.268,5.738-2.31s1-4.5,1.088-6.707l.328-8.391.686-17.439a2.263,2.263,0,0,0-1.64-2.161,62.6,62.6,0,0,0-30.436.089c-2.787.7-1.61,5.023,1.192,4.307a57.692,57.692,0,0,1,28.066-.089l-1.64-2.161-.581,14.86-.283,7.423a65.173,65.173,0,0,1-.3,7.035c-.119.73-.164.924-.879,1.028a21.106,21.106,0,0,1-3.219.03c-2.549,0-5.083-.074-7.631-.194-4.889-.238-9.763-.671-14.607-1.341l1.64,2.161,1.774-27.947c.179-2.877-4.293-2.862-4.471,0Z" transform="translate(93.806 52.53)"/>
    <path id="Path_36" data-name="Path 36" d="M226.928,132.383l.194,23.013a3.953,3.953,0,0,0,.835,2.951,4.006,4.006,0,0,0,2.5.775l18.914,1.416-.03-30.421-23.43-.149" transform="translate(110.807 63.747)" fill="#bdb0ff"/>
    <path id="Path_37" data-name="Path 37" d="M225.407,133.113l.1,13.325.06,6.662c.015,1.967-.268,4.278.551,6.126a4.975,4.975,0,0,0,4.367,2.8c2.087.238,4.188.328,6.29.492l13.3,1a2.262,2.262,0,0,0,2.236-2.236l-.03-30.421a2.282,2.282,0,0,0-2.236-2.236l-23.43-.149c-2.877-.015-2.877,4.457,0,4.471l23.43.149-2.236-2.236.03,30.421,2.236-2.236-11.238-.835-5.917-.447a7.37,7.37,0,0,1-2.37-.209c-.581-.268-.477-.4-.492-1.192-.224-7.736-.134-15.5-.194-23.237-.03-2.877-4.5-2.877-4.471,0Z" transform="translate(110.092 63.016)"/>
  </g>
</svg>
