<?xml version="1.0" encoding="UTF-8"?><svg id="Layer_2" xmlns="http://www.w3.org/2000/svg" viewBox="0 0 193.17 63.04"><defs><style>.cls-1{fill:#1d1d1b;stroke-width:0px;}</style></defs><g id="Layer_1-2"><path class="cls-1" d="M24.07,12.6c.27,1.32.45,2.65.52,3.99.04.92.07,1.95-.42,2.77-.27.44-.67.7-1.18.79-.62.1-1.3.11-1.93.06-1.09-.09-2.55-.84-2.22-2.18.06-.22-.28-.31-.34-.09-.21.84.24,1.64.93,2.12.91.62,2.13.55,3.17.48.9-.06,1.61-.41,2-1.25.36-.79.38-1.69.35-2.54-.06-1.42-.24-2.84-.54-4.23-.05-.22-.38-.13-.34.09h0Z"/><path class="cls-1" d="M29.14,16.99c-.24.83-.41,1.75-.06,2.57.3.7.94,1.21,1.69,1.33,1.48.23,2.81-.81,3.21-2.19.25-.87.19-1.81-.08-2.67-.07-.21-.41-.12-.34.09.4,1.27.33,2.89-.74,3.82-.95.83-2.57.91-3.29-.27-.48-.79-.3-1.76-.05-2.6.06-.22-.27-.31-.34-.09h0Z"/><path class="cls-1" d="M36.74,12.52c.14,2.6.28,5.21.43,7.81.01.22.36.23.35,0-.14-2.6-.28-5.21-.43-7.81-.01-.22-.36-.23-.35,0h0Z"/><path class="cls-1" d="M41.79,17.07c.24,1.07.32,2.16.24,3.26-.02.22.33.22.35,0,.08-1.12,0-2.25-.25-3.35-.05-.22-.39-.13-.34.09h0Z"/><path class="cls-1" d="M43.28,13.96s-.02,0-.02-.02l.04.03s-.01,0-.02-.02l.03.04s0-.01-.01-.02l.02.04s0-.01,0-.02v.05s0-.01,0-.02v.05s0-.02,0-.03l-.02.04s.01-.02.02-.04l-.03.04s.03-.03.05-.05l-.04.03s.04-.03.06-.04l-.04.02s.03-.01.05-.01h-.05s.02,0,.03,0h-.05s.02,0,.02,0l-.04-.02s.01,0,.02,0l-.04-.03s0,0,.01.01l-.03-.04s0,.01.01.02l-.02-.04s0,.02,0,.03v-.05s0,0,0,0c0,.02,0,.05.02.07,0,.02.02.04.04.06.02.02.03.03.06.04.02.01.04.02.07.02.05,0,.09-.02.12-.05l.03-.04s.02-.06.02-.09c0-.05-.01-.1-.04-.14,0-.02-.02-.03-.03-.04,0,0,0,0,0,0-.04-.03-.05-.04-.09-.05-.03-.01-.06-.01-.09-.01-.03,0-.07,0-.1.02s-.06.03-.09.04-.06.04-.08.06c0,0-.01.01-.02.02-.01.02-.03.04-.04.06-.02.04-.03.08-.04.13,0,.02,0,.05,0,.07,0,0,0,0,0,.01,0,.02.01.04.02.05.03.04.06.08.11.1.02.01.04.02.07.02.02,0,.05,0,.07,0,.02,0,.04-.02.06-.03.02-.01.03-.03.05-.05.02-.04.03-.09.02-.13-.01-.04-.04-.08-.08-.1h0Z"/><path class="cls-1" d="M49.87,17.43c-.61-.8-1.47-1.82-2.58-1.78s-1.77,1.18-2.17,2.11-.42,2.06.54,2.67c.74.47,1.77.47,2.51-.02,1.01-.68,1.42-1.93,1.44-3.1l-.34.05c.27,1.45.77,2.85,1.49,4.15.11.2.41.02.3-.18-.7-1.27-1.19-2.64-1.45-4.06-.04-.2-.34-.15-.34.05-.02.89-.26,1.82-.89,2.48-.56.58-1.37.79-2.14.53-.9-.31-1.2-1.15-.93-2.03.25-.81.78-1.96,1.66-2.23,1.09-.33,2.03.78,2.61,1.55.13.18.44,0,.3-.18h0Z"/><path class="cls-1" d="M59.46,16.71c1.05-.05,2.09.07,3.09.39.45.14.92.3,1.31.56.2.13.44.36.27.61-.1.15-.31.22-.47.27-.4.12-.81.18-1.2.32-.37.13-.73.3-1.07.5-.73.43-1.36,1.02-1.86,1.7-.07.09,0,.23.1.26,1.79.45,3.64.64,5.49.58.22,0,.23-.36,0-.35-1.82.07-3.63-.12-5.39-.56l.1.26c.47-.64,1.06-1.18,1.74-1.58.34-.2.7-.37,1.07-.5.34-.12.7-.17,1.04-.27.51-.14,1.11-.56.76-1.16-.18-.31-.54-.47-.85-.61-.39-.17-.79-.32-1.2-.44-.95-.27-1.95-.38-2.94-.33-.22.01-.23.36,0,.35h0Z"/><path class="cls-1" d="M69.64,17.16c-.96-.24-1.89.31-2.4,1.11-.28.44-.45.94-.55,1.44s-.18,1.06,0,1.55c.28.74,1.09,1.1,1.85,1.02.88-.09,1.54-.77,1.86-1.56.48-1.18.19-2.47-.09-3.67-.05-.22-.39-.13-.34.09.22.93.46,1.92.27,2.88-.15.73-.56,1.5-1.28,1.8-.59.25-1.41.12-1.8-.42-.27-.37-.26-.86-.2-1.29s.17-.86.35-1.26c.38-.85,1.24-1.61,2.23-1.37.22.05.31-.28.09-.34h0Z"/><path class="cls-1" d="M72.91,19.28c.66.2,1.37.42,2.06.25.48-.12.95-.43,1.15-.9.39-.94-.49-1.74-1.36-1.87-1.09-.16-1.92.73-2.38,1.62-.51.99-.99,2.28-.15,3.23,1.03,1.16,2.69.87,4.02.55.22-.05.13-.39-.09-.34-1.04.24-2.23.52-3.2-.07-.38-.23-.71-.58-.81-1.01-.13-.55.09-1.13.29-1.63.31-.79.82-1.73,1.7-1.98.66-.19,1.7.21,1.73,1,.02.52-.45.91-.91,1.04-.65.19-1.33-.04-1.94-.23-.22-.07-.31.27-.09.34h0Z"/><path class="cls-1" d="M78.34,16.08c.21,1.9.29,3.8.25,5.71,0,.13.15.23.26.15,1.15-.8,2.3-1.61,3.45-2.42.26-.18.53-.35.77-.54.15-.12.29-.29.25-.49-.06-.31-.55-.39-.63-.05-.05.22.28.31.34.09-.04.16-.37.32-.49.41-.18.13-.37.26-.55.39-.37.26-.74.52-1.1.77-.74.52-1.47,1.03-2.21,1.55l.26.15c.04-1.91-.04-3.82-.25-5.71-.02-.22-.37-.22-.35,0h0Z"/><path class="cls-1" d="M81.78,20.8c-.02,1.03.98,1.97,2.01,1.85.09-.01.18-.07.18-.18,0-.09-.08-.19-.18-.18-.85.09-1.68-.64-1.66-1.5,0-.23-.35-.23-.35,0h0Z"/><path class="cls-1" d="M86.42,14.48c.65,2.61.92,5.29.81,7.97,0,.23.34.22.35,0,.12-2.71-.16-5.43-.82-8.06-.05-.22-.39-.13-.34.09h0Z"/><path class="cls-1" d="M85.68,19.32h3.78c.23,0,.23-.35,0-.35h-3.78c-.23,0-.23.35,0,.35h0Z"/><path class="cls-1" d="M103.16,19.61c-1.5-1.64-4.38-1.5-5.34.64-.42.93-.4,2.12.3,2.92.76.87,2.1.57,2.84-.18.47-.48.75-1.1.99-1.72.31-.82.6-1.66.89-2.48l-.34-.09c-.34,1.93.29,3.94,1.69,5.32.16.16.41-.09.25-.25-1.3-1.29-1.91-3.18-1.6-4.98.04-.22-.26-.31-.34-.09-.39,1.08-.7,2.25-1.25,3.27-.45.85-1.48,1.77-2.51,1.25-.89-.45-1-1.73-.72-2.57.3-.89,1.03-1.58,1.95-1.77,1.06-.22,2.19.18,2.92.97.15.17.4-.08.25-.25h0Z"/><path class="cls-1" d="M110.1,19.01c-1.29-.82-3.12.01-3.57,1.42-.54,1.7.72,3.45,2.32,3.96,1.05.33,2.2.21,3.21-.19.21-.08.12-.42-.09-.34-1.5.59-3.42.53-4.52-.8-.94-1.13-.98-2.91.39-3.71.64-.37,1.44-.44,2.08-.04.19.12.37-.18.18-.3h0Z"/><path class="cls-1" d="M114.46,15.13c.07,2.92.14,5.83.22,8.75,0,.22.36.23.35,0-.07-2.92-.14-5.83-.22-8.75,0-.22-.36-.23-.35,0h0Z"/><path class="cls-1" d="M112.38,20.29c1.33-.12,2.66-.08,3.98.13.22.03.32-.3.09-.34-1.35-.21-2.71-.26-4.07-.14-.22.02-.22.37,0,.35h0Z"/><path class="cls-1" d="M119.08,20.56c.13,1.31.42,2.61.89,3.84.08.21.42.12.34-.09-.45-1.21-.75-2.47-.87-3.75-.02-.22-.37-.22-.35,0h0Z"/><path class="cls-1" d="M120.88,17.19h.24s.09-.02.12-.05c.02-.02.03-.03.04-.06.01-.02.02-.04.02-.07,0-.05-.02-.09-.05-.12s-.08-.05-.12-.05h-.24s-.09.02-.12.05c-.02.02-.03.03-.04.06-.01.02-.02.04-.02.07,0,.05.02.09.05.12s.08.05.12.05h0Z"/><path class="cls-1" d="M122.23,21.17c1.01.61,2.46,1.31,3.47.27.86-.89.07-2.15-1-2.34-1.26-.21-2.32.96-2.78,2-.5,1.11-.42,2.43.57,3.23s2.36.92,3.57.96c.23,0,.22-.34,0-.35-1.65-.06-4.25-.44-4.1-2.66.07-1.04.78-2.2,1.73-2.67.46-.23.99-.26,1.44,0,.43.25.74.74.54,1.24s-.82.77-1.35.76c-.7-.02-1.33-.41-1.91-.76-.19-.12-.37.19-.18.3h0Z"/><path class="cls-1" d="M129.11,22.03c1.02.46,2.18.03,2.84-.84.73-.96.97-2.6.64-3.76-.11-.38-.34-.77-.76-.85-.56-.1-.97.42-1.25.83-.8,1.18-1.06,2.63-1.13,4.03-.1,1.99.19,3.99-.31,5.95l.26-.1c-.92-.49-1.13-1.82-.39-2.56l-.21.03c1.2.66,2.53.99,3.9.94.22,0,.23-.36,0-.35-1.31.05-2.57-.25-3.72-.89-.07-.04-.16-.03-.21.03-.89.9-.65,2.51.46,3.11.1.05.23,0,.26-.1.74-2.92-.27-6.07.88-8.91.22-.53,1.1-2.31,1.77-1.38.36.5.26,1.43.19,2.01-.16,1.41-1.36,3.26-3.02,2.51-.2-.09-.38.21-.18.3h0Z"/><path class="cls-1" d="M139.82,21.45c-.5,1.19-.82,2.44-.96,3.72h.35c.03-1.04.26-2.06.69-3.01.35-.77.99-1.82,1.99-1.35.82.38,1.36,1.35,1.67,2.16.33.87.43,1.82.28,2.74-.03.22.3.32.34.09.26-1.62-.18-3.34-1.26-4.6-.48-.56-1.21-1.05-1.97-.78s-1.14,1.06-1.43,1.74c-.41.95-.63,1.97-.67,3.01,0,.23.33.22.35,0,.14-1.25.46-2.47.95-3.62.09-.21-.25-.3-.34-.09h0Z"/><path class="cls-1" d="M149.57,21.72c-.13-.37-.45-.58-.84-.62-.43-.05-.82.15-1.13.45-.36.36-.63.83-.89,1.26-.28.48-.51.99-.58,1.54-.11.82.24,1.77,1.06,2.09.88.35,1.79-.25,2.3-.94.77-1.03.73-2.42,1.36-3.53l-.32-.13c-.35,1.67.02,3.43,1.04,4.8.13.18.44,0,.3-.18-.96-1.29-1.34-2.95-1.01-4.53.04-.19-.22-.31-.32-.13-.78,1.36-.62,3.7-2.37,4.32-.82.29-1.52-.29-1.67-1.09-.17-.88.31-1.71.76-2.43.24-.38.49-.81.9-1.03.34-.19.92-.17,1.07.26.08.21.41.12.34-.09h0Z"/><path class="cls-1" d="M155.64,22.46c0-.39-.29-.68-.65-.78-.42-.12-.83.04-1.14.34-.38.35-.64.86-.87,1.31-.25.49-.46,1.02-.5,1.58-.07.89.34,1.87,1.22,2.19.84.3,1.81-.09,2.4-.7.85-.88,1.02-2.19,1.17-3.34.03-.2-.3-.24-.34-.05-.36,1.48-.07,3.07.8,4.33.13.18.43,0,.3-.18-.81-1.18-1.1-2.66-.76-4.06l-.34-.05c-.2,1.49-.59,3.61-2.45,3.79-.8.08-1.42-.45-1.6-1.21-.21-.88.18-1.75.61-2.5.22-.38.46-.83.86-1.05.33-.18.95-.09.95.38,0,.23.35.23.35,0h0Z"/><path class="cls-1" d="M160.66,23.36c-.2,1.18-.03,2.37.49,3.45l.3-.18c-.59-1.07-.4-2.51.48-3.36s2.39-.98,3.43-.31c.19.12.37-.18.18-.3-.92-.59-2.11-.63-3.09-.17s-1.61,1.48-1.69,2.57c-.05.61.09,1.22.38,1.75.11.2.4.02.3-.18-.47-.99-.63-2.1-.45-3.18.04-.22-.3-.32-.34-.09h0Z"/><path class="cls-1" d="M36.34,30.25c.11,1.31.06,2.61-.16,3.9h.34c-.14-.89-.07-1.79.21-2.64.14-.43.33-.83.56-1.21.11-.17.22-.39.37-.52.34-.29.69.02.95.26,1.25,1.15,1.89,2.85,1.75,4.54h.35c-.04-.99.14-1.98.55-2.88.36-.78,1.11-2.16,2.13-1.51.79.51,1.07,1.61,1.2,2.48.16,1.07.05,2.15-.28,3.17-.07.21.27.31.34.09.39-1.17.47-2.42.23-3.64-.18-.94-.58-2.12-1.55-2.53-1.06-.45-1.8.64-2.23,1.45-.54,1.03-.8,2.19-.75,3.36,0,.23.33.22.35,0,.08-1.02-.11-2.04-.54-2.97-.21-.45-.48-.88-.8-1.26-.3-.36-.68-.82-1.13-.99-.91-.35-1.47,1.06-1.72,1.7-.41,1.02-.51,2.12-.35,3.2.03.17.31.17.34,0,.22-1.32.28-2.66.17-4-.02-.22-.37-.22-.35,0h0Z"/><path class="cls-1" d="M47.25,33.06c.74.31,1.61.66,2.41.37.6-.22,1.11-.77,1.05-1.44,0-.08-.05-.15-.13-.17-1.46-.4-3.15.63-3.38,2.14s1.1,3.13,2.68,3.1c1.1-.02,2.06-.67,2.9-1.32.18-.14,0-.44-.18-.3-1.2.92-2.87,1.9-4.23.7-.5-.44-.85-1.09-.86-1.77s.33-1.3.85-1.73c.59-.48,1.38-.69,2.12-.49l-.13-.17c.05.6-.47,1.06-1.02,1.17-.68.14-1.39-.17-2-.43-.21-.09-.3.25-.09.34h0Z"/><path class="cls-1" d="M52.68,34.74c-.09.91.07,1.81.44,2.65.06.13.29.1.32-.04.15-.86-.06-1.71-.01-2.58.05-.81.48-1.48,1.25-1.76,1.56-.55,2.94.7,3.33,2.14.29,1.08.09,2.22-.24,3.26-.07.22.27.31.34.09.57-1.79.64-4.05-.96-5.35-.62-.5-1.39-.72-2.17-.58-.74.13-1.42.6-1.71,1.3-.45,1.08.03,2.27-.17,3.38l.32-.04c-.35-.78-.47-1.63-.39-2.48.02-.22-.33-.22-.35,0h0Z"/><path class="cls-1" d="M61.43,34.46c-.35,1.1-.38,2.29-.07,3.41.06.22.4.12.34-.09-.29-1.06-.27-2.18.07-3.22.07-.22-.27-.31-.34-.09h0Z"/><path class="cls-1" d="M62.64,31.79l.24.24s.08.05.12.05c.02,0,.05,0,.07-.02.02,0,.04-.02.06-.04.03-.03.05-.08.05-.12s-.02-.09-.05-.12l-.24-.24s-.08-.05-.12-.05c-.02,0-.05,0-.07.02-.02,0-.04.02-.06.04-.03.03-.05.08-.05.12s.02.09.05.12h0Z"/><path class="cls-1" d="M64.72,36.15l.06,2.39.34-.05c-.14-1.03-.31-2.21.26-3.14.23-.38.57-.71,1-.86.47-.17.95-.06,1.36.19.79.49,1.38,1.36,1.7,2.21s.42,1.8.26,2.71c-.04.22.3.31.34.09.3-1.64-.18-3.37-1.29-4.61-.54-.6-1.28-1.13-2.12-1.02-.75.1-1.36.68-1.68,1.35-.47.99-.31,2.12-.16,3.17.03.2.35.15.34-.05l-.06-2.39c0-.22-.36-.23-.35,0h0Z"/><path class="cls-1" d="M76.91,36.51c-.48-.93-1.55-1.44-2.57-1.29s-1.88,1.08-2.07,2.12c-.2,1.12.37,2.3,1.4,2.82.97.49,2.23.37,3.06-.36.95-.84,1.14-2.31.53-3.39-.08-.15-.33-.08-.33.09.02,1.33.04,2.67.06,4,.01.64.02,1.27.03,1.91s.06,1.33-.55,1.74c-.74.49-1.86.6-2.72.55-.91-.05-1.81-.39-2.2-1.27-.09-.21-.39-.03-.3.18.81,1.83,3.65,1.72,5.17.98,1.23-.6.95-2.03.94-3.17-.03-1.64-.05-3.27-.08-4.91l-.33.09c.6,1.06.3,2.51-.76,3.17s-2.64.33-3.3-.79c-.62-1.06-.28-2.53.79-3.16,1.01-.6,2.39-.15,2.92.88.1.2.41.02.3-.18h0Z"/><path class="cls-1" d="M80.48,39.6c.78,0,1.54-.18,2.25-.49.67-.3,1.35-.73,1.72-1.38.31-.53.33-1.25-.2-1.65-.43-.33-1.04-.32-1.54-.17-1.18.37-1.88,1.63-1.98,2.8s.49,2.41,1.63,2.91,2.67.27,3.46-.79c.13-.18-.17-.36-.3-.18-.59.79-1.68,1.03-2.6.79-1.02-.26-1.72-1.1-1.83-2.15s.31-2.15,1.16-2.77c.38-.28.89-.44,1.36-.36.56.1.84.61.65,1.14-.25.69-.96,1.14-1.59,1.44-.68.33-1.43.49-2.19.5-.23,0-.23.35,0,.35h0Z"/><path class="cls-1" d="M87.18,37.57c-.11,1.32-.04,2.64.19,3.95.03.2.34.14.34-.05.03-1.44.53-5.28,2.83-4.31.91.38,1.34,1.4,1.51,2.31.21,1.08.08,2.21-.35,3.22-.09.2.21.38.3.18.68-1.61.76-3.8-.35-5.25-.47-.61-1.22-1.02-2.01-.92s-1.33.77-1.63,1.49c-.43,1.04-.63,2.18-.65,3.3l.34-.05c-.22-1.27-.28-2.57-.17-3.86.02-.22-.33-.22-.35,0h0Z"/><path class="cls-1" d="M101.52,39.09c1.07.35,2.5.74,3.35-.26.29-.33.47-.77.41-1.22s-.41-.81-.85-.94c-1.12-.35-2.02.62-2.46,1.53-.25.51-.41,1.08-.31,1.66.09.5.39.95.76,1.28,1.11.98,2.65.87,4.02.73.22-.02.22-.37,0-.35-1.04.11-2.2.24-3.17-.24-.82-.4-1.44-1.2-1.27-2.15.16-.85.8-1.99,1.72-2.16.4-.08.87.03,1.1.39.21.33.12.74-.08,1.05-.69,1.09-2.14.66-3.13.33-.21-.07-.31.27-.09.34h0Z"/><path class="cls-1" d="M108.72,38.5c-.36,1.19-.69,2.73.3,3.71.1.1.31.03.3-.12-.15-1.48-.29-3.5,1.28-4.3s2.99,1.04,3.47,2.31c.31.81.42,1.69.28,2.55-.03.22.3.32.34.09.27-1.7-.31-3.53-1.6-4.7-.6-.55-1.4-.93-2.22-.72-.77.2-1.37.84-1.68,1.55-.44,1.01-.33,2.16-.22,3.22l.3-.12c-.89-.88-.52-2.32-.21-3.37.06-.22-.27-.31-.34-.09h0Z"/><path class="cls-1" d="M124.88,41.37c2.62-.07,5.14-3.32,3.43-5.75-.68-.96-2.02-1.33-2.8-.27-.9,1.21-.61,3.16-.56,4.56.07,2.23.16,4.49-.61,6.62h.34c-.44-1.06-.45-2.18-.04-3.25l-.17.13c.94.1,1.81.46,2.54,1.06.17.14.42-.1.25-.25-.81-.67-1.74-1.05-2.79-1.16-.08,0-.14.06-.17.13-.44,1.12-.43,2.33.04,3.44.07.16.28.17.34,0,.62-1.72.7-3.54.67-5.35-.02-.98-.07-1.96-.07-2.94,0-.8-.02-1.65.31-2.39.43-.96,1.45-1.16,2.2-.42.65.65.82,1.6.64,2.47-.34,1.65-1.84,2.98-3.54,3.02-.22,0-.23.36,0,.35h0Z"/><path class="cls-1" d="M131.1,42.35c.91-.14,2.19-.42,2.36-1.52.06-.39-.03-.84-.31-1.13-.33-.34-.8-.33-1.2-.13-.25.13-.47.3-.7.47-.26.19-.52.4-.74.64-.36.39-.59.85-.66,1.37-.14.98.26,2.02,1.1,2.57.96.62,2.29.5,3.14-.25.17-.15-.08-.4-.25-.25-.63.56-1.58.7-2.36.38s-1.28-1.12-1.31-1.96c-.02-.41.07-.83.27-1.18.25-.44.65-.77,1.05-1.06.32-.23.8-.67,1.23-.49.29.13.41.5.41.79,0,1.05-1.32,1.28-2.12,1.41-.22.04-.13.37.09.34h0Z"/><path class="cls-1" d="M136.7,42.25c.6,0,1.2-.1,1.77-.29.44-.15.93-.33,1.19-.74.21-.32.22-.81-.07-1.09-.36-.35-.92-.14-1.32.03-.91.39-1.73,1.15-2.11,2.07s0,1.87.86,2.37c1.14.66,2.48.25,3.63-.14.21-.07.12-.41-.09-.34-.87.3-1.84.65-2.76.42-.7-.17-1.43-.72-1.45-1.5-.02-.85.68-1.66,1.33-2.14.32-.23.68-.42,1.06-.55.2-.06.46-.14.62.04.12.13.12.34.07.5-.15.44-.74.62-1.14.75-.52.17-1.06.25-1.6.25-.23,0-.23.35,0,.35h0Z"/><path class="cls-1" d="M147.14,40.79c-1.12-.82-2.52-.22-3.36.71-.73.8-1.64,2.3-.62,3.24.91.84,2.34.49,3.22-.21,1.12-.88,1.57-2.3,1.84-3.65.3-1.44.53-3.09-.36-4.37-.1-.15-.31-.09-.33.09-.17,1.9-.29,3.81-.36,5.73-.01.46-.03.93-.03,1.39,0,.35-.04.72.03,1.06.09.42.38.91.88.75.21-.07.12-.41-.09-.34-.64.2-.46-1.56-.46-1.82.02-.75.04-1.51.07-2.26.07-1.51.17-3.01.31-4.51l-.33.09c.83,1.21.6,2.75.32,4.11s-.74,2.87-1.99,3.66c-.58.37-1.32.56-1.99.33-.92-.32-.98-1.23-.59-2.01.62-1.25,2.25-2.71,3.65-1.67.18.13.36-.17.18-.3h0Z"/><path class="cls-1" d="M150.56,36.44c.56,1.34.38,2.97.41,4.39.03,1.51.05,3.02.08,4.53,0,.22.35.23.35,0-.03-1.63-.05-3.26-.08-4.89-.02-1.39.11-2.9-.45-4.21-.09-.21-.39-.03-.3.18h0Z"/><path class="cls-1" d="M152.29,42.04c1.32-.8,3.05-.67,4.33.17.62.4,1.42,1.18,1.44,1.97.03.98-1.38,1.52-2.15,1.7-1.03.23-2.29-.12-2.66-1.21-.07-.21-.41-.12-.34.09.32.96,1.28,1.52,2.27,1.54.59.01,1.17-.15,1.7-.39.47-.21.95-.49,1.26-.91.63-.87-.02-1.91-.67-2.55s-1.51-1.06-2.41-1.21c-1.01-.17-2.06-.02-2.94.51-.19.12-.02.42.18.3h0Z"/><path class="cls-1" d="M163.68,42.13c-.49-.16-.95-.4-1.37-.7-.05-.04-.13-.03-.18,0-.79.46-1.55,1.03-1.98,1.86-.37.7-.44,1.58-.08,2.3.8,1.61,2.97,1.09,3.89-.09.68-.87.94-1.97,1.17-3.03l-.34-.09c-.25,1.68-.44,3.9,1.31,4.87.2.11.37-.19.18-.3-1.59-.88-1.38-2.96-1.15-4.48.03-.22-.29-.32-.34-.09-.22,1.03-.46,2.14-1.15,2.97-.55.66-1.52,1.11-2.37.85-.95-.29-1.24-1.38-1-2.25.27-1.01,1.18-1.7,2.05-2.2h-.18c.44.32.93.57,1.45.74.21.07.31-.27.09-.34h0Z"/><path class="cls-1" d="M171.04,42.72c-.3-.63-1.04-.92-1.71-.82-.82.12-1.4.81-1.69,1.54-.63,1.57-.11,3.6,1.39,4.48.81.47,1.81.6,2.69.25.21-.08.12-.42-.09-.34-.85.33-1.81.2-2.56-.31-.8-.53-1.25-1.46-1.32-2.4-.07-.89.18-1.91.88-2.51.62-.54,1.73-.55,2.12.28.1.2.4.03.3-.18h0Z"/><path class="cls-1" d="M174.82,41.12c-.08,1.89-.05,3.79.11,5.68.01.15.18.24.3.12,1.56-1.55,3.25-2.95,5.07-4.18.19-.13.01-.43-.18-.3-1.84,1.25-3.56,2.67-5.14,4.24l.3.12c-.16-1.89-.19-3.79-.11-5.68.01-.23-.34-.22-.35,0h0Z"/><path class="cls-1" d="M177.99,43.87c.8,1.74,1.75,3.41,2.85,4.99.13.18.43,0,.3-.18-1.09-1.58-2.05-3.24-2.85-4.99-.09-.2-.4-.03-.3.18h0Z"/><path class="cls-1" d="M60.43,4.44C45.08,1.85,28.51-3.69,13.61,3.68,8.13,6.4,3.32,10.78,1.17,16.62-1.14,22.91.04,30.27,4.07,35.59c4.62,6.1,12.73,8.91,20.17,7.33l-.28-.28c-1.87,7.54-8.16,13.54-15.77,15.07-.21.04-.22.4,0,.43,5.27.76,10.67.13,15.6-1.88,2.54-1.03,4.83-2.43,7.02-4.05,1.21-.89,2.5-1.79,4.04-1.92,1.67-.14,3.45.45,5.07.78,12.84,2.67,25.74,5.07,38.71,7.01,25.57,3.83,51.48,5.88,77.33,4.56,9.33-.48,19.52-1.1,27.67-6.19,3.56-2.22,6.52-5.39,8.13-9.3,1.76-4.26,1.74-9.05.53-13.46-2.73-9.87-10.68-16.62-19.83-20.49-5.1-2.16-10.49-3.53-15.9-4.64-6.23-1.28-12.51-2.3-18.81-3.14-25.6-3.43-51.5-3.7-77.29-3.18-3.24.07-6.49.14-9.73.23-.29,0-.29.46,0,.45,25.21-.67,50.5-.87,75.62,1.62,12.1,1.2,24.37,2.8,36.17,5.84,10.21,2.63,20.76,7.24,26.4,16.64,5.02,8.36,5.44,19.31-2.05,26.37-6.73,6.34-16.86,7.84-25.71,8.47-25.31,1.81-50.8.16-75.9-3.29-12.51-1.72-24.96-3.89-37.35-6.34-3.19-.63-6.38-1.29-9.57-1.95-2.44-.51-4.44-.69-6.62.71s-4.32,3.12-6.81,4.27-5.29,2.01-8.07,2.43-5.73.42-8.57.01v.43c7.76-1.56,14.18-7.7,16.09-15.39.04-.17-.11-.31-.28-.28-6.69,1.42-13.99-.8-18.62-5.88C.86,31.53-.76,23.93,1.38,17.4,5.57,4.63,20.55-.01,32.68.45c9.35.35,18.44,2.87,27.63,4.42.28.05.41-.39.12-.43h0Z"/></g></svg>