<?xml version="1.0" encoding="UTF-8"?><svg id="Layer_2" xmlns="http://www.w3.org/2000/svg" viewBox="0 0 128.45 63.95"><defs><style>.cls-1{fill:#1d1d1b;stroke-width:0px;}</style></defs><g id="Layer_1-2"><path class="cls-1" d="M19.51,13.35c-.39,2.04.52,4.2-.19,6.19-.31.87-1.06,1.7-2.03,1.81s-1.85-.65-1.97-1.59c-.03-.22-.38-.22-.35,0,.11.87.72,1.64,1.58,1.88.94.26,1.91-.22,2.51-.95,1.69-2.05.33-4.9.78-7.25.04-.22-.29-.31-.34-.09h0Z"/><path class="cls-1" d="M21.67,18.17c-.54,1.13-.25,2.76,1.03,3.24.53.2,1.17.16,1.67-.12.63-.36.82-1.02.85-1.7.02-.4.06-.88-.18-1.22-.22-.3-.63-.4-.93-.17-.18.14.07.39.25.25.09-.07.22-.03.3.03.13.08.18.23.2.38.05.3.02.63,0,.93-.04.54-.25,1.01-.75,1.25-.4.2-.88.2-1.29.05-.46-.17-.79-.58-.94-1.03-.18-.55-.14-1.18.11-1.7.1-.2-.21-.38-.3-.18h0Z"/><path class="cls-1" d="M26.43,15.45c.38,2.13.61,4.28.7,6.45,0,.22.36.23.35,0-.09-2.19-.33-4.38-.72-6.54-.04-.22-.38-.13-.34.09h0Z"/><path class="cls-1" d="M28.91,19.77c.31.6.51,1.26.59,1.93.01.09.07.18.18.18.09,0,.19-.08.18-.18-.09-.74-.3-1.45-.63-2.11-.1-.2-.4-.02-.3.18h0Z"/><path class="cls-1" d="M29.82,17.63c.23,0,.23-.35,0-.35s-.23.35,0,.35h0Z"/><path class="cls-1" d="M34.31,19.25c-.67-.12-1.4-.17-2.01.16-.49.26-.89.81-.85,1.39.03.53.42.92.91,1.06s1.07.04,1.49-.28c.57-.43.88-1.1,1.11-1.77l-.34-.05c-.09.88.24,1.77.88,2.38.16.16.41-.09.25-.25-.58-.56-.86-1.34-.78-2.13.02-.21-.28-.22-.34-.05-.21.61-.49,1.26-1.04,1.63-.42.28-1.03.33-1.45.02-.52-.38-.34-1.07.07-1.45.54-.5,1.36-.44,2.02-.32.22.04.31-.3.09-.34h0Z"/><path class="cls-1" d="M44.09,17.46c0,1.46-.15,2.91-.46,4.33-.04.19.21.3.32.13.66-1.03,1.47-1.94,2.4-2.73.17-.14-.08-.39-.25-.25-.96.8-1.78,1.75-2.46,2.8l.32.13c.32-1.45.48-2.93.47-4.42,0-.23-.35-.23-.35,0h0Z"/><path class="cls-1" d="M44.82,20.76c.71.76,1.68,1.27,2.71,1.44.22.04.32-.3.09-.34-.98-.16-1.88-.63-2.55-1.35-.15-.16-.4.08-.25.25h0Z"/><path class="cls-1" d="M50.34,20.55c-.11-.61-.77-.91-1.34-.85-.69.07-1.15.63-1.34,1.27-.1.36-.14.75-.11,1.12s.16.71.52.84c.64.23,1.39-.27,1.87-.64.64-.48,1.27-1.15,1.08-2.01-.04-.17-.29-.16-.34,0-.28,1.06-.2,2.17.23,3.18.03.07.13.1.2.08.27-.07.39-.36.27-.61-.09-.2-.4-.03-.3.18.02.05-.02.09-.06.1l.2.08c-.39-.92-.45-1.95-.19-2.91h-.34c.13.59-.29,1.08-.71,1.44s-.93.74-1.48.81c-.27.03-.5-.06-.58-.34s-.05-.63,0-.92c.09-.52.35-1.12.9-1.28.46-.13,1.07.04,1.17.56.04.22.38.13.34-.09h0Z"/><path class="cls-1" d="M51.67,20.83l.43,2.5.34-.09c-.12-.49-.25-1.03-.07-1.52.12-.33.48-.63.84-.6.46.04.57.6.66.96.14.55.21,1.11.23,1.68,0,.22.36.23.35,0-.02-.53-.08-1.06-.2-1.58-.09-.4-.19-.91-.51-1.19-.63-.56-1.54.03-1.74.72-.16.53-.03,1.1.1,1.63.05.22.38.13.34-.09l-.43-2.5c-.04-.22-.38-.13-.34.09h0Z"/><path class="cls-1" d="M61.33,21.21c-.27-.53-.86-.82-1.45-.79-.68.03-1.17.47-1.37,1.11s-.25,1.58.35,2.01c.5.36,1.23.18,1.67-.19.69-.6.68-1.65.65-2.48l-.34.05c.21,1.19.43,2.44.15,3.64-.13.54-.36,1.14-.79,1.52-.2.18-.49.34-.76.27s-.57-.37-.44-.66c.09-.2-.21-.38-.3-.18-.23.55.2,1.13.77,1.2.71.09,1.25-.57,1.54-1.14.73-1.47.45-3.19.17-4.74-.04-.2-.35-.15-.34.05.02.71.07,1.65-.5,2.19-.5.47-1.4.49-1.57-.3-.14-.67.06-1.67.78-1.91.55-.19,1.21.03,1.48.55.1.2.4.02.3-.18h0Z"/><path class="cls-1" d="M64.21,21.33c-.65-.35-1.45-.1-1.88.48-.49.65-.29,1.5.32,1.99s1.47.51,2.06-.03.74-1.38.44-2.09l-.27.21c.63.57,1.38,1.19,2.3.99.68-.15,1.12-.85.81-1.51s-1.12-.54-1.53-.04c-.26.32-.41.71-.54,1.1-.14.42-.22.89-.03,1.31.48,1.08,1.86.87,2.77.64.22-.05.13-.39-.09-.34-.74.19-2.03.45-2.38-.51-.16-.43.03-.94.19-1.35.12-.31.29-.67.58-.85.31-.2.66-.04.75.3s-.07.67-.38.82c-.82.41-1.63-.3-2.2-.81-.16-.14-.35.03-.27.21.5,1.17-.76,2.5-1.9,1.73-.49-.33-.73-.97-.38-1.5.31-.47.96-.72,1.47-.44.2.11.38-.2.18-.3h0Z"/><path class="cls-1" d="M71.78,22.36c-.47-.66-1.35-1.07-2.13-.72-.66.29-1.05,1.08-.92,1.79s.83,1.19,1.54,1.21c.84.01,1.4-.59,1.61-1.36.15-.52.17-1.07.22-1.61.07-.67.13-1.33.2-2,.02-.21-.28-.22-.34-.05-.56,1.63-.5,3.44.17,5.03.09.2.42.11.34-.09-.64-1.54-.71-3.26-.17-4.85l-.34-.05c-.09.88-.17,1.76-.26,2.64-.07.65-.18,1.49-.82,1.83-.51.27-1.23.14-1.59-.31-.39-.49-.25-1.23.18-1.65.61-.6,1.57-.28,2.02.35.13.18.43,0,.3-.18h0Z"/><path class="cls-1" d="M79.69,23.03c-.93-.83-2.55-.73-3.3.29-.19.26-.3.65,0,.89s.78.21,1.13.27c.37.06.77.19.93.57.16.41-.23.61-.56.68-.65.13-1.69.23-2.14-.37-.13-.18-.44,0-.3.18.42.56,1.11.65,1.77.62.57-.03,1.52-.08,1.62-.81.04-.32-.12-.63-.36-.84-.29-.26-.67-.34-1.05-.39-.21-.03-.43-.05-.64-.1-.09-.02-.2-.05-.23-.16s.05-.23.11-.31c.18-.26.46-.45.74-.57.67-.28,1.5-.19,2.04.3.17.15.42-.1.25-.25h0Z"/><path class="cls-1" d="M82.44,23.78c-.81-.8-2.44-.26-2.43.94,0,.59.4,1.17.95,1.39s1.15.02,1.56-.38c.49-.48.76-1.17.95-1.82.05-.19-.22-.31-.32-.13-.46.86-.41,1.96.17,2.76.13.18.43,0,.3-.18-.5-.7-.58-1.65-.17-2.41l-.32-.13c-.23.8-.72,2.1-1.75,2.04-.47-.03-.86-.43-.98-.86s.08-.89.49-1.11.97-.2,1.31.14c.16.16.41-.09.25-.25h0Z"/><path class="cls-1" d="M84.36,24.76c.26.58.26,1.25.01,1.83l.33.09c.08-.97.74-1.84,1.64-2.19l-.2-.08c.48.79.7,1.69.62,2.62-.01.17.26.25.33.09.17-.39.35-.8.67-1.09.31-.27.8-.42,1.15-.14.5.41.31,1.31.17,1.84-.06.22.28.31.34.09.19-.71.34-1.79-.38-2.27-.41-.27-.95-.18-1.34.09-.45.31-.69.82-.91,1.3l.33.09c.08-.98-.15-1.96-.67-2.79-.04-.06-.13-.11-.2-.08-1.06.41-1.8,1.39-1.9,2.53-.01.17.26.25.33.09.31-.71.31-1.48-.01-2.18-.09-.21-.39-.03-.3.18h0Z"/><path class="cls-1" d="M90.4,26.32c.47.13.95.2,1.44.2.34,0,.85-.04.92-.46.07-.37-.27-.69-.57-.84s-.63-.18-.95-.12c-.68.12-1.19.66-1.27,1.34s.3,1.42.9,1.77c.78.45,1.78.28,2.46-.27.18-.14-.07-.39-.25-.25-.47.38-1.14.53-1.73.35-.54-.17-.93-.64-1.03-1.19-.09-.52.13-1.04.61-1.28.42-.21,1.01-.21,1.34.15.1.1.21.29.05.38-.14.08-.34.07-.5.07-.46,0-.91-.06-1.34-.18-.22-.06-.31.27-.09.34h0Z"/><path class="cls-1" d="M93.53,26.59c.22.61.28,1.27.17,1.91h.34c-.25-.77-.04-1.77.84-2.01.34-.09.7,0,.95.25.22.23.32.56.36.88.05.41.02.83-.04,1.23-.01.09.02.19.12.22.08.02.2-.03.22-.12.12-.78.19-1.78-.37-2.42-.66-.74-1.84-.43-2.29.37-.29.51-.29,1.14-.12,1.69.05.15.31.18.34,0,.12-.71.06-1.43-.17-2.1-.07-.21-.41-.12-.34.09h0Z"/><path class="cls-1" d="M98.82,26.57c-.32.41-.58.86-.76,1.35-.16.42-.35.99-.02,1.38.25.29.68.39,1.04.29.47-.12.81-.51,1.11-.86l-.29-.17c-.13.41.06.83.39,1.09.36.28.82.31,1.22.1s.68-.62.77-1.06c.13-.58-.06-1.16-.24-1.7-.07-.21-.41-.12-.34.09.25.73.5,1.64-.18,2.23-.26.22-.61.3-.92.13-.28-.16-.48-.47-.38-.79.05-.16-.18-.31-.29-.17-.23.27-.48.57-.81.72-.27.12-.67.1-.85-.16-.21-.3.03-.83.15-1.13.16-.39.37-.76.63-1.1.14-.18-.11-.43-.25-.25h0Z"/><path class="cls-1" d="M103.03,28.99c.46.13.97.27,1.44.1.34-.12.63-.43.7-.79.07-.4-.18-.74-.55-.87-.33-.12-.7-.08-1.01.07-.57.28-.92.94-.94,1.57-.03.7.41,1.31,1.04,1.59.73.32,1.63.25,2.29-.2.19-.13.01-.43-.18-.3-.47.32-1.06.43-1.62.3-.52-.12-1.01-.47-1.15-1.01-.12-.48.04-1.02.37-1.37.16-.17.37-.3.6-.35.26-.05.64,0,.76.27.13.29-.12.62-.37.74-.4.19-.9.03-1.29-.08-.22-.06-.31.28-.09.34h0Z"/><path class="cls-1" d="M106.31,29.14c.42.42.51,1.11.21,1.62l.32.04c-.19-1.02.84-2.08,1.86-1.93.09.01.19-.02.22-.12.02-.08-.03-.2-.12-.22-1.3-.19-2.53,1.06-2.29,2.36.03.15.25.16.32.04.38-.65.27-1.52-.26-2.04-.16-.16-.41.09-.25.25h0Z"/><path class="cls-1" d="M109.68,28.46c.4.91.24,2.04-.38,2.82-.12.14.03.39.21.27.71-.44,1.43-.88,2.14-1.32.2-.12.67-.36.46-.67-.16-.22-.55-.11-.49.18.05.22.39.13.34-.09-.01.12-.05.17-.11.14-.02-.07-.04-.09-.06-.06-.02,0-.11.08-.13.09-.1.06-.21.13-.31.19-.22.14-.45.28-.67.41-.45.28-.89.55-1.34.83l.21.27c.73-.91.9-2.17.44-3.24-.09-.21-.39-.03-.3.18h0Z"/><path class="cls-1" d="M110.78,30.95c.06.69.57,1.3,1.25,1.46.09.02.19-.03.22-.12.02-.09-.03-.19-.12-.22-.27-.06-.49-.2-.68-.42-.01-.01-.02-.03-.04-.04-.02-.02,0,0-.02-.02s-.04-.06-.06-.08c-.04-.06-.07-.12-.1-.19-.02-.03,0,0-.01-.03,0-.02-.01-.03-.02-.05-.01-.03-.02-.07-.03-.11s-.02-.07-.02-.11c0,0,0-.05,0-.03,0,0,0-.04,0-.05,0-.09-.07-.18-.18-.18-.09,0-.18.08-.18.18h0Z"/><path class="cls-1" d="M112.79,31.21c.32.17.66.34,1.03.34.31,0,.57-.14.75-.39.15-.21.2-.51.05-.74-.05-.08-.11-.13-.21-.14-.09,0-.18-.01-.27-.02-.18,0-.37,0-.55.04-.54.12-.88.59-.95,1.12s.17,1.06.65,1.33c.56.31,1.27.24,1.76-.16.07-.06.06-.19,0-.25-.07-.07-.17-.06-.25,0-.44.36-1.18.34-1.58-.08-.36-.38-.31-1.06.07-1.42.3-.29.76-.24,1.15-.21l-.12-.05c.16.19-.06.48-.24.57-.35.17-.79-.08-1.1-.24-.2-.1-.38.2-.18.3h0Z"/><path class="cls-1" d="M115.73,31.39c.21.73.11,1.5-.27,2.16l.32.13c.14-.59.35-1.25.88-1.61.46-.31,1.04-.32,1.43.1.33.35.47.86.56,1.33.06.28.12.58.1.86-.02.24-.22.67-.54.54-.2-.09-.38.21-.18.3.56.24,1.02-.28,1.06-.81.02-.3-.04-.6-.09-.89-.05-.25-.11-.51-.19-.75-.16-.44-.41-.89-.84-1.11-.5-.26-1.09-.16-1.53.16-.58.42-.84,1.11-.99,1.79-.04.19.22.31.32.13.42-.73.53-1.61.3-2.43-.06-.22-.4-.12-.34.09h0Z"/><path class="cls-1" d="M16.52,28.18v1.42c-.01.23.34.23.34,0,.01-1.01.52-1.98,1.34-2.57l-.24-.06c.48.73.77,1.57.83,2.45l.34-.05c-.27-.93.2-2.32,1.39-2.09.5.1.81.45.81.97s-.17,1.05.17,1.49c.13.18.44,0,.3-.18-.23-.3-.16-.66-.14-1.01.02-.31.03-.63-.1-.92-.22-.46-.74-.71-1.23-.72-1.33-.05-1.85,1.46-1.54,2.56.05.18.36.16.34-.05-.06-.94-.36-1.84-.87-2.62-.05-.07-.16-.12-.24-.06-.93.66-1.5,1.73-1.52,2.87h.35v-1.42c.01-.23-.34-.23-.34,0h0Z"/><path class="cls-1" d="M22.8,29.26c.46-.05.92-.13,1.37-.24.34-.08.76-.16.97-.47s.07-.7-.19-.93-.6-.31-.93-.28c-.65.07-1.25.54-1.39,1.2-.14.69.18,1.41.74,1.81.7.5,1.71.41,2.39-.08.18-.13,0-.43-.18-.3-.5.35-1.15.48-1.73.25-.5-.2-.87-.7-.91-1.24s.27-1,.76-1.2c.22-.09.47-.12.71-.05.22.06.55.28.47.55-.08.3-.59.35-.83.41-.41.1-.83.17-1.25.22-.22.03-.22.38,0,.35h0Z"/><path class="cls-1" d="M26.98,27.1c.23,1.21.32,2.44.26,3.67-.01.23.34.22.35,0,.06-1.26-.04-2.52-.27-3.76-.04-.22-.38-.13-.34.09h0Z"/><path class="cls-1" d="M26.5,29.09h1.85c.23,0,.23-.35,0-.35h-1.85c-.23,0-.23.35,0,.35h0Z"/><path class="cls-1" d="M34.25,29.29c-.34-.55-1.04-.65-1.61-.41-.63.26-.95.93-.68,1.58s1.04,1.09,1.74.92,1.13-.86,1.29-1.54c.24-.99.12-2.04.09-3.04,0-.22-.35-.23-.35,0-.01,1.43.14,2.86.44,4.26.05.22.39.13.34-.09-.3-1.37-.45-2.77-.43-4.17h-.35c.02.74.08,1.5.03,2.24-.04.57-.16,1.22-.57,1.65-.44.46-1.1.48-1.58.06-.42-.37-.57-1.02-.09-1.41.41-.32,1.13-.36,1.43.12.12.19.42.02.3-.18h0Z"/><path class="cls-1" d="M36.24,30.02c.42.15.87.22,1.32.18.32-.02.86-.06,1.06-.36s-.06-.66-.31-.83c-.23-.16-.53-.21-.81-.18-.61.07-1.11.51-1.18,1.13-.08.67.34,1.35.93,1.66.79.41,1.77.18,2.46-.33.18-.13,0-.44-.18-.3-.49.36-1.11.58-1.72.46-.52-.11-.96-.49-1.1-1.01-.13-.46.03-.93.47-1.15.35-.17.88-.17,1.12.19.13.21-.1.25-.26.29-.18.05-.37.07-.56.08-.39.02-.77-.05-1.14-.18-.21-.08-.3.26-.09.34h0Z"/><path class="cls-1" d="M40.01,29.15c.22.89.59,1.74,1.07,2.51.08.12.22.1.3,0,.56-.73,1.11-1.45,1.67-2.18.06-.08.01-.2-.06-.24-.09-.05-.18-.01-.24.06-.56.73-1.11,1.45-1.67,2.18h.3c-.47-.75-.82-1.57-1.04-2.43-.06-.22-.39-.13-.34.09h0Z"/><path class="cls-1" d="M42.5,30.71c.36.26.78.44,1.21.53.2.04.4.06.6.07.18,0,.46.04.56-.14.3-.53-.03-1.36-.63-1.51-.75-.19-1.19.75-1.19,1.36,0,.7.42,1.37,1.1,1.59.74.24,1.61-.09,2-.76.11-.2-.19-.37-.3-.18-.42.72-1.53.91-2.1.27-.28-.31-.4-.78-.32-1.19.06-.33.35-.91.77-.75.37.14.55.68.35,1.02l.15-.09c-.72.08-1.44-.1-2.03-.53-.18-.13-.36.17-.18.3h0Z"/><path class="cls-1" d="M46.45,28.55c.02,1.33.19,2.65.52,3.94.06.22.39.13.34-.09-.32-1.26-.49-2.55-.5-3.85,0-.23-.35-.23-.35,0h0Z"/><path class="cls-1" d="M49.6,30.54c-.56-.03-1.14.13-1.58.49s-.63.89-.47,1.42c.14.48.55.92,1.08.94s.89-.36,1.04-.81c.18-.54.11-1.16-.01-1.7-.05-.22-.39-.13-.34.09.09.4.14.83.08,1.23-.05.35-.21.71-.58.81-.4.11-.75-.21-.89-.55-.17-.41-.04-.82.27-1.12.37-.35.91-.48,1.4-.46.23.01.22-.34,0-.35h0Z"/><path class="cls-1" d="M50.37,31.7c.18,1.14.24,2.29.17,3.44h.35c-.09-.88-.06-1.76.11-2.63.09-.44.35-2,1.12-1.65.34.16.6.58.84.86.16.18.31.36.47.54.11.13.3.3.19.49-.16.25-.58.28-.84.28-.45,0-.9-.06-1.34-.17-.22-.06-.31.28-.09.34.41.11.84.17,1.27.18.32,0,.65,0,.94-.15.24-.11.44-.32.45-.59,0-.35-.35-.64-.56-.89-.29-.33-.56-.71-.89-1-.24-.21-.54-.35-.85-.25-.66.2-.85,1.1-.98,1.67-.22.97-.28,1.98-.18,2.97.02.22.34.23.35,0,.07-1.18.01-2.37-.18-3.53-.04-.22-.37-.13-.34.09h0Z"/><path class="cls-1" d="M55.33,32.98h1.2c.28,0,.76.07.94-.22s-.12-.62-.34-.8-.5-.27-.79-.3c-.58-.06-1.15.24-1.42.76-.13.25-.2.54-.19.82,0,.14.03.28.08.42.03.09.07.13.15.18.08.04.16.08.24.12.71.31,1.53.36,2.27.11.21-.07.12-.41-.09-.34-.76.25-1.6.17-2.29-.22l.08.1c-.24-.58.03-1.34.65-1.54.3-.1.64-.08.92.06.14.07.27.16.36.28.03.04.1.12.06.17s-.17.03-.22.03c-.54,0-1.07,0-1.61,0-.23,0-.23.35,0,.35h0Z"/><path class="cls-1" d="M57.59,32.7c.29.58.42,1.23.39,1.88l.34-.05c-.25-.63-.14-1.39.34-1.89s1.23-.65,1.87-.42c.21.08.3-.26.09-.34-.75-.27-1.65-.07-2.21.51s-.73,1.48-.43,2.23c.07.18.34.16.34-.05.03-.71-.13-1.41-.44-2.05-.1-.2-.4-.02-.3.18h0Z"/><path class="cls-1" d="M62.05,32.65c-.51-.21-1.14-.45-1.63-.06-.36.29-.48.85-.07,1.16.17.13.38.17.59.22.17.04.4.08.5.24.2.32-.24.72-.53.76-.25.03-.52-.1-.72-.25-.24-.18-.44-.41-.64-.64-.14-.17-.39.08-.25.25.33.4.72.82,1.24.96.46.12.92-.08,1.16-.49.23-.39.12-.85-.3-1.04-.2-.09-.42-.12-.62-.18-.17-.05-.35-.14-.35-.34,0-.22.21-.42.42-.48.34-.09.71.07,1.02.2.09.04.19.03.24-.06.04-.07.02-.2-.06-.24h0Z"/><path class="cls-1" d="M65.91,33.53c.46-.11.93.08,1.4.05.35-.02.67-.21.86-.51.18-.27.18-.63-.09-.85-.31-.25-.82-.18-1.19-.15-.79.06-1.74.41-1.88,1.31-.12.82.66,1.38,1.39,1.47.52.06,1.1-.04,1.6-.18.36-.1.76-.31.83-.72.04-.22-.3-.31-.34-.09-.05.28-.32.39-.56.46-.34.1-.71.17-1.07.19-.59.04-1.43-.17-1.51-.88s.7-1.09,1.28-1.18c.32-.05.69-.08,1.01-.04.29.04.39.26.22.5-.21.29-.52.34-.85.31-.4-.03-.79-.13-1.19-.03-.22.05-.13.39.09.34h0Z"/><path class="cls-1" d="M69.95,32.99l-.23,1.93c-.02.2.3.24.34.05.11-.49,0-.97.03-1.46.02-.31.15-.7.44-.85s.6.05.75.32c.19.33.2.69.16,1.06-.06.52-.18,1.05,0,1.57.08.21.41.12.34-.09-.19-.53-.02-1.08.02-1.62.04-.41-.04-.84-.27-1.18-.22-.32-.56-.52-.95-.44s-.66.45-.77.82c-.18.58.04,1.2-.09,1.79l.34.05.23-1.93c.03-.22-.32-.22-.35,0h0Z"/><path class="cls-1" d="M77.18,34.07c-.71-1.13-2.82-.71-2.65.76.07.64.57,1.25,1.22,1.33.76.09,1.35-.52,1.63-1.17.44-1.02.12-2.14.33-3.2l-.34-.05c-.09,1.41-.06,2.82.07,4.23.02.22.37.22.35,0-.13-1.41-.16-2.82-.07-4.23.01-.2-.3-.24-.34-.05-.17.81-.03,1.63-.13,2.44-.07.58-.34,1.25-.88,1.55-1.11.61-2.13-1.22-1-1.8.5-.26,1.2-.13,1.51.36.12.19.42.01.3-.18h0Z"/><path class="cls-1" d="M79.14,35.39c.46.37,1.23.37,1.61-.12s.13-1.26-.44-1.46c-.67-.24-1.25.51-1.35,1.09-.12.65.12,1.33.67,1.73.61.44,1.49.45,2.13.06.19-.11.02-.42-.18-.3-.44.26-1,.3-1.48.11s-.78-.62-.82-1.12c-.04-.46.15-1.07.64-1.24.41-.14.75.35.65.72-.13.49-.84.55-1.19.27-.07-.06-.17-.07-.25,0-.06.06-.07.19,0,.25h0Z"/><path class="cls-1" d="M84.4,34.51c-.49-.21-1.06-.44-1.58-.2-.4.19-.69.66-.5,1.09s.68.49,1.05.68c.15.08.39.25.37.45s-.32.31-.49.35c-.44.1-.94-.08-1.2-.44-.13-.18-.43,0-.3.18.27.37.67.59,1.13.64.41.04,1-.1,1.18-.52.21-.5-.32-.89-.73-1.05-.32-.12-.9-.32-.66-.77.32-.6,1.09-.31,1.57-.11.09.04.19.03.24-.06.04-.07.02-.2-.06-.24h0Z"/><path class="cls-1" d="M85.84,35.71c-.18.56-.36,1.11-.54,1.67-.07.21.27.31.34.09.18-.56.36-1.11.54-1.67.07-.21-.27-.31-.34-.09h0Z"/><path class="cls-1" d="M86.26,34.59l.18.18s.03.03.06.04c.02.01.04.02.07.02.02,0,.05,0,.07-.02.02,0,.04-.02.06-.04.03-.03.05-.08.05-.12s-.02-.09-.05-.12l-.18-.18s-.03-.03-.06-.04c-.02-.01-.04-.02-.07-.02-.02,0-.05,0-.07.02-.02,0-.04.02-.06.04-.03.03-.05.08-.05.12s.02.09.05.12h0Z"/><path class="cls-1" d="M89.13,36.62c.3-.45-.05-1-.51-1.17-.55-.2-1.08.24-1.31.71-.25.52-.36,1.29.12,1.72.39.35,1,.35,1.44.11.63-.33.89-1.1.99-1.76l-.34-.05c-.08.94-.16,1.97-.72,2.77-.47.67-1.35,1.14-2.16.83l.13.17c-.02-.16-.04-.33-.05-.49-.02-.22-.37-.22-.35,0,.02.16.04.33.05.49,0,.08.05.14.13.17.9.34,1.89-.14,2.45-.85.68-.86.78-2.03.87-3.08.02-.19-.31-.24-.34-.05-.09.54-.25,1.18-.74,1.5-.36.24-1.01.26-1.25-.17-.26-.47,0-1.26.42-1.57.21-.16.47-.2.69-.04.19.14.32.37.17.58-.13.19.18.36.3.18h0Z"/><path class="cls-1" d="M90.83,37.05l.04,1.57c0,.21.28.23.34.05.26-.69.6-1.55,1.43-1.68.34-.05.67.07.84.37s.13.68.12,1.01c-.02.42-.02.83.15,1.22.09.21.39.03.3-.18-.33-.74.17-1.65-.34-2.35-.53-.73-1.6-.47-2.12.13-.34.39-.54.89-.72,1.37l.34.05-.04-1.57c0-.22-.36-.23-.35,0h0Z"/><path class="cls-1" d="M95.26,37.93c.4.03.79.07,1.19.1.29.02.61-.02.73-.33.08-.23,0-.5-.17-.67-.21-.21-.53-.22-.79-.12-.56.22-.87.81-.91,1.39s.21,1.14.68,1.48c.51.37,1.21.43,1.78.16.2-.1.03-.4-.18-.3-.78.37-1.76-.11-1.92-.96-.08-.4.03-.86.31-1.17.14-.16.36-.32.59-.3.16.01.3.14.29.31,0,.26-.42.16-.57.15l-1.03-.09c-.22-.02-.22.33,0,.35h0Z"/><path class="cls-1" d="M98.58,37.97c-.02.56.07,1.12.26,1.64.08.21.4.13.34-.09-.23-.85.57-1.77,1.43-1.7.09,0,.18-.09.18-.18,0-.1-.08-.17-.18-.18-1.1-.09-2.05,1.09-1.77,2.14l.34-.09c-.18-.5-.26-1.02-.25-1.55,0-.23-.34-.22-.35,0h0Z"/><path class="cls-1" d="M102.5,38.34c-.17-.43-.64-.66-1.09-.56s-.7.59-.62,1.03c.04.22.16.42.34.55.19.14.5.18.61.41.08.19.04.42-.08.58-.14.21-.4.29-.64.28-.68-.02-1.14-.62-1.52-1.11-.14-.18-.38.07-.25.25.34.44.71.9,1.25,1.11.46.18,1.07.14,1.4-.27.27-.34.32-.9-.02-1.21-.18-.17-.48-.2-.63-.39-.12-.15-.15-.36-.1-.54.13-.46.84-.47,1.01-.03.08.21.42.12.34-.09h0Z"/><path class="cls-1" d="M20.63,34.27c-.71-.19-1.42.3-1.67.96s.1,1.32.72,1.59c.55.23,1.28.15,1.66-.34.27-.35.41-.82.46-1.26s-.04-.87-.34-1.18-.77-.44-1.15-.22-.52.66-.62,1.05c-.06.22.28.31.34.09.07-.27.15-.57.35-.76s.51-.17.74,0c.27.2.36.53.35.85-.01.36-.12.75-.3,1.06-.25.43-.75.57-1.21.44s-.81-.52-.73-1.01c.1-.58.71-1.08,1.3-.93.22.06.31-.28.09-.34h0Z"/><path class="cls-1" d="M23.01,34.83l-.07,1.84.3-.12c-.41-.48.19-1.27.76-1.19.66.1.92.98.65,1.52l.32.13c.31-.78,1.15-1.76,2.05-1.14.16.11.3.27.34.45.05.2-.02.4-.07.6-.09.32-.17.76.2.93.2.09.38-.21.18-.3s-.07-.43-.03-.6c.06-.21.12-.43.08-.65-.08-.45-.46-.77-.87-.91-1.06-.35-1.88.65-2.22,1.52-.07.18.23.31.32.13.39-.78-.03-2.01-1-2.05-.87-.04-1.53,1.1-.95,1.79.1.12.29.02.3-.12l.07-1.84c0-.23-.34-.22-.35,0h0Z"/><path class="cls-1" d="M31.22,35.19c.13,1.05.15,2.1.07,3.15-.02.22.33.22.35,0,.08-1.05.06-2.11-.07-3.15-.03-.22-.38-.22-.35,0h0Z"/><path class="cls-1" d="M30.19,37.04h3.51c.23,0,.23-.35,0-.35h-3.51c-.23,0-.23.35,0,.35h0Z"/><path class="cls-1" d="M35.18,36.94c-.99.04-1.73.99-1.47,1.96.12.47.46.88.91,1.05.49.19.99-.04,1.24-.5.32-.59.11-1.26-.11-1.84-.08-.21-.42-.12-.34.09.16.41.35.89.24,1.34-.09.34-.37.68-.76.62-.78-.13-1.1-1.16-.72-1.78.21-.35.6-.58,1.01-.6.22,0,.23-.36,0-.35h0Z"/><path class="cls-1" d="M37.22,36.31c-.02,1.13.06,2.25.23,3.37.03.22.37.13.34-.09-.17-1.08-.24-2.18-.22-3.28,0-.23-.35-.23-.35,0h0Z"/><path class="cls-1" d="M36.66,37.62l1.66.19c.09.01.18-.09.18-.18,0-.1-.08-.16-.18-.18l-1.66-.19c-.09-.01-.18.09-.18.18,0,.1.08.16.18.18h0Z"/><path class="cls-1" d="M41.28,39.63c.88-.08,1.93.22,2.53-.62.2-.29.29-.67.1-.99-.19-.34-.58-.46-.95-.47-.72-.02-1.71.21-1.99.97-.25.67.17,1.43.71,1.81.88.63,2.1.3,3.04.03.22-.06.12-.4-.09-.34-.76.22-1.6.46-2.38.2-.53-.17-.98-.7-.99-1.27-.02-.71.71-.94,1.29-1.03.28-.04.63-.07.88.09s.28.45.15.7c-.45.81-1.55.49-2.3.56-.22.02-.22.37,0,.35h0Z"/><path class="cls-1" d="M44.93,39.23c.48.08.95.08,1.43,0,.37-.07.88-.16,1.03-.56.12-.32-.08-.65-.33-.85-.28-.23-.62-.3-.97-.22-.65.13-1.17.72-1.3,1.36s.19,1.3.78,1.61,1.44.28,1.96-.23c.16-.16-.09-.41-.25-.25-.68.67-2.12.27-2.17-.75-.03-.52.28-1.03.73-1.28.21-.12.48-.19.72-.12.22.06.47.25.52.49.06.33-.49.41-.71.46-.44.09-.89.1-1.33.02-.22-.04-.31.3-.09.34h0Z"/><path class="cls-1" d="M48.53,39.08c-.04.65-.08,1.31-.12,1.96l.34-.05c-.27-.69.2-1.52.89-1.74s1.32.32,1.49.97c.09.36.04.74-.18,1.05-.13.18.17.36.3.18.5-.68.27-1.73-.36-2.25-.34-.28-.76-.41-1.2-.33s-.83.38-1.08.75c-.29.42-.4.98-.21,1.46.07.18.33.16.34-.05.04-.65.08-1.31.12-1.96.01-.22-.34-.22-.35,0h0Z"/><path class="cls-1" d="M54.8,39.08c-.01.96-.03,1.92-.04,2.89,0,.14.15.21.26.15.89-.49,1.79-.99,2.68-1.48.2-.11.02-.41-.18-.3-.89.49-1.79.99-2.68,1.48l.26.15c.01-.96.03-1.92.04-2.89,0-.23-.35-.23-.35,0h0Z"/><path class="cls-1" d="M56.17,41.63l1.65,1.13c.08.05.19.01.24-.06.05-.09.02-.19-.06-.24l-1.65-1.13c-.08-.05-.19-.01-.24.06-.05.09-.02.19.06.24h0Z"/><path class="cls-1" d="M59.66,40.15c-.42.67-.85,1.43-.63,2.25.17.63.76,1.08,1.42.91.31-.08.54-.3.64-.61.06-.18.05-.42.18-.57.18-.22.27,0,.35.17.21.45.69,1.29,1.32,1.01.18-.08.21-.4.25-.58.05-.23.09-.47.1-.71.03-.51-.03-1.02-.16-1.51-.06-.22-.4-.12-.34.09.23.82.21,1.68-.06,2.49l.12-.12c-.45.16-.74-.46-.89-.78-.09-.19-.17-.42-.4-.49-.21-.07-.43.05-.57.22-.18.23-.15.52-.27.77-.09.19-.29.3-.5.31-.5.04-.83-.38-.89-.84-.09-.67.29-1.28.63-1.82.12-.19-.18-.37-.3-.18h0Z"/><path class="cls-1" d="M66.19,41.6c-.69-.89-2.39-.81-2.75.36-.18.59.12,1.23.59,1.59.5.39,1.15.37,1.64-.04.55-.47.72-1.27.83-1.94h-.34c.19.75.39,1.5.58,2.25.06.22.39.13.34-.09-.19-.75-.39-1.5-.58-2.25-.04-.16-.31-.18-.34,0-.08.51-.19,1.05-.48,1.49-.27.4-.74.66-1.21.45-.43-.19-.75-.66-.74-1.13s.4-.79.82-.9c.47-.12,1.03,0,1.34.39.14.18.44,0,.3-.18h0Z"/><path class="cls-1" d="M67.96,40.05c.17,1.21.21,2.44.11,3.66-.02.22.33.22.35,0,.1-1.25.05-2.51-.12-3.75-.03-.22-.37-.13-.34.09h0Z"/><path class="cls-1" d="M69.17,42.17c.36.49.48,1.11.32,1.7-.06.22.28.31.34.09.18-.67.06-1.41-.35-1.97-.06-.08-.15-.11-.24-.06-.08.04-.12.16-.06.24h0Z"/><path class="cls-1" d="M70.49,40.74h.18s.05,0,.07-.02c.02,0,.04-.02.06-.04.02-.02.03-.03.04-.06.01-.02.02-.04.02-.07,0-.05-.02-.09-.05-.12s-.08-.05-.12-.05h-.18s-.05,0-.07.02c-.02,0-.04.02-.06.04-.02.02-.03.03-.04.06-.01.02-.02.04-.02.07,0,.05.02.09.05.12s.08.05.12.05h0Z"/><path class="cls-1" d="M71.97,40.56c.07,1.22,0,2.44-.2,3.65-.04.22.3.31.34.09.21-1.23.29-2.49.21-3.74-.01-.22-.36-.23-.35,0h0Z"/><path class="cls-1" d="M70.86,42.77h2.59c.23,0,.23-.35,0-.35h-2.59c-.23,0-.23.35,0,.35h0Z"/><path class="cls-1" d="M76.28,42.92c-.1-.53-.69-.77-1.17-.68-.59.1-.93.69-1.03,1.23-.11.58-.06,1.27.52,1.58.46.25,1.07.19,1.48-.14.55-.44.73-1.19.69-1.86h-.35c.09.77.25,1.53.49,2.27.07.21.41.12.34-.09-.23-.71-.39-1.43-.48-2.17-.02-.22-.37-.23-.35,0,.03.48-.04,1-.35,1.39-.25.32-.66.49-1.07.39-.18-.04-.35-.13-.46-.27-.16-.2-.17-.48-.15-.73.02-.44.18-.98.6-1.19.34-.17.88-.04.95.37.04.22.38.13.34-.09h0Z"/><path class="cls-1" d="M78.48,41.3c.18,1.41.23,2.84.13,4.25-.01.22.34.22.35,0,.09-1.42.05-2.84-.13-4.25-.03-.22-.38-.22-.35,0h0Z"/><path class="cls-1" d="M77.32,43.88c1.03-.04,2.07.03,3.09.21.22.04.31-.3.09-.34-1.05-.19-2.12-.26-3.18-.22-.22,0-.23.36,0,.35h0Z"/><path class="cls-1" d="M80.86,44.12l.35,1.67c.02.09.13.15.22.12.1-.03.14-.12.12-.22l-.35-1.67c-.02-.09-.13-.15-.22-.12-.1.03-.14.12-.12.22h0Z"/><path class="cls-1" d="M81.82,42.53l.18.18s.03.03.06.04c.02.01.04.02.07.02.02,0,.05,0,.07-.02.02,0,.04-.02.06-.04.03-.03.05-.08.05-.12s-.02-.09-.05-.12l-.18-.18s-.03-.03-.06-.04c-.02-.01-.04-.02-.07-.02-.02,0-.05,0-.07.02-.02,0-.04.02-.06.04-.03.03-.05.08-.05.12s.02.09.05.12h0Z"/><path class="cls-1" d="M82.69,44.34c.29.18.62.38.98.34.26-.02.47-.17.58-.41.1-.21.1-.47-.07-.64-.21-.22-.56-.16-.83-.1-.52.13-1.04.46-1.25.97-.22.55.06,1.13.54,1.43.68.44,1.52.24,2.25.05.22-.06.13-.4-.09-.34-.52.14-1.1.31-1.64.15-.38-.11-.76-.42-.78-.84-.02-.4.28-.71.61-.89.16-.09.97-.43.98-.07,0,.16-.13.32-.28.34-.29.05-.59-.14-.82-.29-.19-.12-.37.18-.18.3h0Z"/><path class="cls-1" d="M85.44,44.5c.35.42,1.02.5,1.48.21s.55-.93.29-1.4c-.3-.53-.93-.65-1.44-.36-.66.38-.82,1.17-.79,1.88.04.95.34,1.92,0,2.84h.34c-.11-.52-.08-1.05.06-1.57l-.26.1c.4.25.85.33,1.31.23.22-.05.13-.38-.09-.34-.37.08-.72,0-1.04-.19-.1-.06-.23,0-.26.1-.16.58-.18,1.17-.06,1.75.04.19.28.15.34,0,.28-.74.17-1.53.08-2.3-.08-.71-.2-1.66.46-2.14.26-.19.62-.26.88-.05.21.17.32.46.28.72-.1.63-.96.68-1.32.26-.14-.17-.39.08-.25.25h0Z"/><path class="cls-1" d="M92.02,44.63c-.64-.3-1.41-.27-2.03.09-.57.33-1.17,1.07-.57,1.66.47.47,1.32.69,1.97.63.75-.07,1.24-.54,1.41-1.27.24-1.06.2-2.19,0-3.25-.03-.17-.3-.17-.34,0-.27,1.34-.21,2.72.17,4.04.06.22.4.12.34-.09-.37-1.25-.43-2.57-.17-3.85h-.34c.15.78.19,1.57.11,2.36-.06.62-.15,1.39-.82,1.63-.51.19-1.11.06-1.59-.15-.24-.1-.59-.27-.63-.56s.27-.59.49-.74c.52-.38,1.25-.47,1.83-.19.2.1.38-.21.18-.3h0Z"/><path class="cls-1" d="M93.93,45.85c.84.27,1.78.08,2.47-.47.05-.04.07-.15.03-.21-.47-.66-1.55-.54-1.95.14-.47.8.05,1.82.85,2.16.51.22,1.09.21,1.62.06.22-.06.12-.4-.09-.34-.7.2-1.59.11-2.01-.56-.33-.54-.25-1.33.44-1.52.29-.08.65-.03.84.23l.03-.21c-.59.48-1.41.62-2.13.38-.21-.07-.31.27-.09.34h0Z"/><path class="cls-1" d="M99.87,45.19l-1.71-.04c-.06,0-.12.03-.15.09-.22.44-.07.94.26,1.29.36.39.91.52,1.41.64l-.12-.22c-.27.7-1.42.88-1.88.28-.06-.08-.15-.11-.24-.06-.07.04-.12.16-.06.24.65.85,2.14.64,2.52-.37.03-.09-.04-.2-.12-.22-.41-.1-.86-.19-1.18-.48-.25-.22-.43-.61-.27-.93l-.15.09,1.71.04c.23,0,.23-.34,0-.35h0Z"/><path class="cls-1" d="M101.23,46.21c-.29.67-.44,1.38-.43,2.11,0,.23.35.23.35,0,0-.66.12-1.33.38-1.93.04-.09.03-.19-.06-.24-.07-.04-.2-.02-.24.06h0Z"/><path class="cls-1" d="M101.55,45.37v.18s0,.05.02.07c0,.02.02.04.04.06.02.02.03.03.06.04.02.01.04.02.07.02.05,0,.09-.02.12-.05s.05-.08.05-.12v-.18s0-.05-.02-.07c0-.02-.02-.04-.04-.06-.02-.02-.03-.03-.06-.04-.02-.01-.04-.02-.07-.02-.05,0-.09.02-.12.05s-.05.08-.05.12h0Z"/><path class="cls-1" d="M104.06,46.96c-.15-.29-.4-.5-.71-.6-.24-.08-.68-.14-.83.11-.21.36-.33.9-.28,1.31.04.34.22.65.5.84.52.36,1.12.07,1.3-.5.17-.52.04-1.21.43-1.64l-.29-.08c.16,1.01.29,2.11-.03,3.11-.15.48-.44.95-.86,1.23-.24.16-.58.3-.87.19-.25-.1-.46-.41-.33-.67.1-.2-.2-.38-.3-.18-.28.57.2,1.19.8,1.23.69.04,1.3-.53,1.63-1.08.69-1.17.52-2.65.31-3.93-.02-.13-.21-.17-.29-.08-.49.54-.28,1.27-.55,1.89-.18.4-.64.37-.9.06-.38-.47-.11-1.13.09-1.62l-.12.12c.41-.11.83.08,1.02.46.1.2.4.02.3-.18h0Z"/><path class="cls-1" d="M106.18,47.87c.25.37.26.85,0,1.23l.32.13c.09-.34.1-.7.12-1.05.02-.31.04-.66.22-.93s.51-.35.8-.23c.34.14.59.46.66.82.11.56-.1,1.14-.28,1.66-.07.21.26.31.34.09.19-.54.38-1.12.3-1.7-.06-.46-.31-.86-.71-1.1-.36-.22-.81-.24-1.16.02-.31.23-.43.6-.48.97-.06.45-.03.92-.15,1.36-.05.2.21.3.32.13.32-.47.31-1.11,0-1.58-.13-.18-.43,0-.3.18h0Z"/><path class="cls-1" d="M39.66,44.63c-.03.68-.08,1.35-.18,2.03-.05.33-.11.66-.17.99-.03.15-.06.3-.1.45-.03.14-.05.38-.12.5l.15-.09h-.02s.08.03.12.05v.09s-.1.09-.16.13h.02c.22-.03.22-.38,0-.35h-.02c-.08.01-.14.05-.17.13-.06.15.08.29.22.3.06,0,.12-.04.15-.09.08-.12.09-.3.12-.44.04-.18.08-.35.12-.53.07-.35.13-.71.19-1.06.1-.7.17-1.41.19-2.12,0-.23-.34-.22-.35,0h0Z"/><path class="cls-1" d="M38.14,46.47h2.96c.23,0,.23-.35,0-.35h-2.96c-.23,0-.23.35,0,.35h0Z"/><path class="cls-1" d="M41.79,48.11c.43.17.92.25,1.38.19.33-.04.71-.2.82-.54.12-.41-.22-.75-.57-.9-.31-.12-.66-.12-.97,0-.63.23-1.13.84-1.16,1.52s.43,1.17,1.01,1.4c.63.25,1.41.14,1.88-.37.15-.17-.1-.41-.25-.25-.6.66-1.95.46-2.24-.42-.17-.51.11-1.05.51-1.36.2-.15.45-.26.7-.27s.58.08.71.33c.17.31-.24.47-.47.51-.43.06-.87-.02-1.27-.18-.21-.08-.3.26-.09.34h0Z"/><path class="cls-1" d="M46.65,47.13c.38.75.44,1.62.19,2.42-.05.15.13.27.26.2.65-.36,1.29-.73,1.94-1.09.2-.11.69-.29.55-.61-.11-.24-.54-.15-.46.14.06.22.4.12.34-.09-.06.2-.13.22-.21.03-.02.01-.03.02-.05.03-.04.03-.09.05-.14.08-.11.06-.21.12-.32.18-.2.11-.4.22-.59.33-.41.23-.82.46-1.23.69l.26.2c.28-.89.2-1.86-.22-2.69-.1-.2-.4-.02-.3.18h0Z"/><path class="cls-1" d="M48.11,48.93c.15.69.79,1.21,1.49,1.24.09,0,.18-.08.18-.18,0-.1-.08-.17-.18-.18-.08,0-.11,0-.19-.03-.07-.02-.14-.04-.2-.07-.01,0-.01,0,0,0,0,0-.02,0-.03-.01-.02,0-.03-.02-.05-.02-.03-.02-.06-.03-.09-.05-.03-.02-.06-.04-.09-.06,0,0-.04-.03-.02-.02-.01-.01-.03-.02-.04-.04-.22-.19-.36-.41-.42-.69-.02-.09-.13-.15-.22-.12-.1.03-.14.12-.12.22h0Z"/><path class="cls-1" d="M52.1,47.98c-.48-.24-1.06-.16-1.48.17s-.61.9-.43,1.43.62.92,1.17.96,1.1-.31,1.34-.8c.29-.62.04-1.39-.56-1.71-.2-.11-.38.2-.18.3.4.21.61.7.47,1.13-.12.39-.52.7-.92.73-.83.06-1.38-1.06-.79-1.66.3-.31.81-.44,1.21-.24.2.1.38-.2.18-.3h0Z"/><path class="cls-1" d="M53.86,48.69v2.16h.35c-.03-.44.04-.88.23-1.29.15-.32.39-.72.77-.76s.67.31.77.63c.13.44-.02.92-.14,1.34-.05.18.24.32.32.13.17-.4.38-.79.62-1.15.2-.3.49-.8.91-.76.37.03.65.39.72.73.09.48-.08.96-.23,1.4-.07.21.26.31.34.09.18-.53.38-1.13.21-1.69-.12-.4-.46-.77-.87-.87-.47-.11-.83.18-1.1.53-.36.47-.66.99-.89,1.54l.32.13c.15-.53.31-1.12.1-1.65-.16-.41-.53-.77-.99-.77s-.84.38-1.06.76c-.28.5-.4,1.07-.37,1.64.01.22.35.23.35,0v-2.16c0-.23-.35-.23-.35,0h0Z"/><path class="cls-1" d="M59.21,50.29c.39.04.75.23,1.14.28.33.05.69,0,.95-.22.21-.18.29-.48.22-.75s-.28-.42-.55-.45c-.6-.07-1.13.38-1.35.91-.24.56-.09,1.18.33,1.61.49.49,1.22.67,1.89.54.22-.04.13-.38-.09-.34-.83.16-2.07-.41-1.89-1.42.08-.41.37-.82.79-.93.15-.04.4-.06.49.09s.06.36-.06.47c-.21.19-.54.19-.8.13-.36-.08-.7-.23-1.08-.27-.22-.02-.22.33,0,.35h0Z"/><path class="cls-1" d="M62.36,49.8l.04,2.34c0,.19.31.25.34.05.08-.56.17-1.21.56-1.64.3-.34.85-.57,1.26-.29.37.25.44.77.45,1.19.02.62-.02,1.24-.04,1.85,0,.23.34.23.35,0,.02-.58.05-1.16.04-1.73,0-.41-.05-.85-.26-1.21-.49-.85-1.61-.64-2.14.06-.37.48-.47,1.1-.56,1.69l.34.05-.04-2.34c0-.22-.35-.23-.35,0h0Z"/><path class="cls-1" d="M12.85,52.46c-3.27,3.75-6.84,7.23-10.64,10.45-.13.11-.01.29.12.3,4.96.34,10.14-.21,14.77-2.08,1.84-.74,3.61-1.71,5.1-3.03.67-.59,1.27-1.26,1.78-1.99s.74-.48,1.55-.22,1.6.5,2.4.74c12.06,3.61,24.54,5.83,37.09,6.77,11.45.86,23.15.88,34.46-1.36,9.22-1.83,19.42-5.4,25.15-13.33,5.7-7.88,4.72-18.23-.96-25.83-5.97-7.99-15.34-13.02-24.55-16.34C87.58,2.39,75.23.78,63.02.23c-6.52-.29-13.07-.29-19.59-.08-6.18.2-12.39.66-18.46,1.95C15.28,4.15,3.68,8.87,1.07,19.51c-.64,2.61-.78,5.3-.92,7.97-.15,3-.29,6.01.08,9,.6,4.86,2.76,9.28,6.58,12.41,1.86,1.52,3.98,2.64,6.25,3.42.21.07.31-.27.09-.34-4.43-1.53-8.26-4.49-10.5-8.65C.12,38.59.24,33.12.49,27.92c.25-5.09.62-10.32,3.81-14.53,2.71-3.58,6.72-6.05,10.77-7.83C25.03,1.2,36.25.61,46.97.41s22.43.11,33.49,1.85c9.96,1.57,19.87,4.31,28.76,9.17,7.55,4.13,15.05,10.18,17.86,18.63s-.24,17.53-7.25,23.15-16.14,7.99-24.83,9.25c-10.14,1.47-20.5,1.35-30.68.54-10.98-.87-21.9-2.73-32.53-5.63-2.5-.68-4.99-1.43-7.46-2.23-.07-.02-.16.02-.2.08-1.91,3.33-5.58,5.19-9.12,6.29-4.08,1.27-8.42,1.64-12.67,1.35l.12.3c3.8-3.22,7.37-6.7,10.64-10.45.15-.17-.1-.42-.25-.25h0Z"/></g></svg>