<?xml version="1.0" encoding="UTF-8"?><svg id="Layer_2" xmlns="http://www.w3.org/2000/svg" viewBox="0 0 107.11 75.91"><defs><style>.cls-1{fill:#1d1d1b;stroke-width:0px;}</style></defs><g id="Layer_1-2"><path class="cls-1" d="M15.45,24.08c-.13,2.03.71,4.69-1.04,6.25-.7.63-1.69.94-2.62.83-.5-.06-1.05-.25-1.4-.63-.37-.39-.45-1.11.11-1.37.2-.1.03-.4-.18-.3-.77.36-.71,1.38-.19,1.92.6.62,1.58.82,2.41.73s1.65-.46,2.25-1.06c.68-.69.97-1.62,1.05-2.57.1-1.27-.13-2.53-.05-3.8.01-.22-.34-.22-.35,0h0Z"/><path class="cls-1" d="M17.34,24.69c.12.55-.05,1.11-.03,1.67s.27,1.04.81,1.26c1.04.42,2.45.04,2.91-1.03.24-.56.22-1.23-.14-1.73-.13-.18-.44,0-.3.18.28.38.32.85.17,1.29-.15.47-.54.82-.99.98s-.99.18-1.46.01c-.51-.18-.66-.62-.65-1.12.01-.54.13-1.07.02-1.6-.05-.22-.38-.13-.34.09h0Z"/><path class="cls-1" d="M22.1,22.21c.21,1.67.51,3.32.9,4.96.05.22.39.13.34-.09-.38-1.6-.68-3.23-.89-4.86-.03-.22-.38-.22-.35,0h0Z"/><path class="cls-1" d="M24.42,25.32c.28.61.55,1.22.83,1.84.04.09.16.11.24.06.09-.05.1-.15.06-.24-.28-.61-.55-1.22-.83-1.84-.04-.09-.16-.11-.24-.06-.09.05-.1.15-.06.24h0Z"/><path class="cls-1" d="M25.09,23.25l.37.37s.08.05.12.05.09-.02.12-.05.05-.08.05-.12-.02-.09-.05-.12l-.37-.37s-.08-.05-.12-.05-.09.02-.12.05-.05.08-.05.12.02.09.05.12h0Z"/><path class="cls-1" d="M29.2,24.76c-.48-.53-1.26-.7-1.93-.49s-1.14.85-1.18,1.57.32,1.4.96,1.7,1.39.2,1.94-.22c.77-.6.79-1.66.58-2.53-.04-.17-.3-.17-.34,0-.28,1.11.11,2.34.99,3.07.17.14.42-.1.25-.25-.79-.65-1.15-1.73-.9-2.73h-.34c.16.65.2,1.47-.29,2-.37.41-.99.56-1.52.42-1.18-.32-1.34-2.1-.24-2.63.58-.28,1.34-.15,1.77.33.15.17.4-.08.25-.25h0Z"/><path class="cls-1" d="M35.43,25.03l.18,2.33c.01.15.25.26.33.09.2-.47.13-.96.06-1.45-.06-.45-.17-1.13.36-1.37.46-.2,1.03.11,1.27.5.35.57.27,1.3.22,1.94h.35c0-.6,0-1.31.4-1.8.31-.38.96-.63,1.35-.22.32.33.23.9.2,1.31-.03.48-.05.96.18,1.4.11.2.41.02.3-.18-.47-.89.46-2.57-.81-3.03-.52-.19-1.14.07-1.48.49-.46.56-.48,1.34-.49,2.03,0,.23.33.22.35,0,.06-.71.12-1.54-.3-2.17-.3-.45-.86-.75-1.4-.67-.57.08-.88.58-.9,1.13-.02.62.3,1.31.04,1.91l.33.09-.18-2.33c-.02-.22-.37-.22-.35,0h0Z"/><path class="cls-1" d="M44.85,25.36c-.59-.52-1.37-.8-2.15-.65-.69.13-1.3.65-1.53,1.32s.02,1.42.58,1.84c.58.45,1.34.38,1.91-.07.77-.61.92-1.62.99-2.54.02-.2-.31-.24-.34-.05-.23,1.18.14,2.42.98,3.28.16.16.4-.09.25-.25-.75-.77-1.09-1.88-.89-2.94l-.34-.05c-.05.67-.14,1.41-.56,1.96-.36.46-.98.78-1.55.51-.53-.25-.86-.87-.73-1.45s.58-1.02,1.12-1.19c.71-.22,1.48.03,2.02.51.17.15.42-.1.25-.25h0Z"/><path class="cls-1" d="M48.06,25.38c-1.17-.48-2.63.32-2.52,1.67.05.56.37,1.11.9,1.32s1.15.07,1.56-.3c.71-.65.22-1.54.37-2.34l-.34-.09c-.12.7.03,1.39.19,2.07.17.73.38,1.53.08,2.26-.27.65-.95,1.12-1.66,1.13s-1.4-.45-1.71-1.1c-.1-.2-.4-.03-.3.18.69,1.45,2.68,1.69,3.69.44,1.18-1.48-.21-3.26.06-4.88.04-.22-.29-.32-.34-.09-.13.68.31,1.59-.23,2.14-.42.43-1.18.47-1.59.02s-.44-1.23-.04-1.7c.43-.52,1.19-.62,1.8-.38.21.09.3-.25.09-.34h0Z"/><path class="cls-1" d="M52.12,25.85c-.55.92-.19,2.16.63,2.79.42.33.95.46,1.48.36.56-.11,1.04-.48,1.36-.94.36-.52.5-1.18.3-1.78-.07-.21-.41-.12-.34.09.3.91-.32,1.94-1.2,2.24s-1.76-.32-2.04-1.17c-.16-.47-.14-.98.11-1.41.12-.19-.19-.37-.3-.18h0Z"/><path class="cls-1" d="M57,26.15v2.24c0,.23.35.23.35,0v-2.24c0-.23-.35-.23-.35,0h0Z"/><path class="cls-1" d="M58.48,24.08h.19s.05,0,.07-.02c.02,0,.04-.02.06-.04.02-.02.03-.03.04-.06.01-.02.02-.04.02-.07,0-.05-.02-.09-.05-.12s-.08-.05-.12-.05h-.19s-.05,0-.07.02c-.02,0-.04.02-.06.04-.02.02-.03.03-.04.06-.01.02-.02.04-.02.07,0,.05.02.09.05.12s.08.05.12.05h0Z"/><path class="cls-1" d="M58.9,24.08c.17,1.83.21,3.68.14,5.52h.35c0-.22,0-.43,0-.65s-.35-.23-.35,0,0,.43,0,.65.34.22.35,0c.07-1.84.02-3.68-.14-5.52-.02-.22-.37-.22-.35,0h0Z"/><path class="cls-1" d="M57.92,26.88h2.81c.23,0,.23-.35,0-.35h-2.81c-.23,0-.23.35,0,.35h0Z"/><path class="cls-1" d="M64.67,27.31c-.46-.6-1.19-1.03-1.96-.98-.71.05-1.33.52-1.58,1.19-.53,1.46,1.25,2.52,2.46,1.82.75-.44,1.11-1.34,1.04-2.18-.02-.22-.33-.23-.35,0-.09,1.38.47,3.02-.34,4.27-.33.51-.98.94-1.61.77-.53-.14-.96-.79-.71-1.32.1-.2-.21-.38-.3-.18-.27.57-.04,1.22.45,1.6.58.45,1.37.32,1.93-.1,1.57-1.18.83-3.4.94-5.04h-.35c.07.75-.24,1.56-.94,1.92-.6.31-1.44.12-1.8-.47-.41-.66.05-1.53.71-1.82.76-.33,1.65.08,2.12.69.14.18.44,0,.3-.18h0Z"/><path class="cls-1" d="M68.8,27.07c-.53-.54-1.33-.81-2.07-.63-.7.16-1.27.77-1.4,1.47s.18,1.39.81,1.73,1.34.26,1.83-.24c.57-.59.65-1.49.68-2.26l-.34.05c.25,1.05.51,2.1.76,3.15.05.22.39.13.34-.09-.25-1.05-.51-2.1-.76-3.15-.05-.2-.34-.15-.34.05-.03.58-.07,1.21-.37,1.73s-.81.75-1.37.58-.93-.66-.91-1.23.42-1.16.98-1.37c.67-.25,1.44-.02,1.94.48.16.16.41-.09.25-.25h0Z"/><path class="cls-1" d="M72.89,26.8c-1.06-.58-2.52-.05-3.04,1.02-.27.57-.28,1.32.15,1.82.46.53,1.25.47,1.8.12.74-.47.97-1.38,1.16-2.18.05-.22-.27-.31-.34-.09-.3,1,.01,2.13.79,2.82.17.15.42-.1.25-.25-.69-.61-.97-1.6-.7-2.48l-.34-.09c-.14.61-.29,1.29-.74,1.76-.35.37-1.02.61-1.48.29s-.47-1.03-.26-1.5c.2-.44.58-.78,1.02-.97.5-.21,1.07-.23,1.55.03.2.11.37-.19.18-.3h0Z"/><path class="cls-1" d="M74.78,27.46c-.02.84-.03,1.68-.05,2.52l.34-.05c-.32-.81-.15-1.91.69-2.34.36-.18.79-.22,1.17-.09.42.14.69.51.8.93.13.51.06,1.06-.02,1.58-.03.22.3.32.34.09.15-.99.25-2.36-.83-2.87-.44-.21-.97-.22-1.43-.04-.49.19-.85.56-1.05,1.04-.23.56-.23,1.22,0,1.78.07.18.34.16.34-.05.02-.84.03-1.68.05-2.52,0-.23-.35-.23-.35,0h0Z"/><path class="cls-1" d="M81.55,27.16c.45.92.9,1.85,1.35,2.77.06.12.24.11.3,0,.5-.91,1.15-1.72,1.92-2.41.17-.15-.08-.4-.25-.25-.79.71-1.46,1.55-1.97,2.48h.3c-.45-.92-.9-1.85-1.35-2.77-.1-.2-.4-.03-.3.18h0Z"/><path class="cls-1" d="M87.64,28.63c.14-.32,0-.69-.24-.93-.27-.27-.64-.34-1.01-.29-.4.06-.8.24-1.14.46-.32.2-.63.46-.78.81-.27.59.01,1.2.54,1.53.57.34,1.27.34,1.83-.02.72-.47,1.1-1.29,1.37-2.07.06-.18-.24-.32-.32-.13-.43.97-.33,2.13.29,3,.13.18.43,0,.3-.18-.54-.76-.67-1.78-.29-2.65l-.32-.13c-.32.95-1.03,2.35-2.26,2.06-.41-.1-.88-.4-.9-.87-.03-.62.62-1.01,1.1-1.24.33-.16.77-.32,1.13-.16.28.12.48.43.36.73-.09.21.25.3.34.09h0Z"/><path class="cls-1" d="M89.92,28.02v2.57h.35c0-.87,0-1.98.84-2.49.79-.48,1.57.22,1.76.99.14.56.06,1.16,0,1.72-.03.22.32.22.35,0,.13-1.04.19-2.25-.75-2.95-.37-.28-.86-.36-1.3-.18s-.79.55-.99.98c-.27.6-.27,1.28-.26,1.92,0,.23.35.23.35,0v-2.57c0-.23-.35-.23-.35,0h0Z"/><path class="cls-1" d="M12.51,38.49c-.24-.6-.81-.95-1.44-1.01s-1.24.22-1.52.78-.2,1.24.13,1.74c.37.56,1.03.82,1.68.62.73-.23,1.34-.96,1.24-1.75-.01-.09-.07-.17-.18-.18-.09,0-.19.08-.18.18.07.57-.29,1.08-.78,1.33s-1.05.15-1.4-.26c-.31-.36-.42-.9-.28-1.35s.58-.75,1.06-.77c.53-.02,1.11.24,1.32.76.08.21.42.12.34-.09h0Z"/><path class="cls-1" d="M12.67,35.68c-.04,1.06-.04,2.12,0,3.19.01.25.02.5.04.75.01.19.02.37.12.54.15.25.46.42.66.13.12-.19-.18-.36-.3-.18.05,0,.05-.02,0-.05-.02-.02-.04-.05-.05-.08-.05-.08-.06-.15-.06-.23-.01-.18-.02-.35-.03-.53-.02-.4-.04-.8-.04-1.19-.02-.78-.01-1.56.02-2.35,0-.23-.34-.22-.35,0h0Z"/><path class="cls-1" d="M14.68,38.79c.78.28,1.71.04,2.25-.59.07-.08.07-.22-.04-.27-.51-.25-1.07-.47-1.65-.41-.46.05-.9.26-1.17.64s-.26.87-.08,1.28c.19.44.56.76,1,.94.57.23,1.21.2,1.81.12.09-.01.14-.13.12-.22-.03-.1-.12-.14-.22-.12-.8.11-1.81.08-2.3-.68-.19-.3-.28-.69-.11-1.02s.52-.52.87-.59c.53-.09,1.07.12,1.54.35l-.04-.27c-.47.54-1.24.74-1.91.5-.21-.08-.3.26-.09.34h0Z"/><path class="cls-1" d="M19.91,38.87c.08,1.25.15,2.49.23,3.74.01.22.36.23.35,0-.08-1.25-.15-2.49-.23-3.74-.01-.22-.36-.23-.35,0h0Z"/><path class="cls-1" d="M20.41,39.59c.79-.43,1.9-.91,2.67-.17.3.29.39.72.19,1.1s-.62.63-1.05.65c-.56.02-1.09-.27-1.49-.65-.16-.16-.41.09-.25.25.43.41.98.71,1.58.75.54.03,1.07-.21,1.4-.65s.36-.98.08-1.42-.77-.69-1.27-.75c-.72-.08-1.43.26-2.04.6-.2.11-.02.41.18.3h0Z"/><path class="cls-1" d="M24.26,39.8v1.82c0,.23.34.23.35,0,0-.78.02-1.57.02-2.35l-.13.17c.63-.25,1.31-.3,1.97-.12.22.06.31-.28.09-.34-.71-.19-1.47-.16-2.15.12-.07.03-.13.09-.13.17,0,.78-.02,1.57-.02,2.35h.35v-1.82c0-.23-.35-.23-.35,0h0Z"/><path class="cls-1" d="M28.36,39.79c-1.1-.81-2.92.25-2.59,1.63.16.68.79,1.22,1.47,1.32s1.28-.29,1.55-.91.21-1.46-.34-1.94c-.17-.15-.42.1-.25.25.75.66.37,2.22-.71,2.26-.56.02-1.12-.37-1.33-.88s-.02-1.04.41-1.36c.46-.34,1.12-.42,1.6-.07.18.13.36-.17.18-.3h0Z"/><path class="cls-1" d="M29.81,40.52c.72.16,1.59-.11,1.89-.83.27-.65-.2-1.51-.91-1.6-.13-.02-.34-.02-.46.07-.16.12-.15.49-.19.67-.1.58-.18,1.16-.23,1.75-.11,1.22-.11,2.44,0,3.65l.3-.12c-.27-.3-.31-.77-.06-1.09s.72-.38,1.07-.19c.2.11.37-.19.18-.3-.5-.27-1.16-.18-1.53.28s-.3,1.12.09,1.55c.1.11.31.03.3-.12-.16-1.96-.05-3.94.33-5.87l-.12.12c.61-.21,1.15.55.91,1.1s-.93.72-1.47.6c-.22-.05-.31.29-.09.34h0Z"/><path class="cls-1" d="M31.93,42.05c1.27.42,2.88-.72,2.68-2.11-.08-.59-.64-1.29-1.3-1.02-.73.3-.66,1.38-.72,2.01-.1,1.21-.2,2.42-.3,3.63h.35c-.04-.92.79-1.72,1.71-1.64.22.02.22-.33,0-.35-1.1-.09-2.11.89-2.06,1.99.01.23.33.22.35,0,.08-1.01.17-2.02.25-3.04.04-.48.06-.97.12-1.45.04-.34.17-.92.63-.86.4.05.62.56.63.91s-.14.69-.36.96c-.45.56-1.2.85-1.9.62-.21-.07-.31.27-.09.34h0Z"/><path class="cls-1" d="M35.1,42.39c.84.11,1.71-.05,2.47-.45.32-.17.71-.39.81-.76s-.1-.69-.39-.88c-.7-.46-1.63.18-2.1.71-.25.28-.43.63-.4,1.01s.21.7.47.95c.72.7,1.78.59,2.69.46.22-.03.13-.37-.09-.34-.67.09-1.44.2-2.06-.15-.52-.3-.86-.91-.53-1.47.16-.27.41-.48.66-.65.27-.19.62-.38.96-.31.25.05.55.32.44.6s-.47.44-.72.57c-.68.34-1.46.46-2.21.36-.22-.03-.22.32,0,.35h0Z"/><path class="cls-1" d="M41.68,40.57c-.5-.21-1.06-.23-1.58-.08-.43.12-1.07.42-1.07.95,0,.48.5.76.9.88.27.08.98.27.81.7-.09.21-.36.31-.57.29-.32-.04-.59-.26-.84-.45-.17-.14-.42.11-.25.25.41.32.92.7,1.47.5.44-.16.73-.65.44-1.08-.27-.4-.77-.43-1.17-.62-.17-.08-.41-.21-.44-.42-.04-.25.27-.42.46-.52.54-.28,1.19-.29,1.75-.06.09.04.19-.04.22-.12.03-.1-.04-.18-.12-.22h0Z"/><path class="cls-1" d="M44.05,41.14c-.31-.27-.71-.42-1.13-.4-.1,0-.2.02-.29.05-.13.04-.16.12-.2.23-.1.25-.21.5-.31.76-.02.05,0,.14.05.17.29.24.65.24,1.01.28.29.03.56.12.64.43.06.24,0,.51-.15.7-.18.24-.5.32-.79.26-.39-.08-.72-.35-.91-.69-.11-.2-.41-.02-.3.18.38.68,1.39,1.21,2.09.66.51-.4.63-1.37,0-1.72-.21-.12-.44-.14-.68-.16s-.48-.02-.66-.17l.05.17c.12-.29.24-.57.36-.86l-.12.12c.39-.11.81-.02,1.12.25.17.15.42-.1.25-.25h0Z"/><path class="cls-1" d="M45.33,41.84c-.42.59-.41,1.45.03,2.03.06.08.15.11.24.06.07-.04.12-.16.06-.24-.37-.49-.38-1.18-.03-1.68.05-.08.01-.19-.06-.24-.09-.05-.18-.01-.24.06h0Z"/><path class="cls-1" d="M45.81,39.69l.19.37s.06.07.1.08c.04.01.1,0,.13-.02s.07-.06.08-.1c.01-.05,0-.09-.02-.13l-.19-.37s-.06-.07-.1-.08c-.04-.01-.1,0-.13.02s-.07.06-.08.1c-.01.05,0,.09.02.13h0Z"/><path class="cls-1" d="M48.08,41.4c-.45-.52-1.29-.62-1.83-.18-.44.36-.61,1.04-.43,1.58.2.6.81.93,1.42.89s1.2-.44,1.37-1.07c.18-.69-.12-1.47-.72-1.85-.19-.12-.37.18-.18.3.42.26.63.77.59,1.25s-.4.88-.88.99c-.44.1-.97-.04-1.2-.45-.22-.38-.16-.89.11-1.23.38-.48,1.11-.42,1.49.02.15.17.39-.08.25-.25h0Z"/><path class="cls-1" d="M50.08,41.81c-.17.47-.23.98-.18,1.48l.34-.05c-.16-.73.06-1.72.93-1.84.33-.05.66.08.83.38s.18.65.24.98c.07.38.2.73.53.96.19.13.36-.18.18-.3-.3-.2-.35-.61-.4-.94-.06-.38-.13-.77-.39-1.07-.27-.32-.71-.4-1.11-.33-.43.08-.79.36-.99.74-.25.47-.27,1.02-.16,1.53.04.19.36.15.34-.05-.05-.47,0-.94.16-1.39.07-.21-.26-.3-.34-.09h0Z"/><path class="cls-1" d="M55.53,41c-1.03-.26-2.41.47-2.3,1.66.05.54.42,1.04.9,1.27s1.08.13,1.48-.28c.45-.46.59-1.14.69-1.76h-.34c.22.87.66,1.67,1.28,2.32.16.16.4-.08.25-.25-.58-.61-.99-1.35-1.19-2.17-.04-.16-.31-.17-.34,0-.12.72-.42,2.09-1.43,1.89-.44-.09-.8-.46-.92-.88s.08-.86.41-1.15c.38-.33.93-.46,1.42-.33.22.06.31-.28.09-.34h0Z"/><path class="cls-1" d="M58.47,38.82c-.24,1.57-.27,3.16-.07,4.74.03.22.38.22.35,0-.19-1.54-.17-3.11.06-4.65.03-.22-.3-.32-.34-.09h0Z"/><path class="cls-1" d="M59.63,42.09l.62,1.66c.03.09.12.15.22.12.09-.02.16-.13.12-.22l-.62-1.66c-.03-.09-.12-.15-.22-.12-.09.02-.16.13-.12.22h0Z"/><path class="cls-1" d="M60.66,40.49l.19-.19s.03-.03.04-.06c.01-.02.02-.04.02-.07,0-.02,0-.05-.02-.07,0-.02-.02-.04-.04-.06-.03-.03-.08-.05-.12-.05s-.09.02-.12.05l-.19.19s-.03.03-.04.06c-.01.02-.02.04-.02.07,0,.02,0,.05.02.07,0,.02.02.04.04.06.03.03.08.05.12.05s.09-.02.12-.05h0Z"/><path class="cls-1" d="M62.29,39.76c-.2,1.25-.26,2.52-.18,3.79.01.22.36.23.35,0-.08-1.23-.02-2.47.17-3.69.03-.22-.3-.32-.34-.09h0Z"/><path class="cls-1" d="M61.66,41.85h2.06c.23,0,.23-.35,0-.35h-2.06c-.23,0-.23.35,0,.35h0Z"/><path class="cls-1" d="M64.04,42.49c.85.37,1.88.17,2.51-.51.09-.1.05-.25-.08-.29-.7-.23-1.8-.46-2.35.19-.75.88.23,1.95,1.03,2.35.51.26,1.16.41,1.66.05.18-.13,0-.43-.18-.3-.36.25-.82.17-1.19,0s-.78-.45-1.02-.82c-.21-.31-.3-.72-.05-1.03.19-.24.52-.31.82-.32.41,0,.81.08,1.2.21l-.08-.29c-.52.56-1.38.76-2.09.45-.2-.09-.38.21-.18.3h0Z"/><path class="cls-1" d="M67.26,41.97c.3.67.44,1.4.41,2.14,0,.23.34.22.35,0,.03-.8-.13-1.59-.46-2.31-.04-.09-.16-.11-.24-.06-.09.05-.1.15-.06.24h0Z"/><path class="cls-1" d="M68.77,40.72c.23,0,.23-.35,0-.35s-.23.35,0,.35h0Z"/><path class="cls-1" d="M68.89,40.6c.52,1.2.67,2.54.42,3.82-.04.22.29.31.34.09.27-1.38.11-2.8-.45-4.09-.09-.21-.39-.03-.3.18h0Z"/><path class="cls-1" d="M68.96,42.6c.68-.08,1.36-.02,2.01.17.22.06.31-.27.09-.34-.68-.2-1.4-.26-2.11-.18-.09.01-.18.07-.18.18,0,.09.08.19.18.18h0Z"/><path class="cls-1" d="M73.64,41.35c.11.78.57,1.49,1.22,1.92.08.05.19.01.24-.06.57-.84.97-1.79,1.2-2.78.05-.22-.29-.31-.34-.09-.22.96-.61,1.88-1.16,2.7l.24-.06c-.58-.39-.96-1.02-1.06-1.71-.01-.09-.13-.14-.22-.12-.1.03-.14.12-.12.22h0Z"/><path class="cls-1" d="M78.42,40.81c-1.04-.44-2.67-.1-2.84,1.2-.07.5.1,1.06.48,1.41.46.41,1.11.38,1.6.03.7-.51.86-1.38.98-2.18.03-.22-.29-.32-.34-.09-.17.87.22,1.78.98,2.25.19.12.37-.18.18-.3-.62-.38-.95-1.14-.82-1.85l-.34-.09c-.09.6-.17,1.28-.59,1.76-.33.37-.88.61-1.32.31-.33-.23-.49-.67-.48-1.06.02-.48.34-.85.76-1.04.52-.24,1.14-.2,1.65.02.21.09.3-.25.09-.34h0Z"/><path class="cls-1" d="M80.24,40.92c.08.71.15,1.41.23,2.12l.33-.09c-.32-.74.24-1.66.97-1.89.78-.25,1.47.36,1.65,1.09.1.41.04.83-.21,1.17-.13.18.17.36.3.18.55-.75.31-1.89-.39-2.47-.37-.3-.83-.44-1.31-.34s-.9.44-1.17.85c-.31.48-.38,1.07-.16,1.59.07.16.34.08.33-.09-.08-.71-.15-1.41-.23-2.12-.02-.22-.37-.22-.35,0h0Z"/><path class="cls-1" d="M88.39,38.24c.04,1.55.04,3.1.02,4.64,0,.23.33.22.35,0,.06-.54.12-1.11.39-1.59.23-.41.65-.78,1.14-.78s.86.36,1.06.77c.26.51.26,1.11.27,1.67,0,.22.35.23.35,0-.01-.66-.03-1.36-.37-1.94-.27-.47-.75-.85-1.32-.85s-1.05.36-1.35.81c-.38.56-.45,1.26-.53,1.92h.35c.03-1.55.02-3.1-.02-4.64,0-.22-.36-.23-.35,0h0Z"/><path class="cls-1" d="M94.9,40.8c-.5-.39-1.16-.55-1.77-.39-.56.15-.99.58-1.1,1.16-.1.52.05,1.1.49,1.43.51.39,1.23.28,1.72-.08.66-.48.87-1.32.89-2.09,0-.23-.34-.23-.35,0-.02.55-.02,1.12.23,1.62.21.42.6.73,1.07.77.22.02.22-.33,0-.35-.38-.04-.68-.35-.82-.69-.17-.42-.15-.9-.14-1.35h-.35c-.01.57-.13,1.18-.52,1.61-.33.37-.92.59-1.39.36-.38-.18-.53-.61-.51-1.01.02-.45.29-.83.71-1,.52-.21,1.16-.1,1.59.24.18.14.43-.11.25-.25h0Z"/><path class="cls-1" d="M98.63,40.34c-.47-.36-1.12-.46-1.68-.28s-.99.63-1.17,1.19-.13,1.27.37,1.62c.47.33,1.1.09,1.49-.25.55-.48.67-1.27,1.11-1.84l-.33-.09c.08.74.24,1.46.49,2.16.07.21.41.12.34-.09-.24-.67-.4-1.36-.48-2.07-.02-.18-.22-.23-.33-.09-.33.43-.48.96-.77,1.42-.22.36-.64.71-1.09.65-.51-.07-.6-.73-.51-1.15.1-.46.4-.88.84-1.07.51-.22,1.11-.13,1.54.2.18.14.35-.17.18-.3h0Z"/><path class="cls-1" d="M99.85,41.34c.2.53.39,1.06.59,1.59.08.21.38.13.34-.09-.07-.39-.13-.78-.08-1.17.04-.32.15-.68.41-.89.35-.29,1.04-.38,1.27.11.1.2.4.03.3-.18-.24-.5-.86-.61-1.35-.44-.63.21-.93.79-.99,1.43-.04.42.02.84.1,1.25l.34-.09c-.2-.53-.39-1.06-.59-1.59-.08-.21-.42-.12-.34.09h0Z"/><path class="cls-1" d="M29.42,51.36c.53.24,1.11.5,1.71.46.46-.03.9-.27,1.15-.67.23-.36.23-.82-.04-1.16-.25-.31-.66-.42-1.05-.43-.44,0-.87.1-1.28.27-.44.18-.82.47-.97.93-.3.93.34,1.85,1.21,2.15,1.22.42,2.43-.23,3.42-.9.19-.13.01-.43-.18-.3-.73.5-1.55,1-2.47.98-.78-.01-1.57-.44-1.69-1.27-.05-.35.04-.72.31-.97.29-.26.71-.4,1.09-.48.5-.11,1.54-.09,1.46.68-.05.42-.47.75-.87.81-.57.09-1.13-.17-1.63-.4-.2-.09-.38.21-.18.3h0Z"/><path class="cls-1" d="M33.78,50.52l.55,1.69c.07.21.41.12.34-.09l-.55-1.69c-.07-.21-.41-.12-.34.09h0Z"/><path class="cls-1" d="M34.91,49.14h.19s.05,0,.07-.02c.02,0,.04-.02.06-.04.02-.02.03-.03.04-.06.01-.02.02-.04.02-.07,0-.05-.02-.09-.05-.12s-.08-.05-.12-.05h-.19s-.05,0-.07.02c-.02,0-.04.02-.06.04-.02.02-.03.03-.04.06-.01.02-.02.04-.02.07,0,.05.02.09.05.12s.08.05.12.05h0Z"/><path class="cls-1" d="M38.57,50.59c-.67-.99-2.57-1.2-3.01.14-.17.54,0,1.17.39,1.57.42.44,1.09.49,1.6.14.61-.42.89-1.22.91-1.94,0-.23-.33-.22-.35,0-.15,1.32.51,3.11-.7,4.1-.43.35-1.02.37-1.4-.06-.32-.36-.44-.97-.12-1.36.14-.17-.11-.42-.25-.25-.59.74-.2,1.98.72,2.25,1.17.33,1.99-.99,2.1-1.97.1-.9-.12-1.81-.01-2.71h-.35c-.01.51-.17,1.05-.52,1.44-.31.35-.82.52-1.24.24-.36-.25-.55-.74-.49-1.16.06-.49.46-.81.94-.88.55-.08,1.16.16,1.48.62.13.19.43.01.3-.18h0Z"/><path class="cls-1" d="M39.77,51.18c.45.06.91.06,1.37.01.21-.02.43-.06.64-.1.18-.04.38-.09.5-.26.19-.27.04-.64-.22-.8-.33-.2-.8-.13-1.17-.09-.73.08-1.52.33-1.89,1.03-.35.65-.08,1.37.5,1.78.79.57,1.81.35,2.68.14.22-.05.13-.39-.09-.34-.66.16-1.4.35-2.06.09-.47-.18-.92-.64-.83-1.19.1-.59.66-.94,1.19-1.08.32-.08.66-.11.99-.12.19,0,.67,0,.63.32-.02.15-.29.17-.41.19-.2.04-.4.07-.6.08-.41.03-.82.02-1.22-.03-.22-.03-.22.32,0,.35h0Z"/><path class="cls-1" d="M43.15,50.65c0,.73.01,1.46.02,2.18l.34-.05c-.12-.43-.15-.92.05-1.34.17-.36.5-.64.9-.7.32-.05.65.09.85.35s.27.59.29.91c.03.4,0,.8-.08,1.19-.04.22.3.31.34.09.08-.42.12-.84.09-1.27-.03-.39-.12-.8-.36-1.12s-.65-.53-1.07-.51c-.48.03-.93.32-1.19.73-.32.52-.33,1.18-.16,1.76.05.19.35.15.34-.05,0-.73-.01-1.46-.02-2.18,0-.23-.35-.23-.35,0h0Z"/><path class="cls-1" d="M50.71,49.7c-.25.84-.51,1.68-.76,2.51-.04.13.09.25.22.22,1.08-.28,2.02-.96,2.63-1.9.12-.19-.18-.37-.3-.18-.55.86-1.43,1.48-2.42,1.74l.22.22c.25-.84.51-1.68.76-2.51.07-.22-.27-.31-.34-.09h0Z"/><path class="cls-1" d="M51.25,51.48c.45.87,1.46,1.37,2.42,1.22.09-.01.15-.13.12-.22-.03-.1-.12-.14-.22-.12-.81.13-1.65-.33-2.02-1.05-.1-.2-.4-.02-.3.18h0Z"/><path class="cls-1" d="M54.77,50.37c-.29.42-.77.67-1.03,1.12-.24.42-.18.91.16,1.26s.87.5,1.36.39c.56-.13,1.02-.53,1.39-.95l-.27-.04c.43.63,1.17,1.4,1.97.84.87-.61.6-1.74.3-2.58-.07-.21-.41-.12-.34.09.23.66.54,1.57-.07,2.12s-1.22-.16-1.56-.65c-.06-.09-.2-.13-.27-.04-.53.61-1.6,1.37-2.29.52-.6-.74.61-1.38.97-1.91.13-.19-.18-.36-.3-.18h0Z"/><path class="cls-1" d="M62.16,51.76c.07-.52-.32-.99-.79-1.17-.53-.2-1.13,0-1.57.33s-.81.82-.75,1.38c.05.49.41.95.9,1.07.54.14,1.13-.14,1.39-.63.1-.2-.2-.38-.3-.18-.16.32-.51.52-.87.49s-.66-.34-.75-.69c-.1-.41.17-.8.46-1.06.32-.28.77-.5,1.2-.43s.79.44.73.88c-.01.09.09.17.18.18.1,0,.16-.08.18-.18h0Z"/><path class="cls-1" d="M62.21,51.59v-.14c-.1.02-.22.03-.33.05.18.74.49,1.44.92,2.06.13.18.43,0,.3-.18-.41-.6-.71-1.27-.89-1.98-.05-.2-.33-.14-.34.05v.14c-.02.09.07.18.16.18.1,0,.17-.08.18-.18h0Z"/><path class="cls-1" d="M64.27,50.28v-.5c0-.23-.35-.23-.35,0v3.5c0,.23.35.23.35,0v-3.5c0-.23-.35-.23-.35,0v.5c0,.23.35.23.35,0h0Z"/><path class="cls-1" d="M65.41,51.4v2.43c0,.23.35.23.35,0v-2.43c0-.23-.35-.23-.35,0h0Z"/><path class="cls-1" d="M66.34,51.01c.23,0,.23-.35,0-.35s-.23.35,0,.35h0Z"/><path class="cls-1" d="M67.56,49.74c.27,1.22.39,2.46.35,3.71,0,.23.34.22.35,0,.04-1.28-.08-2.55-.36-3.8-.05-.22-.39-.13-.34.09h0Z"/><path class="cls-1" d="M67.27,51.57h2.99c.23,0,.23-.35,0-.35h-2.99c-.23,0-.23.35,0,.35h0Z"/><path class="cls-1" d="M70.64,51.94c.96.07,1.92,0,2.85-.22.08-.02.12-.09.13-.17.03-.51-.52-.69-.94-.72-.51-.04-1.18.06-1.57.43-.8.76,0,2.02.89,2.24.78.19,1.57-.08,2.3-.35.21-.08.12-.42-.09-.34-.84.31-2.08.76-2.78-.07-.22-.27-.37-.67-.23-1,.18-.43.72-.5,1.12-.54.27-.03.98-.05.96.36l.13-.17c-.9.21-1.83.28-2.76.21-.22-.02-.22.33,0,.35h0Z"/><path class="cls-1" d="M74.25,51.29c.35.61.58,1.29.64,1.99,0,.09.07.18.18.18.09,0,.18-.08.18-.18-.07-.76-.3-1.5-.69-2.16-.11-.19-.42-.02-.3.18h0Z"/><path class="cls-1" d="M75.13,49.89c.23,0,.23-.35,0-.35s-.23.35,0,.35h0Z"/><path class="cls-1" d="M75.54,49.31c-.01-.12.15,0,.18.05.05.09.06.2.07.3.04.29.08.58.12.87.08.59.17,1.19.25,1.78.04.28.06.57.12.85.03.16.13.33.31.34.33.02.34-.56-.02-.49-.22.04-.13.38.09.34h.03s-.09-.02-.13-.02c.13.07.04-.43.04-.44-.02-.14-.04-.28-.06-.41-.04-.26-.07-.52-.11-.79-.08-.54-.15-1.08-.23-1.61-.05-.34-.03-.88-.37-1.09-.25-.16-.69,0-.64.34.03.22.38.22.35,0h0Z"/><path class="cls-1" d="M75.72,51.14c.64-.17,1.32-.22,1.98-.12.09.01.19-.02.22-.12.02-.08-.03-.2-.12-.22-.72-.1-1.46-.07-2.16.12-.22.06-.13.4.09.34h0Z"/><path class="cls-1" d="M78.29,51.87c.99.36,2.18.03,2.83-.8.07-.09.07-.21-.04-.27-.9-.55-2.44-.96-3.09.18-.26.45-.24,1.02-.05,1.49.22.53.66.91,1.22,1.08.69.21,1.44.08,2.08-.23.2-.1.02-.4-.18-.3-.87.43-2.18.45-2.71-.51-.2-.36-.27-.82-.11-1.21.17-.43.6-.66,1.04-.68.58-.03,1.15.21,1.63.5l-.04-.27c-.59.73-1.61,1.02-2.49.71-.21-.08-.3.26-.09.34h0Z"/><path class="cls-1" d="M81.81,51.09c.16.78.33,1.56.49,2.34l.34-.09c-.12-.57-.26-1.2-.03-1.76.17-.42.57-.77,1.05-.68s.85.53,1.03.98c.21.54.26,1.12.4,1.67.06.22.39.13.34-.09-.25-.95-.27-2.05-1.16-2.67-.37-.25-.83-.33-1.24-.15s-.66.56-.79.96c-.19.6-.06,1.24.07,1.84.05.22.38.13.34-.09-.16-.78-.33-1.56-.49-2.34-.05-.22-.38-.13-.34.09h0Z"/><path class="cls-1" d="M10.76,62.41c-2.65,4.34-5.59,8.47-8.83,12.39-.1.12-.03.28.12.3,4.21.41,8.61-.34,12.3-2.46,1.65-.94,3.14-2.17,4.31-3.67.62-.8.99-1.7,1.54-2.53.39-.59.57-.3,1.27.01s1.39.62,2.09.91c10.54,4.48,21.79,7.25,33.2,8.2,17.87,1.49,41.4-1.42,48.46-20.89,3.23-8.9,2.18-19.16-2.18-27.49-4.5-8.59-12.15-15.19-20.72-19.54C72.36,2.6,61.14.64,50.07.16c-5.93-.26-11.93-.22-17.84.3-5.44.47-10.92,1.49-15.92,3.76-4.22,1.92-8.11,4.73-10.94,8.43C2.2,16.79.95,21.76.51,26.89c-.5,5.85-.8,11.98-.09,17.81.58,4.78,2.11,9.51,5.25,13.25,1.46,1.74,3.23,3.15,5.26,4.15.2.1.38-.2.18-.3C1.88,57.26.31,46.1.44,36.91c.07-4.97.08-10.11,1.13-14.98.97-4.51,3.14-8.52,6.46-11.74C15.15,3.28,25.19,1.19,34.77.62c10.19-.61,20.63-.36,30.66,1.68,17.1,3.47,34.81,13.85,39.92,31.59,2.38,8.25,1.83,17.57-2.5,25.1s-11.69,11.95-19.68,14.28c-8.39,2.45-17.29,2.68-25.95,1.99-10.15-.81-20.19-3.06-29.71-6.68-2.41-.91-4.78-1.92-7.11-3-.11-.05-.21,0-.26.1-2.83,7-11.07,9.75-18.09,9.06l.12.3c3.25-3.94,6.22-8.1,8.88-12.46.12-.19-.18-.37-.3-.18h0Z"/></g></svg>