<?xml version="1.0" encoding="UTF-8"?><svg id="Layer_2" xmlns="http://www.w3.org/2000/svg" viewBox="0 0 107.11 75.91"><defs><style>.cls-1{fill:#1d1d1b;stroke-width:0px;}</style></defs><g id="Layer_1-2"><path class="cls-1" d="M17.18,14.73c.07,2.09.15,4.4-1.07,6.21-.14.21-.31.43-.54.57-.31.19-.67.13-1.01.05-.47-.11-.97-.25-1.39-.5s-.76-.6-.72-1.1c.03-.41.3-.84.76-.78.22.03.22-.32,0-.35-.71-.09-1.15.66-1.11,1.29.05.88.95,1.33,1.69,1.57.46.15.98.33,1.48.27.44-.06.77-.34,1.02-.69.63-.84.97-1.88,1.13-2.91.19-1.21.16-2.43.12-3.65,0-.22-.36-.23-.35,0h0Z"/><path class="cls-1" d="M19.7,19.43c-.88,1.01-.43,2.66.65,3.35.55.35,1.24.38,1.82.08s.97-.86,1.14-1.46c.2-.69.1-1.46-.4-2.01-.15-.17-.4.08-.25.25.74.81.37,2.21-.47,2.79-.44.31-1,.38-1.49.14s-.84-.7-1.01-1.2c-.19-.57-.15-1.22.25-1.69.15-.17-.1-.42-.25-.25h0Z"/><path class="cls-1" d="M25,16.53c0,2.09,0,4.19,0,6.28,0,.23.35.23.35,0,0-2.09,0-4.19,0-6.28,0-.23-.35-.23-.35,0h0Z"/><path class="cls-1" d="M27.44,20.71c.1.8.2,1.59.3,2.39.01.09.07.17.18.18.09,0,.19-.08.18-.18-.1-.8-.2-1.59-.3-2.39-.01-.09-.07-.17-.18-.18-.09,0-.19.08-.18.18h0Z"/><path class="cls-1" d="M28.46,18.8c.23,0,.23-.35,0-.35s-.23.35,0,.35h0Z"/><path class="cls-1" d="M33.04,21.26c-.86-.32-1.81-.65-2.73-.4-.65.17-1.26.71-1.41,1.38-.15.63.17,1.24.74,1.53s1.26.26,1.82-.03c.79-.4,1.28-1.18,1.71-1.92l-.3-.18c-.36.85,0,1.91.85,2.31.2.1.38-.21.18-.3-.66-.31-1.02-1.14-.73-1.83.09-.2-.19-.38-.3-.18-.56.97-1.42,2.23-2.72,1.94-.52-.11-.97-.51-.94-1.07.04-.62.59-1.13,1.16-1.3.86-.25,1.78.1,2.57.39.21.08.3-.26.09-.34h0Z"/><path class="cls-1" d="M39.81,21.65c-1.08.19-1.91,1.38-1.64,2.46s1.46,1.34,2.34.89c.47-.24.8-.68.78-1.22l-.3.12c.74.67,1.66,1.07,2.65,1.18.1.01.17-.09.18-.18.12-1.12.1-2.25-.06-3.36-.03-.22-.37-.13-.34.09.15,1.08.17,2.18.05,3.27l.18-.18c-.9-.1-1.74-.47-2.41-1.07-.11-.1-.3-.03-.3.12.02,1-1.46,1.4-2.12.79-.42-.39-.43-1.03-.21-1.52.23-.54.71-.96,1.29-1.06.22-.04.13-.38-.09-.34h0Z"/><path class="cls-1" d="M45.8,24.39l2.11-.21c.39-.04,1.2.02,1.34-.49s-.62-.81-.98-.97c-.5-.21-1.04-.38-1.59-.35-.95.06-1.64.76-1.66,1.71-.01.87.48,1.74,1.24,2.16,1.16.63,2.56.4,3.76,0,.21-.07.12-.41-.09-.34-.9.3-1.9.51-2.85.27-.79-.2-1.4-.72-1.63-1.51-.19-.66-.05-1.43.6-1.78.8-.43,1.88-.02,2.6.4.09.05.29.17.26.3-.02.11-.18.14-.27.16-.28.06-.57.06-.86.09l-1.99.2c-.22.02-.22.37,0,.35h0Z"/><path class="cls-1" d="M49.99,24.78l2.65-.03c.08,0,.15-.05.17-.13.07-.22.1-.44.08-.67-.01-.17-.03-.47-.17-.59-.23-.19-.69-.18-.97-.14-.67.1-1.28.58-1.56,1.2-.3.68-.14,1.48.28,2.07.46.64,1.18,1.03,1.97,1.06.92.04,1.82-.39,2.44-1.05.16-.16-.09-.41-.25-.25-.55.58-1.32.96-2.12.95s-1.48-.42-1.86-1.09c-.36-.63-.36-1.41.13-1.96.44-.5,1.15-.75,1.79-.48l-.12-.12c.12.33.13.65.03.98l.17-.13-2.65.03c-.23,0-.23.35,0,.35h0Z"/><path class="cls-1" d="M55.44,21.9c-.24,1.91-.19,3.83.13,5.72.04.22.38.13.34-.09-.32-1.86-.35-3.76-.12-5.63.03-.22-.32-.22-.35,0h0Z"/><path class="cls-1" d="M54.14,24.71l2.38.35c.09.01.19-.02.22-.12.02-.08-.03-.2-.12-.22l-2.38-.35c-.09-.01-.19.02-.22.12-.02.08.03.2.12.22h0Z"/><path class="cls-1" d="M61.49,23.06c-.29,1.8-.58,3.59-.87,5.39-.04.22.3.32.34.09.29-1.8.58-3.59.87-5.39.04-.22-.3-.32-.34-.09h0Z"/><path class="cls-1" d="M61.15,26.67c.68-.17,1.59-.28,2.21.12.29.18.45.52.39.87-.09.45-.5.8-.92.93-.66.2-1.38-.02-2.01-.21-.22-.06-.31.27-.09.34.67.2,1.39.39,2.09.23.52-.12,1.01-.49,1.22-1,.17-.43.08-.93-.24-1.27-.3-.31-.74-.43-1.15-.48-.52-.06-1.06,0-1.57.13-.22.05-.13.39.09.34h0Z"/><path class="cls-1" d="M65.96,27.25c-.32.79-.41,1.65-.28,2.49.01.09.13.14.22.12.1-.03.14-.12.12-.22-.12-.78,0-1.57.28-2.3.04-.09-.04-.19-.12-.22-.1-.03-.18.04-.22.12h0Z"/><path class="cls-1" d="M66.44,25.97h.3s.09-.02.12-.05.05-.08.05-.12-.02-.09-.05-.12-.08-.05-.12-.05h-.3s-.09.02-.12.05-.05.08-.05.12.02.09.05.12.08.05.12.05h0Z"/><path class="cls-1" d="M67.37,28.26c.36,1.74.18,3.55-.51,5.18l.29-.08c-.3-.26-.6-.52-.9-.78-.17-.15-.42.1-.25.25.3.26.6.52.9.78.11.09.24.05.29-.08.71-1.69.89-3.57.51-5.37-.05-.22-.38-.13-.34.09h0Z"/><path class="cls-1" d="M69.3,26.87l-.3.3s-.05.08-.05.12.02.09.05.12.08.05.12.05.09-.02.12-.05l.3-.3s.05-.08.05-.12-.02-.09-.05-.12-.08-.05-.12-.05-.09.02-.12.05h0Z"/><path class="cls-1" d="M73.31,28.53c-.75.9-1.64,2.18-.75,3.29.33.41.85.63,1.36.44.56-.21.87-.78,1.11-1.29l-.32-.04c.44,1.16,2.04,1.67,3.04.88s.85-2.48-.18-3.16c-.19-.12-.36.18-.18.3.83.55.93,1.95.14,2.58s-2.13.24-2.49-.7c-.05-.13-.25-.19-.32-.04-.19.39-.42.87-.82,1.08-.44.24-.9.01-1.15-.38-.61-.96.2-1.99.8-2.72.14-.17-.1-.42-.25-.25h0Z"/><path class="cls-1" d="M80.02,30.28c0,.9,0,1.79,0,2.69,0,.23.35.23.35,0,0-.9,0-1.79,0-2.69,0-.23-.35-.23-.35,0h0Z"/><path class="cls-1" d="M80.79,28.96c.23,0,.23-.35,0-.35s-.23.35,0,.35h0Z"/><path class="cls-1" d="M81.34,31.63c1.14.21,2.34-.16,3.14-1,.05-.05.07-.15.03-.21-.61-.91-2.08-.69-2.61.2-.32.53-.28,1.2-.04,1.75.26.61.76,1.07,1.37,1.33.77.32,1.63.32,2.44.18.22-.04.13-.38-.09-.34-1.12.19-2.52.07-3.21-.97-.54-.81-.47-2.03.59-2.34.45-.13.98-.05,1.26.35l.03-.21c-.71.75-1.78,1.1-2.8.91-.22-.04-.31.3-.09.34h0Z"/><path class="cls-1" d="M19.91,29.66c.49-.1,1.08-.23,1.55.03.32.17.63.64.4.99-.13.21-.4.32-.6.44-.25.14-.5.29-.75.43-.51.29-1.02.58-1.53.88-.12.07-.11.23,0,.3.95.6,2.07.91,3.19.89.23,0,.23-.35,0-.35-1.07.01-2.11-.28-3.02-.85v.3c.63-.36,1.27-.73,1.9-1.09.45-.26,1.13-.51,1.22-1.1.06-.46-.24-.94-.64-1.15-.56-.3-1.23-.18-1.82-.06-.22.04-.13.38.09.34h0Z"/><path class="cls-1" d="M24.26,33.37c.55.11,1.15.23,1.7.04.42-.14.75-.47.88-.89s-.01-.85-.38-1.08c-.4-.25-.92-.21-1.37-.18-.88.05-2,.3-2.21,1.31-.18.82.33,1.67,1,2.11,1.11.73,2.59.31,3.75-.03.22-.06.12-.4-.09-.34-.92.27-1.92.57-2.88.32-.7-.18-1.28-.74-1.43-1.46-.17-.8.43-1.32,1.16-1.48.39-.09.81-.11,1.22-.11.37,0,.88.08.94.52.06.38-.23.77-.56.92-.51.23-1.1.1-1.62,0-.22-.04-.31.29-.09.34h0Z"/><path class="cls-1" d="M31.95,33.88l-.31,2.57.34-.05c-.4-1.3.27-2.91,1.79-2.93.64,0,1.23.34,1.44.96.18.54.06,1.16-.39,1.53l.27.21c.32-.46.68-.9,1.08-1.3.19-.19.39-.38.6-.55.1-.09.22-.2.35-.26.25-.1.36.09.44.29.44,1.06.41,2.28,0,3.35-.08.21.26.3.34.09.26-.68.37-1.41.31-2.14-.03-.34-.09-.67-.18-.99-.08-.27-.17-.62-.39-.83-.48-.47-1.09.18-1.43.5-.54.49-1.01,1.05-1.43,1.65-.12.17.13.33.27.21.54-.44.7-1.22.48-1.87-.24-.71-.87-1.15-1.61-1.21-.79-.06-1.56.33-1.99.98-.47.69-.54,1.6-.29,2.38.06.2.32.14.34-.05l.31-2.57c.03-.22-.32-.22-.35,0h0Z"/><path class="cls-1" d="M41.37,35.21c-.72-.26-1.48.2-1.82.84-.37.68-.22,1.47.3,2.03s1.32.84,2.07.76c.43-.04.83-.19,1.09-.55.21-.29.28-.66.26-1.01-.08-1.02-.94-1.65-1.72-2.17-.19-.13-.36.18-.18.3.57.39,1.26.84,1.48,1.54.2.62,0,1.34-.7,1.5-1.12.27-2.84-.64-2.41-1.98.2-.62.87-1.16,1.53-.92.21.08.3-.26.09-.34h0Z"/><path class="cls-1" d="M42.77,36.13l2.09.6c.22.06.31-.28.09-.34l-2.09-.6c-.22-.06-.31.28-.09.34h0Z"/><path class="cls-1" d="M43.04,36.08c.93.46,1.96.64,2.99.52.15-.02.26-.24.09-.33-1-.51-2.24.29-2.39,1.36-.17,1.3,1.02,2.35,2.22,2.49.84.1,1.69-.16,2.42-.56.2-.11.02-.41-.18-.3-1.26.68-3.09.85-3.91-.58-.31-.55-.31-1.23.12-1.71.38-.42,1-.66,1.53-.39l.09-.33c-.97.12-1.94-.04-2.81-.47-.2-.1-.38.2-.18.3h0Z"/><path class="cls-1" d="M48.92,35.37v4.78c0,.23.35.23.35,0v-4.78c0-.23-.35-.23-.35,0h0Z"/><path class="cls-1" d="M47.6,37.93h2.09c.23,0,.23-.35,0-.35h-2.09c-.23,0-.23.35,0,.35h0Z"/><path class="cls-1" d="M52.58,38.43c.75-.25,1.79-.63,2.52-.11.45.32.79,1.1.29,1.52-.65.55-2.28.21-2.35,1.34,0,.06.04.13.09.15,1.26.62,2.66.89,4.05.77.22-.02.22-.37,0-.35-1.33.12-2.68-.12-3.88-.72l.09.15c.03-.43.54-.51.88-.59.44-.1.91-.17,1.28-.44.9-.66.28-2-.61-2.32-.8-.29-1.68-.01-2.45.24-.21.07-.12.41.09.34h0Z"/><path class="cls-1" d="M58.19,40.45v2.09c0,.23.35.23.35,0v-2.09c0-.23-.35-.23-.35,0h0Z"/><path class="cls-1" d="M59.56,38.23c.23,0,.23-.35,0-.35s-.23.35,0,.35h0Z"/><path class="cls-1" d="M59.61,41.19c.88,1.59.4,3.78-1.08,4.84l.24.06c-.28-.63-.34-1.33-.2-2,.05-.22-.29-.31-.34-.09-.16.77-.08,1.55.24,2.27.04.08.17.11.24.06,1.64-1.17,2.19-3.55,1.21-5.32-.11-.2-.41-.02-.3.18h0Z"/><path class="cls-1" d="M61.65,40.03c.23,0,.23-.35,0-.35s-.23.35,0,.35h0Z"/><path class="cls-1" d="M62.37,41.95v2h.35c-.02-.59.04-1.23.33-1.77s.84-.86,1.44-.64c.65.24,1.04.96,1.14,1.6.14.89-.04,1.79.03,2.68.02.22.37.22.35,0-.11-1.4.37-3-.72-4.14-.4-.42-.97-.66-1.55-.52-.49.13-.85.51-1.06.96-.26.56-.34,1.2-.32,1.82,0,.22.35.23.35,0v-2c0-.23-.35-.23-.35,0h0Z"/><path class="cls-1" d="M70.46,41.99c.47,1.51,1.28,2.88,2.36,4.03.08.08.22.06.27-.04.88-1.44,1.76-2.88,2.64-4.32.12-.19-.18-.37-.3-.18-.88,1.44-1.76,2.88-2.64,4.32l.27-.04c-1.04-1.11-1.81-2.43-2.27-3.88-.07-.21-.41-.12-.34.09h0Z"/><path class="cls-1" d="M79.47,42c-.94-.6-2.25-.25-2.85.67-.52.8-.49,1.95.05,2.73,1.2,1.73,4.19.81,4.24-1.28.03-1.11-.74-2.22-1.83-2.49-.22-.05-.31.28-.09.34.84.21,1.45.98,1.56,1.83s-.35,1.6-1.11,1.96c-.72.34-1.65.29-2.24-.27s-.74-1.49-.47-2.24c.36-1.01,1.64-1.53,2.57-.93.19.12.37-.18.18-.3h0Z"/><path class="cls-1" d="M83.95,43.11c-.73-.48-1.71-.34-2.39.17-.71.53-1.02,1.44-.64,2.27s1.29,1.36,2.17,1.27c1.04-.1,1.69-1.04,1.94-1.98.14-.54.25-1.23-.02-1.75-.25-.46-.91-.68-1.31-.29-.16.16.09.4.25.25.15-.14.36-.12.53-.02.2.11.29.33.33.55.07.42-.02.88-.14,1.29-.22.75-.75,1.54-1.6,1.61-.71.06-1.43-.36-1.78-.97-.36-.65-.17-1.39.37-1.86.57-.5,1.46-.66,2.11-.23.19.12.36-.18.18-.3h0Z"/><path class="cls-1" d="M86.3,45.24c0,.67,0,1.33,0,2,0,.23.35.23.35,0,0-1.26.02-2.53.02-3.79l-.18.18c.89-.01,1.77.2,2.55.63.2.11.37-.19.18-.3-.84-.46-1.77-.69-2.73-.67-.1,0-.17.08-.18.18,0,1.26-.02,2.53-.02,3.79h.35c0-.67,0-1.33,0-2,0-.23-.35-.23-.35,0h0Z"/><path class="cls-1" d="M19.6,41c-.5,1.79-1.01,3.58-1.51,5.38-.06.22.28.31.34.09.5-1.79,1.01-3.58,1.51-5.38.06-.22-.28-.31-.34-.09h0Z"/><path class="cls-1" d="M19.04,44.2c.86-.68,2.33-.28,2.63.8.15.51.04,1.08-.26,1.52s-.83.67-1.37.65c-.6-.03-1.17-.36-1.46-.89-.11-.2-.41-.02-.3.18.62,1.17,2.39,1.46,3.28.44.42-.49.59-1.15.49-1.79-.11-.66-.58-1.19-1.2-1.43-.69-.27-1.48-.17-2.06.29-.18.14.07.39.25.25h0Z"/><path class="cls-1" d="M22.78,46.62l3.28-.05c.11,0,.2-.11.17-.22-.12-.38-.25-.78-.54-1.06-.21-.21-.48-.34-.77-.4-.59-.12-1.26.06-1.68.5-.46.47-.57,1.19-.4,1.81.18.67.66,1.21,1.3,1.48.81.33,1.75.21,2.49-.22.19-.11.02-.42-.18-.3-1.06.62-2.62.47-3.17-.75-.23-.5-.24-1.11.07-1.58.27-.42.8-.63,1.29-.61.26.01.53.09.73.26.3.24.42.63.54.98l.17-.22-3.28.05c-.23,0-.23.35,0,.35h0Z"/><path class="cls-1" d="M28.5,46.37c-.23,1.51-.46,3.01-.69,4.52-.03.22.3.32.34.09.23-1.51.46-3.01.69-4.52.03-.22-.3-.32-.34-.09h0Z"/><path class="cls-1" d="M28.56,46.84c.72-.82,2.28-.67,2.67.41.18.5.11,1.08-.17,1.53s-.82.69-1.36.64c-.6-.05-1.16-.42-1.4-.98-.09-.21-.39-.03-.3.18.52,1.22,2.35,1.58,3.22.53.41-.5.56-1.18.42-1.81s-.66-1.14-1.3-1.31c-.71-.19-1.53,0-2.02.56-.15.17.1.42.25.25h0Z"/><path class="cls-1" d="M35.99,49.83c.23-.8-.58-1.55-1.36-1.5-.89.06-1.55.84-1.88,1.6s-.4,1.79.34,2.35c.61.47,1.5.41,2.14.05.92-.51,1.37-1.57,1.73-2.51l-.34-.09c-.29,1.3-.34,2.63-.14,3.94.03.22.37.13.34-.09-.19-1.25-.14-2.52.14-3.76.05-.22-.26-.3-.34-.09-.46,1.18-1.29,2.86-2.85,2.49-1.66-.4-.75-2.72.25-3.34.35-.21.75-.29,1.13-.09.35.18.62.54.5.95-.06.22.28.31.34.09h0Z"/><path class="cls-1" d="M40.98,52.14c0-.84-.84-1.44-1.64-1.38s-1.52.65-1.78,1.41.08,1.6.7,2.09,1.48.61,2.19.23c.8-.44,1.26-1.36,1.13-2.26-.03-.21-.33-.14-.34.05-.07.93-.09,1.86-.07,2.79,0,.08.05.14.13.17.29.11.58.21.87.32.21.08.3-.26.09-.34-.29-.11-.58-.21-.87-.32l.13.17c-.02-.93,0-1.86.07-2.79l-.34.05c.18,1.33-1.24,2.5-2.48,1.85-.56-.29-.98-.87-.95-1.52s.52-1.24,1.13-1.46c.68-.24,1.68.12,1.68.95,0,.23.35.23.35,0h0Z"/><path class="cls-1" d="M44.53,51.19c-.37,1.4-.45,2.85-.25,4.28.03.22.37.13.34-.09-.19-1.37-.1-2.76.25-4.09.06-.22-.28-.31-.34-.09h0Z"/><path class="cls-1" d="M49.07,55.23c-.47-.69-1.22-1.25-2.08-1.27-.73-.02-1.36.42-1.64,1.09-.29.71,0,1.45.69,1.77.37.17.79.23,1.19.26.47.04.95.05,1.41-.07.83-.22,1.58-1.11,1.14-1.98-.1-.2-.4-.02-.3.18.32.63-.3,1.28-.87,1.45-.38.11-.78.11-1.18.09-.33-.02-.67-.05-.99-.14-.6-.18-1.01-.66-.82-1.3.16-.54.64-.96,1.21-.99.78-.04,1.5.47,1.93,1.1.13.19.43.01.3-.18h0Z"/><path class="cls-1" d="M49.72,51.75c-.37,1.82-.32,3.69.16,5.48.06.22.4.13.34-.09-.46-1.73-.51-3.54-.16-5.29.04-.22-.29-.31-.34-.09h0Z"/><path class="cls-1" d="M51.45,56.41c1.5.26,3.04.13,4.47-.39.12-.04.18-.19.08-.29-.46-.46-1.06-.74-1.7-.81-.32-.04-.64-.02-.95.05-.14.03-.29.06-.4.17s-.2.24-.28.37c-.61,1.06-.2,2.46.94,2.94.61.25,1.32.22,1.9-.12.19-.11.02-.42-.18-.3-.54.32-1.23.31-1.77,0s-.85-.92-.82-1.56c.02-.32.12-.63.29-.89.09-.14.15-.21.31-.25.17-.05.35-.07.53-.08.7-.02,1.38.24,1.87.73l.08-.29c-1.37.5-2.85.64-4.28.39-.22-.04-.31.3-.09.34h0Z"/><path class="cls-1" d="M60.8,53.98l1.41,4.17c.04.13.26.19.32.04.52-1.21,1.05-2.43,1.57-3.64.09-.2-.21-.38-.3-.18-.52,1.21-1.05,2.43-1.57,3.64l.32.04-1.41-4.17c-.07-.21-.41-.12-.34.09h0Z"/><path class="cls-1" d="M64.77,56.9v1.2c0,.09.08.18.18.18s.18-.08.18-.18v-1.2c0-.09-.08-.18-.18-.18s-.18.08-.18.18h0Z"/><path class="cls-1" d="M65.22,56.37c.22-1.12,1.81-1.71,2.69-.96.17.15.42-.1.25-.25-1.07-.92-3-.29-3.28,1.11-.04.22.29.31.34.09h0Z"/><path class="cls-1" d="M72.26,56.16c-.8-.88-2.27-.75-3.1,0-.44.4-.67.98-.59,1.57.09.63.49,1.18,1.01,1.53.6.4,1.37.52,2.03.21.2-.1.03-.4-.18-.3-.99.47-2.24-.32-2.5-1.32s.66-1.84,1.61-1.94c.54-.06,1.08.09,1.45.5.15.17.4-.08.25-.25h0Z"/><path class="cls-1" d="M72.57,58.78l.95-1.98c.08-.17-.13-.37-.27-.21-.98,1.05-.91,2.86.16,3.83.17.15.42-.1.25-.25-.93-.84-1.01-2.42-.16-3.34l-.27-.21-.95,1.98c-.1.2.21.38.3.18h0Z"/><path class="cls-1" d="M78.84,57.36c-1.1-.89-3.14-.62-3.61.86s1.33,3.16,2.71,2.22c.81-.55,1.06-1.62,1.23-2.52l-.34-.05c0,1.66-.27,3.5-1.03,5-.28.56-.82,1.29-1.53,1.23-.57-.05-1.27-.72-.85-1.29.13-.18-.17-.36-.3-.18-.43.58-.02,1.3.53,1.62.69.4,1.45.11,1.95-.45.62-.69.91-1.66,1.14-2.55.29-1.11.43-2.25.44-3.39,0-.19-.31-.25-.34-.05-.15.81-.35,1.81-1.07,2.31-.77.53-1.69.04-2.08-.71s-.07-1.61.69-2c.7-.36,1.61-.31,2.22.19.17.14.42-.11.25-.25h0Z"/><path class="cls-1" d="M81.84,59.17c.45.32,1.05.5,1.59.33.44-.14.78-.53.86-.99.08-.52-.24-.93-.71-1.12-.44-.18-.95-.16-1.39.01-.85.34-1.5,1.21-1.53,2.13s.57,1.62,1.36,1.95c.86.36,1.92.26,2.62-.4.16-.15-.08-.4-.25-.25-.97.91-2.9.53-3.32-.78-.23-.74.13-1.52.69-2,.28-.24.63-.41,1-.44.39-.04.91.07,1.11.44s-.05.86-.39,1.04c-.48.25-1.06.05-1.47-.24-.18-.13-.36.17-.18.3h0Z"/><path class="cls-1" d="M85.16,59.03l.33,2.29.34-.09c-.41-1,.41-2.11,1.4-2.35,1.05-.25,1.91.62,2.14,1.58.13.55.07,1.14-.22,1.63-.11.19.19.37.3.18.59-1.01.37-2.42-.49-3.22-.43-.4-1.01-.62-1.6-.54s-1.15.43-1.52.91c-.42.54-.6,1.26-.33,1.91.09.21.37.13.34-.09l-.33-2.29c-.03-.22-.37-.13-.34.09h0Z"/><path class="cls-1" d="M10.76,62.41c-2.65,4.34-5.59,8.47-8.83,12.39-.1.12-.03.28.12.3,4.21.41,8.61-.34,12.3-2.46,1.65-.94,3.14-2.17,4.31-3.67.62-.8.99-1.7,1.54-2.53.39-.59.57-.3,1.27.01s1.39.62,2.09.91c10.54,4.48,21.79,7.25,33.2,8.2,17.87,1.49,41.4-1.42,48.46-20.89,3.23-8.9,2.18-19.16-2.18-27.49-4.5-8.59-12.15-15.19-20.72-19.54C72.36,2.6,61.14.64,50.07.16c-5.93-.26-11.93-.22-17.84.3-5.44.47-10.92,1.49-15.92,3.76-4.22,1.92-8.11,4.73-10.94,8.43C2.2,16.79.95,21.76.51,26.89c-.5,5.85-.8,11.98-.09,17.81.58,4.78,2.11,9.51,5.25,13.25,1.46,1.74,3.23,3.15,5.26,4.15.2.1.38-.2.18-.3C1.88,57.26.31,46.1.44,36.91c.07-4.97.08-10.11,1.13-14.98.97-4.51,3.14-8.52,6.46-11.74C15.15,3.28,25.19,1.19,34.77.62c10.19-.61,20.63-.36,30.66,1.68,17.1,3.47,34.81,13.85,39.92,31.59,2.38,8.25,1.83,17.57-2.5,25.1s-11.69,11.95-19.68,14.28c-8.39,2.45-17.29,2.68-25.95,1.99-10.15-.81-20.19-3.06-29.71-6.68-2.41-.91-4.78-1.92-7.11-3-.11-.05-.21,0-.26.1-2.83,7-11.07,9.75-18.09,9.06l.12.3c3.25-3.94,6.22-8.1,8.88-12.46.12-.19-.18-.37-.3-.18h0Z"/></g></svg>